<svg xmlns="http://www.w3.org/2000/svg" xmlns:xlink="http://www.w3.org/1999/xlink" width="384" height="285" viewBox="0 0 384 285">
  <defs>
    <path id="banking-insurance-a" d="M2.52069903,0.0524271845 C1.32081553,0.0524271845 0.344271845,1.01708738 0.328893204,2.21697087 L0.328893204,2.21697087 L0.326097087,2.45848544 C0.130019417,18.0873786 8.7696699,32.4891262 22.6516893,39.6716505 L22.6516893,39.6716505 L23.5667184,40.1452427 C27.7105631,42.0567379 29.5685825,45.673165 28.4864854,51.0990291 L28.4864854,51.0990291 L23.7610485,74.9016699 C22.7009709,80.2419029 24.6222524,85.7362718 28.7790291,89.2527379 L28.7790291,89.2527379 L48.8401165,89.1723495 L48.8072621,97.7697087 C48.8002718,99.9125825 50.5352621,101.653165 52.6774369,101.653165 L52.6774369,101.653165 L64.7094757,101.653165 C66.8481553,101.653165 68.5817476,99.9188738 68.5800013,97.7801942 L68.5800013,97.7801942 L68.556932,65.6283495 C68.5429515,49.2130485 58.9484272,34.3170874 44.0091262,27.514835 L44.0091262,27.514835 L31.0208155,21.6901748 C23.556932,18.3421748 18.7888544,10.8873786 18.8800777,2.70768932 L18.8800777,2.70768932 L18.8811262,2.56473786 C18.8968544,1.16318447 17.7986796,0.0524271845 16.4366214,0.0524271845 L16.4366214,0.0524271845 L2.52069903,0.0524271845 Z"/>
    <path id="banking-insurance-c" d="M2.52069903,0.0524271845 C1.32081553,0.0524271845 0.344271845,1.01708738 0.328893204,2.21697087 L0.328893204,2.21697087 L0.326097087,2.45848544 C0.130019417,18.0873786 8.7696699,32.4891262 22.6516893,39.6716505 L22.6516893,39.6716505 L23.5667184,40.1452427 C27.7105631,42.0567379 29.5685825,45.673165 28.4864854,51.0990291 L28.4864854,51.0990291 L23.7610485,74.9016699 C22.7009709,80.2419029 24.6222524,85.7362718 28.7790291,89.2527379 L28.7790291,89.2527379 L48.8401165,89.1723495 L48.8072621,97.7697087 C48.8002718,99.9125825 50.5352621,101.653165 52.6774369,101.653165 L52.6774369,101.653165 L64.7094757,101.653165 C66.8481553,101.653165 68.5817476,99.9188738 68.5800013,97.7801942 L68.5800013,97.7801942 L68.556932,65.6283495 C68.5429515,49.2130485 58.9484272,34.3170874 44.0091262,27.514835 L44.0091262,27.514835 L31.0208155,21.6901748 C23.556932,18.3421748 18.7888544,10.8873786 18.8800777,2.70768932 L18.8800777,2.70768932 L18.8811262,2.56473786 C18.8968544,1.16318447 17.7986796,0.0524271845 16.4366214,0.0524271845 L16.4366214,0.0524271845"/>
    <path id="banking-insurance-e" d="M2.52069903,0.0524271845 C1.32081553,0.0524271845 0.344271845,1.01708738 0.328893204,2.21697087 L0.328893204,2.21697087 L0.326097087,2.45848544 C0.130019417,18.0873786 8.7696699,32.4891262 22.6516893,39.6716505 L22.6516893,39.6716505 L23.5667184,40.1452427 C27.7105631,42.0567379 29.5685825,45.673165 28.4864854,51.0990291 L28.4864854,51.0990291 L23.7610485,74.9016699 C22.7009709,80.2419029 24.6222524,85.7362718 28.7790291,89.2527379 L28.7790291,89.2527379 L48.8401165,89.1723495 L48.8072621,97.7697087 C48.8002718,99.9125825 50.5352621,101.653165 52.6774369,101.653165 L52.6774369,101.653165 L64.7094757,101.653165 C66.8481553,101.653165 68.5817476,99.9188738 68.5800013,97.7801942 L68.5800013,97.7801942 L68.556932,65.6283495 C68.5429515,49.2130485 58.9484272,34.3170874 44.0091262,27.514835 L44.0091262,27.514835 L31.0208155,21.6901748 C23.556932,18.3421748 18.7888544,10.8873786 18.8800777,2.70768932 L18.8800777,2.70768932 L18.8811262,2.56473786 C18.8968544,1.16318447 17.7986796,0.0524271845 16.4366214,0.0524271845 L16.4366214,0.0524271845"/>
    <path id="banking-insurance-g" d="M2.52069903,0.0524271845 C1.32081553,0.0524271845 0.344271845,1.01708738 0.328893204,2.21697087 L0.328893204,2.21697087 L0.326097087,2.45848544 C0.130019417,18.0873786 8.7696699,32.4891262 22.6516893,39.6716505 L22.6516893,39.6716505 L23.5667184,40.1452427 C27.7105631,42.0567379 29.5685825,45.673165 28.4864854,51.0990291 L28.4864854,51.0990291 L23.7610485,74.9016699 C22.7009709,80.2419029 24.6222524,85.7362718 28.7790291,89.2527379 L28.7790291,89.2527379 L48.8401165,89.1723495 L48.8072621,97.7697087 C48.8002718,99.9125825 50.5352621,101.653165 52.6774369,101.653165 L52.6774369,101.653165 L64.7094757,101.653165 C66.8481553,101.653165 68.5817476,99.9188738 68.5800013,97.7801942 L68.5800013,97.7801942 L68.556932,65.6283495 C68.5429515,49.2130485 58.9484272,34.3170874 44.0091262,27.514835 L44.0091262,27.514835 L31.0208155,21.6901748 C23.556932,18.3421748 18.7888544,10.8873786 18.8800777,2.70768932 L18.8800777,2.70768932 L18.8811262,2.56473786 C18.8968544,1.16318447 17.7986796,0.0524271845 16.4366214,0.0524271845 L16.4366214,0.0524271845"/>
  </defs>
  <g fill="none" fill-rule="evenodd">
    <polygon points="0 0 384 0 384 285 0 285"/>
    <path fill="#0C266D" d="M212.264563,80.8578058 L212.264563,80.8578058 C211.303049,80.8578058 210.523981,81.6368738 210.523981,82.5983883 L210.523981,90.7357864 C212.44666,90.7357864 214.004796,89.1769515 214.004796,87.2546214 L214.004796,82.5983883 C214.004796,81.6368738 213.225728,80.8578058 212.264563,80.8578058"/>
    <path fill="#FFB280" d="M212.588493,89.6253437 C212.194241,88.7945476 211.361348,88.3426252 210.519717,88.3803728 L210.513076,82.3152466 L194.355367,82.2988194 L194.355367,99.172334 L207.345076,99.172334 L207.337386,96.8344311 C207.333542,95.6785864 207.948687,94.6094214 208.949348,94.0313243 L211.639911,92.477732 C212.632882,91.9045282 213.079911,90.6613049 212.588493,89.6253437"/>
    <polygon fill="#FFF" points="229.483 276.345 244.332 276.345 244.332 267.023 229.483 267.023"/>
    <polygon fill="#FFF" points="225.313 273.678 211.244 278.427 206.33 263.868 220.398 259.119"/>
    <path fill="#0C266D" d="M229.345375,267.830691 L244.55555,267.830691 C246.306617,267.830691 247.726695,266.410963 247.726695,264.659546 L247.726695,186.590924 L226.174229,186.590924 L226.174229,264.659546 C226.174229,266.410963 227.593608,267.830691 229.345375,267.830691"/>
    <path fill="#0C266D" d="M247.925639,183.274101 L247.925639,183.274101 C249.547386,189.554179 247.086105,196.167344 241.775231,199.890023 C238.332862,202.303072 234.344551,205.481907 230.630959,209.385635 C220.549911,220.867538 216.479464,236.809247 221.043076,251.798878 C221.261173,252.514683 223.985639,259.988703 223.985639,259.988703 C224.770299,261.863849 224.177173,263.877402 222.291192,264.635499 L208.528707,269.414412 C206.676629,270.158878 204.569755,269.273907 203.805017,267.429518 L199.856202,257.040548 C191.738726,236.326567 198.4896,216.637713 205.860862,204.30614 C205.875192,204.282373 205.860862,204.30614 205.875891,204.281324 C209.323503,198.587383 216.971581,186.784975 222.48692,182.882645 L245.313367,175.354101 L247.925639,183.274101 Z"/>
    <g transform="translate(191.36 96.961)">
      <mask id="banking-insurance-b" fill="#fff">
        <use xlink:href="#banking-insurance-a"/>
      </mask>
      <polygon fill="#FF9357" points="-45.114 111.602 73.982 108.891 71.437 -2.903 -47.658 -.192" mask="url(#banking-insurance-b)"/>
      <mask id="banking-insurance-d" fill="#fff">
        <use xlink:href="#banking-insurance-c"/>
      </mask>
      <path fill="#FF6700" d="M30.9033786,7.82300971 C38.2001942,25.5793981 29.7209709,45.8893398 11.9645825,53.1861553 C-5.79180583,60.4833204 -26.1020971,52.0040971 -33.3989126,34.2477087 C-40.6957282,16.4909709 -32.2168544,-3.81897087 -14.4601165,-11.1161359 C3.29662136,-18.4126019 23.6062136,-9.93372816 30.9033786,7.82300971" mask="url(#banking-insurance-d)"/>
      <mask id="banking-insurance-f" fill="#fff">
        <use xlink:href="#banking-insurance-e"/>
      </mask>
      <path fill="#FF6700" d="M100.163569,12.024 C107.460734,29.7803883 98.9815107,50.0903301 81.2247728,57.3871456 C63.468734,64.6843107 43.1584427,56.2050874 35.8616272,38.448699 C28.5644621,20.6923107 37.0436854,0.382019417 54.8004233,-6.91479612 C72.5571612,-14.2116117 92.8667534,-5.73273786 100.163569,12.024" mask="url(#banking-insurance-f)"/>
      <mask id="banking-insurance-h" fill="#fff">
        <use xlink:href="#banking-insurance-g"/>
      </mask>
      <path fill="#FF6700" d="M62.1101709,69.984035 C69.4073359,87.7407728 60.9281126,108.050715 43.1713748,115.34753 C25.4149864,122.644695 5.10504466,114.165472 -2.19212039,96.408734 C-9.48858641,78.6523456 -1.00971262,58.3424039 16.7470252,51.0452388 C34.5034136,43.7484233 54.8133553,52.2276466 62.1101709,69.984035" mask="url(#banking-insurance-h)"/>
    </g>
    <path fill="#0C266D" d="M194.369033,91.5814718 L194.369033,91.5814718 L194.369033,39.1616272 L190.666975,39.1616272 L190.666975,87.8794136 C190.666975,89.9240738 192.324373,91.5814718 194.369033,91.5814718"/>
    <path fill="#FFB280" d="M202.31605,82.6336893 L202.31605,92.1565631 C202.31605,93.3588932 203.290497,94.3333398 204.492827,94.3333398 C205.694808,94.3333398 206.669254,93.3588932 206.669254,92.1565631 L206.669254,82.6336893 C206.669254,81.4317087 205.694808,80.4565631 204.492827,80.4565631 C203.290497,80.4565631 202.31605,81.4317087 202.31605,82.6336893"/>
    <path fill="#FFB280" d="M206.170602 82.6019534L206.170602 91.7878951C206.170602 92.9724 207.130718 93.932866 208.315573 93.932866L208.378485 93.932866C209.56334 93.932866 210.523806 92.9724 210.523806 91.7878951L210.523806 82.6019534C210.523806 81.417099 209.56334 80.456633 208.378485 80.456633L208.315573 80.456633C207.130718 80.456633 206.170602 81.417099 206.170602 82.6019534M194.355367 82.6336893L194.355367 92.1565631C194.355367 93.3588932 195.329814 94.3333398 196.532144 94.3333398 197.734124 94.3333398 198.708571 93.3588932 198.708571 92.1565631L198.708571 82.6336893C198.708571 81.4317087 197.734124 80.4565631 196.532144 80.4565631 195.329814 80.4565631 194.355367 81.4317087 194.355367 82.6336893"/>
    <path fill="#FFB280" d="M198.209918,82.6336893 L198.209918,92.1565631 C198.209918,93.3588932 199.184365,94.3333398 200.386695,94.3333398 C201.588676,94.3333398 202.563122,93.3588932 202.563122,92.1565631 L202.563122,82.6336893 C202.563122,81.4317087 201.588676,80.4565631 200.386695,80.4565631 C199.184365,80.4565631 198.209918,81.4317087 198.209918,82.6336893"/>
    <path fill="#FF9357" d="M192.522478,67.8418951 L192.522478,5.17777864 C170.611759,20.115332 154.395682,42.0809243 146.514128,67.4029049 L146.382012,67.8279146 C150.740458,63.8528854 156.13172,60.9963029 162.103876,59.6926136 C162.140575,59.6842252 162.177973,59.6765359 162.214672,59.6681476 C162.650517,59.5748272 163.088808,59.4891961 163.530594,59.4123029 C163.67774,59.3867883 163.824885,59.3619728 163.972031,59.3382058 C164.305817,59.2847301 164.641002,59.235099 164.977584,59.1914097 C165.235876,59.1575068 165.494866,59.1264 165.754905,59.0984388 C165.982788,59.0739728 166.211371,59.0512544 166.441002,59.031332 C166.812186,58.9984777 167.185468,58.971565 167.559798,58.9512932 C167.68073,58.9446524 167.801662,58.9376621 167.922245,58.9324194 C168.40807,58.9107495 168.895643,58.898866 169.386361,58.897468 C169.398944,58.897468 169.411177,58.8967689 169.424109,58.8967689 L169.44473,58.8967689 L169.464652,58.8967689 C178.350012,58.8967689 186.440575,62.2881087 192.522478,67.8418951"/>
    <path fill="#FF6700" d="M146.284497 67.8784194L146.284497 67.8784194 146.32539 67.8784194C146.344264 67.8612932 146.363487 67.844866 146.382012 67.8277398L146.514128 67.4030796C154.395682 42.0807495 170.611759 20.1155068 192.522478 5.17760388 153.695254 5.21115728 120.473196 29.1564 106.765235 63.079235 111.630478 60.4176816 117.208381 58.8969437 123.144885 58.8969437 123.152575 58.8969437 123.160614 58.8972932 123.168303 58.8972932 123.174245 58.8972932 123.180186 58.8969437 123.185779 58.8969437 132.09106 58.8969437 140.197701 62.3029631 146.284497 67.8784194M238.653612 67.4029748C230.764718 42.0568777 214.526272 20.1293825 192.584097 5.1911301 192.584097 5.1911301 192.55334 5.17784854 192.522583 5.17784854L192.522583 67.841965C192.536214 67.8541981 192.550194 67.8660816 192.563476 67.8783146 192.570117 67.8846058 192.577107 67.8908971 192.584097 67.8964893 192.590738 67.8908971 192.598078 67.8846058 192.604369 67.8783146 198.691165 62.3028583 206.797806 58.8968388 215.703087 58.8968388L215.723709 58.8968388 215.743981 58.8968388C215.756563 58.8968388 215.769146 58.8975379 215.782078 58.8975379 216.272447 58.8989359 216.760019 58.9108194 217.245495 58.9324893 217.366777 58.937732 217.48701 58.9447223 217.607942 58.9510136 217.982621 58.971635 218.355903 58.9985476 218.727087 59.0314019 218.956718 59.0509748 219.184951 59.0740427 219.412835 59.0985087 219.672874 59.1264699 219.932214 59.1575767 220.190505 59.1914796 220.527437 59.2351689 220.862272 59.2844505 221.196058 59.3382757 221.343553 59.3620427 221.490699 59.3865087 221.637146 59.4123728 222.078932 59.4889165 222.517573 59.5748971 222.953068 59.6682175 222.990466 59.6766058 223.027165 59.6842951 223.064214 59.692334 229.036019 60.9963728 234.427282 63.8529553 238.786078 67.8279845L238.653612 67.4029748z"/>
    <path fill="#FF9357" d="M192.522478,5.17707961 C192.522478,5.17707961 192.512342,5.17218641 192.522478,5.17707961 C214.465002,20.1156816 230.764614,42.0571573 238.653507,67.4029049 L238.785973,67.8279146 C238.804497,67.8450408 238.82407,67.861468 238.842245,67.8785942 L238.883138,67.8785942 L238.883487,67.8785942 C244.970283,62.3027883 253.077274,58.8967689 261.982206,58.8967689 C261.988148,58.8967689 261.994089,58.8971184 261.999682,58.8971184 C262.00772,58.8971184 262.01506,58.8967689 262.023099,58.8967689 C267.959953,58.8967689 273.537856,60.4178563 278.403099,63.0790602 C264.689546,29.1439922 231.367876,5.19385631 192.522478,5.17707961"/>
    <path fill="#0C266D" d="M192.5,6 C191.119481,6 190,4.88051857 190,3.5 C190,2.11948143 191.119481,1 192.5,1 C193.880869,1 195,2.11948143 195,3.5 C195,4.88051857 193.880869,6 192.5,6 Z"/>
    <path fill="#0633EF" d="M258.451689,276.914295 L244.931417,272.341247 C242.994058,271.686256 240.995883,273.157363 241.045864,275.201674 C237.574485,273.263616 233.492854,272.727111 229.638408,273.702606 L229.482874,273.741751 L229.482874,281.305596 L237.308505,283.636509 L244.720311,283.636509 L261.602563,281.305596 C261.602563,279.317907 260.334874,277.551111 258.451689,276.914295"/>
    <path fill="#FFB280" d="M249.827487,118.258905 C246.093274,122.36605 239.737351,122.66873 235.630206,118.935216 C231.52306,115.201002 231.220381,108.84473 234.953895,104.737584 C238.687759,100.630439 245.044031,100.327759 249.151177,104.061623 C253.258322,107.795487 253.561351,114.151759 249.827487,118.258905"/>
    <path fill="#FFB280" d="M231.362948,106.621852 C231.108151,107.076221 231.535258,107.800066 232.317122,108.238008 C233.098986,108.676299 233.939219,108.663017 234.194016,108.208299 C234.448812,107.75393 234.021355,107.030085 233.239841,106.592144 C232.457977,106.153852 231.617744,106.167134 231.362948,106.621852"/>
    <path fill="#0C266D" d="M236.184117,108.808031 C236.022641,109.095682 236.125049,109.460225 236.413049,109.621701 C236.701049,109.782827 237.065243,109.680419 237.226718,109.392419 C237.388194,109.104419 237.285437,108.740225 236.997786,108.57875 C236.709786,108.417274 236.345592,108.520031 236.184117,108.808031"/>
    <path stroke="#0C266D" stroke-linecap="round" stroke-linejoin="round" stroke-width=".5" d="M235.733592,113.929223 C236.26835,114.518854 237.180583,114.563243 237.769864,114.028136"/>
    <path fill="#0C266D" d="M251.436827,104.925833 C251.501138,105.016357 251.570342,105.101289 251.632206,105.19461 C254.841449,110.021406 253.530419,116.536707 248.703973,119.746649 C248.56906,119.836124 248.43275,119.921056 248.29574,120.003891 C248.159779,120.08428 248.022769,120.162221 247.88506,120.236668 L247.88506,120.237017 C247.0284,120.701173 246.118614,121.051037 245.195895,121.271231 C244.630031,121.405445 244.059623,121.491425 243.492711,121.524979 L242.576983,121.542454 C242.57174,121.536862 242.562303,121.206571 242.550769,120.702221 C242.512322,118.980862 243.16941,117.350726 244.244517,116.006144 C244.590885,115.573095 244.799546,115.015969 244.791157,114.389289 C244.777876,113.375697 244.128478,112.447736 243.178497,112.09228 C242.321487,111.771076 241.449099,111.932901 240.798652,112.402998 L239.63407,110.60195 C238.551623,108.927775 238.477177,106.793639 239.440788,105.048163 L241.293216,101.690726 L251.436827,104.925833 Z"/>
    <path fill="#0633EF" d="M236.933336,102.770726 L250.391744,117.786221 L251.925414,116.411581 C256.071705,112.695542 256.420171,106.321095 252.703783,102.174804 C248.987394,98.0285126 242.613297,97.6796971 238.467006,101.396085 L236.933336,102.770726 Z"/>
    <path fill="#3B7CFF" d="M236.697134,103.227402 L249.948979,118.012567 C250.800047,118.962198 252.259619,119.041887 253.20925,118.190819 C254.158882,117.339402 254.238571,115.879829 253.387503,114.930198 L240.136008,100.145383 C239.28459,99.1957515 237.825017,99.1157126 236.875386,99.9671301 C235.925755,100.817849 235.845717,102.277771 236.697134,103.227402"/>
    <path fill="#FFB280" d="M242.305759,203.838454 L238.756788,206.414027 C237.732361,207.157095 237.411856,208.594299 238.124167,209.640746 C238.861293,210.722843 240.340788,210.975192 241.392827,210.211852 L244.171118,208.195852 C244.459118,207.986843 244.840089,208.287775 244.70308,208.616668 L241.291468,216.803348 C240.773138,217.925639 241.289371,219.216746 242.438575,219.672862 L242.4924,219.694183 C243.686691,220.168124 245.09139,219.606804 245.6244,218.45026 C246.418847,216.727852 247.412167,214.573794 247.412167,214.573794 L247.419507,219.939542 C247.420905,221.175076 248.427856,222.308202 249.662342,222.343503 C250.971274,222.38125 252.042885,221.33061 252.041138,220.030765 L252.034148,214.403231 L253.929216,219.222687 C254.406303,220.406493 255.752633,220.979348 256.936439,220.50226 C256.949021,220.495969 256.961604,220.489678 256.973837,220.483037 C258.132478,219.874183 258.602225,218.452707 258.112905,217.238843 L256.04972,212.001367 L257.651546,214.194221 C258.341138,215.290998 259.824128,215.657639 260.907973,214.947775 C261.958614,214.259231 262.268283,212.853134 261.596866,211.785017 L256.707856,203.93527 C255.914458,202.669328 255.51007,201.197872 255.545021,199.704396 L255.623662,198.61461 L244.304283,198.61461 L244.3284,199.776047 C244.359157,201.379619 243.603856,202.896513 242.305759,203.838454"/>
    <line x1="239.965" x2="239.965" y1="187.646" y2="162.782" stroke="#0C266D" stroke-linecap="round" stroke-linejoin="round" stroke-width=".5"/>
    <path fill="#0633EF" d="M225.282268,273.535538 L227.74355,281.347538 C228.248948,282.961946 222.529491,281.711383 220.837841,281.692509 L215.025414,284.466955 L198.935161,281.330062 L195.725569,281.388431 C195.725569,279.921518 196.627317,278.605596 197.994967,278.075383 L210.411122,273.265713 C212.07621,272.603383 213.880054,273.842761 213.859083,275.634373 C216.738384,272.84979 220.954928,271.954683 224.717103,273.328975 L225.282268,273.535538 Z"/>
    <path stroke="#FF9357" stroke-linecap="round" stroke-linejoin="round" stroke-width=".5" d="M194.683386 89.9905515C195.738221 91.0453864 197.444901 91.0453864 198.499736 89.9905515M198.499701 89.9905515C199.554536 91.0453864 201.261216 91.0453864 202.31605 89.9905515M202.31605 89.9905515C203.370885 91.0453864 205.077216 91.0453864 206.13205 89.9905515M206.13205 89.9905515C207.186885 91.0453864 208.893565 91.0453864 209.9484 89.9905515"/>
    <polygon fill="#FFF" points="173.087 277.91 186.827 277.91 186.827 267.047 173.087 267.047"/>
    <polygon fill="#0633EF" points="170.802 284.618 188.92 284.618 188.92 281.33 170.802 281.33"/>
    <path fill="#0C266D" d="M188.919821,281.329992 L170.918074,281.329992 C170.918074,276.47174 174.856753,272.53306 179.715006,272.53306 L180.123239,272.53306 C184.981142,272.53306 188.919821,276.47174 188.919821,281.329992"/>
    <path fill="#3B7CFF" d="M169.142889,270.066676 L186.481608,270.066676 C188.809025,270.066676 190.695355,268.180346 190.695355,265.852928 L190.695355,214.926559 L169.142889,214.926559 L169.142889,270.066676 Z"/>
    <path fill="#0633EF" d="M196.010109,175.354031 L140.078342,175.214225 L140.078342,162.195856 C140.078342,143.533526 155.20708,128.404788 173.86906,128.404788 C192.53139,128.404788 207.660128,143.533526 207.660128,162.195856 L196.010109,175.354031 Z"/>
    <path fill="#FFF" d="M214.452454,230.959981 L119.348843,230.959981 C112.866047,230.959981 107.610746,225.70468 107.610746,219.221883 L107.610746,170.239864 C107.610746,163.757767 112.866047,158.502117 119.348843,158.502117 L214.452454,158.502117 C220.93525,158.502117 226.190551,163.757767 226.190551,170.239864 L226.190551,219.221883 C226.190551,225.70468 220.93525,230.959981 214.452454,230.959981"/>
    <path fill="#FFB280" d="M135.0072 210.498699L120.378268 210.561984C118.962384 210.567903 117.809685 209.42534 117.803394 208.009806L117.762128 198.415981C117.75621 197.000097 118.898773 195.847398 120.314307 195.841107L134.943588 195.778168C136.359472 195.771903 137.511821 196.914816 137.518113 198.330699L137.559728 207.924524C137.565647 209.340058 136.423083 210.492408 135.0072 210.498699M133.577056 167.107689L133.576707 167.107689C132.212551 167.107689 131.106338 166.001476 131.106338 164.63732L131.106338 156.862019C131.106338 155.497515 132.212551 154.39165 133.576707 154.39165L133.577056 154.39165C134.941212 154.39165 136.047425 155.497515 136.047425 156.862019L136.047425 164.63732C136.047425 166.001476 134.941212 167.107689 133.577056 167.107689M138.518039 167.107689L138.518039 167.107689C137.153534 167.107689 136.04767 166.001476 136.04767 164.63732L136.04767 156.862019C136.04767 155.497515 137.153534 154.39165 138.518039 154.39165 139.882194 154.39165 140.988408 155.497515 140.988408 156.862019L140.988408 164.63732C140.988408 166.001476 139.882194 167.107689 138.518039 167.107689"/>
    <path fill="#FFB280" d="M143.431375 167.107689L143.431375 167.107689C142.067219 167.107689 140.961006 166.001476 140.961006 164.63732L140.961006 156.862019C140.961006 155.497515 142.067219 154.39165 143.431375 154.39165 144.79588 154.39165 145.902093 155.497515 145.902093 156.862019L145.902093 164.63732C145.902093 166.001476 144.79588 167.107689 143.431375 167.107689M148.372707 167.110066L148.372707 167.110066C147.008202 167.110066 145.902338 166.003852 145.902338 164.639697L145.902338 156.864396C145.902338 155.499891 147.008202 154.394027 148.372707 154.394027 149.736862 154.394027 150.843076 155.499891 150.843076 156.864396L150.843076 164.639697C150.843076 166.003852 149.736862 167.110066 148.372707 167.110066M155.661658 157.988225C155.661658 159.318827 154.583056 160.397429 153.252105 160.397429 151.921852 160.397429 150.84325 159.318827 150.84325 157.988225 150.84325 156.657623 151.921852 155.579021 153.252105 155.579021 154.583056 155.579021 155.661658 156.657623 155.661658 157.988225"/>
    <polygon fill="#FFB280" points="133.577 164.198 148.373 164.198 148.373 154.394 133.577 154.394"/>
    <path fill="#FFB280" d="M165.872656 116.568338C165.872656 117.663717 164.984889 118.551483 163.889511 118.551483 162.794132 118.551483 161.906365 117.663717 161.906365 116.568338 161.906365 115.472959 162.794132 114.585192 163.889511 114.585192 164.984889 114.585192 165.872656 115.472959 165.872656 116.568338M185.83186 116.568338C185.83186 117.663717 184.944093 118.551483 183.848715 118.551483 182.753336 118.551483 181.865569 117.663717 181.865569 116.568338 181.865569 115.472959 182.753336 114.585192 183.848715 114.585192 184.944093 114.585192 185.83186 115.472959 185.83186 116.568338"/>
    <path fill="#FFB280" d="M181.523674,116.093557 C177.600023,114.936315 174.70814,111.731965 173.870353,107.852353 C173.031868,111.731965 170.139984,114.936315 166.216334,116.093557 L163.889616,116.779654 C164.29645,118.566722 165.186664,120.26746 166.56515,121.67146 C170.526897,125.705557 177.008994,125.764625 181.043091,121.802878 C182.494625,120.377557 183.428528,118.625441 183.848645,116.779305 L181.523674,116.093557 Z"/>
    <path fill="#0C266D" d="M173.870214 107.852318C174.708 111.73193 177.600233 114.936629 181.523534 116.093522 182.828272 116.478338 184.147689 115.480823 184.098757 114.121561 184.008583 111.629522 183.013864 109.162649 181.106913 107.256396 177.165786 103.315969 170.698019 103.281367 166.713204 107.177406 164.760117 109.087153 163.734291 111.586183 163.640272 114.11492 163.589942 115.476979 164.90866 116.479037 166.216544 116.093522 170.139845 114.936629 173.032078 111.73193 173.870214 107.852318M171.045087 117.155767C171.18 117.47033 171.033903 117.834874 170.71899 117.969786 170.404427 118.105049 170.039883 117.958951 169.904971 117.644039 169.770058 117.329126 169.916155 116.964583 170.230718 116.82967 170.545631 116.695107 170.910175 116.841204 171.045087 117.155767M178.302617 117.155767C178.43753 117.47033 178.291783 117.834874 177.97652 117.969786 177.661957 118.105049 177.297414 117.958951 177.162501 117.644039 177.027938 117.329126 177.173685 116.964583 177.488598 116.82967 177.803161 116.695107 178.167705 116.841204 178.302617 117.155767"/>
    <path stroke="#0C266D" stroke-linecap="round" stroke-linejoin="round" stroke-width=".5" d="M175.001348,121.548606 C174.418008,122.21548 173.404765,122.283285 172.737542,121.699946"/>
    <path fill="#0C266D" d="M177.618617,99.4281437 C177.618617,101.498318 175.940249,103.176687 173.870074,103.176687 C171.799899,103.176687 170.12153,101.498318 170.12153,99.4281437 C170.12153,97.3576194 171.799899,95.6792505 173.870074,95.6792505 C175.940249,95.6792505 177.618617,97.3576194 177.618617,99.4281437"/>
    <path fill="#FF6700" d="M165.628625 118.745639C165.628625 119.305561 165.174955 119.758882 164.615732 119.758882 164.05581 119.758882 163.60214 119.305561 163.60214 118.745639 163.60214 118.186066 164.05581 117.732746 164.615732 117.732746 165.174955 117.732746 165.628625 118.186066 165.628625 118.745639M184.136155 118.745639C184.136155 119.305561 183.682485 119.758882 183.122913 119.758882 182.56334 119.758882 182.10967 119.305561 182.10967 118.745639 182.10967 118.186066 182.56334 117.732746 183.122913 117.732746 183.682485 117.732746 184.136155 118.186066 184.136155 118.745639"/>
    <polygon fill="#CCDEFF" points="107.611 186.643 226.19 186.643 226.19 172.969 107.611 172.969"/>
    <path fill="#FF6700" d="M147.039833,259.672742 L172.372299,259.672742 C173.520804,259.672742 174.451561,260.603499 174.451561,261.751305 C174.451561,262.89946 173.520804,263.830567 172.372299,263.830567 L147.039833,263.830567 C145.891678,263.830567 144.96127,262.89946 144.96127,261.751305 C144.96127,260.603499 145.891678,259.672742 147.039833,259.672742"/>
    <path fill="#FF9357" d="M147.039833 255.515091L172.372299 255.515091C173.520804 255.515091 174.451561 256.445849 174.451561 257.594004 174.451561 258.74181 173.520804 259.672917 172.372299 259.672917L147.039833 259.672917C145.891678 259.672917 144.96127 258.74181 144.96127 257.594004 144.96127 256.445849 145.891678 255.515091 147.039833 255.515091M147.039833 263.830392L172.372299 263.830392C173.520804 263.830392 174.451561 264.76115 174.451561 265.908955 174.451561 267.057111 173.520804 267.988217 172.372299 267.988217L147.039833 267.988217C145.891678 267.988217 144.96127 267.057111 144.96127 265.908955 144.96127 264.76115 145.891678 263.830392 147.039833 263.830392"/>
    <path fill="#FF6700" d="M147.039833,251.357406 L172.372299,251.357406 C173.520804,251.357406 174.451561,252.288163 174.451561,253.436318 C174.451561,254.584124 173.520804,255.515231 172.372299,255.515231 L147.039833,255.515231 C145.891678,255.515231 144.96127,254.584124 144.96127,253.436318 C144.96127,252.288163 145.891678,251.357406 147.039833,251.357406"/>
    <path fill="#FF9357" d="M147.039833,247.199755 L172.372299,247.199755 C173.520804,247.199755 174.451561,248.130513 174.451561,249.278668 C174.451561,250.426474 173.520804,251.357581 172.372299,251.357581 L147.039833,251.357581 C145.891678,251.357581 144.96127,250.426474 144.96127,249.278668 C144.96127,248.130513 145.891678,247.199755 147.039833,247.199755"/>
    <path fill="#FF6700" d="M147.039833,243.042105 L172.372299,243.042105 C173.520804,243.042105 174.451561,243.972862 174.451561,245.121017 C174.451561,246.269173 173.520804,247.19993 172.372299,247.19993 L147.039833,247.19993 C145.891678,247.19993 144.96127,246.269173 144.96127,245.121017 C144.96127,243.972862 145.891678,243.042105 147.039833,243.042105"/>
    <path fill="#FF9357" d="M147.039833,238.884804 L172.372299,238.884804 C173.520804,238.884804 174.451561,239.815212 174.451561,240.963367 C174.451561,242.111522 173.520804,243.04228 172.372299,243.04228 L147.039833,243.04228 C145.891678,243.04228 144.96127,242.111522 144.96127,240.963367 C144.96127,239.815212 145.891678,238.884804 147.039833,238.884804"/>
    <path fill="#FF6700" d="M147.039833 234.727153L172.372299 234.727153C173.520804 234.727153 174.451561 235.657561 174.451561 236.805717 174.451561 237.953872 173.520804 238.884979 172.372299 238.884979L147.039833 238.884979C145.891678 238.884979 144.96127 237.953872 144.96127 236.805717 144.96127 235.657561 145.891678 234.727153 147.039833 234.727153M147.039833 259.672742L172.372299 259.672742C173.520804 259.672742 174.451561 260.603499 174.451561 261.751305 174.451561 262.89946 173.520804 263.830567 172.372299 263.830567L147.039833 263.830567C145.891678 263.830567 144.96127 262.89946 144.96127 261.751305 144.96127 260.603499 145.891678 259.672742 147.039833 259.672742"/>
    <path fill="#FF9357" d="M147.039833 255.515091L172.372299 255.515091C173.520804 255.515091 174.451561 256.445849 174.451561 257.594004 174.451561 258.74181 173.520804 259.672917 172.372299 259.672917L147.039833 259.672917C145.891678 259.672917 144.96127 258.74181 144.96127 257.594004 144.96127 256.445849 145.891678 255.515091 147.039833 255.515091M147.039833 263.830392L172.372299 263.830392C173.520804 263.830392 174.451561 264.76115 174.451561 265.908955 174.451561 267.057111 173.520804 267.988217 172.372299 267.988217L147.039833 267.988217C145.891678 267.988217 144.96127 267.057111 144.96127 265.908955 144.96127 264.76115 145.891678 263.830392 147.039833 263.830392"/>
    <path fill="#FF6700" d="M147.039833,251.357406 L172.372299,251.357406 C173.520804,251.357406 174.451561,252.288163 174.451561,253.436318 C174.451561,254.584124 173.520804,255.515231 172.372299,255.515231 L147.039833,255.515231 C145.891678,255.515231 144.96127,254.584124 144.96127,253.436318 C144.96127,252.288163 145.891678,251.357406 147.039833,251.357406"/>
    <path fill="#FF9357" d="M147.039833,247.199755 L172.372299,247.199755 C173.520804,247.199755 174.451561,248.130513 174.451561,249.278668 C174.451561,250.426474 173.520804,251.357581 172.372299,251.357581 L147.039833,251.357581 C145.891678,251.357581 144.96127,250.426474 144.96127,249.278668 C144.96127,248.130513 145.891678,247.199755 147.039833,247.199755"/>
    <path fill="#FF6700" d="M147.039833,243.042105 L172.372299,243.042105 C173.520804,243.042105 174.451561,243.972862 174.451561,245.121017 C174.451561,246.269173 173.520804,247.19993 172.372299,247.19993 L147.039833,247.19993 C145.891678,247.19993 144.96127,246.269173 144.96127,245.121017 C144.96127,243.972862 145.891678,243.042105 147.039833,243.042105"/>
    <path fill="#FF9357" d="M147.039833,238.884804 L172.372299,238.884804 C173.520804,238.884804 174.451561,239.815212 174.451561,240.963367 C174.451561,242.111522 173.520804,243.04228 172.372299,243.04228 L147.039833,243.04228 C145.891678,243.04228 144.96127,242.111522 144.96127,240.963367 C144.96127,239.815212 145.891678,238.884804 147.039833,238.884804"/>
    <path fill="#FF6700" d="M147.039833,276.303344 L172.372299,276.303344 C173.520804,276.303344 174.451561,277.233751 174.451561,278.381907 C174.451561,279.530062 173.520804,280.460819 172.372299,280.460819 L147.039833,280.460819 C145.891678,280.460819 144.96127,279.530062 144.96127,278.381907 C144.96127,277.233751 145.891678,276.303344 147.039833,276.303344"/>
    <path fill="#FF9357" d="M147.039833 272.145693L172.372299 272.145693C173.520804 272.145693 174.451561 273.076101 174.451561 274.224256 174.451561 275.372412 173.520804 276.303518 172.372299 276.303518L147.039833 276.303518C145.891678 276.303518 144.96127 275.372412 144.96127 274.224256 144.96127 273.076101 145.891678 272.145693 147.039833 272.145693M147.039833 280.460645L172.372299 280.460645C173.520804 280.460645 174.451561 281.391402 174.451561 282.539557 174.451561 283.687713 173.520804 284.61847 172.372299 284.61847L147.039833 284.61847C145.891678 284.61847 144.96127 283.687713 144.96127 282.539557 144.96127 281.391402 145.891678 280.460645 147.039833 280.460645"/>
    <path fill="#FF6700" d="M147.039833,267.988043 L172.372299,267.988043 C173.520804,267.988043 174.451561,268.9188 174.451561,270.066606 C174.451561,271.214761 173.520804,272.145868 172.372299,272.145868 L147.039833,272.145868 C145.891678,272.145868 144.96127,271.214761 144.96127,270.066606 C144.96127,268.9188 145.891678,267.988043 147.039833,267.988043"/>
    <path fill="#FF9357" d="M147.039833,263.830392 L172.372299,263.830392 C173.520804,263.830392 174.451561,264.76115 174.451561,265.908955 C174.451561,267.057111 173.520804,267.988217 172.372299,267.988217 L147.039833,267.988217 C145.891678,267.988217 144.96127,267.057111 144.96127,265.908955 C144.96127,264.76115 145.891678,263.830392 147.039833,263.830392"/>
    <path fill="#FF6700" d="M147.039833,259.672742 L172.372299,259.672742 C173.520804,259.672742 174.451561,260.603499 174.451561,261.751305 C174.451561,262.89946 173.520804,263.830567 172.372299,263.830567 L147.039833,263.830567 C145.891678,263.830567 144.96127,262.89946 144.96127,261.751305 C144.96127,260.603499 145.891678,259.672742 147.039833,259.672742"/>
    <path fill="#FF9357" d="M147.039833,255.515091 L172.372299,255.515091 C173.520804,255.515091 174.451561,256.445849 174.451561,257.594004 C174.451561,258.74181 173.520804,259.672917 172.372299,259.672917 L147.039833,259.672917 C145.891678,259.672917 144.96127,258.74181 144.96127,257.594004 C144.96127,256.445849 145.891678,255.515091 147.039833,255.515091"/>
    <path fill="#FF6700" d="M147.039833,251.357406 L172.372299,251.357406 C173.520804,251.357406 174.451561,252.288163 174.451561,253.436318 C174.451561,254.584124 173.520804,255.515231 172.372299,255.515231 L147.039833,255.515231 C145.891678,255.515231 144.96127,254.584124 144.96127,253.436318 C144.96127,252.288163 145.891678,251.357406 147.039833,251.357406"/>
    <path fill="#FF6700" d="M147.223468,259.672392 L121.889953,259.672392 C120.741449,259.672392 119.810691,258.741635 119.810691,257.59348 C119.810691,256.445674 120.741449,255.514567 121.889953,255.514567 L147.223468,255.514567 C148.371623,255.514567 149.302381,256.445674 149.302381,257.59348 C149.302381,258.741635 148.371623,259.672392 147.223468,259.672392"/>
    <path fill="#FF9357" d="M147.223468 263.830043L121.889953 263.830043C120.741449 263.830043 119.810691 262.899635 119.810691 261.75148 119.810691 260.603324 120.741449 259.672217 121.889953 259.672217L147.223468 259.672217C148.371623 259.672217 149.302381 260.603324 149.302381 261.75148 149.302381 262.899635 148.371623 263.830043 147.223468 263.830043M147.223468 255.514742L121.889953 255.514742C120.741449 255.514742 119.810691 254.583984 119.810691 253.435829 119.810691 252.287674 120.741449 251.356917 121.889953 251.356917L147.223468 251.356917C148.371623 251.356917 149.302381 252.287674 149.302381 253.435829 149.302381 254.583984 148.371623 255.514742 147.223468 255.514742"/>
    <path fill="#FF6700" d="M147.223468 267.988043L121.889953 267.988043C120.741449 267.988043 119.810691 267.057285 119.810691 265.90913 119.810691 264.760975 120.741449 263.830217 121.889953 263.830217L147.223468 263.830217C148.371623 263.830217 149.302381 264.760975 149.302381 265.90913 149.302381 267.057285 148.371623 267.988043 147.223468 267.988043M172.372474 230.831289L147.040008 230.831289C145.891503 230.831289 144.961095 229.900532 144.961095 228.752726 144.961095 227.604571 145.891503 226.673464 147.040008 226.673464L172.372474 226.673464C173.520629 226.673464 174.451386 227.604571 174.451386 228.752726 174.451386 229.900532 173.520629 230.831289 172.372474 230.831289"/>
    <path fill="#FF9357" d="M172.372474,234.98894 L147.040008,234.98894 C145.891503,234.98894 144.961095,234.058183 144.961095,232.910377 C144.961095,231.762221 145.891503,230.831115 147.040008,230.831115 L172.372474,230.831115 C173.520629,230.831115 174.451386,231.762221 174.451386,232.910377 C174.451386,234.058183 173.520629,234.98894 172.372474,234.98894"/>
    <path fill="#FF6700" d="M147.039833,226.673639 L172.372299,226.673639 C173.520804,226.673639 174.451561,227.604396 174.451561,228.752551 C174.451561,229.900357 173.520804,230.831464 172.372299,230.831464 L147.039833,230.831464 C145.891678,230.831464 144.96127,229.900357 144.96127,228.752551 C144.96127,227.604396 145.891678,226.673639 147.039833,226.673639"/>
    <path fill="#FF9357" d="M147.039833 222.515988L172.372299 222.515988C173.520804 222.515988 174.451561 223.446746 174.451561 224.594901 174.451561 225.742707 173.520804 226.673814 172.372299 226.673814L147.039833 226.673814C145.891678 226.673814 144.96127 225.742707 144.96127 224.594901 144.96127 223.446746 145.891678 222.515988 147.039833 222.515988M147.223468 272.145693L121.889953 272.145693C120.741449 272.145693 119.810691 271.214936 119.810691 270.06713L119.810691 270.066781C119.810691 268.918975 120.741449 267.987868 121.889953 267.987868L147.223468 267.987868C148.371623 267.987868 149.302381 268.918975 149.302381 270.066781L149.302381 270.06713C149.302381 271.214936 148.371623 272.145693 147.223468 272.145693"/>
    <path fill="#FF6700" d="M147.223468,276.303693 L121.889953,276.303693 C120.741449,276.303693 119.810691,275.372936 119.810691,274.224781 C119.810691,273.076625 120.741449,272.145868 121.889953,272.145868 L147.223468,272.145868 C148.371623,272.145868 149.302381,273.076625 149.302381,274.224781 C149.302381,275.372936 148.371623,276.303693 147.223468,276.303693"/>
    <path fill="#FF9357" d="M147.223468,280.461344 L121.889953,280.461344 C120.741449,280.461344 119.810691,279.530586 119.810691,278.382431 C119.810691,277.234276 120.741449,276.303518 121.889953,276.303518 L147.223468,276.303518 C148.371623,276.303518 149.302381,277.234276 149.302381,278.382431 C149.302381,279.530586 148.371623,280.461344 147.223468,280.461344"/>
    <path fill="#FF6700" d="M147.223468,284.618994 L121.889953,284.618994 C120.741449,284.618994 119.810691,283.688237 119.810691,282.540431 C119.810691,281.392276 120.741449,280.461169 121.889953,280.461169 L147.223468,280.461169 C148.371623,280.461169 149.302381,281.392276 149.302381,282.540431 C149.302381,283.688237 148.371623,284.618994 147.223468,284.618994"/>
    <line x1="159.706" x2="159.706" y1="191.186" y2="188.476" stroke="#0C266D" stroke-linecap="round" stroke-linejoin="round" stroke-width=".5"/>
    <line x1="152.087" x2="150.245" y1="194.256" y2="192.414" stroke="#0C266D" stroke-linecap="round" stroke-linejoin="round" stroke-width=".5"/>
    <line x1="167.325" x2="169.168" y1="194.256" y2="192.414" stroke="#0C266D" stroke-linecap="round" stroke-linejoin="round" stroke-width=".5"/>
    <path fill="#FF6700" d="M173.087196,209.135103 C173.087196,216.525239 167.096167,222.515918 159.706381,222.515918 C152.315895,222.515918 146.325216,216.525239 146.325216,209.135103 C146.325216,201.744617 152.315895,195.753938 159.706381,195.753938 C167.096167,195.753938 173.087196,201.744617 173.087196,209.135103"/>
    <path fill="#FF9357" d="M169.168159,209.399616 C169.168159,214.625208 164.932043,218.861324 159.70645,218.861324 C154.480858,218.861324 150.244392,214.625208 150.244392,209.399616 C150.244392,204.174023 154.480858,199.937557 159.70645,199.937557 C164.932043,199.937557 169.168159,204.174023 169.168159,209.399616"/>
    <path fill="#FF6700" d="M162.625317,209.319087 C162.346054,209.005573 162.011918,208.775592 161.62186,208.631243 C161.231452,208.485495 160.731297,208.339748 160.118598,208.195049 C159.530016,208.065379 159.092074,207.932913 158.805472,207.799398 C158.51887,207.666233 158.375219,207.460718 158.375219,207.185301 C158.375219,206.910583 158.499996,206.688641 158.748501,206.520524 C158.996656,206.352757 159.381472,206.267825 159.9012,206.267825 C160.64252,206.267825 161.38454,206.478583 162.126559,206.898699 L162.699763,205.488058 C162.333122,205.258777 161.904268,205.082971 161.415297,204.960641 C161.218171,204.911709 161.018249,204.87466 160.817627,204.845301 L160.817627,203.80899 L159.230482,203.80899 L159.230482,204.81699 C158.787297,204.866272 158.390249,204.960641 158.048423,205.109184 C157.53953,205.331476 157.159608,205.63101 156.907957,206.009883 C156.654559,206.388058 156.528734,206.810971 156.528734,207.277573 C156.528734,207.81233 156.667841,208.240835 156.947802,208.562039 C157.227064,208.883243 157.5612,209.116718 157.951258,209.262117 C158.341317,209.406816 158.841821,209.552563 159.454171,209.697262 C159.851219,209.789534 160.166482,209.873417 160.399957,209.950311 C160.633433,210.026505 160.824617,210.127515 160.97386,210.253689 C161.122404,210.380563 161.19685,210.538893 161.19685,210.729379 C161.19685,210.989767 161.071025,211.198078 160.819025,211.35501 C160.565627,211.511592 160.176617,211.590233 159.648151,211.590233 C159.17421,211.590233 158.700617,211.513689 158.226676,211.360602 C157.752734,211.207515 157.343802,211.004796 156.999181,210.753146 L156.368307,212.151903 C156.727608,212.42767 157.203647,212.651359 157.796423,212.82332 C158.261627,212.957883 158.739763,213.038272 159.230482,213.067282 L159.230482,213.931981 L160.817627,213.931981 L160.817627,212.96033 C161.064384,212.906854 161.297161,212.839398 161.50687,212.748874 C162.019608,212.527631 162.403025,212.226699 162.659918,211.847825 C162.915414,211.46965 163.044384,211.050583 163.044384,210.592369 C163.044384,210.057262 162.904229,209.632602 162.625317,209.319087"/>
    <path fill="#FFB280" d="M166.873421,209.221468 L166.873421,209.221468 C165.84445,208.187604 165.848645,206.515177 166.882509,205.485856 L176.344917,196.070633 L180.071091,199.815682 L170.609033,209.230555 C169.574819,210.259876 167.902392,210.255682 166.873421,209.221468"/>
    <path fill="#FFB280" d="M187.368501,206.597383 C184.382948,209.568256 179.554054,209.556373 176.583181,206.57047 C173.611957,203.584917 173.623841,198.755674 176.609744,195.78445 C179.595647,192.813577 184.42419,192.82581 187.395414,195.811713 C190.366287,198.797266 190.354404,203.626159 187.368501,206.597383"/>
    <path fill="#0633EF" d="M204.08068,147.043002 C204.08068,147.043002 190.669806,149.394536 184.828718,152.665992 C188.534621,159.854109 189.451748,168.045682 187.395204,175.931779 C186.107243,180.86972 183.744175,185.343507 180.501728,189.094497 C180.418893,189.189915 180.322427,189.297216 180.217223,189.411856 C179.03132,190.698419 179.045301,192.684012 180.254971,193.947856 L189.655864,203.770963 C190.974583,205.149449 193.18701,205.13372 194.478466,203.72972 C197.760757,200.161177 200.534155,196.155041 202.746583,191.782264 C205.968757,185.41306 207.847398,178.597876 208.330777,171.526497 C208.797029,164.701177 207.89633,157.551507 205.755553,151.026769 C205.006893,148.745837 204.08068,147.043002 204.08068,147.043002"/>
    <line x1="117.772" x2="123.921" y1="200.286" y2="200.286" stroke="#0C266D" stroke-linecap="round" stroke-linejoin="round" stroke-width=".5"/>
    <line x1="131.391" x2="137.539" y1="200.286" y2="200.286" stroke="#0C266D" stroke-linecap="round" stroke-linejoin="round" stroke-width=".5"/>
    <line x1="117.772" x2="123.921" y1="206.054" y2="206.054" stroke="#0C266D" stroke-linecap="round" stroke-linejoin="round" stroke-width=".5"/>
    <line x1="131.391" x2="137.539" y1="206.054" y2="206.054" stroke="#0C266D" stroke-linecap="round" stroke-linejoin="round" stroke-width=".5"/>
    <polyline stroke="#0C266D" stroke-linecap="round" stroke-linejoin="round" stroke-width=".5" points="204.634 271.627 206.256 275.13 202.322 274.205"/>
    <polyline stroke="#0C266D" stroke-linecap="round" stroke-linejoin="round" stroke-width=".5" points="253.374 271.306 251.751 274.809 255.686 273.884"/>
    <path fill="#3B7CFF" d="M239.894318 281.305771C239.787717 280.37746 239.008649 279.653616 238.052027 279.653616L229.482979 279.653616 229.482979 281.305771C229.482979 283.176722 230.999522 284.692917 232.869775 284.692917L258.215173 284.692917C260.086124 284.692917 261.601969 283.176722 261.601969 281.305771L239.894318 281.305771zM227.738097 281.330342L227.742641 281.329992 227.218718 279.65372 219.173592 279.65372C218.208233 279.65372 217.423922 280.390148 217.328505 281.329992L195.725359 281.329992C195.725359 283.14607 197.197864 284.618225 199.013942 284.618225L225.321553 284.618225C227.03033 284.618225 228.248388 282.960827 227.738097 281.330342"/>
    <path fill="#0633EF" d="M237.268171 282.786419L232.421802 282.786419C231.924792 282.786419 231.521802 282.383429 231.521802 281.886419 231.521802 281.38941 231.924792 280.986419 232.421802 280.986419L237.268171 280.986419C237.765181 280.986419 238.168171 281.38941 238.168171 281.886419 238.168171 282.383429 237.765181 282.786419 237.268171 282.786419M224.714307 282.786419L219.868287 282.786419C219.371278 282.786419 218.968287 282.383429 218.968287 281.886419 218.968287 281.38941 219.371278 280.986419 219.868287 280.986419L224.714307 280.986419C225.211666 280.986419 225.614307 281.38941 225.614307 281.886419 225.614307 282.383429 225.211666 282.786419 224.714307 282.786419"/>
    <line x1="64" x2="320" y1="284.5" y2="284.5" stroke="#0C266D" stroke-linecap="round" stroke-linejoin="round" stroke-width=".5"/>
  </g>
</svg>
