<svg xmlns="http://www.w3.org/2000/svg" xmlns:xlink="http://www.w3.org/1999/xlink" width="384" height="287" viewBox="0 0 384 287">
  <defs>
    <path id="group-82-a" d="M16.7669857,2.71579081 L16.0740412,8.22851347 C15.3474231,15.7543455 17.6230238,22.3758605 21.6569509,27.4281078 L21.6569509,27.4281078 C19.1452298,26.5663899 16.76658,25.1626498 14.6991062,23.2002536 L14.6991062,23.2002536 C13.4089635,21.9105166 11.3366212,21.9474358 10.0939461,23.282206 L10.0939461,23.282206 L1.06822187,32.9753154 C-0.181350238,34.3165769 -0.142402536,36.474523 1.15341997,37.7703455 L1.15341997,37.7703455 C12.0230745,47.6034231 26.6759303,50.4802789 39.7477528,46.7843043 L39.7477528,46.7843043 L37.8969255,65.6820539 C37.4457813,70.2864025 39.0195119,74.8595119 42.2091664,78.2114485 L42.2091664,78.2114485 L75.7415151,78.0840571 L76.2478352,77.5136355 C79.349046,74.0172678 80.7576545,69.3358352 80.1012235,64.708767 L80.1012235,64.708767 L74.1779271,22.956019 C73.0695404,15.3494517 66.5474231,9.70812044 58.8605261,9.70812044 L58.8605261,9.70812044 C54.9539905,9.70812044 51.3464596,11.169065 48.5969952,13.6049192 L48.5969952,13.6049192 L46.1542441,15.1847353 C40.7510618,18.8498764 33.5493883,14.430935 34.37013,7.95344532 L34.37013,7.95344532 L34.9758479,3.5300412 C35.2172425,1.76806339 33.8516387,0.196767036 32.0730269,0.189870048 L32.0730269,0.189870048 L19.6965832,0.141591125 C19.6929319,0.141591125 19.6888748,0.141591125 19.6848177,0.141591125 L19.6848177,0.141591125 C18.2031823,0.141591125 16.952393,1.24429794 16.7669857,2.71579081 L16.7669857,2.71579081 Z"/>
  </defs>
  <g fill="none" fill-rule="evenodd">
    <g transform="translate(0 .76)">
      <polygon points="0 .241 384 .241 384 285.241 0 285.241"/>
      <path fill="#FFF" d="M200.60462,284.611395 L211.539999,284.611395 L211.539999,275.876156 L208.720347,275.876156 C204.238116,275.876156 200.60462,279.509652 200.60462,283.991478 L200.60462,284.611395 Z"/>
      <path fill="#FFF" d="M234.031729,224.320596 L252.812635,247.263227 C261.534892,257.918669 266.300711,271.264748 266.300711,285.034789 L210.517054,284.627055 L210.318258,224.320596 L234.031729,224.320596 Z"/>
      <path fill="#FFF" d="M231.055475,278.203322 L227.153808,273.461439 L260.004977,260.478872 C266.185085,258.03612 270.933865,252.937217 272.931152,246.59929 C273.411507,245.073027 275.007145,244.113128 276.546797,244.547639 C278.140001,244.997566 279.035393,246.670694 278.541649,248.238745 C275.970695,256.339867 269.891203,262.855087 261.986442,265.979017 L231.055475,278.203322 Z"/>
      <polygon fill="#FF6700" points="210.318 224.321 234.032 224.321 234.032 220.147 210.318 220.147"/>
      <path fill="#FFF" d="M206.407706,211.662917 L212.049848,220.147025 L229.194952,220.182727 L232.116435,217.463285 C234.651281,209.973561 230.634799,201.846879 223.144669,199.311627 C215.654945,196.776781 207.528264,200.793263 204.993012,208.283393 L206.407706,211.662917 Z"/>
      <path fill="#FFF" d="M200.09193,214.823361 L212.665547,219.079209 L216.976571,206.341282 L204.402954,202.085434 C200.88549,200.895095 197.069021,202.781218 195.878276,206.298683 C194.687937,209.816147 196.574466,213.632616 200.09193,214.823361"/>
      <path fill="#0C266D" d="M212.519047 203.215201C212.29104 203.487429 212.326337 203.893135 212.598971 204.121547 212.871199 204.349553 213.276904 204.313851 213.505316 204.041623 213.733322 203.769395 213.69762 203.363689 213.425392 203.135277 213.153164 202.907271 212.747053 202.942973 212.519047 203.215201M195.543204 201.612787C195.033638 203.118765 195.840991 204.753352 197.347375 205.262917 198.853758 205.772889 200.487939 204.96513 200.997911 203.458746 201.507476 201.952363 200.699717 200.318182 199.193739 199.808616 197.687356 199.298645 196.053175 200.106404 195.543204 201.612787"/>
      <path stroke="#0C266D" stroke-linecap="round" stroke-linejoin="round" stroke-width=".5" d="M235.605419,252.329308 C226.282718,253.29367 219.506629,261.632941 220.470991,270.955235 C220.673438,272.914386 221.202072,274.761562 221.996848,276.447267"/>
      <path fill="#0C266D" d="M227.691408,235.303929 L227.691408,235.303929 C234.280061,235.303929 239.153392,229.16926 237.662425,222.751003 L235.345848,212.77958 C234.518616,209.219517 231.346406,206.699276 227.691408,206.699276 C224.036004,206.699276 220.863795,209.219517 220.036562,212.77958 L217.72039,222.751003 C216.229018,229.16926 221.102349,235.303929 227.691408,235.303929"/>
      <path stroke="#0C266D" stroke-linecap="round" stroke-linejoin="round" stroke-width=".5" d="M222.013888 276.478669L222.013888 276.478669C218.032297 276.478669 214.8041 279.706865 214.8041 283.688456L214.8041 284.611436M221.736953 280.425978C221.238747 281.40535 220.957999 282.514143 220.957999 283.688659L220.957999 284.611233M218.798349 280.425978C218.300143 281.40535 218.019801 282.514143 218.019801 283.688659L218.019801 284.611233M207.931088 280.425978C207.432882 281.40535 207.152134 282.514143 207.152134 283.688659L207.152134 284.611233M204.992484 280.425978C204.494278 281.40535 204.21353 282.514143 204.21353 283.688659L204.21353 284.611233"/>
      <path fill="#FFF" d="M216.482584,220.140331 L202.31698,220.140331 C201.551009,220.140331 200.930685,219.519602 200.930685,218.754036 C200.930685,217.98847 201.551009,217.368147 202.31698,217.368147 L216.482584,217.368147 L216.482584,220.140331 Z"/>
      <path fill="#FF9357" d="M205.580473,223.056337 L205.580473,223.056337 C206.670197,223.056337 207.553012,222.173523 207.553012,221.084204 L207.553012,217.351716 L203.60834,215.990169 L203.60834,221.084204 C203.60834,222.173523 204.491154,223.056337 205.580473,223.056337"/>
      <path fill="#FFB280" d="M267.465126,222.706498 C261.83556,235.874878 258.735566,250.165845 258.599655,264.745268 L258.576124,267.28336 L240.493031,267.28336 L240.421221,258.70026 C240.319389,246.569268 241.613589,234.474789 244.357779,222.706498 L267.465126,222.706498 Z"/>
      <polygon fill="#FFF" points="240.493 275.292 258.588 275.292 258.588 267.283 253.292 267.283 245.178 267.283 240.493 267.283"/>
      <polygon fill="#FFB280" points="275.6 267.283 274.141 222.709 295.253 222.709 293.696 262.937 293.696 267.283"/>
      <polygon fill="#FFF" points="275.6 275.292 293.696 275.292 293.696 267.284 275.6 267.284"/>
      <path fill="#FF6700" d="M293.695308 280.792857L275.617488 282.786087 261.632423 280.86061 261.632423 280.85493C261.632423 279.135551 262.797609 277.634848 264.463435 277.208857L272.008335 275.279729C274.121653 274.739329 275.6041 272.84144 275.617488 270.660369L293.695308 270.692825 293.695308 280.792857zM258.551904 281.22826L240.474084 282.786168 223.697362 280.860691 223.697362 280.860285C223.763492 279.121838 225.002515 277.650345 226.704043 277.288051L236.830851 275.13335C238.944981 274.683017 240.461102 272.822048 240.474084 270.66045L258.551904 270.66045 258.551904 281.22826z"/>
      <path fill="#0633EF" d="M299.980209,184.277814 C299.980209,192.774093 293.092146,199.661751 284.595867,199.661751 C276.099588,199.661751 269.21193,192.774093 269.21193,184.277814 C269.21193,175.781535 276.099588,168.893472 284.595867,168.893472 C293.092146,168.893472 299.980209,175.781535 299.980209,184.277814"/>
      <path fill="#0C266D" d="M155.759546,184.904791 C155.759546,194.172316 148.246291,201.684759 138.979172,201.684759 C129.711648,201.684759 122.198798,194.172316 122.198798,184.904791 C122.198798,175.637267 129.711648,168.124417 138.979172,168.124417 C148.246291,168.124417 155.759546,175.637267 155.759546,184.904791"/>
      <path fill="#0633EF" d="M297.399356,167.266919 L296.582266,167.266919 L296.582266,166.524884 L271.736877,166.524884 C262.685999,177.149898 255.574798,189.798976 250.353372,203.261087 C247.892364,209.605911 245.904408,216.106931 244.365163,222.708972 L257.873524,222.708972 L267.470887,222.708972 C269.295343,218.443388 271.391216,214.295052 273.753232,210.293175 L274.141087,222.708972 L295.25277,222.708972 L295.651172,212.415825 C295.974113,204.071686 297.399356,167.266919 297.399356,167.266919"/>
      <line x1="241.471" x2="238.921" y1="75.184" y2="75.563" stroke="#0C266D" stroke-linecap="round" stroke-linejoin="round" stroke-width=".5"/>
      <line x1="245.429" x2="246.184" y1="71.777" y2="69.312" stroke="#0C266D" stroke-linecap="round" stroke-linejoin="round" stroke-width=".5"/>
      <line x1="242.178" x2="240.493" y1="72.001" y2="70.05" stroke="#0C266D" stroke-linecap="round" stroke-linejoin="round" stroke-width=".5"/>
      <path fill="#FFB280" d="M243.732181 75.0826574L243.732181 75.0826574C242.934159 76.0230821 242.913062 77.3963943 243.681468 78.3611613L249.086273 85.1477984C245.391921 85.0488063 242.127617 87.5369965 241.243585 91.1254593L241.14865 91.5116906C240.796093 92.9422073 240.852486 94.4433166 241.31215 95.8429997L241.801024 97.1221883 242.257443 98.3161788 254.018837 98.4155765 256.623871 91.4938396C257.53549 89.0498713 257.064467 86.3048697 255.390121 84.3047429L247.679693 75.0956399C246.652448 73.8683816 244.767541 73.862296 243.732181 75.0826574M120.539829 104.620513C122.421084 107.498181 121.572754 110.968177 124.721838 111.459081 124.807848 111.472469 124.895074 111.51588 124.981084 111.527239 127.654681 111.883448 130.462567 111.288279 132.896799 109.696697 138.28781 106.17193 139.800279 98.945103 136.275918 93.5544976 135.125338 91.7941426 133.590149 90.4277274 131.842777 89.5347702 131.76691 89.4962282 131.679683 89.4779715 131.60341 89.4410523 128.040507 87.7176165 126.033078 89.2479366 122.478694 91.5718162 119.713407 93.3800444 119.306485 94.1447987 118.739309 97.1539144 118.617192 97.8002029 118.03541 99.0274612 118.023645 99.6871379 118.007417 100.602409 116.060437 101.251537 116.26329 102.1591 116.560672 103.487784 119.750732 103.41354 120.539829 104.620513"/>
      <path fill="#FFB280" d="M139.943777,97.9776583 C140.084151,98.5444285 139.40784,99.2000482 138.432525,99.4414428 C137.458021,99.6832431 136.553704,99.4195347 136.41333,98.8527645 C136.27255,98.2855886 136.948861,97.6303746 137.923771,97.3885743 C138.899086,97.1471797 139.802997,97.4108881 139.943777,97.9776583"/>
      <path fill="#0C266D" d="M134.811038,97.4400177 C134.945326,97.7848672 134.774524,98.1731271 134.430081,98.3074155 C134.084825,98.441704 133.696565,98.2709021 133.562277,97.9260526 C133.428394,97.5812032 133.59879,97.1929433 133.94364,97.0586548 C134.288489,96.9243664 134.676749,97.0951683 134.811038,97.4400177"/>
      <path stroke="#0C266D" stroke-linecap="round" stroke-linejoin="round" stroke-width=".5" d="M130.818574,104.160322 C131.200748,105.099935 132.272621,105.552297 133.212235,105.169717"/>
      <path fill="#FF6700" d="M118.087381 92.0172805C118.314171 91.7718288 118.54948 91.5377369 118.791686 91.3162219 118.792903 91.3150048 118.79412 91.3137876 118.795743 91.3125705 118.911774 91.20587 119.03024 91.1028209 119.149923 91.0018003 119.160066 90.9932805 119.169803 90.9851664 119.179945 90.9766466 119.926849 90.3510491 120.735014 89.8329635 121.584155 89.4232013 121.584966 89.4227956 121.585372 89.4223899 121.586183 89.4223899 124.863876 87.8413566 128.745663 87.8734073 132.016459 89.5643867 132.039178 89.8207924 132.085023 90.2804564 132.141822 90.8366783 132.457866 93.9224723 131.370576 96.9871696 129.178145 99.1820349L127.076592 101.286022C126.580009 100.629997 125.704497 100.297319 124.824928 100.601597 124.099527 100.852323 123.566025 101.531068 123.504358 102.295823 123.454456 102.908437 123.667045 103.44478 124.029746 103.831823 124.852922 104.709363 125.426995 105.786916 125.482576 106.989021 125.50205 107.4142 125.496776 107.895366 125.459045 108.442662 125.459045 108.442662 125.184383 111.534136 125.154766 111.556856L124.152674 111.376723C122.530259 111.017674 120.942329 110.255759 119.556846 109.190377L119.557251 109.190377C119.418906 109.084082 119.282183 108.974948 119.147489 108.862162 119.011172 108.747347 118.876478 108.630504 118.744218 108.508387 114.009232 104.135696 113.715502 96.7526719 118.087381 92.0172805M111.667623 116.067811C112.386533 118.75358 115.146952 120.348001 117.83272 119.628686 120.518489 118.909776 122.11291 116.149764 121.393595 113.463995 120.674685 110.777821 117.914267 109.183805 115.228498 109.902714 112.54273 110.621624 110.948714 113.382042 111.667623 116.067811"/>
      <path fill="#0C266D" d="M117.643864,107.34454 C112.767693,102.911399 112.408238,95.3648761 116.841379,90.4887049 C121.27452,85.6125338 128.821043,85.2534846 133.696809,89.68622 L117.643864,107.34454 Z"/>
      <path fill="#0C266D" d="M139.179915,83.6105813 L131.175757,92.4695607 L129.174413,90.6609268 L137.17776,81.8019474 C137.677589,81.2493769 138.530381,81.2063721 139.083357,81.7057952 C139.635928,82.2052184 139.678932,83.0580108 139.179915,83.6105813"/>
      <path fill="#FF6700" d="M114.657712,103.118106 L116.027372,101.63363 C116.598605,101.01493 117.587715,101.053472 118.109046,101.714771 C118.524082,102.24016 118.497712,102.988686 118.046973,103.484052 L116.090257,105.635507 L115.895518,105.368147 C115.398124,104.670334 114.982681,103.91126 114.657712,103.118106"/>
      <polygon fill="#FF6700" points="92.449 240.765 90.742 259.07 102.987 254.228 97.013 239.121"/>
      <path fill="#3B7CFF" d="M84.4683334,243.630015 C82.3103873,244.385843 80.9058358,246.470357 81.0157819,248.754072 L81.1865838,252.266668 C81.275839,254.107352 82.6471227,255.631587 84.4683334,255.914769 C82.6503683,256.581748 81.4762574,258.352246 81.5695696,260.286648 L82.3456837,276.402477 C82.4462986,278.504436 84.2318073,280.126851 86.3337661,280.026236 L84.4683334,243.630015 Z"/>
      <path fill="#0633EF" d="M84.4683334,243.630015 L86.3337661,280.026236 C89.5457344,279.872474 92.3191353,277.727916 93.2753826,274.657945 L98.0338992,259.57423 C99.0112431,256.475048 96.6106853,253.347466 93.364232,253.49068 L93.556942,252.802604 C94.6815569,248.790585 94.2872114,244.504309 92.448961,240.764924 L84.4683334,243.630015 Z"/>
      <polygon fill="#FF6700" points="162.341 273.03 178.777 273.03 178.777 263.938 162.341 263.938"/>
      <path fill="#0C266D" d="M152.60462,162.572584 L125.236557,165.980508 L125.864183,189.083393 C126.204164,210.382917 117.905057,228.401909 97.6477895,234.992997 L97.6477895,234.992997 C96.1969876,235.464832 95.4038339,237.023551 95.8756691,238.473947 L101.294268,255.127741 C101.766103,256.578138 103.324823,257.371697 104.775219,256.899862 L104.775219,256.899862 C133.948671,247.407577 153.521108,220.00016 153.031828,189.325193 L152.60462,162.572584 Z"/>
      <path fill="#0C266D" d="M148.569354,168.931527 L150.47698,170.889866 C170.636067,191.582861 181.814463,218.639749 181.940638,247.046418 L181.993407,260.920725 C182.001494,263.108288 180.227345,264.88406 178.040188,264.877586 L162.237158,264.831724 C160.021601,264.825232 158.246235,262.993879 158.308714,260.778728 L158.344416,259.521042 C159.184631,227.885365 147.562799,205.591457 129.184758,186.415394 C125.697722,182.777029 135.24072,171.927255 135.24072,171.927255 L148.569354,168.931527 Z"/>
      <path fill="#3B7CFF" d="M166.055087,284.643081 L170.246022,284.643081 C172.100906,284.643081 173.61581,283.16104 173.655975,281.306561 C173.636501,283.143594 175.119759,284.643081 176.956387,284.643081 L195.717819,284.643081 C197.769471,284.643081 199.432456,282.980095 199.432456,280.928849 L162.341261,280.928849 C162.341261,282.980095 164.003842,284.643081 166.055087,284.643081"/>
      <path fill="#0633EF" d="M162.34114,280.928728 L199.432335,280.928728 C199.432335,278.598763 198.078091,276.480576 195.963149,275.50242 L181.00642,268.583929 C178.034629,267.487713 174.877026,269.679333 174.86526,272.84708 L174.407625,272.649501 C170.554642,270.982458 166.18114,270.999092 162.34114,272.695346 L162.34114,280.928728 Z"/>
      <path stroke="#3B7CFF" stroke-linecap="round" stroke-linejoin="round" stroke-width=".5" d="M189.8142,272.601506 C189.413363,272.966641 187.844906,274.730242 187.844906,274.730242 L187.556044,271.618077 L184.890967,273.737075 L185.058523,270.660612"/>
      <polyline stroke="#3B7CFF" stroke-linecap="round" stroke-linejoin="round" stroke-width=".5" points="95.127 268.402 92.891 266.164 95.986 265.733 93.86 263.463 96.829 263.194"/>
      <path fill="#3B7CFF" d="M125.479817,174.93349 L125.479817,174.93349 L154.230524,174.93349 L154.572939,174.299372 C156.432692,170.851689 156.904933,166.823848 155.892293,163.039429 L145.814575,125.374162 C144.13739,119.886187 139.07216,116.137876 133.333459,116.137876 C126.204001,116.137876 120.393897,121.859132 120.284356,128.987778 L120.838955,164.127125 C120.903057,168.199594 122.570911,172.082599 125.479817,174.93349"/>
      <path fill="#0C266D" d="M118.802315,89.6248368 C118.802315,90.2277147 118.31344,90.7165895 117.710562,90.7165895 C117.107684,90.7165895 116.61881,90.2277147 116.61881,89.6248368 C116.61881,89.0219588 117.107684,88.533084 117.710562,88.533084 C118.31344,88.533084 118.802315,89.0219588 118.802315,89.6248368"/>
      <path fill="#FFB280" d="M233.008743,131.928938 L228.239272,131.928938 L228.239272,112.967493 C230.873516,112.967493 233.008743,115.102719 233.008743,117.736964 L233.008743,131.928938 Z"/>
      <path fill="#FF9357" d="M261.632342 280.860204L285.116184 280.809491 293.695227 280.792857 293.695227 280.852496C293.695227 282.930924 292.011144 284.615412 289.933122 284.616223L265.396881 284.623526C263.318048 284.624337 261.632342 282.939443 261.632342 280.86061L261.632342 280.860204zM223.697321 280.860204L258.56444 280.792857 258.56444 282.378759C258.56444 283.558955 257.64998 284.57119 256.471001 284.611355 255.786576 284.634886 235.905397 284.621903 227.447255 284.615817 225.374506 284.614195 223.697321 282.933358 223.697321 280.86061L223.697321 280.860204z"/>
      <path fill="#FFB280" d="M290.862512,94.9743036 C288.810455,101.072053 282.203951,104.351774 276.106201,102.299717 C270.008451,100.248066 266.72873,93.6411563 268.780382,87.5434067 C270.832439,81.4456571 277.438943,78.165936 283.536692,80.2175873 C289.634848,82.2700501 292.914569,88.876554 290.862512,94.9743036"/>
      <path fill="#FFB280" d="M266.481372,88.9663772 C266.288256,89.5388273 266.930487,90.2715309 267.915134,90.6029921 C268.899375,90.9340475 269.853999,90.7384976 270.046304,90.1660475 C270.239014,89.5935975 269.597188,88.8608938 268.612541,88.5298384 C267.627895,88.1983772 266.674082,88.3939271 266.481372,88.9663772"/>
      <path fill="#0C266D" d="M271.451667,88.4047594 C271.329549,88.7674599 271.525099,89.1601826 271.887394,89.2822998 C272.250094,89.4044171 272.643223,89.2092729 272.764934,88.8465724 C272.887052,88.4838719 272.692313,88.0911493 272.329613,87.969032 C271.966912,87.8469147 271.573784,88.042059 271.451667,88.4047594"/>
      <path fill="#FF6700" d="M276.683438,92.0638555 L276.683438,92.0638555 C277.092389,91.6800583 277.163793,91.0581122 276.849777,90.5935797 C275.018018,87.8842802 272.36714,83.6353293 271.999977,81.4457382 L272.000383,81.4457382 L271.989835,81.4120647 C270.753651,77.5663848 272.803679,73.3575987 276.65585,72.140483 C281.832243,70.5046796 286.624434,74.4818079 286.39237,79.4922675 L286.365188,80.0712089 C286.475945,80.1377445 286.588732,80.1957604 286.697866,80.2655417 C292.351369,83.8957921 293.992041,91.4220298 290.362602,97.0763436 C290.261175,97.2341629 290.155692,97.3879252 290.04818,97.5392532 C289.941885,97.6885528 289.832751,97.8346067 289.721587,97.9778206 C289.028237,98.8695607 288.225346,99.6643372 287.347806,100.327665 C286.810247,100.733776 286.244288,101.090391 285.658449,101.389802 L284.694088,101.834455 C284.68638,101.831209 284.530589,101.502182 284.294063,100.994645 C283.443705,99.1689712 283.38082,97.1152913 283.891603,95.1675005 C283.92122,95.0530916 283.965847,94.8672786 284.018995,94.639678 C284.379667,93.0959696 283.409625,91.553884 281.86186,91.2110631 C280.326266,90.8714878 278.805682,91.8407176 278.466107,93.3759062 L277.840915,96.2016431 L276.40269,102.699012 C275.784801,105.488642 273.109987,107.414119 270.294392,106.928895 C267.288522,106.410404 265.357365,103.496223 266.008522,100.55202 L268.190811,90.6946003 L275.65457,92.3462263 C276.02295,92.4277731 276.407965,92.3222897 276.683438,92.0638555"/>
      <path stroke="#0C266D" stroke-linecap="round" stroke-linejoin="round" stroke-width=".5" d="M270.605771,94.1858561 C270.66825,94.2945851 270.744928,94.3915487 270.824446,94.4824266 C270.906399,94.5765502 270.991597,94.6666168 271.087749,94.7404552 C271.186335,94.8159163 271.290602,94.8832634 271.400953,94.9376279 C271.511305,94.9919924 271.629771,95.0289116 271.748643,95.0605566 C271.867109,95.0922016 271.989226,95.1088355 272.11256,95.1169496 C272.234678,95.1250637 272.357606,95.1274979 272.480129,95.1112697 C272.601029,95.0958529 272.721524,95.0674536 272.839178,95.0272887 C272.953587,94.988341 273.068808,94.9424964 273.177942,94.8800177"/>
      <path fill="#FF6700" d="M300.714739,93.7102479 L297.005781,93.7958517 C295.264494,93.8360165 293.820995,92.4574301 293.780425,90.7161433 C293.74026,88.9752621 295.119252,87.5313572 296.860133,87.4907867 L300.56909,87.4051829 C302.310377,87.3650181 303.753876,88.7436044 303.794447,90.4848913 C303.834206,92.2257724 302.45562,93.670083 300.714739,93.7102479"/>
      <line x1="234.942" x2="236.544" y1="271.288" y2="275.262" stroke="#0C266D" stroke-linecap="round" stroke-linejoin="round" stroke-width=".5"/>
      <line x1="232.491" x2="236.544" y1="273.371" y2="275.262" stroke="#0C266D" stroke-linecap="round" stroke-linejoin="round" stroke-width=".5"/>
      <line x1="64" x2="320" y1="284.741" y2="284.741" stroke="#0C266D" stroke-linecap="round" stroke-linejoin="round" stroke-width=".5"/>
    </g>
    <g transform="translate(222.008 98.97)">
      <mask id="group-82-b" fill="#fff">
        <use xlink:href="#group-82-a"/>
      </mask>
      <polygon fill="#FFF" points="-6.234 86.918 112.712 86.918 112.712 -20.911 -6.234 -20.911" mask="url(#group-82-b)"/>
      <path fill="#CCDEFF" d="M43.4615784 58.0822618C42.3759113 73.8869147 54.3077021 87.5790605 70.1119493 88.664322 85.9170079 89.7503949 99.6091537 77.8181984 100.694415 62.0135455 101.780082 46.2092983 89.8482916 32.5171525 74.0440444 31.4314853 58.2393914 30.3458181 44.5472456 42.2776089 43.4615784 58.0822618M-13.9857141 57.1181033C-15.071787 72.9227563-3.13959049 86.6149021 12.6646567 87.7005693 28.4693097 88.7862365 42.1614555 76.8544456 43.2471227 61.0497927 44.3327899 45.2451398 32.400999 31.552994 16.5967518 30.4673268.792098891 29.3816596-12.9000469 41.3134504-13.9857141 57.1181033" mask="url(#group-82-b)"/>
      <path fill="#CCDEFF" d="M16.862935,1.93845959 C12.28658,17.1045325 20.8713027,33.1096038 36.0377813,37.6855531 C51.2034485,42.2623138 67.2085198,33.6771854 71.7848748,18.5111125 C76.3612298,3.34463391 67.7765071,-12.659626 52.6100285,-17.2363867 C37.4435499,-21.8127417 21.43929,-13.228019 16.862935,1.93845959" mask="url(#group-82-b)"/>
    </g>
    <g transform="translate(128.696 30)">
      <path stroke="#0C266D" stroke-linecap="round" stroke-linejoin="round" stroke-width=".5" d="M148.099854,105.11218 C146.447823,105.817296 144.728444,106.364592 142.966466,106.743521 C137.695138,107.877061 132.040824,107.502595 126.661984,105.339375 C119.817331,102.586665 114.655544,97.4346143 111.75678,91.2415239"/>
      <path fill="#FF9357" d="M93.9231544,111.051177 L40.3546472,111.051177 C37.1649927,111.051177 34.5790276,108.465212 34.5790276,105.275152 L34.5790276,62.1973705 C34.5790276,59.007716 37.1649927,56.4217509 40.3546472,56.4217509 L93.9231544,56.4217509 C97.1128089,56.4217509 99.6991797,59.007716 99.6991797,62.1973705 L99.6991797,105.275152 C99.6991797,108.465212 97.1128089,111.051177 93.9231544,111.051177"/>
      <path fill="#FFB280" d="M100.694577,89.4624254 L95.3875474,89.4624254 C93.8065141,89.4624254 92.525297,88.1808025 92.525297,86.600175 C92.525297,85.0191417 93.8065141,83.7379246 95.3875474,83.7379246 L99.6993826,83.7379246 L100.694577,89.4624254 Z"/>
      <polygon fill="#FF6700" points="76.937 78.59 75.398 75.885 72.03 75.757 70.627 73.069 67.139 72.933 76.672 56.422 89.737 56.422"/>
      <path fill="#FFB280" d="M85.3423265,111.051177 L65.8262821,111.044686 L69.4881775,105.826505 C70.2890396,104.684851 70.0131601,103.110309 68.8715055,102.309447 C67.7302567,101.508179 66.1557147,101.784058 65.3544469,102.925713 L59.5711189,111.167615 L59.386523,111.169643 L59.438859,111.355456 L59.386523,111.430512 L59.4782124,111.494613 L62.8167607,123.351754 L63.402599,122.714797 C66.8048431,119.016388 71.5564628,117.013421 76.5794992,116.869396 L85.4875689,116.61299 C86.9927353,116.553352 88.1769889,115.306214 88.1593371,113.79983 L88.1593371,113.635519 C88.1404754,112.098302 86.8791379,111.032109 85.3423265,111.051177"/>
      <polyline stroke="#0C266D" stroke-linecap="round" stroke-linejoin="round" stroke-width=".5" points="49.626 20.677 56.022 22.721 49.796 25.657"/>
      <path stroke="#0C266D" stroke-linecap="round" stroke-linejoin="round" stroke-width=".5" d="M108.647414 21.4778726C108.807668 33.3114827 99.3437819 43.0346143 87.5097661 43.1944621 75.6761559 43.35431 65.9534301 33.8908298 65.7935823 22.0568139 65.6337344 10.2232038 75.0972146.500477971 86.9312304.340224406 98.7648406.180376545 108.487566 9.64426244 108.647414 21.4778726zM68.6129496 82.8988044C64.8776216 84.5354193 60.7597135 85.4669185 56.4251588 85.5220945 39.0877515 85.7444209 24.8527721 71.8693021 24.6308513 54.5318948 24.4085249 37.1940818 38.2836437 22.9595081 55.6214567 22.7371816"/>
      <polygon fill="#FFE4D2" points="43.188 103.906 58.85 103.906 58.85 100.04 43.188 100.04"/>
      <path fill="#3B7CFF" d="M63.522201,123.499471 L60.1122485,111.955535 C59.5410155,110.021944 57.5603626,108.870958 55.5967493,109.328188 C54.7378713,109.5282 53.9037414,109.707522 53.3389997,109.794343 C41.5905876,111.597297 29.8937002,107.737012 21.5471265,99.8533477 C19.5510567,97.9680355 17.7464799,95.8522827 16.1788349,93.5288089 C15.4104292,92.3904 14.5162548,91.3651829 13.5287683,90.4531575 C9.12118669,94.0485173 4.57160824,97.4860577 0.331582884,101.253436 C0.899570206,102.257151 1.44889509,103.267763 1.97874612,104.283649 C3.07577306,106.386419 4.0876019,108.52692 5.07589984,110.678375 C6.28327861,111.600948 7.44359556,112.59736 8.49193788,113.677753 C9.43398542,114.648606 10.3224799,115.668955 11.2726415,116.632505 C11.2766986,116.636156 11.2799442,116.640213 11.2840013,116.64427 C13.0654529,117.716549 14.5973959,119.205081 16.1597667,120.595433 C17.0433927,121.214134 17.9318872,121.827154 18.8009078,122.465329 C18.6365971,122.135896 18.4722865,121.810926 18.3075702,121.495287 L20.9868475,123.069424 C32.1863404,129.025582 45.4143594,131.151883 58.5758428,128.749297 C59.1722295,128.640568 59.9442865,128.470172 60.7358174,128.284359 C62.8665813,127.783719 64.1421185,125.59859 63.522201,123.499471"/>
      <path stroke="#0633EF" stroke-linecap="round" stroke-linejoin="round" stroke-width=".5" d="M11.5443829,116.532133 C15.7304494,120.622048 20.7855366,123.743544 26.3538409,125.651575"/>
      <path fill="#FF9357" d="M164.999587 251.653396L150.402718 251.653396C150.402718 250.047615 151.704221 248.745706 153.310408 248.745706L164.999587 248.745706 164.999587 251.653396zM129.868841 251.653396L115.271972 251.653396C115.271972 250.047615 116.573474 248.745706 118.179661 248.745706L129.868841 248.745706 129.868841 251.653396z"/>
      <path fill="#FF6700" d="M126.330807 253.069388L119.298718 253.069388C118.700709 253.069388 118.216702 252.585382 118.216702 251.987372 118.216702 251.389769 118.700709 250.905762 119.298718 250.905762L126.330807 250.905762C126.928411 250.905762 127.412823 251.389769 127.412823 251.987372 127.412823 252.585382 126.928411 253.069388 126.330807 253.069388M161.622821 253.069388L154.590732 253.069388C153.993128 253.069388 153.508716 252.585382 153.508716 251.987372 153.508716 251.389769 153.993128 250.905762 154.590732 250.905762L161.622821 250.905762C162.220425 250.905762 162.704837 251.389769 162.704837 251.987372 162.704837 252.585382 162.220425 253.069388 161.622821 253.069388"/>
      <line x1="141.711" x2="143.314" y1="242.047" y2="246.022" stroke="#0C266D" stroke-linecap="round" stroke-linejoin="round" stroke-width=".5"/>
      <line x1="139.26" x2="143.314" y1="244.13" y2="246.021" stroke="#0C266D" stroke-linecap="round" stroke-linejoin="round" stroke-width=".5"/>
      <path fill="#FF9357" d="M64.8792038,21.6355296 L91.9267601,7.92269287 L112.760941,14.5324425 L112.760941,27.3064773 L86.5333147,27.6687721 L61.6802181,27.6687721 L61.6802181,26.8439734 C61.6802181,24.6438339 62.9168076,22.6303189 64.8792038,21.6355296"/>
      <path fill="#FF6700" d="M108.265078,31.1892387 L65.2006846,31.1892387 C63.2565452,31.1892387 61.6803803,29.6130739 61.6803803,27.6689344 L84.320355,24.5060564 C86.2770713,24.2330168 88.0467575,25.6959899 88.146561,27.6689344 C90.7187322,24.7795017 94.14329,22.7830263 97.9252742,21.9687759 L112.760697,18.7746586 L112.760697,26.6932133 C112.760697,29.176535 110.747994,31.1892387 108.265078,31.1892387"/>
      <path fill="#FF9357" d="M106.888317,12.6506193 L104.907664,18.9013198 L86.317439,13.0100742 C84.5911632,12.4631835 83.6357274,10.6204704 84.1826181,8.89419461 C84.7295087,7.16832456 86.5722219,6.21248304 88.2980919,6.75937369 L106.888317,12.6506193 Z"/>
      <path fill="#FF9357" d="M112.760738,18.7748209 L106.473524,18.7748209 L106.473524,12.6762599 C106.473524,10.9398415 107.880915,9.53245008 109.617334,9.53245008 C111.353346,9.53245008 112.760738,10.9398415 112.760738,12.6762599 L112.760738,18.7748209 Z"/>
      <path fill="#FFE4D2" d="M107.660496,28.8950567 L97.0849775,28.8950567 C96.0045845,28.8950567 95.1282612,28.0191391 95.1282612,26.9383404 C95.1282612,25.8579474 96.0045845,24.9820298 97.0849775,24.9820298 L107.660496,24.9820298 C108.741294,24.9820298 109.617212,25.8579474 109.617212,26.9383404 C109.617212,28.0191391 108.741294,28.8950567 107.660496,28.8950567"/>
      <polyline stroke="#0C266D" stroke-linecap="round" stroke-linejoin="round" stroke-width=".5" points="71.783 17.938 79.834 18.576 78.617 14.418 82.441 17.242 81.862 12.795 85.006 15.838"/>
      <path fill="#FF9357" d="M99.2821147 26.9384216C99.2821147 27.480038 98.8431417 27.9190111 98.3015252 27.9190111 97.7599087 27.9190111 97.3209357 27.480038 97.3209357 26.9384216 97.3209357 26.3972108 97.7599087 25.957832 98.3015252 25.957832 98.8431417 25.957832 99.2821147 26.3972108 99.2821147 26.9384216M103.353042 26.9384216C103.353042 27.480038 102.914475 27.9190111 102.372858 27.9190111 101.831242 27.9190111 101.392269 27.480038 101.392269 26.9384216 101.392269 26.3972108 101.831242 25.957832 102.372858 25.957832 102.914475 25.957832 103.353042 26.3972108 103.353042 26.9384216M107.424335 26.9384216C107.424335 27.480038 106.985362 27.9190111 106.444151 27.9190111 105.902534 27.9190111 105.463561 27.480038 105.463561 26.9384216 105.463561 26.3972108 105.902534 25.957832 106.444151 25.957832 106.985362 25.957832 107.424335 26.3972108 107.424335 26.9384216"/>
    </g>
  </g>
</svg>
