<svg xmlns="http://www.w3.org/2000/svg" width="384" height="285" viewBox="0 0 384 285">
  <g fill="none" fill-rule="evenodd">
    <polygon points="0 0 384 0 384 285 0 285"/>
    <path fill="#FF6700" d="M191.582782,59.6728285 C199.384394,63.3718904 202.710365,72.6944528 199.011303,80.4964264 C195.312965,88.2980381 185.990041,91.6236475 178.188067,87.9249475 C170.386817,84.2262475 167.060484,74.9033232 170.759546,67.1017115 C174.458608,59.3000998 183.78117,55.9741285 191.582782,59.6728285"/>
    <path fill="#FF9357" d="M182.607328 81.1802209C182.607328 81.7693495 182.130018 82.2466595 181.540889 82.2466595 180.952122 82.2466595 180.474451 81.7693495 180.474451 81.1802209 180.474451 80.5914542 180.952122 80.1141442 181.540889 80.1141442 182.130018 80.1141442 182.607328 80.5914542 182.607328 81.1802209M187.222977 81.1802209C187.222977 81.7693495 186.745667 82.2466595 186.156538 82.2466595 185.567772 82.2466595 185.0901 81.7693495 185.0901 81.1802209 185.0901 80.5914542 185.567772 80.1141442 186.156538 80.1141442 186.745667 80.1141442 187.222977 80.5914542 187.222977 81.1802209M189.358894 74.9269897L189.220297 76.4222474 179.493161 75.5200989C179.019469 75.5009197 178.621048 75.1741487 178.516466 74.7123992L177.26113 70.1014184C177.18369 69.7641531 177.256426 69.4471527 177.453285 69.2010793 177.653038 68.9506634 177.952307 68.807 178.274736 68.807L190.500602 68.807 190.500602 70.3091332"/>
    <path fill="#FF9357" d="M187.08941,79.3447306 L180.04954,79.3447306 C179.626873,79.3447306 179.284179,79.0023991 179.284179,78.57937 C179.284179,78.1567028 179.626873,77.8143713 180.04954,77.8143713 L187.08941,77.8143713 C187.558758,77.8143713 187.972017,77.4814485 188.072979,77.022594 L190.043014,67.5751856 C190.236254,66.6943877 191.023327,66.0611106 191.916429,66.0611106 L193.599498,66.0611106 C194.022165,66.0611106 194.364859,66.403804 194.364859,66.8264712 C194.364859,67.2491384 194.022165,67.5918318 193.599498,67.5918318 L191.916429,67.5918318 C191.73694,67.5918318 191.578078,67.7195728 191.539719,67.895081 L189.569685,77.3432132 C189.313841,78.5066336 188.271648,79.3447306 187.08941,79.3447306"/>
    <path fill="#FFF" d="M114.040609 222.408826L98.5408812 222.408826 91.9254879 213.223775 94.8230019 201.292473 94.8345818 201.312738C96.6063102 204.458859 99.9369857 206.405733 103.547751 206.405733L114.040609 206.405733 114.040609 222.408826zM211.285407 281.40484L199.661697 281.198867 185.403192 257.700605 199.740947 249.4055 214.76626 275.484946C216.298067 278.143368 214.348297 281.459234 211.285407 281.40484"/>
    <path fill="#FFB280" d="M199.022914,281.5 L175,281.5 C175,276.641136 179.254536,272.879832 184.076851,273.475113 L194.944247,274.793053 L199.022914,281.5 Z"/>
    <path fill="#FF9357" d="M165.45301 192.400575L165.45301 192.400575C165.001393 190.902061 165.849622 189.321401 167.347775 188.869422L181.058404 184.735028 182.694792 190.161308 168.984163 194.29534C167.485648 194.746958 165.904989 193.89909 165.45301 192.400575M202.057981 281.610318L197.678599 283.843795 192.296829 273.29159C191.680198 272.082212 192.160403 270.601791 193.369781 269.98516 194.57916 269.368529 196.05958 269.848734 196.676211 271.058112L202.057981 281.610318z"/>
    <path fill="#FF9357" d="M186.177997,200.264972 C181.851448,201.569523 177.286787,199.120007 175.982236,194.79382 C174.677686,190.467633 177.127201,185.902972 181.453388,184.598059 C185.779576,183.293508 190.344599,185.743024 191.649149,190.069211 C192.954062,194.39576 190.504184,198.960783 186.177997,200.264972"/>
    <path fill="#0633EF" d="M222.479032,215.350863 L187.199708,202.040826 C185.510487,201.403206 184.657553,199.517488 185.294811,197.828267 L190.096137,185.102654 C190.733033,183.413433 192.619113,182.560861 194.308334,183.198119 L229.588019,196.508517 L222.479032,215.350863 Z"/>
    <path fill="#FF6700" d="M178.180261,284.5 C176.468242,284.5 175.079736,283.111857 175.079736,281.399475 L218,281.399475 C218.856191,281.399475 219.550262,282.093909 219.550262,282.949738 C219.550262,283.805928 218.856191,284.5 218,284.5 L178.180261,284.5 Z"/>
    <path fill="#FFB280" d="M92.5464613,209.629475 L78.5068894,190.136121 C82.4494915,187.296507 87.9883138,188.550757 90.3234778,192.811446 L95.6057324,202.399984 L92.5464613,209.629475 Z"/>
    <path fill="#FF9357" d="M94.0727676,212.86335 L89.7009845,210.615397 L95.1185795,200.081286 C95.739191,198.874079 97.2214212,198.398578 98.4286283,199.019551 C99.6358353,199.640525 100.110974,201.122393 99.4900007,202.3296 L94.0727676,212.86335 Z"/>
    <path fill="#FF6700" d="M101.052603,226.744567 L77.7805748,194.432961 C76.779997,193.043732 77.0948262,191.105904 78.4844171,190.104964 L103.568341,224.932309 C104.068811,225.627104 103.911396,226.596199 103.216601,227.096669 C102.521806,227.596777 101.553073,227.439362 101.052603,226.744567"/>
    <polyline stroke="#0C266D" stroke-linecap="round" stroke-linejoin="round" stroke-width=".5" points="163.513 95.351 167.439 98.158 162.745 98.768"/>
    <path fill="#FF9357" d="M274.091114,172.377078 C273.639135,178.557139 268.263155,183.200688 262.082371,182.748709 C255.90231,182.29673 251.258761,176.920389 251.71074,170.740328 C252.162719,164.559906 257.539422,159.916356 263.719483,160.367973 C269.899543,160.819952 274.543093,166.196656 274.091114,172.377078"/>
    <path fill="#FF9357" d="M249.566464,171.875269 C249.586005,172.456437 250.412522,172.900454 251.412738,172.8668 C252.41223,172.832784 253.207264,172.334486 253.187361,171.752956 C253.16782,171.171427 252.341303,170.727409 251.341087,170.761425 C250.341595,170.795079 249.546561,171.294102 249.566464,171.875269"/>
    <path fill="#0C266D" d="M254.55495,171.641319 C254.528171,172.008981 254.80428,172.328515 255.171943,172.355655 C255.539605,172.382434 255.859139,172.106325 255.886279,171.739024 C255.913058,171.371362 255.636949,171.051466 255.269287,171.024688 C254.901624,170.997909 254.58209,171.273656 254.55495,171.641319"/>
    <path stroke="#0C266D" stroke-linecap="round" stroke-linejoin="round" stroke-width=".5" d="M256.858703,177.57545 C257.679069,177.918144 258.621747,177.531664 258.96444,176.711299"/>
    <path fill="#0C266D" d="M257.069675,153.687262 L257.069675,153.687262 C261.091166,152.393206 265.347511,154.870585 266.20913,159.006789 L266.322758,159.553579 C266.441452,159.588681 266.56087,159.615821 266.679203,159.654903 C272.8238,161.685732 276.158818,168.313068 274.129074,174.457665 C274.071898,174.629192 274.01038,174.797825 273.947052,174.96501 C273.883363,175.129662 273.816416,175.291781 273.746937,175.452452 C273.314137,176.450497 272.755768,177.384128 272.096074,178.213179 C271.691862,178.721248 271.250016,179.189511 270.774877,179.609283 L269.982376,180.255226 C269.976948,180.254502 269.887203,180.148473 269.736302,179.966451 C268.387603,178.340196 267.659154,176.295977 267.634546,174.183365 C267.627671,173.582657 267.425746,172.972539 267.000545,172.444567 C266.309007,171.586205 265.133283,171.209134 264.074443,171.516002 C263.060838,171.809481 262.37907,172.567966 262.125036,173.449849 C261.673057,173.115479 254.724379,167.597645 253.251919,164.279997 L253.252281,164.279635 L253.234187,164.251047 C250.754636,160.322558 252.646868,155.110507 257.069675,153.687262"/>
    <path fill="#0C266D" d="M261.622069,160.621176 C261.718689,163.479246 264.113924,165.718151 266.971994,165.621531 C269.830425,165.525273 272.069331,163.129677 271.973073,160.271245 C271.876091,157.413175 269.480857,155.174269 266.622425,155.270889 C263.764355,155.367147 261.525087,157.762744 261.622069,160.621176"/>
    <path fill="#0C266D" d="M268.162989,164.063561 C268.223422,165.847955 269.718679,167.245507 271.502711,167.185074 C273.287105,167.124642 274.684657,165.629384 274.624586,163.84499 C274.564154,162.060958 273.069258,160.663406 271.284864,160.723839 C269.50047,160.78391 268.102918,162.279167 268.162989,164.063561"/>
    <path fill="#FF6700" d="M189.679404,199.049985 L158.766436,199.049985 L148.803359,169.767615 C148.355723,168.451846 146.925602,167.748003 145.610195,168.19564 C144.294065,168.643638 143.590222,170.073397 144.037859,171.388804 L155.15748,204.069158 L155.15748,204.083633 L189.679404,204.083633 C191.069357,204.083633 192.195867,202.956762 192.195867,201.566809 C192.195867,200.176856 191.069357,199.049985 189.679404,199.049985"/>
    <path fill="#3B7CFF" d="M232.334053,225.7678 L116.699106,225.7678 C115.016399,225.7678 113.652139,224.403178 113.652139,222.720471 L113.652139,206.624015 C113.652139,204.940945 115.016399,203.577047 116.699106,203.577047 L232.334053,203.577047 L232.334053,225.7678 Z"/>
    <path fill="#3B7CFF" d="M232.774018,203.576939 L181.168088,203.576939 C178.100856,203.576939 175.087904,204.383191 172.430674,205.914636 C164.054408,210.742379 161.18114,221.449104 166.015758,229.82175 L185.156648,263.068435 C186.201012,264.881779 188.518445,265.504562 190.330703,264.458026 L202.991902,257.147837 C204.800903,256.103473 205.422238,253.791831 204.380407,251.981382 L189.29828,225.767691 L232.774018,225.767691 L232.774018,203.576939 Z"/>
    <path stroke="#0633EF" stroke-linecap="round" stroke-linejoin="round" stroke-width=".5" d="M172.430746,205.914636 L172.430746,205.914636 C164.054481,210.742379 161.181212,221.449104 166.015468,229.82175"/>
    <path fill="#FF9357" d="M186.413721,176.576429 L186.413721,176.576429 C185.970427,175.075743 186.828065,173.499426 188.328751,173.056132 L202.062179,168.99954 L203.667807,174.434505 L189.93438,178.491459 C188.433332,178.934753 186.857377,178.077114 186.413721,176.576429"/>
    <path fill="#FF9357" d="M190.868228,159.213274 L190.868228,159.213274 C191.68027,157.875793 193.423411,157.449507 194.761254,158.261549 L207.002319,165.692603 L204.06138,170.537354 L191.820315,163.105938 C190.482472,162.293896 190.056186,160.551117 190.868228,159.213274"/>
    <path fill="#FF9357" d="M185.482189,167.09106 L185.482189,167.09106 C185.760831,165.55093 187.234738,164.527916 188.774868,164.806558 L202.866549,167.352694 L201.859096,172.929513 L187.76669,170.383377 C186.226922,170.105097 185.203909,168.630828 185.482189,167.09106"/>
    <path stroke="#0C266D" stroke-linecap="round" stroke-linejoin="round" stroke-width=".5" d="M144.796959,190.650596 C119.217269,184.519388 103.451565,158.812681 109.582773,133.232991 C115.71398,107.653302 141.420687,91.8872355 167.000377,98.0184433"/>
    <path fill="#0C266D" d="M197.73914 245.840078C196.861599 245.840078 196.150881 246.55152 196.150881 247.428699 196.150881 248.305878 196.861599 249.016958 197.73914 249.016958L207.486179 249.016958C208.639829 249.016958 209.489144 250.098233 209.215568 251.218953L201.105311 284.5 206 284.5 214.315801 250.375789C214.510126 249.578222 215.224463 249.016958 216.045552 249.016958L243.96909 249.016958C244.790179 249.016958 245.504154 249.578222 245.69848 250.375789L254.105673 284.5 259 284.5 250.798712 251.218953C250.525498 250.098233 251.374452 249.016958 252.528463 249.016958L262.275502 249.016958C263.152682 249.016958 263.864123 248.305878 263.864123 247.428699 263.864123 246.55152 263.152682 245.840078 262.275502 245.840078L197.73914 245.840078zM110.417396 245.847822C109.539855 245.847822 108.828775 246.558902 108.828775 247.436443 108.828775 248.31326 109.539855 249.024702 110.417396 249.024702L120.164073 249.024702C121.318085 249.024702 122.166676 250.105615 121.893824 251.226335L114.105311 284.5 119 284.5 126.993695 250.383172C127.18802 249.585966 127.902719 249.024702 128.723808 249.024702L134.824256 249.024702C134.899526 247.966224 134.34188 245.847822 134.34188 245.847822L110.417396 245.847822z"/>
    <path fill="#0C266D" d="M131.218268,245.847822 C131.14915,246.907023 131.078585,247.966224 131.003677,249.024702 L138.680081,249.024702 C139.861957,249.024702 140.890037,249.832763 141.170127,250.980623 L149.105311,284.5 L154,284.5 L146.360828,252.194344 C145.96711,250.580754 147.189516,249.024702 148.850511,249.024702 L157.890089,249.024702 C158.767268,249.024702 159.47871,248.31326 159.47871,247.436443 C159.47871,246.558902 158.767268,245.847822 157.890089,245.847822 L131.218268,245.847822 Z"/>
    <path fill="#FF9357" d="M207.706957,179.703587 C203.953253,182.218964 198.870752,181.215129 196.355375,177.461424 C193.839999,173.707358 194.843833,168.625219 198.597538,166.109842 C202.351243,163.593742 207.433743,164.597939 209.94912,168.351643 C212.464497,172.10571 211.460662,177.187849 207.706957,179.703587"/>
    <path fill="#0633EF" d="M275.294413,192.275838 L275.294413,192.275838 C273.961274,186.720008 268.376856,183.297055 262.821387,184.630555 L236.526275,190.94089 L216.317137,172.175262 C214.655418,170.631875 212.056811,170.728133 210.513424,172.390214 L202.023893,181.532926 C200.480868,183.194645 200.576764,185.793252 202.238845,187.336639 L230.722562,213.785184 L231.915294,213.515589 L267.64913,204.748863 C273.20496,203.415725 276.627913,197.831668 275.294413,192.275838"/>
    <line x1="190.418" x2="187.074" y1="225.656" y2="219.162" stroke="#0633EF" stroke-linecap="round" stroke-linejoin="round" stroke-width=".5"/>
    <line x1="189.172" x2="191.591" y1="223.041" y2="218.819" stroke="#0633EF" stroke-linecap="round" stroke-linejoin="round" stroke-width=".5"/>
    <path fill="#FFB280" d="M247.162725,237.534667 L190.236543,237.534667 C186.95653,237.534667 184.29749,234.875265 184.29749,231.595252 C184.29749,228.314877 186.95653,225.656199 190.236543,225.656199 L247.162725,225.656199 C250.442738,225.656199 253.10214,228.314877 253.10214,231.595252 C253.10214,234.875265 250.442738,237.534667 247.162725,237.534667"/>
    <path fill="#FF6700" d="M155.321988 245.847822L112.56131 245.847822C110.265952 245.847822 108.404841 243.986711 108.404841 241.691353 108.404841 239.395633 110.265952 237.534522 112.56131 237.534522L155.321988 237.534522C157.617708 237.534522 159.478457 239.395633 159.478457 241.691353 159.478457 243.986711 157.617708 245.847822 155.321988 245.847822M274.512731 185.277656L264.281145 198.625327 242.384233 198.625327C232.624529 198.625327 223.862145 204.607082 220.307832 213.696598L211.646049 237.538214 196.288175 237.538214C194.00295 237.538214 192.042324 239.326226 191.999643 241.611814 191.958008 243.93974 193.832508 245.839933 196.150664 245.839933L261.567462 245.839933C268.685135 245.839933 274.675936 240.509911 275.503177 233.440006L280.879518 187.863236C281.129572 185.74411 279.474367 183.882275 277.340766 183.882275 276.23235 183.882275 275.1869 184.397943 274.512731 185.277656"/>
    <path fill="#FFB280" d="M165.161847 199.049985L161.696555 199.049985C161.329254 199.049985 161.031795 198.752526 161.031795 198.385225 161.031795 198.018286 161.329254 197.720827 161.696555 197.720827L165.161847 197.720827C165.529148 197.720827 165.826607 198.018286 165.826607 198.385225 165.826607 198.752526 165.529148 199.049985 165.161847 199.049985M172.262873 199.049985L168.797219 199.049985C168.429919 199.049985 168.132459 198.752526 168.132459 198.385225 168.132459 198.018286 168.429919 197.720827 168.797219 197.720827L172.262873 197.720827C172.629812 197.720827 172.927272 198.018286 172.927272 198.385225 172.927272 198.752526 172.629812 199.049985 172.262873 199.049985M179.363574 199.049985L175.89792 199.049985C175.530619 199.049985 175.23316 198.752526 175.23316 198.385225 175.23316 198.018286 175.530619 197.720827 175.89792 197.720827L179.363574 197.720827C179.730513 197.720827 180.027972 198.018286 180.027972 198.385225 180.027972 198.752526 179.730513 199.049985 179.363574 199.049985M186.618324 199.049985L183.15267 199.049985C182.785731 199.049985 182.488272 198.752526 182.488272 198.385225 182.488272 198.018286 182.785731 197.720827 183.15267 197.720827L186.618324 197.720827C186.985625 197.720827 187.283084 198.018286 187.283084 198.385225 187.283084 198.752526 186.985625 199.049985 186.618324 199.049985"/>
    <line x1="162.963" x2="160.202" y1="188.759" y2="188.22" stroke="#0C266D" stroke-linecap="round" stroke-linejoin="round" stroke-width=".5"/>
    <line x1="162.376" x2="159.715" y1="180.223" y2="181.135" stroke="#0C266D" stroke-linecap="round" stroke-linejoin="round" stroke-width=".5"/>
    <line x1="157.599" x2="155.751" y1="173.123" y2="175.244" stroke="#0C266D" stroke-linecap="round" stroke-linejoin="round" stroke-width=".5"/>
    <path fill="#FFB280" d="M153.53915,237.534667 L114.344003,237.534667 C111.06399,237.534667 108.40495,234.875265 108.40495,231.595252 C108.40495,228.314877 111.06399,225.656199 114.344003,225.656199 L153.53915,225.656199 C156.819163,225.656199 159.478565,228.314877 159.478565,231.595252 C159.478565,234.875265 156.819163,237.534667 153.53915,237.534667"/>
    <path fill="#CCDEFF" d="M240.940904,108.749341 C240.940904,126.508964 226.54344,140.906428 208.783818,140.906428 C191.023834,140.906428 176.62637,126.508964 176.62637,108.749341 C176.62637,90.9893572 191.023834,76.5918932 208.783818,76.5918932 C226.54344,76.5918932 240.940904,90.9893572 240.940904,108.749341"/>
    <path fill="#FFF" d="M217.772589,127.882669 L217.772589,127.882669 C220.505089,127.882669 222.720111,125.667284 222.720111,122.934784 L222.720111,89.5151243 C222.720111,86.7822623 220.505089,84.56724 217.772589,84.56724 C215.040089,84.56724 212.825066,86.7822623 212.825066,89.5151243 L212.825066,122.934784 C212.825066,125.667284 215.040089,127.882669 217.772589,127.882669"/>
    <path fill="#0633EF" d="M207.877653,127.882669 L207.877653,127.882669 C210.610153,127.882669 212.825175,125.667284 212.825175,122.934784 L212.825175,101.4182 C212.825175,98.6857002 210.610153,96.4706779 207.877653,96.4706779 C205.145152,96.4706779 202.93013,98.6857002 202.93013,101.4182 L202.93013,122.934784 C202.93013,125.667284 205.145152,127.882669 207.877653,127.882669"/>
    <path fill="#FF6700" d="M197.98268,127.882669 L197.98268,127.882669 C200.71518,127.882669 202.930203,125.667284 202.930203,122.934784 L202.930203,116.581749 C202.930203,113.84961 200.71518,111.634588 197.98268,111.634588 C195.25018,111.634588 193.035158,113.84961 193.035158,116.581749 L193.035158,122.934784 C193.035158,125.667284 195.25018,127.882669 197.98268,127.882669"/>
    <path fill="#FFB280" d="M236.49595,144.119567 C236.49595,150.679956 231.17787,155.998036 224.617482,155.998036 C218.057093,155.998036 212.739013,150.679956 212.739013,144.119567 C212.739013,137.559178 218.057093,132.241098 224.617482,132.241098 C231.17787,132.241098 236.49595,137.559178 236.49595,144.119567"/>
    <path fill="#FF6700" d="M228.501533,149.785841 L220.732852,149.785841 C219.901268,149.785841 219.227462,149.112034 219.227462,148.280451 L219.227462,143.480572 C219.227462,142.648989 219.901268,141.975182 220.732852,141.975182 L228.501533,141.975182 C229.333116,141.975182 230.007285,142.648989 230.007285,143.480572 L230.007285,148.280451 C230.007285,149.112034 229.333116,149.785841 228.501533,149.785841"/>
    <path stroke="#0C266D" stroke-linecap="round" stroke-linejoin="round" stroke-width=".5" d="M222.098776,144.119567 L222.098776,140.13535 C222.098776,138.744311 223.226371,137.617078 224.617409,137.617078 C226.008448,137.617078 227.136043,138.744311 227.136043,140.13535 L227.136043,144.119567"/>
    <path fill="#FFF" d="M188.48707,133.238637 C188.48707,146.613448 177.644281,157.456238 164.269469,157.456238 C150.894657,157.456238 140.051868,146.613448 140.051868,133.238637 C140.051868,119.863825 150.894657,109.021397 164.269469,109.021397 C177.644281,109.021397 188.48707,119.863825 188.48707,133.238637"/>
    <path fill="#FFB280" d="M183.351953,117.77249 L175.233703,117.77249 C173.674394,117.77249 172.410011,116.508107 172.410011,114.948437 L172.410011,106.830548 C172.410011,105.270515 173.674394,104.006132 175.233703,104.006132 L183.351953,104.006132 C184.911986,104.006132 186.176369,105.270515 186.176369,106.830548 L186.176369,114.948437 C186.176369,116.508107 184.911986,117.77249 183.351953,117.77249"/>
    <path fill="#FF6700" d="M181.400881,111.213187 C181.199318,110.986655 180.957949,110.820917 180.67605,110.716336 C180.394513,110.611393 180.033364,110.506088 179.590794,110.401869 C179.165594,110.307782 178.849317,110.212248 178.642688,110.11599 C178.435696,110.01937 178.331839,109.871002 178.331839,109.672334 C178.331839,109.474028 178.422307,109.313718 178.601434,109.192491 C178.780561,109.070901 179.058479,109.009745 179.433741,109.009745 C179.968951,109.009745 180.504884,109.162093 181.040817,109.465343 L181.4548,108.446671 C181.189909,108.280934 180.88087,108.154278 180.52732,108.065981 C180.384742,108.030156 180.240717,108.003739 180.095968,107.982389 L180.095968,107.234398 L178.949556,107.234398 L178.949556,107.962486 C178.629298,107.997587 178.342695,108.065981 178.095898,108.173095 C177.728597,108.333405 177.454298,108.550167 177.272276,108.823381 C177.08953,109.096594 176.998338,109.402015 176.998338,109.738918 C176.998338,110.125398 177.098577,110.434799 177.300864,110.666398 C177.502789,110.898358 177.744158,111.066991 178.025695,111.172296 C178.307232,111.276877 178.668742,111.38182 179.110951,111.486401 C179.397554,111.552986 179.625534,111.613418 179.794166,111.669147 C179.962437,111.724151 180.100311,111.796888 180.20851,111.88808 C180.315625,111.979634 180.369544,112.094347 180.369544,112.231859 C180.369544,112.420033 180.278352,112.57021 180.096692,112.683476 C179.913946,112.796742 179.632771,112.853194 179.251357,112.853194 C178.908664,112.853194 178.567056,112.798189 178.224725,112.687456 C177.882031,112.577085 177.586743,112.430527 177.337775,112.248505 L176.882539,113.259215 C177.14164,113.457883 177.485781,113.61964 177.913514,113.743763 C178.249694,113.841468 178.59492,113.899006 178.949556,113.919633 L178.949556,114.544587 L180.095968,114.544587 L180.095968,113.842916 C180.274009,113.804195 180.44228,113.755342 180.593543,113.690205 C180.963377,113.529896 181.240571,113.313134 181.42585,113.039558 C181.610405,112.766345 181.703768,112.463819 181.703768,112.132706 C181.703768,111.746588 181.602444,111.43972 181.400881,111.213187"/>
    <path fill="#CCDEFF" d="M171.923256,119.528115 L170.155146,119.525582 L158.397543,119.509298 L156.650422,119.506762 C155.363965,119.505317 154.129618,120.015558 153.21987,120.924944 L146.049726,128.09545 C145.040101,129.105074 145.040101,130.741824 146.049726,131.751449 L149.361946,135.064392 C150.37157,136.074017 152.009044,136.074017 153.018669,135.064392 L154.640944,133.441756 L154.640944,144.369585 C154.640944,145.806219 155.80545,146.970363 157.241722,146.970363 L171.323995,146.970363 C172.760267,146.970363 173.924773,145.806219 173.924773,144.369585 L173.924773,133.468534 L175.52027,135.064392 C176.529894,136.074017 178.167368,136.074017 179.176993,135.064392 L182.489213,131.751449 C183.498837,130.741824 183.498837,129.105074 182.489213,128.09545 L175.340057,120.946294 C174.433566,120.039803 173.205009,119.529925 171.923256,119.528115"/>
    <path fill="#0C266D" d="M168.863949,119.50691 C168.863949,122.04436 166.806703,124.101244 164.269614,124.101244 C161.732163,124.101244 159.674917,122.04436 159.674917,119.50691 L168.863949,119.50691 Z"/>
    <line x1="216.907" x2="203.835" y1="201.293" y2="189.154" stroke="#3B7CFF" stroke-linecap="round" stroke-linejoin="round" stroke-width=".5"/>
    <line x1="64" x2="320" y1="284.5" y2="284.5" stroke="#0C266D" stroke-linecap="round" stroke-linejoin="round" stroke-width=".5"/>
  </g>
</svg>
