<svg xmlns="http://www.w3.org/2000/svg" width="384" height="285" viewBox="0 0 384 285">
  <g fill="none" fill-rule="evenodd">
    <polygon points="0 0 384 0 384 285 0 285"/>
    <path fill="#FFB280" d="M284.191505,250.463403 L244.788725,250.463403 L244.788725,242.638273 L284.191505,242.638273 C286.352305,242.638273 288.104255,244.389853 288.104255,246.550653 C288.104255,248.711823 286.352305,250.463403 284.191505,250.463403"/>
    <path fill="#FFF" d="M283.959885,248.434915 L244.788725,248.434915 L244.788725,244.666465 L283.959885,244.666465 C285.000695,244.666465 285.843925,245.510435 285.843925,246.550505 C285.843925,247.591315 285.000695,248.434915 283.959885,248.434915"/>
    <path fill="#FF6700" d="M276.605247,258.288681 L237.202467,258.288681 C235.041667,258.288681 233.290087,256.537101 233.290087,254.375931 C233.290087,252.215131 235.041667,250.463551 237.202467,250.463551 L276.605247,250.463551 L276.605247,258.288681 Z"/>
    <path fill="#FF9357" d="M276.605247,256.144568 L239.679617,256.144568 C238.702817,256.144568 237.910647,255.352768 237.910647,254.375968 C237.910647,253.399168 238.702817,252.606998 239.679617,252.606998 L276.605247,252.606998 L276.605247,256.144568 Z"/>
    <path fill="#FF6700" d="M238.988087,173.989028 L276.144227,173.989028 C279.545637,173.989028 282.303247,176.746638 282.303247,180.148048 C282.303247,183.549828 279.545637,186.307438 276.144227,186.307438 L238.988087,186.307438 L238.988087,173.989028 Z"/>
    <path fill="#FFB280" d="M277.313464,217.608217 L237.910684,217.608217 L237.910684,209.783087 L277.313464,209.783087 C279.474264,209.783087 281.226214,211.534667 281.226214,213.695837 C281.226214,215.856637 279.474264,217.608217 277.313464,217.608217"/>
    <path fill="#FF6700" d="M286.48051,209.782902 L247.07773,209.782902 C244.91693,209.782902 243.16535,208.031322 243.16535,205.870522 C243.16535,203.709352 244.91693,201.957772 247.07773,201.957772 L286.48051,201.957772 L286.48051,209.782902 Z"/>
    <path fill="#FFB280" d="M286.48051,173.989028 L258.18143,173.989028 C256.02026,173.989028 254.26868,172.237448 254.26868,170.076648 C254.26868,167.915478 256.02026,166.163898 258.18143,166.163898 L286.48051,166.163898 L286.48051,173.989028 Z"/>
    <path fill="#3B7CFF" d="M281.226103,201.957624 L241.823323,201.957624 C239.662523,201.957624 237.910943,200.206044 237.910943,198.045244 C237.910943,195.884444 239.662523,194.132864 241.823323,194.132864 L281.226103,194.132864 L281.226103,201.957624 Z"/>
    <path fill="#0C266D" d="M285.20993 194.132716L245.80715 194.132716 245.80715 186.307586 285.20993 186.307586C287.37073 186.307586 289.12268 188.059166 289.12268 190.219966 289.12268 192.381136 287.37073 194.132716 285.20993 194.132716M282.303395 242.638125L245.245675 242.638125C241.789505 242.638125 238.988235 239.836485 238.988235 236.380685 238.988235 232.924885 241.789505 230.123245 245.245675 230.123245L282.303395 230.123245 282.303395 242.638125z"/>
    <path fill="#CCDEFF" d="M285.064853,230.123171 L248.007133,230.123171 C244.550963,230.123171 241.749693,227.321901 241.749693,223.865731 C241.749693,220.409931 244.550963,217.608291 248.007133,217.608291 L285.064853,217.608291 L285.064853,230.123171 Z"/>
    <polygon fill="#FF6700" points="287.593 284.442 298.828 284.442 298.828 266.013 287.593 266.013"/>
    <path fill="#0C266D" d="M287.803889,284.441613 L174.802929,284.441613 L174.802929,258.288533 L283.146699,258.288533 C285.718939,258.288533 287.803889,260.373483 287.803889,262.945723 L287.803889,284.441613 Z"/>
    <polygon fill="#FF6700" points="259.328 269.78 241.552 275.769 233.147 260.748 248.66 250.708"/>
    <polygon fill="#FFF" points="164.366 204.889 191.703 259.923 150 260 150.247 214.687"/>
    <path fill="#3B7CFF" d="M243.918115,235.730669 C232.516195,214.750929 207.137155,217.238439 191.845425,235.577859 L185.271635,243.469589 C176.613635,253.863999 163.52757,260.04144 150,260 C150,273.60786 161.275285,284.453749 174.883145,284.453749 C185.527305,284.453749 195.525815,279.349969 201.768825,270.729339 L214.972275,252.496849 C217.243335,249.360359 222.001905,249.638229 223.892605,253.017809 L234.046885,271.118579 C234.921935,272.683309 236.887745,273.260879 238.470235,272.417279 C242.873975,270.069999 251.292955,265.583009 255.745905,263.209459 C257.360585,262.348839 257.963315,260.338259 257.089745,258.730609 L243.918115,235.730669 Z"/>
    <path fill="#FFB280" d="M205.824136,222.272215 C204.211306,217.805575 204.940946,212.806135 207.806596,208.979225 C208.491836,208.072355 209.778696,207.818905 210.716646,208.460855 C211.718236,209.145725 211.934316,210.519535 211.211336,211.476725 L211.209486,211.479315 C210.311496,212.667385 209.413506,215.427955 209.413506,215.427955 L214.474736,214.011225 L218.583216,207.227275 C219.230346,206.186465 220.598236,205.867525 221.639046,206.514285 C222.605116,207.115165 222.960686,208.349485 222.461556,209.372165 L210.531646,230.770745 L203.810226,226.348875 L205.824136,222.272215 Z"/>
    <path fill="#0C266D" d="M210.296844,217.415965 L210.296844,217.415965 C211.378354,218.048295 212.767704,217.684955 213.400404,216.603445 L228.474204,190.836275 C229.106904,189.754765 228.743194,188.365415 227.661684,187.732715 C226.580544,187.100015 225.190824,187.464095 224.558124,188.545605 L209.484324,214.312035 C208.851624,215.393545 209.215334,216.783265 210.296844,217.415965"/>
    <path fill="#FFF" d="M162.641991,200.717725 C166.737891,200.740102 170.555551,202.793602 172.830311,206.199452 L185.123931,224.605472 C188.958611,230.361192 197.790141,228.905612 199.574651,222.223412 C199.997191,220.781892 201.574871,220.023022 202.964591,220.592822 L216.166931,226.006662 C217.371281,226.500612 218.004721,227.827802 217.631761,229.074702 L217.411981,229.808042 C210.827461,251.810832 183.010491,256.681142 168.939021,240.577262 L150.249581,216.208322 L150.245871,213.063322 C150.237371,206.222022 155.800691,200.681642 162.641991,200.717725"/>
    <path fill="#0633EF" d="M278.408812,284.453897 L249.542892,284.453897 C247.515292,284.453897 245.655672,283.327247 244.716982,281.530527 L243.918152,280.001687 L282.861392,280.001687 C282.861392,282.460337 280.867832,284.453897 278.408812,284.453897"/>
    <path fill="#3B7CFF" d="M282.861281,280.001613 L243.917671,280.001613 L241.552261,275.769183 C243.999071,272.443253 247.794161,270.373843 251.914851,270.117433 L253.254621,270.034553 C251.778691,267.891513 252.497601,264.940763 254.793821,263.716803 L255.745831,263.209533 L257.693881,266.094793 C259.539811,268.829093 262.352181,270.762713 265.565631,271.507153 L278.490101,274.501563 C281.049391,275.094303 282.861281,277.374243 282.861281,280.001613"/>
    <path fill="#0633EF" d="M316.367408,252.701829 L309.581978,280.117719 C308.945948,282.622249 306.712998,284.391589 304.129288,284.438579 L303.995348,284.441169 L313.180968,247.418599 C315.519738,247.997279 316.946458,250.363059 316.367408,252.701829"/>
    <path fill="#3B7CFF" d="M313.192956,247.423187 L303.995126,284.441687 L295.975006,284.441687 L292.003796,284.441687 L291.757746,283.491157 C290.816836,279.855907 291.338536,275.997177 293.210736,272.742287 L292.989846,272.685677 C289.939196,271.909047 287.803926,269.161797 287.803926,266.013467 C291.998246,265.960927 295.926906,263.951087 298.424036,260.580757 L306.346106,249.888127 C307.922306,247.760627 310.622566,246.788267 313.192956,247.423187"/>
    <path stroke="#0633EF" stroke-linecap="round" stroke-linejoin="round" stroke-width=".5" d="M301.067538,251.64966 C301.257348,253.18183 299.200888,259.31384 299.200888,259.31384 C299.200888,259.31384 295.709938,253.86892 295.519758,252.33712 C295.329948,250.80532 296.418118,249.40931 297.949918,249.2195 C299.482088,249.02969 300.877728,250.11749 301.067538,251.64966 Z"/>
    <path stroke="#0633EF" stroke-linecap="round" stroke-linejoin="round" stroke-width=".5" d="M294.815093 252.756774C296.072353 253.652544 299.201073 259.313174 299.201073 259.313174 299.201073 259.313174 292.828933 258.205764 291.571673 257.309994 290.314413 256.414224 290.021373 254.668934 290.916773 253.411674 291.812543 252.154414 293.557833 251.861004 294.815093 252.756774zM274.839977 270.819175C273.492067 271.571015 267.036677 271.972095 267.036677 271.972095 267.036677 271.972095 270.768497 266.689605 272.116407 265.937395 273.464687 265.185185 275.167057 265.668405 275.919267 267.016685 276.671107 268.364225 276.188257 270.066965 274.839977 270.819175z"/>
    <path stroke="#0633EF" stroke-linecap="round" stroke-linejoin="round" stroke-width=".5" d="M271.462469,265.442261 C271.105419,266.944091 267.037269,271.972021 267.037269,271.972021 C267.037269,271.972021 265.666789,265.650941 266.023839,264.149481 C266.380889,262.647281 267.887899,261.719321 269.389729,262.076371 C270.891559,262.433421 271.819519,263.940061 271.462469,265.442261 Z"/>
    <path fill="#FF6700" d="M211.558248,199.35534 L207.054608,201.39996 C206.224698,201.77699 205.246788,201.40995 204.870128,200.58004 L202.825508,196.0764 C202.448478,195.24686 202.815888,194.26858 203.645798,193.89155 L208.149068,191.8473 C208.978978,191.47027 209.956888,191.83768 210.333548,192.66759 L212.378538,197.17086 C212.755198,198.00077 212.387788,198.97868 211.558248,199.35534"/>
    <path fill="#3B7CFF" d="M190.679259,181.695795 C187.984179,181.695795 185.799329,183.880645 185.799329,186.575725 C185.799329,189.271175 187.984179,191.456025 190.679259,191.456025 C193.374339,191.456025 195.559189,189.271175 195.559189,186.575725 C195.559189,183.880645 193.374339,181.695795 190.679259,181.695795"/>
    <path fill="#FF9357" d="M203.059792,182.278249 L208.912822,184.179309 C209.978422,184.525259 211.019232,183.587679 210.786132,182.491739 L209.505932,176.472579 C209.272832,175.376639 207.940462,174.943739 207.107592,175.693729 L202.535132,179.812199 C201.702632,180.562189 201.994192,181.931929 203.059792,182.278249"/>
    <path stroke="#0C266D" stroke-linecap="round" stroke-linejoin="round" stroke-width=".5" d="M170.566651,242.366027 C176.360481,248.226827 184.591871,250.990727 192.748521,249.813757"/>
    <path fill="#3B7CFF" d="M285.064853,226.732084 L248.673873,226.732084 C247.090643,226.732084 245.807113,225.448554 245.807113,223.865694 C245.807113,222.282834 247.090643,220.999304 248.673873,220.999304 L285.064853,220.999304 L285.064853,226.732084 Z"/>
    <path fill="#0633EF" d="M281.226103,200.141257 L253.550103,200.141257 C252.392373,200.141257 251.454053,199.202937 251.454053,198.045207 C251.454053,196.887477 252.392373,195.949157 253.550103,195.949157 L281.226103,195.949157 L281.226103,200.141257 Z"/>
    <path fill="#FF9357" d="M275.521813,183.511459 L238.988013,183.511459 L238.988013,176.784859 L275.521813,176.784859 C277.379583,176.784859 278.885113,178.290759 278.885113,180.148159 C278.885113,182.005929 277.379583,183.511459 275.521813,183.511459"/>
    <path fill="#FFF" d="M285.143071,191.813001 L245.807261,191.813001 L245.807261,188.626931 L285.143071,188.626931 C286.022931,188.626931 286.736291,189.339921 286.736291,190.219781 C286.736291,191.099641 286.022931,191.813001 285.143071,191.813001"/>
    <path fill="#FF9357" d="M286.48051,207.652516 L247.27383,207.652516 C246.28926,207.652516 245.49154,206.854796 245.49154,205.870596 C245.49154,204.886026 246.28926,204.088306 247.27383,204.088306 L286.48051,204.088306 L286.48051,207.652516 Z"/>
    <path fill="#FFF" d="M286.48051 171.841659L258.61211 171.841659C257.63716 171.841659 256.84684 171.051339 256.84684 170.076389 256.84684 169.101809 257.63716 168.311119 258.61211 168.311119L286.48051 168.311119M237.91098 211.81176L277.00111 211.81176C278.04155 211.81176 278.88515 212.65499 278.88515 213.6958 278.88515 214.73587 278.04155 215.57984 277.00111 215.57984L237.91098 215.57984"/>
    <path stroke="#0C266D" stroke-linecap="round" stroke-linejoin="round" stroke-width=".5" d="M175.806628,137.699058 C171.226398,138.408348 160.080518,143.758548 159.716068,150.016728 C159.516268,153.450698 162.549898,155.722868 165.758908,156.393678 C169.469638,157.169938 181.326288,154.769008 179.867378,151.296558 C178.302648,147.571398 167.872348,153.869538 165.462908,157.445588 C163.785328,159.935318 163.453808,163.291958 164.627078,165.503078"/>
    <path fill="#FF6700" d="M131.053611,113.68154 L131.053611,138.67208 L108.021851,118.25696 L103.526721,123.32818 L119.766761,137.7234 C126.945131,144.08592 131.053611,153.21826 131.053611,162.81051 L130.80366,284.5 L150,284.5 L150,113.5 L131.053611,113.68154 Z"/>
    <path fill="#0633EF" d="M191.316288,48.377284 C191.368828,47.751984 191.402128,47.120764 191.402128,46.482144 C191.402128,34.132284 181.390298,24.120454 169.040438,24.120454 C168.004068,24.120454 166.983978,24.191494 165.985348,24.328764 C161.617498,24.928534 157.246318,23.377124 154.343668,20.058964 C146.983998,11.646274 136.169638,6.332334 124.113928,6.332334 C101.939458,6.332334 83.964118,24.307674 83.964118,46.482144 C83.964118,46.952044 83.975218,47.419354 83.991128,47.885554 C67.138738,52.440994 54.822178,67.568814 55.025308,85.432414 L55.027158,85.585594 C55.268028,106.701494 72.932938,123.693374 94.633808,123.68154 L179.413388,123.644534 C201.268548,123.633064 218.979338,106.388844 218.979338,85.121244 C218.979338,67.891454 207.354308,53.301244 191.316288,48.377284"/>
    <path fill="#FFB280" d="M177.714274,191.776852 C177.538154,192.333332 176.620924,192.524622 175.665584,192.203832 C174.710244,191.883412 174.078284,191.172642 174.254404,190.615792 C174.430524,190.059312 175.347384,189.868392 176.303094,190.188812 C177.258434,190.509232 177.890024,191.220372 177.714274,191.776852"/>
    <path fill="#FFB280" d="M174.657778,178.629568 C172.585408,182.631488 166.372368,179.253758 162.832578,181.807868 C160.115668,183.768128 160.311398,191.998408 157.046518,192.898618 C158.637518,194.758978 160.807938,196.143888 163.360568,196.706658 C169.536978,198.067888 175.557618,194.146628 176.807848,187.948388 C177.490128,184.564368 176.602128,181.207728 174.657778,178.629568"/>
    <path fill="#3B7CFF" d="M166.789321,174.071427 C163.379401,173.653327 160.064571,174.852127 157.698051,177.109867 C156.396391,178.351217 154.766171,179.205547 152.995351,179.540027 C150.872661,179.940737 148.191271,181.164697 147.261091,184.685617 C146.524791,187.473937 147.609261,190.493507 149.997611,192.147037 C152.600191,193.948567 155.483971,193.913417 157.700271,192.703517 C158.984541,192.316127 160.236991,191.843637 161.445041,191.282717 C162.429611,190.825027 163.068231,189.805677 162.977581,188.709367 C162.952791,188.409297 162.994601,188.096277 163.114851,187.788067 C163.417511,187.012177 164.185631,186.503427 165.018501,186.528957 C165.933511,186.557077 166.639841,187.152407 166.926221,187.924227 C170.093051,185.455217 172.752241,182.309847 174.657741,178.629457 C172.832531,176.210397 170.080841,174.475097 166.789321,174.071427"/>
    <path stroke="#0C266D" stroke-linecap="round" stroke-linejoin="round" stroke-width=".5" d="M175.447099 188.280648C175.057859 189.441708 173.802449 190.049248 172.642869 189.638178 171.483659 189.226738 170.859839 187.952088 171.249079 186.791398 171.638319 185.630338 172.893729 185.022428 174.052939 185.434238 175.212149 185.845308 175.836339 187.119588 175.447099 188.280648zM171.249005 186.79125L165.434085 184.7285C163.604435 184.07915 161.623085 185.03856 161.008515 186.8708M166.702778 191.4477C166.482628 192.37788 167.056128 193.32397 167.982978 193.56077"/>
    <path fill="#FF6700" d="M279.13453,155.323194 C279.13453,152.391314 276.75765,150.014434 273.82577,150.014434 C272.26511,150.014434 270.86133,150.688574 269.89008,151.760834 C268.91883,150.688574 267.51542,150.014434 265.95439,150.014434 C263.02251,150.014434 260.64563,152.391314 260.64563,155.323194 C260.64563,156.065044 260.79844,156.771374 261.07335,157.412584 C261.21765,157.749284 261.39599,158.066744 261.60356,158.363484 L265.15556,164.731554 C265.64877,165.615484 266.58191,166.163824 267.5946,166.163824 C268.55475,166.163824 269.40094,165.679124 269.90377,164.941344 C270.4066,165.679124 271.25316,166.163824 272.21294,166.163824 C273.22563,166.163824 274.15877,165.615484 274.65235,164.731554 L278.35346,158.095604 C278.84852,157.288634 279.13453,156.339214 279.13453,155.323194"/>
    <line x1="269.89" x2="269.89" y1="147.248" y2="151.911" stroke="#0C266D" stroke-linecap="round" stroke-linejoin="round" stroke-width=".5"/>
    <line x1="238.988" x2="274.735" y1="180.148" y2="180.148" stroke="#FF6700" stroke-linecap="round" stroke-linejoin="round" stroke-width=".5"/>
    <line x1="248.003" x2="286.48" y1="205.87" y2="205.87" stroke="#FF6700" stroke-linecap="round" stroke-linejoin="round" stroke-width=".5"/>
    <line x1="285.065" x2="250.223" y1="223.866" y2="223.866" stroke="#0633EF" stroke-linecap="round" stroke-linejoin="round" stroke-width=".5"/>
    <line x1="63.86" x2="319.86" y1="284.4" y2="284.4" stroke="#0C266D" stroke-linecap="round" stroke-linejoin="round" stroke-width=".5"/>
  </g>
</svg>
