<svg xmlns="http://www.w3.org/2000/svg" xmlns:xlink="http://www.w3.org/1999/xlink" width="384" height="285" viewBox="0 0 384 285">
  <defs>
    <path id="financial-service-a" d="M17.2144843,0.446769177 L4.02009447,3.10212667 C1.99120757,3.50997434 0.279489522,5.53637689 0.216138564,7.60501341 L0.216138564,7.60501341 C3.39196765,27.8023755 21.1178142,41.6923836 40.5479258,41.107733 L40.5479258,41.107733 L32.5495568,57.9570176 C30.4564908,62.3667412 30.7554411,67.5395746 33.3424789,71.679332 L33.3424789,71.679332 L61.7344738,82.6903911 C66.7536915,80.2085241 70.3311574,75.5317328 71.4122643,70.0380039 L71.4122643,70.0380039 L79.3572198,29.6710217 C80.3894677,23.6663446 77.7291415,17.6264725 72.6018545,14.334707 L72.6018545,14.334707 L72.6018545,14.334707 C69.0111387,12.028815 64.635368,11.3601104 60.5477819,12.4354205 L60.5477819,12.4354205 L60.5444695,12.425069 L60.3378543,12.4913184 C59.9722406,12.5931768 59.6086972,12.7037304 59.2488803,12.8337448 L59.2488803,12.8337448 L59.2385288,12.8457525 L44.057072,17.7395105 C33.8629505,20.7708332 23.3379962,14.0924828 21.7451129,3.57042689 L21.7451129,3.57042689 C21.4589985,1.67983554 19.8276078,0.36934013 17.9887738,0.36934013 L17.9887738,0.36934013 C17.7337137,0.36934013 17.474513,0.394597799 17.2144843,0.446769177 L17.2144843,0.446769177 Z"/>
    <path id="financial-service-c" d="M17.2144843,0.446769177 L4.02009447,3.10212667 C1.99120757,3.50997434 0.279489522,5.53637689 0.216138564,7.60501341 L0.216138564,7.60501341 C3.39196765,27.8023755 21.1178142,41.6923836 40.5479258,41.107733 L40.5479258,41.107733 L32.5495568,57.9570176 C30.4564908,62.3667412 30.7554411,67.5395746 33.3424789,71.679332 L33.3424789,71.679332 L61.7344738,82.6903911 C66.7536915,80.2085241 70.3311574,75.5317328 71.4122643,70.0380039 L71.4122643,70.0380039 L79.3572198,29.6710217 C80.3894677,23.6663446 77.7291415,17.6264725 72.6018545,14.334707 L72.6018545,14.334707 L72.6018545,14.334707 C69.0111387,12.028815 64.635368,11.3601104 60.5477819,12.4354205 L60.5477819,12.4354205 L60.5444695,12.425069 L60.3378543,12.4913184 C59.9722406,12.5931768 59.6086972,12.7037304 59.2488803,12.8337448 L59.2488803,12.8337448 L59.2385288,12.8457525 L44.057072,17.7395105 C33.8629505,20.7708332 23.3379962,14.0924828 21.7451129,3.57042689 L21.7451129,3.57042689 C21.4589985,1.67983554 19.8276078,0.36934013 17.9887738,0.36934013 L17.9887738,0.36934013 C17.7337137,0.36934013 17.474513,0.394597799 17.2144843,0.446769177 L17.2144843,0.446769177 Z"/>
  </defs>
  <g fill="none" fill-rule="evenodd">
    <polygon points="0 0 384 0 384 285 0 285"/>
    <polygon fill="#FFF" points="216.833 263.678 232.398 256.346 228.155 247.34 212.59 254.674"/>
    <path fill="#FF6700" d="M234.946851,261.842307 L218.933965,271.143718 L202.606808,276.663533 C201.912018,275.029244 202.415513,273.132027 203.829109,272.057131 L213.551618,264.612358 C215.147399,263.390472 215.67491,261.220805 214.818223,259.402674 L230.349973,252.085431 L234.946851,261.842307 Z"/>
    <path fill="#FF9357" d="M202.606642,276.663491 L234.769054,261.434832 L235.458876,262.898943 C235.972308,263.988745 235.568187,265.320771 234.497018,265.871055 C233.875516,266.18988 215.514504,274.826313 207.702875,278.499427 C205.788268,279.399176 203.508462,278.57727 202.606642,276.663491"/>
    <path fill="#FF9357" d="M234.812986,261.528119 L221.336208,267.877293 C220.638105,266.394963 221.273685,264.626519 222.756015,263.928417 L233.548037,258.843778 L234.812986,261.528119 Z"/>
    <path fill="#FF6700" d="M232.162473,264.374772 L225.670035,267.433422 C225.118095,267.693451 224.460156,267.456609 224.200541,266.905084 C223.940926,266.353143 224.177354,265.695204 224.72888,265.436004 L231.221732,262.376939 C231.773258,262.11691 232.430783,262.353338 232.690812,262.904864 C232.950426,263.456804 232.713999,264.114743 232.162473,264.374772"/>
    <path fill="#FFB280" d="M132.114375,180.74749 L123.788485,192.35645 L127.715831,201.765516 C132.283311,201.610244 136.80483,202.837928 140.668824,205.324764 C141.698588,205.987671 143.053388,205.831571 143.90552,204.951697 C145.016853,203.804341 144.822246,201.93114 143.498915,201.035945 L142.767273,200.541559 C142.727523,200.514232 142.686118,200.49063 142.646782,200.463716 C143.341158,200.740722 144.027667,201.042156 144.696786,201.389965 C145.783276,201.954741 147.117372,201.673595 147.884623,200.718776 C148.885402,199.473702 148.518546,197.626587 147.117786,196.85768 L146.343497,196.432442 C146.009352,196.249014 145.669824,196.076352 145.328225,195.910729 C146.027156,196.078836 146.721118,196.272202 147.405971,196.507801 C148.563679,196.907367 149.841878,196.434513 150.461309,195.377835 C151.268309,193.99902 150.6348,192.225607 149.136736,191.670355 L148.308619,191.363538 C147.803053,191.175969 147.290449,191.01283 146.775774,190.862941 C147.205567,190.91387 147.635774,190.959002 148.064324,191.034775 C149.270063,191.248015 150.458825,190.580553 150.904766,189.439821 C151.486104,187.951695 150.583042,186.299601 149.016245,185.985331 L148.150448,185.81184 C143.264971,184.832592 138.210973,185.509578 133.768539,187.700362 L136.499669,183.892265 C137.36795,182.681558 137.09053,180.995925 135.879409,180.127231 C134.668288,179.258536 132.982655,179.535955 132.114375,180.74749"/>
    <path fill="#0C266D" d="M240.020683,168.269919 L239.311665,260.590898 C239.291526,263.115827 241.332835,265.173284 243.858178,265.173284 L259.247906,265.173284 C261.758757,265.173284 263.793855,263.137772 263.793855,260.627335 L263.793855,177.372582 L240.020683,168.269919 Z"/>
    <path fill="#0C266D" d="M239.002927,196.873539 L257.915052,187.681853 L255.71433,162.418071 L230.35076,174.282918 C203.150839,187.006524 191.44085,219.389629 204.212071,246.56719 L207.418541,253.390875 C208.511241,255.716642 211.290402,256.706242 213.607474,255.593666 L227.672215,248.842856 C229.988873,247.73028 230.955285,244.943252 229.824491,242.635704 L225.953044,234.737537 C219.08257,220.679007 224.929905,203.713786 239.002927,196.873539"/>
    <path fill="#FFF" d="M130.934473,98.2487255 L232.266609,153.602143 C237.470082,156.444241 243.992333,154.530462 246.834431,149.326988 L273.508497,100.496235 C276.351009,95.2927615 274.436816,88.7705112 269.233756,85.9284133 L167.901621,30.57541 C162.698561,27.732898 156.176311,29.6466766 153.333799,34.8501505 L126.659733,83.6809035 C123.817635,88.8843773 125.731414,95.4066276 130.934473,98.2487255"/>
    <polygon fill="#0633EF" points="143.146 53.501 263.321 119.147 271.019 105.055 150.844 39.408"/>
    <path fill="#FFB280" d="M147.709103 83.6701794L162.902982 91.9501083C164.386554 92.7587646 166.244848 92.2113792 167.053505 90.7278074L172.588225 80.5713652C173.396882 79.0877934 172.849496 77.2294986 171.365925 76.4212563L156.171632 68.1409134C154.68806 67.3326711 152.830179 67.8796425 152.021937 69.3632143L146.486802 79.5204846C145.67856 81.0040564 146.225532 82.8619371 147.709103 83.6701794M204.37608 138.378038L200.529062 140.048764C198.397903 140.974185 195.965309 140.896342 193.8975 139.836352L180.845547 133.14558 190.014873 130.481528 204.37608 138.378038zM213.10932 108.101621L209.115311 104.448797 220.444782 92.0634775C221.453428 90.9608396 223.165146 90.8842387 224.267784 91.8928854 225.370836 92.9019461 225.447023 94.6136641 224.438376 95.7167161L213.10932 108.101621z"/>
    <path fill="#FFB280" d="M198.939533 128.97158L198.939533 128.97158C200.151068 129.579832 200.639657 131.054709 200.031819 132.26583L196.911888 138.479607C196.303636 139.690728 194.828345 140.179317 193.617224 139.571479 192.406103 138.963227 191.9171 137.488351 192.525352 136.277229L195.645283 130.063453C196.253535 128.852331 197.727997 128.363328 198.939533 128.97158M186.307517 122.628866L186.307517 122.628866C187.518639 123.237118 188.007228 124.71158 187.39939 125.923116L184.279873 132.136892C183.671206 133.348013 182.19633 133.836603 180.985209 133.228765 179.773673 132.620513 179.28467 131.145222 179.893336 129.934515L183.012853 123.720738C183.621105 122.509617 185.095982 122.020614 186.307517 122.628866"/>
    <path fill="#FFB280" d="M194.738702,126.862449 L194.739116,126.862449 C195.950237,127.470701 196.438826,128.945163 195.830988,130.156699 L192.711057,136.370475 C192.102805,137.581597 190.627514,138.070186 189.416393,137.462348 C188.205272,136.854096 187.716269,135.378805 188.324521,134.168098 L191.444452,127.954321 C192.052704,126.742786 193.52758,126.253783 194.738702,126.862449"/>
    <path fill="#FFB280" d="M190.478453 124.723008L190.478453 124.723008C191.689575 125.33126 192.178164 126.806137 191.570326 128.017258L188.450394 134.231035C187.842142 135.44257 186.367266 135.931159 185.156145 135.323321L185.156145 135.322907C183.944609 134.714655 183.455606 133.239779 184.063858 132.028657L187.183789 125.814881C187.792041 124.603759 189.266918 124.114756 190.478453 124.723008M220.432153 105.183834L222.382783 106.071161 214.525193 105.466222 213.66478 99.6122617 210.071166 80.1618613C209.799543 78.6923675 210.770925 77.2804278 212.240832 77.0092195 213.71074 76.7375971 215.121852 77.7089784 215.393474 79.1784722L220.432153 105.183834z"/>
    <line x1="180.846" x2="183.209" y1="133.146" y2="128.363" fill="#FFB280"/>
    <path fill="#FFB280" d="M291.614242,111.566546 C288.42185,113.232718 287.420657,116.837926 284.291616,115.674835 C284.20632,115.643367 284.104876,115.637984 284.019994,115.604445 C281.394449,114.561432 279.133275,112.580162 277.723406,109.879672 C274.601818,103.899424 276.91889,96.5213147 282.898723,93.3993132 C284.851424,92.379901 286.953185,91.9165695 289.007329,91.9952406 C289.096352,91.9985531 289.18496,92.0271231 289.273983,92.0320918 C293.412084,92.2813551 294.462965,94.7073241 296.521664,98.6499897 C298.123242,101.718164 298.102953,102.624538 297.081471,105.665384 C296.86202,106.318354 296.765544,107.737333 296.438438,108.346413 C295.985044,109.191092 297.431765,110.781077 296.781693,111.506094 C295.830186,112.568568 292.952893,110.867615 291.614242,111.566546"/>
    <path fill="#FFB280" d="M278.088978,94.374214 C277.616537,94.763015 277.77595,95.7368807 278.444654,96.5488496 C279.113773,97.3612324 280.03878,97.7040729 280.51122,97.3152719 C280.983247,96.926471 280.823835,95.9530193 280.15513,95.1410505 C279.486426,94.3286676 278.561419,93.9858271 278.088978,94.374214"/>
    <path fill="#0C266D" d="M282.656168,98.4076412 C282.357218,98.6544201 282.31457,99.0966346 282.560934,99.3955849 C282.806885,99.6945352 283.249514,99.7375973 283.548464,99.4912324 C283.847828,99.2444535 283.890476,98.8026531 283.644112,98.5032887 C283.397747,98.2043385 282.955532,98.1612764 282.656168,98.4076412"/>
    <path stroke="#0C266D" stroke-linecap="round" stroke-linejoin="round" stroke-width=".5" d="M282.230392,105.85908 C281.538914,106.411434 280.531095,106.29881 279.979155,105.607333"/>
    <path fill="#0C266D" d="M300.279535 101.352964C300.197965 101.012608 300.102732 100.678463 299.995077 100.35177 299.994663 100.3497 299.993835 100.348044 299.993421 100.346388 299.941249 100.189459 299.886179 100.034187 299.828211 99.8809857 299.823242 99.8681499 299.818688 99.8557282 299.813719 99.8428924 299.451418 98.8889015 298.978149 98.001574 298.411717 97.1925036 298.411303 97.1916755 298.410889 97.1912614 298.410475 97.1908473 296.22466 94.0680177 292.661272 92.1103489 288.806387 91.9811626 288.654427 92.2039261 288.377422 92.6005942 288.040378 93.080074 286.172146 95.7375018 285.597433 99.0955167 286.477307 102.223315L287.320745 105.221513C288.10994 104.876188 289.080493 105.02028 289.728909 105.748609 290.263045 106.348994 290.402582 107.242119 290.068437 107.972932 289.800127 108.557583 289.331413 108.939345 288.801418 109.107452 287.600234 109.487558 286.523682 110.178622 285.85829 111.248549 285.62269 111.627413 285.381294 112.069627 285.135758 112.589271 285.135758 112.589271 283.804145 115.554758 283.819334 115.590367L284.827698 115.939419C286.493456 116.441258 288.334774 116.558022 290.145866 116.293439 290.32681 116.267353 290.507339 116.237127 290.688283 116.203174 290.871297 116.167979 291.054725 116.129885 291.237738 116.086409 297.803051 114.514229 301.850887 107.917862 300.279535 101.352964M310.568724 115.063395C311.20182 117.781689 309.511219 120.499156 306.792924 121.132251 304.074216 121.765761 301.357578 120.07516 300.724482 117.356451 300.090973 114.638157 301.781574 111.921105 304.499868 111.288009 307.218163 110.654913 309.935629 112.3451 310.568724 115.063395"/>
    <path fill="#FFB280" d="M218.746396,97.4772516 C218.606444,92.8733346 214.760669,89.2544629 210.156752,89.3944147 C205.55242,89.5343664 201.933963,93.3801423 202.0735,97.9844734 C202.213866,102.58839 206.059642,106.207262 210.663559,106.066896 C215.26789,105.926944 218.886348,102.081169 218.746396,97.4772516"/>
    <g transform="translate(202.077 100.218)">
      <mask id="financial-service-b" fill="#fff">
        <use xlink:href="#financial-service-a"/>
      </mask>
      <polygon fill="#FF9357" points="-9.194 84.736 80.896 87.504 84.225 -20.784 -5.865 -23.554" mask="url(#financial-service-b)"/>
    </g>
    <g transform="translate(202.077 100.218)">
      <mask id="financial-service-d" fill="#fff">
        <use xlink:href="#financial-service-c"/>
      </mask>
      <path fill="#FF6700" d="M101.168582,25.2970728 L83.6228509,44.8990187 C82.8166789,45.8004242 82.3061448,46.8628984 82.0825531,47.9684347 C81.275139,46.0948198 80.0611193,44.3619847 78.4413222,42.9119517 C75.3598985,40.1539077 71.4251001,38.9593488 67.6045818,39.2669943 L99.8903833,25.9015983 C100.330942,25.7194125 100.756594,25.5161098 101.168582,25.2970728 L101.168582,25.2970728 Z M127.678267,15.6760083 L117.74169,6.78161658 L107.814222,17.8725889 C109.168193,14.4822775 109.254732,10.581846 107.748386,6.94227129 L101.759444,-7.52410637 L72.7914933,-33.453281 L72.4643871,-33.3178838 C72.5289802,-33.4027658 72.5919171,-33.4893041 72.6527837,-33.5770845 L51.4968761,-52.5136383 L30.1939777,-28.7139668 L66.1524785,-30.7047603 L41.518479,-20.5069122 C35.7253859,-18.1086851 32.3118872,-12.3921928 32.5669472,-6.47198359 C30.9964231,-11.6112783 28.0470841,-16.4002795 23.7503985,-20.2460554 C23.5396427,-20.4348661 23.3264025,-20.6199502 23.1115062,-20.8017219 L-16.6927705,23.6677524 L-9.55936977,30.0529493 C2.31872789,35.6472944 16.9283698,33.0797173 26.1333055,22.7961592 C32.332176,15.8710299 34.7813324,6.89589674 33.6232106,-1.644889 C33.6360464,-1.61259243 33.647226,-1.57988181 33.6604759,-1.54758524 L47.5003829,31.8835022 C49.9880467,37.8927339 56.0465514,41.3418417 62.1998756,40.7903157 C60.6426014,41.5815816 59.2016776,42.6655869 57.9661269,44.04523 C54.1526476,48.3054784 53.3228743,54.1967035 55.3306442,59.1620936 L29.8130438,25.8800673 C28.2677773,23.8648443 25.267509,23.7836888 23.6013374,25.7003658 C17.325452,32.9182345 13.0312507,40.3667338 10.4077757,47.9249586 L49.4025679,100.652417 L70.7514268,79.2749877 L60.0115761,65.2669729 C65.9678084,69.793875 74.4982427,69.058093 79.5750146,63.386733 C82.1757163,60.4816982 83.3855954,56.81728 83.2576513,53.2054473 C83.5135395,53.5466315 83.8058648,53.867941 84.1358695,54.1635788 L89.1840713,58.6821997 L127.678267,15.6760083 Z" mask="url(#financial-service-d)"/>
    </g>
    <line x1="150.938" x2="157.32" y1="71.533" y2="75.069" stroke="#0C266D" stroke-linecap="round" stroke-linejoin="round" stroke-width=".5"/>
    <line x1="165.072" x2="171.454" y1="79.366" y2="82.902" stroke="#0C266D" stroke-linecap="round" stroke-linejoin="round" stroke-width=".5"/>
    <line x1="147.621" x2="154.002" y1="77.518" y2="81.055" stroke="#0C266D" stroke-linecap="round" stroke-linejoin="round" stroke-width=".5"/>
    <line x1="161.756" x2="168.137" y1="85.351" y2="88.888" stroke="#0C266D" stroke-linecap="round" stroke-linejoin="round" stroke-width=".5"/>
    <polygon fill="#FFF" points="243.018 275.128 260.224 275.128 260.224 265.173 243.018 265.173"/>
    <path fill="#FF6700" d="M260.187446,281.186998 L241.737411,282.776569 L224.614848,280.811447 C224.682754,279.036792 225.946874,277.535002 227.68385,277.165247 L239.651798,274.574069 C241.616092,274.148831 243.018094,272.411441 243.018094,270.401187 L260.187446,270.401187 L260.187446,281.186998 Z"/>
    <path fill="#FF9357" d="M224.614807,280.811364 L260.199827,280.742216 L260.199827,282.360771 C260.199827,283.565268 259.266539,284.598758 258.063699,284.63975 C257.365182,284.663351 237.074242,284.650515 228.442364,284.64389 C226.326525,284.642234 224.614807,282.926789 224.614807,280.811364"/>
    <line x1="236.091" x2="237.727" y1="271.041" y2="275.098" stroke="#0C266D" stroke-linecap="round" stroke-linejoin="round" stroke-width=".5"/>
    <line x1="233.589" x2="237.727" y1="273.168" y2="275.098" stroke="#0C266D" stroke-linecap="round" stroke-linejoin="round" stroke-width=".5"/>
    <line x1="210.251" x2="213.421" y1="261.889" y2="264.902" stroke="#0C266D" stroke-linecap="round" stroke-linejoin="round" stroke-width=".5"/>
    <line x1="208.856" x2="213.421" y1="264.861" y2="264.903" stroke="#0C266D" stroke-linecap="round" stroke-linejoin="round" stroke-width=".5"/>
    <path fill="#FF9357" d="M260.199951,280.845731 L245.302538,280.845731 C245.302538,279.206887 246.630838,277.878173 248.270096,277.878173 L260.199951,277.878173 L260.199951,280.845731 Z"/>
    <path fill="#FF6700" d="M256.589484,282.29092 L249.412194,282.29092 C248.802285,282.29092 248.308313,281.796948 248.308313,281.187039 C248.308313,280.577131 248.802285,280.082745 249.412194,280.082745 L256.589484,280.082745 C257.199393,280.082745 257.693365,280.577131 257.693365,281.187039 C257.693365,281.796948 257.199393,282.29092 256.589484,282.29092"/>
    <path fill="#FFB280" d="M152.59694,121.509997 L152.59694,121.509997 C150.922902,121.536496 149.587149,122.91614 149.614477,124.590178 L149.86167,139.911587 L155.924729,139.813869 L155.677536,124.49246 C155.650622,122.818422 154.271393,121.483083 152.59694,121.509997"/>
    <path fill="#FFB280" d="M167.357879,140.076755 C167.280036,135.241793 163.297207,131.38608 158.463073,131.463923 C153.628112,131.54218 149.771984,135.524181 149.850241,140.359143 C149.928085,145.193276 153.9105,149.049404 158.745047,148.971561 C163.579595,148.893718 167.435308,144.911302 167.357879,140.076755"/>
    <polyline stroke="#0C266D" stroke-linecap="round" stroke-linejoin="round" stroke-width=".5" points="254.499 68.42 256.004 59.709 260.813 67.118"/>
    <path stroke="#0C266D" stroke-linecap="round" stroke-linejoin="round" stroke-width=".5" d="M256.07394,60.0340611 C265.699973,101.468486 239.914063,142.861506 198.479224,152.487539 C177.107178,157.452515 155.745897,152.996417 138.749622,141.8305"/>
    <polyline stroke="#0C266D" stroke-linecap="round" stroke-linejoin="round" stroke-width=".5" points="147.649 228.154 148.938 219.588 153.806 226.745"/>
    <polygon fill="#FF6700" points="189.056 273.956 172.87 279.426 167.399 263.239 183.586 257.769"/>
    <polygon fill="#FF6700" points="123.555 259.602 117.858 268.833 133.427 276.252 138.327 267.35"/>
    <path fill="#0633EF" d="M136.405802,210.77808 C139.030933,215.740986 139.375844,223.396101 134.490781,232.727738 C129.893489,241.508678 125.042793,249.168347 121.882698,253.911388 C120.067051,256.636721 121.021042,260.334678 123.93146,261.836055 L136.821931,268.487077 C139.415593,269.8249 142.602602,268.899479 144.076236,266.380761 L159.470519,240.065684 C165.227589,230.223926 168.269263,229.996194 167.716909,219.255929 C166.940136,204.153972 132.988991,204.317939 136.405802,210.77808"/>
    <path fill="#0C266D" d="M150.752268,235.179627 L157.406189,244.897582 L155.21996,222.436976 L134.307105,215.831085 C136.055674,216.96809 137.889953,218.574637 137.889953,221.232065 C137.889953,223.524293 137.598042,225.007037 137.068875,226.666584 C142.57751,227.459092 147.559877,230.516914 150.752268,235.179627"/>
    <path fill="#0633EF" d="M95.0488469,193.857454 L95.0488469,193.857454 C95.0488469,202.635909 100.192282,210.684379 108.268908,214.123963 C111.411613,215.462615 114.792401,216.201709 118.072573,216.201709 L124.662729,216.201709 C136.223657,216.201709 146.587957,223.294532 150.809284,234.057156 C154.454241,243.351114 160.500324,259.916769 163.440968,267.98677 C164.463693,270.792845 167.524414,272.282213 170.364441,271.357621 L185.172831,266.536737 C188.160678,265.564528 189.743209,262.305473 188.66086,259.356134 L176.299142,225.605807 C169.223296,206.44649 150.942197,193.739033 130.518345,193.781986 L95.0488469,193.857454 Z"/>
    <path fill="#0C266D" d="M119.101881,266.819498 L115.708257,272.287969 L131.512044,281.579443 C131.917407,281.912346 136.836837,281.872596 137.361863,281.871354 L152.452227,282.133867 L152.780575,281.806761 C152.780575,279.822592 151.662617,278.007774 149.890447,277.114649 L137.238473,270.740218 C135.332562,269.779602 133.007623,270.435057 131.892564,272.254844 C131.877657,272.27886 131.862751,272.302461 131.848259,272.32689 L131.268991,273.247343 L131.082251,273.034931 C128.009936,269.534065 123.733954,267.315126 119.101881,266.819498"/>
    <path fill="#FFF" d="M117.369998,269.609962 L124.717467,273.937288 C126.112016,274.759195 126.580317,276.554138 125.764207,277.951586 L131.26042,281.04833 C131.741142,281.317054 132.280661,281.463631 132.831773,281.473982 L152.780699,281.806885 C152.780699,283.454838 151.444533,284.790591 149.79658,284.790591 L131.217772,284.790591 C131.033102,284.790591 130.85133,284.744631 130.688191,284.65685 L116.924471,277.225741 C115.156855,276.271336 114.56972,274.01803 115.6471,272.322046 L117.369998,269.609962 Z"/>
    <path fill="#0C266D" d="M171.064987,274.061506 L172.459536,278.236872 L182.948053,278.237286 L186.260108,281.664863 L212.562763,281.806885 C212.562763,278.949881 210.691218,276.430335 207.956362,275.604288 L189.547732,270.045966 C188.035177,269.484917 186.44809,270.67078 186.556159,272.279398 L186.612885,273.121179 L184.757489,272.698839 C180.166408,271.652927 175.359602,272.131165 171.064987,274.061506"/>
    <path fill="#FFF" d="M209.576448,284.793034 L177.958937,284.793034 C175.960277,284.793034 174.190591,283.500757 173.581925,281.596502 L212.562639,281.806844 C212.562639,283.456039 211.225644,284.793034 209.576448,284.793034"/>
    <path fill="#3B7CFF" d="M168.156888,150.270504 L168.072834,149.458535 C167.955656,148.323186 166.992555,147.464429 165.85141,147.476437 L152.390366,147.621771 C151.050887,147.635849 150.054662,148.825439 150.227325,150.153739 C150.98795,156.005215 145.044968,160.174784 139.945009,157.959157 C139.29121,157.675527 138.698278,157.269335 138.153377,156.810144 L120.350102,141.617922 C117.52498,139.206445 113.921015,137.902575 110.206909,137.946879 C101.806075,138.047909 95.049054,144.886914 95.049054,153.288162 L95.049054,193.857619 L129.43289,193.783503 C131.184358,188.519576 131.426168,182.870576 130.130579,177.476635 L129.850675,176.312302 C147.708192,185.819915 170.373757,171.692651 168.156888,150.270504"/>
    <polygon fill="#FFB280" points="135.171 284.604 120.939 219.106 115.679 218.424 130.065 284.606"/>
    <polygon fill="#FFB280" points="101.467 284.606 115.846 218.431 120.827 218.244 106.402 284.605"/>
    <path fill="#FF9357" d="M140.577897,223.23056 L95.1378695,223.23056 C93.2079426,223.23056 91.6432154,221.665833 91.6432154,219.735906 C91.6432154,217.805565 93.2079426,216.240838 95.1378695,216.240838 L140.577897,216.240838 C142.508238,216.240838 144.072551,217.805565 144.072551,219.735906 C144.072551,221.665833 142.508238,223.23056 140.577897,223.23056"/>
    <path fill="#FF6700" d="M162.279203,107.525418 C161.858519,105.77395 160.956286,104.116059 159.572916,102.763744 C159.083499,102.285921 158.558058,101.868964 158.004462,101.512873 C157.312984,101.066932 156.57803,100.716639 155.818647,100.460751 C155.666688,100.409407 155.514314,100.362205 155.360284,100.318728 C151.97991,99.3601829 148.193759,100.235089 145.565315,102.924813 C141.741484,106.836838 141.813531,113.108169 145.725556,116.932 L145.725556,116.932414 C148.904697,120.039095 153.641113,120.574059 157.356046,118.566703 C158.213562,118.103785 159.016421,117.505057 159.733571,116.771345 C162.205086,114.242689 163.048109,110.727332 162.279203,107.525418"/>
    <path fill="#FF9357" d="M159.346426,108.23263 C159.053687,107.014883 158.425974,105.861316 157.464116,104.921403 C157.124174,104.588914 156.758146,104.299073 156.373486,104.051052 C155.892349,103.741336 155.381401,103.497456 154.853477,103.319825 C154.748306,103.284216 154.641893,103.251505 154.534652,103.220865 C152.183627,102.554231 149.551043,103.162483 147.722974,105.032785 L147.722974,105.033199 C145.063476,107.753978 145.113577,112.115257 147.834356,114.774755 C150.045015,116.935312 153.33885,117.307137 155.922576,115.911345 C156.51882,115.589622 157.077385,115.173079 157.575912,114.662959 C159.294669,112.904038 159.88139,110.45985 159.346426,108.23263"/>
    <path fill="#FF6700" d="M154.010536,111.568575 C154.025028,111.255961 153.966646,110.959081 153.833733,110.679177 C153.701649,110.398032 153.510768,110.059332 153.259848,109.663078 C153.013483,109.287112 152.848688,108.988576 152.765876,108.767883 C152.68265,108.547604 152.712877,108.363348 152.856555,108.216357 C152.999405,108.070194 153.182005,108.016781 153.401456,108.056944 C153.621735,108.09628 153.870998,108.251552 154.148004,108.52276 C154.54343,108.908663 154.82913,109.407603 155.005519,110.01834 L156.046462,109.564946 C155.970275,109.251503 155.833222,108.934749 155.636544,108.614681 C155.556631,108.485495 155.469264,108.362106 155.377758,108.241615 L155.91769,107.68926 L155.071768,106.862386 L154.546328,107.399834 C154.284643,107.194875 154.023372,107.03836 153.763757,106.9394 C153.377027,106.792824 153.018452,106.754316 152.686377,106.82512 C152.354716,106.895096 152.067359,107.054923 151.823893,107.303358 C151.545232,107.589058 151.396171,107.889665 151.378366,108.206834 C151.359733,108.523588 151.416045,108.821711 151.548544,109.102856 C151.681043,109.383588 151.871924,109.721874 152.122843,110.117714 C152.286396,110.373602 152.410614,110.583116 152.495082,110.745427 C152.57955,110.907738 152.629237,111.061353 152.642901,111.206274 C152.656151,111.351608 152.613089,111.474584 152.514129,111.576442 C152.378317,111.715152 152.202757,111.760698 151.986618,111.713081 C151.770065,111.664637 151.52163,111.503568 151.24007,111.228633 C150.987081,110.98144 150.775083,110.694083 150.602006,110.365321 C150.42893,110.036558 150.316306,109.715249 150.26372,109.401807 L149.198348,109.818764 C149.246379,110.152909 149.383432,110.520593 149.609922,110.920987 C149.787967,111.234844 150.000793,111.526755 150.247572,111.798378 L149.796662,112.259225 L150.642998,113.0861 L151.149392,112.568112 C151.308804,112.667901 151.467803,112.753611 151.627215,112.814477 C152.016016,112.963538 152.377075,113.003288 152.71122,112.934968 C153.044538,112.866649 153.33148,112.710134 153.570806,112.46584 C153.849053,112.180968 153.996044,111.881189 154.010536,111.568575"/>
    <line x1="160.41" x2="159.087" y1="95.945" y2="98.231" stroke="#0C266D" stroke-linecap="round" stroke-linejoin="round" stroke-width=".5"/>
    <line x1="152.651" x2="152.649" y1="93.859" y2="96.501" stroke="#0C266D" stroke-linecap="round" stroke-linejoin="round" stroke-width=".5"/>
    <line x1="144.889" x2="146.208" y1="95.933" y2="98.221" stroke="#0C266D" stroke-linecap="round" stroke-linejoin="round" stroke-width=".5"/>
    <path fill="#FFB280" d="M102.463518,126.479941 C105.986742,132.125216 113.419507,133.845215 119.064781,130.321991 C124.710055,126.798767 126.430055,119.366001 122.90683,113.721141 C119.383192,108.075453 111.950841,106.35504 106.305153,109.878678 C100.660293,113.401902 98.9398794,120.834667 102.463518,126.479941"/>
    <path fill="#FFB280" d="M125.560615,114.602838 C125.891447,115.132418 125.420663,116.023472 124.50932,116.592389 C123.597977,117.161305 122.590987,117.192774 122.260154,116.662779 C121.929321,116.132784 122.400106,115.242144 123.311448,114.673227 C124.223205,114.104311 125.229782,114.072843 125.560615,114.602838"/>
    <path fill="#0C266D" d="M120.246587,115.739056 C120.456101,116.074857 120.353828,116.516658 120.018027,116.726585 C119.682639,116.936099 119.240011,116.833826 119.030497,116.497611 C118.821398,116.161809 118.92367,115.720009 119.259057,115.510495 C119.595273,115.300568 120.037073,115.40284 120.246587,115.739056"/>
    <path fill="#FF6700" d="M115.656375,119.562224 C115.51601,119.272797 115.495307,118.941964 115.599649,118.637631 C116.21494,116.845172 118.349412,110.44424 118.208632,108.355315 L118.207804,108.354901 L118.210703,108.318878 C118.252937,107.776047 118.235546,107.241912 118.167226,106.721026 C117.059206,107.908132 115.752437,108.903115 114.289568,109.611983 C110.62722,111.386224 106.702773,111.339021 103.288861,109.936605 L103.424258,110.408217 C103.329438,110.500552 103.229236,110.586263 103.136487,110.682738 C98.3151892,115.688292 98.4642503,123.65395 103.46939,128.475662 C103.608928,128.610231 103.751778,128.739418 103.896284,128.866534 C104.038721,128.990751 104.184055,129.111242 104.330218,129.229249 C105.241147,129.96089 106.239028,130.568728 107.280385,131.026263 C107.918863,131.306167 108.573904,131.529758 109.234741,131.690827 L110.311294,131.90738 C110.317919,131.902825 110.389137,131.567852 110.496792,131.044482 C110.923686,128.971704 110.48644,126.857936 109.51009,124.979766 C109.210312,124.402154 109.092305,123.715645 109.233499,122.995183 C109.466614,121.803937 110.428472,120.85036 111.622617,120.632979 C111.859044,120.589503 112.124456,120.608964 112.394836,120.666104 C113.520661,120.901703 114.451465,121.691727 114.95289,122.726873 L115.860506,124.600488 L118.862017,130.79439 C120.150567,133.453888 123.302795,134.751962 126.019847,133.589699 C128.920741,132.34918 130.167057,128.954728 128.807289,126.147825 L124.253887,116.750352 L117.28404,120.127414 C116.678686,120.420567 115.949943,120.167991 115.656375,119.562224"/>
    <path stroke="#0C266D" stroke-linecap="round" stroke-linejoin="round" stroke-width=".5" d="M122.655331,120.840423 C122.618066,120.965054 122.566723,121.080991 122.508341,121.191958 C122.448302,121.305824 122.377084,121.410167 122.297585,121.507885 C122.216429,121.607673 122.129477,121.699594 122.032173,121.78075 C121.934041,121.861905 121.833425,121.941818 121.721629,122.002271 C121.609833,122.062723 121.489756,122.108684 121.368023,122.146777 C121.247118,122.184043 121.12083,122.204331 120.9933,122.217167 C120.868255,122.230417 120.741139,122.230417 120.61278,122.218409 C120.488563,122.206816 120.363103,122.184871 120.238472,122.148019"/>
    <path fill="#0C266D" d="M102.890495,127.866044 C97.8273868,123.639748 97.149573,116.109265 101.375869,111.046986 C105.60175,105.983878 113.131819,105.306064 118.194927,109.531945 L102.890495,127.866044 Z"/>
    <path fill="#0C266D" d="M123.071005,103.644447 L115.572404,112.683759 L113.529853,110.989431 L121.02804,101.950119 C121.495926,101.386171 122.332738,101.307914 122.896686,101.7758 C123.460634,102.243687 123.538891,103.080499 123.071005,103.644447"/>
    <path fill="#FF6700" d="M99.7809979,123.835846 L101.063751,122.322876 C101.598301,121.691851 102.570096,121.688125 103.109201,122.315423 C103.537751,122.81395 103.543134,123.549732 103.121208,124.054055 L101.290655,126.251464 C100.734575,125.59808 100.11887,124.616761 99.767748,123.851995 L99.7809979,123.835846 Z"/>
    <path fill="#0C266D" d="M101.088305,110.712136 C101.287881,111.094312 101.140476,111.565925 100.7583,111.765501 C100.376124,111.965078 99.9049256,111.817673 99.7049353,111.435497 C99.5053591,111.053321 99.653178,110.582122 100.03494,110.382132 C100.417116,110.182555 100.888729,110.330374 101.088305,110.712136"/>
    <path fill="#FFF" d="M187.640703,282.134033 L173.793757,282.134033 L172.460074,278.237328 L183.348986,278.237328 C184.946838,278.237328 186.390246,279.192147 187.015061,280.662469 L187.640703,282.134033 Z"/>
    <path fill="#0633EF" d="M183.238888 282.134033L176.861972 282.134033C176.339016 282.134033 175.915434 281.710451 175.915434 281.187495 175.915434 280.664539 176.339016 280.240957 176.861972 280.240957L183.238888 280.240957C183.761844 280.240957 184.185426 280.664539 184.185426 281.187495 184.185426 281.710451 183.761844 282.134033 183.238888 282.134033M123.115061 277.073533L117.592348 273.884869C117.139368 273.623598 116.98451 273.044744 117.245781 272.591764 117.507052 272.139198 118.085905 271.983926 118.538885 272.245611L124.061598 275.433862C124.514164 275.695132 124.669436 276.273986 124.408165 276.726966 124.14648 277.179532 123.567627 277.334804 123.115061 277.073533"/>
    <path stroke="#0633EF" stroke-linecap="round" stroke-linejoin="round" stroke-width=".5" d="M117.938128,167.476583 L118.172071,167.723775 C122.346195,172.129773 127.45692,175.546998 133.134077,177.692649 C133.171756,177.706727 133.209435,177.721219 133.246701,177.735297"/>
    <line x1="64" x2="320" y1="284.5" y2="284.5" stroke="#0C266D" stroke-linecap="round" stroke-linejoin="round" stroke-width=".5"/>
  </g>
</svg>
