<svg xmlns="http://www.w3.org/2000/svg" xmlns:xlink="http://www.w3.org/1999/xlink" width="384" height="285" viewBox="0 0 384 285">
  <defs>
    <path id="gaming-a" d="M1.09115915,3.15070638 L0.659581277,9.83734468 C-0.266212766,30.5154996 11.7133617,45.1678502 21.9083711,53.8131881 L21.9083711,53.8131881 C21.9284153,53.829474 21.9478332,53.8463864 21.9685038,53.8639251 L21.9685038,53.8639251 C28.3225328,59.1900596 31.5039319,67.4038196 30.4021243,75.6219643 L30.4021243,75.6219643 L27.1605923,99.8009736 C26.7133549,103.130199 29.2984374,106.092364 32.6589821,106.101134 L32.6589821,106.101134 L71.8830843,106.187596 C76.2339404,106.198223 79.5155609,102.238856 78.7000102,97.9644187 L78.7000102,97.9644187 L75.0713736,78.9655966 C74.0240613,73.4797345 77.3532868,68.1310502 82.7201362,66.585137 L82.7201362,66.585137 C95.0673974,63.0291609 109.785518,55.3027268 117.604031,38.5469821 L117.604031,38.5469821 L122.14656,29.284657 C122.829317,27.5708732 121.944865,25.6322179 120.202267,25.0271319 L120.202267,25.0271319 L107.117753,20.4426349 C105.488531,19.8763847 103.700208,20.6888034 103.05378,22.2879591 L103.05378,22.2879591 C102.522608,23.6039898 101.683881,25.3954451 101.029311,26.6250349 L101.029311,26.6250349 C92.2586962,43.2298213 73.1183115,51.3615251 54.8116426,47.4416204 L54.8116426,47.4416204 C54.1984136,47.2818928 53.6165038,47.1409566 53.0753089,47.0231966 L53.0753089,47.0231966 C34.9753464,42.4048749 21.5344204,26.70208 20.8936306,8.14109957 L20.8936306,8.14109957 C20.8692017,7.42764936 20.886114,6.71357277 20.9337191,6.00137532 L20.9337191,6.00137532 L21.0496,4.29761362 C21.1686128,2.54436766 19.8287796,1.03165277 18.0742809,0.938321702 L18.0742809,0.938321702 L4.40409872,0.207332766 C4.34647149,0.204200851 4.28947064,0.202947856 4.23309617,0.202947856 L4.23309617,0.202947856 C2.5832034,0.202947856 1.19889702,1.48515404 1.09115915,3.15070638"/>
    <path id="gaming-c" d="M1.09115915,3.15070638 L0.659581277,9.83734468 C-0.266212766,30.5154996 11.7133617,45.1678502 21.9083711,53.8131881 L21.9083711,53.8131881 C21.9284153,53.829474 21.9478332,53.8463864 21.9685038,53.8639251 L21.9685038,53.8639251 C28.3225328,59.1900596 31.5039319,67.4038196 30.4021243,75.6219643 L30.4021243,75.6219643 L27.1605923,99.8009736 C26.7133549,103.130199 29.2984374,106.092364 32.6589821,106.101134 L32.6589821,106.101134 L71.8830843,106.187596 C76.2339404,106.198223 79.5155609,102.238856 78.7000102,97.9644187 L78.7000102,97.9644187 L75.0713736,78.9655966 C74.0240613,73.4797345 77.3532868,68.1310502 82.7201362,66.585137 L82.7201362,66.585137 C95.0673974,63.0291609 109.785518,55.3027268 117.604031,38.5469821 L117.604031,38.5469821 L122.14656,29.284657 C122.829317,27.5708732 121.944865,25.6322179 120.202267,25.0271319 L120.202267,25.0271319 L107.117753,20.4426349 C105.488531,19.8763847 103.700208,20.6888034 103.05378,22.2879591 L103.05378,22.2879591 C102.522608,23.6039898 101.683881,25.3954451 101.029311,26.6250349 L101.029311,26.6250349 C92.2586962,43.2298213 73.1183115,51.3615251 54.8116426,47.4416204 L54.8116426,47.4416204 C54.1984136,47.2818928 53.6165038,47.1409566 53.0753089,47.0231966 L53.0753089,47.0231966 C34.9753464,42.4048749 21.5344204,26.70208 20.8936306,8.14109957 L20.8936306,8.14109957 C20.8692017,7.42764936 20.886114,6.71357277 20.9337191,6.00137532 L20.9337191,6.00137532 L21.0496,4.29761362 C21.1686128,2.54436766 19.8287796,1.03165277 18.0742809,0.938321702 L18.0742809,0.938321702 L4.40409872,0.207332766 C4.34647149,0.204200851 4.28947064,0.202947856 4.23309617,0.202947856 L4.23309617,0.202947856 C2.5832034,0.202947856 1.19889702,1.48515404 1.09115915,3.15070638"/>
    <path id="gaming-e" d="M1.09115915,3.15070638 L0.659581277,9.83734468 C-0.266212766,30.5154996 11.7133617,45.1678502 21.9083711,53.8131881 L21.9083711,53.8131881 C21.9284153,53.829474 21.9478332,53.8463864 21.9685038,53.8639251 L21.9685038,53.8639251 C28.3225328,59.1900596 31.5039319,67.4038196 30.4021243,75.6219643 L30.4021243,75.6219643 L27.1605923,99.8009736 C26.7133549,103.130199 29.2984374,106.092364 32.6589821,106.101134 L32.6589821,106.101134 L71.8830843,106.187596 C76.2339404,106.198223 79.5155609,102.238856 78.7000102,97.9644187 L78.7000102,97.9644187 L75.0713736,78.9655966 C74.0240613,73.4797345 77.3532868,68.1310502 82.7201362,66.585137 L82.7201362,66.585137 C95.0673974,63.0291609 109.785518,55.3027268 117.604031,38.5469821 L117.604031,38.5469821 L122.14656,29.284657 C122.829317,27.5708732 121.944865,25.6322179 120.202267,25.0271319 L120.202267,25.0271319 L107.117753,20.4426349 C105.488531,19.8763847 103.700208,20.6888034 103.05378,22.2879591 L103.05378,22.2879591 C102.522608,23.6039898 101.683881,25.3954451 101.029311,26.6250349 L101.029311,26.6250349 C92.2586962,43.2298213 73.1183115,51.3615251 54.8116426,47.4416204 L54.8116426,47.4416204 C54.1984136,47.2818928 53.6165038,47.1409566 53.0753089,47.0231966 L53.0753089,47.0231966 C34.9753464,42.4048749 21.5344204,26.70208 20.8936306,8.14109957 L20.8936306,8.14109957 C20.8692017,7.42764936 20.886114,6.71357277 20.9337191,6.00137532 L20.9337191,6.00137532 L21.0496,4.29761362 C21.1686128,2.54436766 19.8287796,1.03165277 18.0742809,0.938321702 L18.0742809,0.938321702 L4.40409872,0.207332766 C4.34647149,0.204200851 4.28947064,0.202947856 4.23309617,0.202947856 L4.23309617,0.202947856 C2.5832034,0.202947856 1.19889702,1.48515404 1.09115915,3.15070638"/>
    <path id="gaming-g" d="M1.09115915,3.15070638 L0.659581277,9.83734468 C-0.266212766,30.5154996 11.7133617,45.1678502 21.9083711,53.8131881 L21.9083711,53.8131881 C21.9284153,53.829474 21.9478332,53.8463864 21.9685038,53.8639251 L21.9685038,53.8639251 C28.3225328,59.1900596 31.5039319,67.4038196 30.4021243,75.6219643 L30.4021243,75.6219643 L27.1605923,99.8009736 C26.7133549,103.130199 29.2984374,106.092364 32.6589821,106.101134 L32.6589821,106.101134 L71.8830843,106.187596 C76.2339404,106.198223 79.5155609,102.238856 78.7000102,97.9644187 L78.7000102,97.9644187 L75.0713736,78.9655966 C74.0240613,73.4797345 77.3532868,68.1310502 82.7201362,66.585137 L82.7201362,66.585137 C95.0673974,63.0291609 109.785518,55.3027268 117.604031,38.5469821 L117.604031,38.5469821 L122.14656,29.284657 C122.829317,27.5708732 121.944865,25.6322179 120.202267,25.0271319 L120.202267,25.0271319 L107.117753,20.4426349 C105.488531,19.8763847 103.700208,20.6888034 103.05378,22.2879591 L103.05378,22.2879591 C102.522608,23.6039898 101.683881,25.3954451 101.029311,26.6250349 L101.029311,26.6250349 C92.2586962,43.2298213 73.1183115,51.3615251 54.8116426,47.4416204 L54.8116426,47.4416204 C54.1984136,47.2818928 53.6165038,47.1409566 53.0753089,47.0231966 L53.0753089,47.0231966 C34.9753464,42.4048749 21.5344204,26.70208 20.8936306,8.14109957 L20.8936306,8.14109957 C20.8692017,7.42764936 20.886114,6.71357277 20.9337191,6.00137532 L20.9337191,6.00137532 L21.0496,4.29761362 C21.1686128,2.54436766 19.8287796,1.03165277 18.0742809,0.938321702 L18.0742809,0.938321702 L4.40409872,0.207332766 C4.34647149,0.204200851 4.28947064,0.202947856 4.23309617,0.202947856 L4.23309617,0.202947856 C2.5832034,0.202947856 1.19889702,1.48515404 1.09115915,3.15070638"/>
    <path id="gaming-i" d="M1.09115915,3.15070638 L0.659581277,9.83734468 C-0.266212766,30.5154996 11.7133617,45.1678502 21.9083711,53.8131881 L21.9083711,53.8131881 C21.9284153,53.829474 21.9478332,53.8463864 21.9685038,53.8639251 L21.9685038,53.8639251 C28.3225328,59.1900596 31.5039319,67.4038196 30.4021243,75.6219643 L30.4021243,75.6219643 L27.1605923,99.8009736 C26.7133549,103.130199 29.2984374,106.092364 32.6589821,106.101134 L32.6589821,106.101134 L71.8830843,106.187596 C76.2339404,106.198223 79.5155609,102.238856 78.7000102,97.9644187 L78.7000102,97.9644187 L75.0713736,78.9655966 C74.0240613,73.4797345 77.3532868,68.1310502 82.7201362,66.585137 L82.7201362,66.585137 C95.0673974,63.0291609 109.785518,55.3027268 117.604031,38.5469821 L117.604031,38.5469821 L122.14656,29.284657 C122.829317,27.5708732 121.944865,25.6322179 120.202267,25.0271319 L120.202267,25.0271319 L107.117753,20.4426349 C105.488531,19.8763847 103.700208,20.6888034 103.05378,22.2879591 L103.05378,22.2879591 C102.522608,23.6039898 101.683881,25.3954451 101.029311,26.6250349 L101.029311,26.6250349 C92.2586962,43.2298213 73.1183115,51.3615251 54.8116426,47.4416204 L54.8116426,47.4416204 C54.1984136,47.2818928 53.6165038,47.1409566 53.0753089,47.0231966 L53.0753089,47.0231966 C34.9753464,42.4048749 21.5344204,26.70208 20.8936306,8.14109957 L20.8936306,8.14109957 C20.8692017,7.42764936 20.886114,6.71357277 20.9337191,6.00137532 L20.9337191,6.00137532 L21.0496,4.29761362 C21.1686128,2.54436766 19.8287796,1.03165277 18.0742809,0.938321702 L18.0742809,0.938321702 L4.40409872,0.207332766 C4.34647149,0.204200851 4.28947064,0.202947856 4.23309617,0.202947856 L4.23309617,0.202947856 C2.5832034,0.202947856 1.19889702,1.48515404 1.09115915,3.15070638"/>
    <path id="gaming-k" d="M1.09115915,3.15070638 L0.659581277,9.83734468 C-0.266212766,30.5154996 11.7133617,45.1678502 21.9083711,53.8131881 L21.9083711,53.8131881 C21.9284153,53.829474 21.9478332,53.8463864 21.9685038,53.8639251 L21.9685038,53.8639251 C28.3225328,59.1900596 31.5039319,67.4038196 30.4021243,75.6219643 L30.4021243,75.6219643 L27.1605923,99.8009736 C26.7133549,103.130199 29.2984374,106.092364 32.6589821,106.101134 L32.6589821,106.101134 L71.8830843,106.187596 C76.2339404,106.198223 79.5155609,102.238856 78.7000102,97.9644187 L78.7000102,97.9644187 L75.0713736,78.9655966 C74.0240613,73.4797345 77.3532868,68.1310502 82.7201362,66.585137 L82.7201362,66.585137 C95.0673974,63.0291609 109.785518,55.3027268 117.604031,38.5469821 L117.604031,38.5469821 L122.14656,29.284657 C122.829317,27.5708732 121.944865,25.6322179 120.202267,25.0271319 L120.202267,25.0271319 L107.117753,20.4426349 C105.488531,19.8763847 103.700208,20.6888034 103.05378,22.2879591 L103.05378,22.2879591 C102.522608,23.6039898 101.683881,25.3954451 101.029311,26.6250349 L101.029311,26.6250349 C92.2586962,43.2298213 73.1183115,51.3615251 54.8116426,47.4416204 L54.8116426,47.4416204 C54.1984136,47.2818928 53.6165038,47.1409566 53.0753089,47.0231966 L53.0753089,47.0231966 C34.9753464,42.4048749 21.5344204,26.70208 20.8936306,8.14109957 L20.8936306,8.14109957 C20.8692017,7.42764936 20.886114,6.71357277 20.9337191,6.00137532 L20.9337191,6.00137532 L21.0496,4.29761362 C21.1686128,2.54436766 19.8287796,1.03165277 18.0742809,0.938321702 L18.0742809,0.938321702 L4.40409872,0.207332766 C4.34647149,0.204200851 4.28947064,0.202947856 4.23309617,0.202947856 L4.23309617,0.202947856 C2.5832034,0.202947856 1.19889702,1.48515404 1.09115915,3.15070638"/>
  </defs>
  <g fill="none" fill-rule="evenodd">
    <polygon points="0 0 384 0 384 285 0 285"/>
    <line x1="160.824" x2="160.277" y1="165.694" y2="162.962" stroke="#0C266D" stroke-linecap="round" stroke-linejoin="round" stroke-width=".5"/>
    <line x1="170.727" x2="168.976" y1="165.836" y2="167.82" stroke="#0C266D" stroke-linecap="round" stroke-linejoin="round" stroke-width=".5"/>
    <line x1="164.787" x2="166.664" y1="166.727" y2="160.408" stroke="#0C266D" stroke-linecap="round" stroke-linejoin="round" stroke-width=".5"/>
    <path fill="#FFB280" d="M148.877987,175.222126 C148.118185,175.686902 140.620381,180.741813 140.620381,180.741813 L143.650195,185.427157 L148.877987,175.222126 Z"/>
    <path fill="#FFF" d="M142.925219,182.283028 L141.539034,180.245404 C140.390247,178.556049 138.179116,177.960985 136.33755,178.844812 L132.626857,180.626871 C130.249733,181.768141 127.540001,182.013057 124.996259,181.315266 C121.003068,180.220349 117.970122,176.963784 117.160835,172.902943 L116.028961,167.224781 L108.752896,182.94762 C108.752896,182.94762 130.05806,193.931246 130.240964,194.030214 C130.424494,194.129809 142.925219,189.478289 142.925219,189.478289 L142.925219,182.283028 Z"/>
    <polygon fill="#FFB280" points="257.926 91.162 269.971 95.714 273.396 86.651 261.351 82.099"/>
    <path fill="#0C266D" d="M259.34833,82.6902641 C260.663108,87.8297364 265.894659,90.9303322 271.034131,89.6161807 C276.173603,88.3014028 279.274826,83.0692258 277.960048,77.9297535 C276.64527,72.7902811 271.413719,69.6896854 266.274247,71.0044633 C261.134774,72.3186147 258.033552,77.5507918 259.34833,82.6902641"/>
    <path fill="#FFB280" d="M264.728271 79.8082134L264.728271 79.8082134C265.354654 78.3412244 264.673149 76.6449793 263.20616 76.0185964L260.403097 74.8215785C258.936108 74.1958219 257.239236 74.8767002 256.613479 76.3436891 255.987097 77.8106781 256.668601 79.5075495 258.13559 80.1339325L260.938654 81.330324C262.405643 81.956707 264.101888 81.2752023 264.728271 79.8082134M280.509552 79.441842L280.509552 79.441842C281.135935 77.9754794 280.45443 76.2786079 278.987441 75.652225L278.980551 75.649093C277.513562 75.0227101 275.81669 75.7042147 275.190934 77.1712037 274.564551 78.6381926 275.246055 80.3344377 276.712418 80.9608207L276.719935 80.9639526C278.186924 81.5903356 279.883795 80.9088309 280.509552 79.441842"/>
    <path fill="#FFB280" d="M278.177152,74.7048207 L278.177152,74.7048207 C278.802909,73.2378318 278.121404,71.5409603 276.654415,70.9152037 L276.647525,70.9114454 C275.180536,70.2856888 273.484291,70.9671935 272.857908,72.4341824 C272.231525,73.900545 272.913029,75.5974164 274.380018,76.2237994 L274.386909,76.2269313 C275.853898,76.8526879 277.550769,76.1711833 278.177152,74.7048207"/>
    <path fill="#FFB280" d="M274.336861 71.4811407L274.336861 71.4811407C274.963244 70.0141518 274.281739 68.3172803 272.81475 67.6915237L272.80786 67.6883918C271.340871 67.0620088 269.643999 67.7435135 269.018243 69.2105024 268.39186 70.676865 269.073364 72.3737364 270.539727 73.0001194L270.547244 73.0032513C272.014233 73.6296343 273.711104 72.9481296 274.336861 71.4811407M279.79203 84.6733926L279.79203 84.6733926C280.418413 83.2064037 279.736908 81.5101586 278.269919 80.8837756L278.263029 80.8806437C276.79604 80.2542607 275.099169 80.9357654 274.472786 82.4027543 273.846403 83.8691169 274.527907 85.5659884 275.994896 86.1923713L276.001787 86.1955033C277.468775 86.8218862 279.165647 86.1403815 279.79203 84.6733926"/>
    <path stroke="#0C266D" stroke-linecap="round" stroke-linejoin="round" stroke-width=".5" d="M269.094599,62.9065841 C275.181789,62.0584615 280.904423,65.1089467 283.745697,70.1550879"/>
    <path fill="#3B7CFF" d="M214.802683,168.579961 L214.802683,170.655794 C214.810183,177.328652 212.242013,184.709322 207.465842,189.368359 L207.343698,189.368359 C191.458625,204.863821 181.846779,225.588955 180.065972,247.708417 L178.870833,263.785789 C178.702962,265.651784 177.127609,267.073673 175.254098,267.05175 L157.962169,267.05175 C155.855643,267.026068 154.224542,265.199535 154.436259,263.103031 L156.106823,245.152774 C158.651817,221.513081 167.576522,196.692029 181.539225,176.95658 C183.597519,174.047658 182.456876,173.464495 183.11771,171.959297 L214.802683,168.579961 Z"/>
    <path fill="#0633EF" d="M219.688015,271.961277 L219.557727,280.911037 C219.016532,285.472984 215.510041,282.311629 211.067106,282.311629 L188.626309,282.270914 C186.570521,282.270914 183.483705,282.907319 183.899623,280.893498 L184.103198,279.980232 C184.83544,276.43741 187.790088,273.785304 191.390538,273.436409 L198.684767,272.729849 C199.840444,272.636518 200.807579,271.848528 201.148332,270.766138 C201.21097,270.566948 201.241036,270.358989 201.258575,270.151656 L201.520403,267.032896 L214.831041,267.032896 C217.541401,267.032896 219.727477,269.250918 219.688015,271.961277"/>
    <path fill="#3B7CFF" d="M183.899749,280.893686 L219.561611,280.893686 L219.437587,282.476556 C219.273475,283.681717 218.625168,284.69082 217.418128,284.731535 C216.526785,284.761601 215.75007,284.265506 215.369856,283.530758 C215.00029,284.244209 214.256773,284.732787 213.398002,284.732787 C212.539231,284.732787 211.795715,284.244209 211.426149,283.530758 C211.057209,284.244209 210.313693,284.732787 209.454922,284.732787 C208.59615,284.732787 207.852634,284.244209 207.483068,283.530758 C207.114128,284.244209 206.370612,284.732787 205.511841,284.732787 C204.652443,284.732787 203.908927,284.244209 203.539987,283.530758 C203.171047,284.244209 202.427531,284.732787 201.56876,284.732787 C200.709362,284.732787 199.965846,284.244209 199.596906,283.530758 C199.227967,284.244209 198.48445,284.732787 197.625679,284.732787 C196.766282,284.732787 196.022765,284.244209 195.653825,283.530758 C195.284259,284.244209 194.540743,284.732787 193.681972,284.732787 C192.823201,284.732787 192.079684,284.244209 191.710745,283.530758 C191.341179,284.244209 190.597662,284.732787 189.738891,284.732787 C188.88012,284.732787 188.136603,284.244209 187.767037,283.530758 C187.398098,284.244209 186.654581,284.732787 185.79581,284.732787 C185.336045,284.732787 184.908852,284.593104 184.554319,284.353826 C183.821451,283.858357 183.488842,282.945717 183.662976,282.078803 L183.899749,280.893686 Z"/>
    <path fill="#0633EF" d="M175.783078,267.032833 L175.082156,280.910974 C174.541587,285.472921 171.035095,282.312193 166.592161,282.312193 L144.151364,282.270852 C142.095575,282.270852 139.00876,282.907257 139.425305,280.893436 L139.628253,279.980169 C140.361121,276.437973 143.315143,273.785241 146.915592,273.436346 L154.209822,272.729786 C155.334179,272.638961 156.278765,271.891686 156.643946,270.855648 C156.72287,270.630777 156.763585,270.394004 156.78363,270.156605 L157.045458,267.032833 L175.783078,267.032833 Z"/>
    <path fill="#3B7CFF" d="M139.425054 280.893686L175.08629 280.893686 174.962892 282.476556C174.79878 283.681717 174.150474 284.69082 172.943434 284.731535 172.052091 284.761601 171.275376 284.265506 170.895161 283.530758 170.525595 284.244209 169.782079 284.732787 168.923308 284.732787 168.064537 284.732787 167.32102 284.244209 166.951454 283.530758 166.582514 284.244209 165.838998 284.732787 164.980227 284.732787 164.121456 284.732787 163.377939 284.244209 163.008373 283.530758 162.639434 284.244209 161.895917 284.732787 161.036519 284.732787 160.177748 284.732787 159.434232 284.244209 159.065292 283.530758 158.696353 284.244209 157.952836 284.732787 157.094065 284.732787 156.234668 284.732787 155.491151 284.244209 155.122211 283.530758 154.753272 284.244209 154.009755 284.732787 153.150358 284.732787 152.291587 284.732787 151.54807 284.244209 151.179131 283.530758 150.809565 284.244209 150.066048 284.732787 149.207277 284.732787 148.348506 284.732787 147.604989 284.244209 147.23605 283.530758 146.866484 284.244209 146.122967 284.732787 145.264196 284.732787 144.405425 284.732787 143.661908 284.244209 143.292342 283.530758 142.923403 284.244209 142.179886 284.732787 141.321115 284.732787 140.86135 284.732787 140.434157 284.593104 140.079624 284.353826 139.346756 283.858357 139.014147 282.945717 139.188281 282.078803L139.425054 280.893686zM219.378519 267.051499L201.90306 267.051499C200.10033 267.051499 198.638979 265.590148 198.638979 263.786791L198.638979 168.57971 222.642601 168.57971 222.642601 263.786791C222.642601 265.590148 221.181249 267.051499 219.378519 267.051499"/>
    <polygon fill="#FFB280" points="168.832 72.622 155.966 72.073 156.38 62.393 169.245 62.942"/>
    <path fill="#0C266D" d="M171.16413,63.6916925 C167.935126,67.9009861 161.905563,68.6952398 157.69627,65.4662355 C153.487602,62.2372313 152.692722,56.2076687 155.921727,51.9990015 C159.150731,47.7897078 165.180293,46.9954542 169.389587,50.2244585 C173.598254,53.4528364 174.393134,59.4823989 171.16413,63.6916925"/>
    <path stroke="#0C266D" stroke-linecap="round" stroke-linejoin="round" stroke-width=".5" d="M149.097284,49.7730243 C152.271793,42.4073868 160.801876,39.0161494 168.167514,42.1906583"/>
    <path fill="#FFB280" d="M167.040024 59.5082685L167.040024 59.5082685C167.040651 57.9134975 168.334132 56.6212694 169.929529 56.6218955L172.977509 56.6237749C174.571653 56.6244013 175.864508 57.9178821 175.863256 59.5126532 175.862629 61.1074243 174.569148 62.3996524 172.974377 62.3990262L169.926397 62.3977732C168.331626 62.3965204 167.039398 61.1030396 167.040024 59.5082685M152.672991 52.9682665L152.672991 52.9682665C152.673618 51.3734954 153.967099 50.0812673 155.562496 50.0818935L155.570013 50.0818935C157.164784 50.0825201 158.457638 51.376001 158.456386 52.970772 158.455759 54.5655431 157.162278 55.8583975 155.567507 55.8571457L155.559364 55.8571457C153.964593 55.8565184 152.672365 54.5630375 152.672991 52.9682665"/>
    <path fill="#FFB280" d="M156.680276,49.5292987 L156.680276,49.5292987 C156.680903,47.9345276 157.974384,46.6422995 159.569155,46.6429257 L159.577298,46.6429257 C161.172069,46.6435523 162.464297,47.9370331 162.463671,49.5318042 C162.463044,51.1272016 161.169563,52.4194297 159.574792,52.4181779 L159.566649,52.4181779 C157.971878,52.4175506 156.67965,51.1240697 156.680276,49.5292987"/>
    <path fill="#FFB280" d="M161.478119 48.0743363L161.478119 48.0743363C161.478746 46.4795652 162.772227 45.1873371 164.366998 45.1879633L164.375141 45.1879633C165.969912 45.1892163 167.26214 46.4820707 167.261514 48.0768418 167.260887 49.6722393 165.967406 50.9644673 164.372635 50.9638412L164.364492 50.9638412C162.769721 50.9625882 161.477493 49.6691073 161.478119 48.0743363M151.048028 58.0658964L151.048028 58.0658964C151.048655 56.4711254 152.342136 55.1788973 153.936907 55.1795234L153.94505 55.1795234C155.539821 55.1801501 156.832049 56.4736309 156.831423 58.068402 156.830796 59.6637994 155.537315 60.9560275 153.942544 60.9554014L153.934401 60.9554014C152.33963 60.9541484 151.047402 59.6606675 151.048028 58.0658964"/>
    <g transform="translate(150.93 68.819)">
      <mask id="gaming-b" fill="#fff">
        <use xlink:href="#gaming-a"/>
      </mask>
      <path fill="#FFF" d="M164.5639,152.436812 C165.987042,156.193231 165.977646,160.491471 164.198092,164.443321 C160.638358,172.347648 151.345966,175.869173 143.442266,172.310065 C128.766739,165.700472 122.544251,158.269691 117.545088,152.297755 C113.568182,147.548519 110.941132,144.410967 102.825088,140.756022 C94.7090437,137.101078 90.6187629,137.2132 84.4263408,137.38295 C76.6416531,137.597173 66.9521348,137.862759 52.276608,131.253793 C37.6017076,124.645452 31.3792191,117.214045 26.3800565,111.242109 C22.403151,106.492874 19.7767271,103.355948 11.6613093,99.7010029 C3.54651779,96.0466846 -0.543763064,96.1588071 -6.73493243,96.3291833 C-14.5196201,96.5434063 -24.208512,96.8096191 -38.8834124,90.2006523 C-53.5589392,83.5916854 -59.7808014,76.1609042 -64.7799639,70.1889689 C-68.7562431,65.4397331 -71.3832933,62.3028071 -79.4980848,58.6478625 C-87.4017852,55.0887544 -90.9233103,45.7963629 -87.3635758,37.8926625 C-83.8044677,29.988962 -74.5120763,26.4668106 -66.6083758,30.026545 C-51.932849,36.6348854 -45.7109869,44.0662931 -40.7118243,50.037602 C-36.7355452,54.7868378 -34.108495,57.9243901 -25.9937035,61.5793348 C-17.8795384,65.2330267 -13.7886311,65.1209042 -7.59746179,64.950528 C0.187225872,64.736305 9.87611779,64.4700923 24.5516446,71.0790591 C39.226545,77.6880259 45.4484071,85.1194335 50.4481961,91.0907425 C54.4244752,95.8406046 57.0508991,98.9775306 65.1663169,102.632475 C73.2817348,106.28742 77.372642,106.175297 83.5650642,106.004921 C91.3503782,105.791325 101.03927,105.524485 115.715423,112.134079 C130.390324,118.743045 136.612812,126.174453 141.612601,132.146388 C145.58888,136.895624 148.215931,140.033177 156.331975,143.688121 C160.283825,145.468302 163.140758,148.680394 164.5639,152.436812" mask="url(#gaming-b)"/>
      <mask id="gaming-d" fill="#fff">
        <use xlink:href="#gaming-c"/>
      </mask>
      <path fill="#0C266D" d="M-61.1991203,16.234594 C-38.5653978,26.8380051 -43.6954744,37.7890587 -21.0617518,48.3924698 C1.57134434,58.9958809 6.70204732,48.0454536 29.3351435,58.6482383 C51.9694924,69.2522757 46.8387894,80.202703 69.4731384,90.8067404 C92.1081137,101.410778 97.2381903,90.4603506 119.873792,101.064388 C142.508767,111.668426 137.378691,122.618853 160.013666,133.223517" mask="url(#gaming-d)"/>
      <mask id="gaming-f" fill="#fff">
        <use xlink:href="#gaming-e"/>
      </mask>
      <path fill="#0633EF" d="M178.806784,125.023349 C180.229926,128.779768 180.22053,133.078634 178.440976,137.030484 C174.881242,144.934185 165.58885,148.45571 157.68515,144.896602 C143.01025,138.287635 136.787135,130.856227 131.787972,124.884292 C127.811067,120.135056 125.184016,116.997504 117.068598,113.342559 C108.951928,109.687615 104.861647,109.799737 98.6692249,109.969487 C90.8839108,110.18371 81.1950189,110.449923 66.5194921,103.840956 C51.8445917,97.2319891 45.6221031,89.8005814 40.6229406,83.8286461 C36.6466614,79.0800368 34.0196112,75.9424844 25.9041934,72.2881661 C17.7894019,68.6332214 13.6997474,68.7459704 7.50795166,68.9157202 C-0.276736,69.1299431 -9.96562791,69.3961559 -24.6405283,62.7878155 C-39.3160551,56.1788487 -45.5379173,48.747441 -50.5370798,42.7755057 C-54.513359,38.02627 -57.1397828,34.889344 -65.2545743,31.2350257 C-73.1589011,27.6752912 -76.6804262,18.3828997 -73.1206917,10.4791993 C-69.5615837,2.57549889 -60.2691922,-0.946652596 -52.3654917,2.61308187 C-37.6899649,9.2214223 -31.4681028,16.6534563 -26.4683139,22.6247653 C-22.4926611,27.374001 -19.8656109,30.5115534 -11.7508194,34.1658717 C-3.6366543,37.82019 0.453626553,37.707441 6.6454223,37.5376912 C14.43011,37.3234683 24.1190019,37.0566291 38.7945287,43.6662223 C53.4694291,50.2745627 59.6912912,57.7065968 64.6910802,63.6779057 C68.6673593,68.4271414 71.2937831,71.5640674 79.409201,75.2183857 C87.5252453,78.8739568 91.6155261,78.7618342 97.8079483,78.591458 C105.593262,78.3778614 115.282154,78.1116487 129.957681,84.7206155 C144.633208,91.3295823 150.855696,98.76099 155.855485,104.732299 C159.832391,109.482161 162.458815,112.619713 170.574859,116.274658 C174.526709,118.054838 177.383642,121.26693 178.806784,125.023349" mask="url(#gaming-f)"/>
      <mask id="gaming-h" fill="#fff">
        <use xlink:href="#gaming-g"/>
      </mask>
      <path fill="#FFF" d="M190.356973,95.8751183 C191.780115,99.631537 191.771346,103.929777 189.991165,107.881627 C186.432057,115.785954 177.139039,119.307479 169.235339,115.748371 C154.560438,109.138778 148.337324,101.707997 143.338161,95.7360613 C139.361255,90.9868255 136.734205,87.8492732 128.618787,84.1943285 C120.502117,80.5393838 116.411836,80.6515064 110.219414,80.8212562 C102.4341,81.0354791 92.7458342,81.3010655 78.069681,74.6920987 C63.3947806,68.0837583 57.1722921,60.6523506 52.1731295,54.6804153 C48.1968504,49.9311796 45.5698002,46.7942536 37.4550087,43.1399353 C29.3395908,39.4849906 25.2499363,39.5971132 19.0581406,39.7674894 C11.2734529,39.9817123 1.58456102,40.2479251 -13.0903394,33.6395847 C-27.7652398,27.0299915 -33.987102,19.5992102 -38.9868909,13.6272749 C-42.96317,8.87803915 -45.5895939,5.74111319 -53.7050117,2.08679489 C-61.6080858,-1.47231319 -65.1296109,-10.7653311 -61.5711292,-18.6690315 C-58.0120211,-26.5727319 -48.7190032,-30.0948834 -40.8153028,-26.5351489 C-26.139776,-19.9268085 -19.9179139,-12.4947745 -14.9181249,-6.52346553 C-10.9424722,-1.77485617 -8.31542196,1.36269617 -0.200630468,5.01764085 C7.91416102,8.67195915 12.0044419,8.5598366 18.1956112,8.38946043 C25.9809253,8.17523745 35.6691908,7.9083983 50.3447176,14.5173651 C65.019618,21.1263319 71.2414802,28.558366 76.2412691,34.5290485 C80.2175483,39.2789106 82.8445985,42.4158366 90.95939,46.0701549 C99.0754342,49.725726 103.166341,49.6136034 109.358137,49.4432272 C117.143451,49.2296306 126.832343,48.9634179 141.508496,55.5723847 C156.183397,62.1813515 162.405885,69.6127591 167.405674,75.5840681 C171.38258,80.3339302 174.009004,83.4714826 182.125048,87.1264272 C186.076898,88.9066077 188.933831,92.1186996 190.356973,95.8751183" mask="url(#gaming-h)"/>
      <mask id="gaming-j" fill="#fff">
        <use xlink:href="#gaming-i"/>
      </mask>
      <path fill="#0C266D" d="M-36.4554894,-41.2862175 C-13.8217668,-30.6828065 -18.9518434,-19.7317529 3.68187915,-9.12834179 C26.3149753,1.47506928 31.4456783,-9.47535796 54.0787745,1.12742672 C76.7131234,11.7314642 71.5824204,22.6825178 94.2167694,33.2859289 C116.851745,43.8899663 121.981821,32.9395391 144.617423,43.5435765 C167.252398,54.147614 162.121695,65.0980412 184.757297,75.702705" mask="url(#gaming-j)"/>
      <mask id="gaming-l" fill="#fff">
        <use xlink:href="#gaming-k"/>
      </mask>
      <path fill="#0633EF" d="M202.686445,67.138609 C204.109587,70.8950277 204.100191,75.1938941 202.320011,79.1457443 C198.760903,87.0494448 189.467885,90.5715963 181.564185,87.0118618 C166.889284,80.402895 160.666169,72.9708609 155.667007,66.999552 C151.690101,62.2496899 149.063677,59.1121375 140.947633,55.4571929 C132.831589,51.8028746 128.740682,51.9149971 122.548886,52.0847469 C114.764198,52.2989699 105.07468,52.5651826 90.399153,45.9562158 C75.7236262,39.347249 69.5017641,31.9158414 64.5019751,25.943906 C60.525696,21.1946703 57.8992722,18.0577443 49.7838543,14.4027997 C41.6690628,10.7484814 37.578782,10.8612303 31.3876126,11.0309801 C23.6022986,11.2452031 13.914033,11.5114158 -0.760867404,4.9030754 C-15.4363942,-1.7058914 -21.6582563,-9.13729906 -26.6580453,-15.1092344 C-30.633698,-19.8584701 -33.2607483,-22.9960225 -41.3755397,-26.6503408 C-49.2792402,-30.2100752 -52.8007653,-39.5024667 -49.2416572,-47.4061671 C-45.6825491,-55.3098676 -36.3895312,-58.8313927 -28.4864572,-55.2722846 C-13.8109304,-48.6633178 -7.58906826,-41.2319101 -2.58927932,-35.2606012 C1.38699983,-30.5113654 4.01342366,-27.3738131 12.1288415,-23.7188684 C20.2430066,-20.0645501 24.3332875,-20.1772991 30.5244569,-20.3470489 C38.3097709,-20.5612718 47.9980364,-20.828111 62.6735632,-14.2191442 C77.3484637,-7.61017736 83.5709522,-0.178769702 88.5701147,5.79253923 C92.5470203,10.5424014 95.1734441,13.6793273 103.288862,17.334272 C111.40428,20.9892167 115.495187,20.8770941 121.687609,20.706718 C129.472297,20.492495 139.161189,20.2262822 153.836716,26.835249 C168.512242,33.4442158 174.735357,40.8762499 179.73452,46.8475588 C183.711425,51.5974209 186.338476,54.7349733 194.453893,58.389918 C198.40637,60.1700984 201.262676,63.3821903 202.686445,67.138609" mask="url(#gaming-l)"/>
    </g>
    <path fill="#FFB280" d="M196.13138,89.4620905 C195.792507,89.9343833 196.177732,90.7900224 196.990777,91.3719322 C197.803196,91.9544684 198.737133,92.0434147 199.07538,91.5704956 C199.414253,91.0975764 199.029027,90.2425637 198.216609,89.6600275 C197.403564,89.0781177 196.470253,88.9891713 196.13138,89.4620905"/>
    <path fill="#FFB280" d="M216.373509,104.710319 C211.618636,109.064934 204.234207,108.740467 199.879593,103.985594 C195.524978,99.2313473 195.848818,91.846292 200.603692,87.4916775 C205.358565,83.1376895 212.742994,83.4615295 217.097608,88.2164027 C221.452223,92.9712758 221.128383,100.355705 216.373509,104.710319"/>
    <path fill="#FF6700" d="M206.42755,84.3372129 C206.399363,84.5188639 206.366791,84.7224384 206.331713,84.944178 C205.868816,87.8487158 206.736357,90.807749 208.695056,93.0013422 C209.552575,93.9615873 210.587359,94.7489507 211.751805,95.2976622 C212.142668,95.4818188 212.497827,95.8138018 212.752765,96.3700299 C213.060946,97.0433916 213.086627,97.8332605 212.783458,98.5091278 C212.717688,98.6569541 212.641895,98.7897473 212.559213,98.9100129 C211.945984,99.7975975 211.691046,100.885625 211.724871,101.964256 C211.724871,101.964256 211.736772,102.308767 211.752432,102.762895 L211.745541,102.762895 L211.745541,104.295027 C211.746168,106.795548 213.914706,108.744226 216.40082,108.478639 C218.61571,108.242493 220.167887,106.365223 220.165381,104.291269 C221.811516,104.115255 223.34866,103.139351 224.156694,101.530173 C225.034256,99.7844435 224.798736,97.8269967 223.793392,96.371909 C225.202127,95.3214648 226.035216,93.5625814 225.794059,91.6702784 C225.525967,89.566258 224.030791,87.9890256 222.182961,87.4484571 C223.582927,84.9316503 222.581967,81.7283278 219.954917,80.4749354 C218.901341,79.9713235 217.779489,79.8717286 216.742198,80.0953473 L216.360731,79.2823022 C214.952622,76.2844333 211.256963,75.1682188 208.425085,76.885761 C205.79553,78.4799056 205.032595,81.807252 206.42755,84.3372129 L206.42755,84.3372129 Z"/>
    <path stroke="#0C266D" stroke-linecap="round" stroke-linejoin="round" stroke-width=".5" d="M202.062412,101.334616 C202.866688,101.921537 203.994177,101.74615 204.581725,100.941874"/>
    <path fill="#0C266D" d="M205.142964,95.0350198 L197.76104,89.2779339 C195.390807,87.4288513 194.967999,84.0094267 196.816455,81.6391935 C198.664911,79.2695867 202.084962,78.8467781 204.454569,80.6952343 L211.837119,86.4523203 C214.206725,88.3014028 214.629534,91.7208275 212.781078,94.0910607 C210.932622,96.4606675 207.513197,96.883476 205.142964,95.0350198"/>
    <path fill="#3B7CFF" d="M292.515434,209.952744 C294.875645,216.152683 290.68389,238.907298 290.68389,238.907298 C290.68389,238.907298 272.422321,224.700305 270.061484,218.49974 C267.701899,212.299801 270.814396,205.359478 277.014961,202.999267 C283.215526,200.639056 290.154597,203.752179 292.515434,209.952744"/>
    <path fill="#3B7CFF" d="M317.401317,209.614811 C312.102743,213.608002 289.08129,215.914971 289.08129,215.914971 C289.08129,215.914971 297.643318,194.420639 302.941892,190.428074 C308.240466,186.434882 315.772095,187.49347 319.76466,192.791417 C323.757851,198.08999 322.69989,205.621619 317.401317,209.614811"/>
    <path fill="#3B7CFF" d="M300.255273,171.459255 C303.266922,177.371058 301.539984,200.443249 301.539984,200.443249 C301.539984,200.443249 281.859658,188.277638 278.848008,182.365836 C275.836359,176.45466 278.187174,169.221189 284.09835,166.208913 C290.010153,163.197264 297.242997,165.548079 300.255273,171.459255"/>
    <path fill="#3B7CFF" d="M286.03995 142.721493C289.052225 148.633296 287.325287 171.705487 287.325287 171.705487 287.325287 171.705487 267.644961 159.539876 264.632685 153.628074 261.621036 147.716898 263.971851 140.483427 269.883027 137.471151 275.79483 134.459502 283.0283 136.810317 286.03995 142.721493M320.248791 172.961009C314.410275 176.112341 291.303007 174.932862 291.303007 174.932862 291.303007 174.932862 302.999457 154.96941 308.837346 151.818704 314.676488 148.667371 321.963201 150.845931 325.114534 156.684447 328.265241 162.522336 326.086681 169.809676 320.248791 172.961009"/>
    <path fill="#FFB280" d="M161.962314,174.218974 L161.962314,174.218974 C160.686371,174.218974 159.652213,173.184815 159.652213,171.908873 C159.652213,170.632931 160.686371,169.599399 161.962314,169.599399 C163.238256,169.599399 164.272414,170.632931 164.272414,171.908873 C164.272414,173.184815 163.238256,174.218974 161.962314,174.218974"/>
    <path fill="#FF6700" d="M255.88913,284.801564 L238.164997,284.801564 C235.564255,284.801564 233.456477,282.693785 233.456477,280.093043 L233.456477,225.966664 C233.456477,223.366548 235.564255,221.258143 238.164997,221.258143 L255.88913,221.258143 C258.489872,221.258143 260.597651,223.366548 260.597651,225.966664 L260.597651,280.093043 C260.597651,282.693785 258.489872,284.801564 255.88913,284.801564"/>
    <path fill="#0C266D" d="M239.445387 206.986007L239.445387 129.865734C239.445387 128.514626 240.522139 127.40906 241.872621 127.373983L241.888907 127.373357C242.971297 127.345169 243.947828 128.018531 244.307998 129.039535 253.409969 154.854657 253.404958 181.998337 244.291712 207.81158 243.939058 208.810034 242.996352 209.478385 241.937765 209.478385 240.561601 209.478385 239.445387 208.362797 239.445387 206.986007M253.377209 219.0705L248.143779 211.414221C248.135636 211.402946 248.126867 211.392924 248.118098 211.381649 248.103065 211.359726 248.086779 211.338429 248.069866 211.317758 248.055459 211.299593 248.0398 211.282681 248.024767 211.265768 248.009733 211.249482 247.995327 211.233197 247.979667 211.217537 247.959623 211.197493 247.938326 211.178075 247.917029 211.159283 247.904501 211.148635 247.8926 211.136734 247.879446 211.126085 247.853764 211.105414 247.827456 211.08537 247.800522 211.066579 247.792379 211.060941 247.786115 211.054677 247.777972 211.04904 247.77484 211.047161 247.771082 211.045282 247.76795 211.043402 247.740389 211.024611 247.712202 211.007699 247.683388 210.991413 247.67086 210.983896 247.658333 210.97638 247.645179 210.969489 247.62075 210.956335 247.595068 210.944434 247.569386 210.933159 247.551847 210.925016 247.534309 210.916247 247.517396 210.909357 247.496726 210.901214 247.476055 210.894323 247.454758 210.886807 247.432208 210.878664 247.409032 210.869894 247.385856 210.863004 247.36957 210.85862 247.352658 210.854861 247.336372 210.850477 247.308811 210.843586 247.28125 210.83607 247.253689 210.831059 247.23803 210.827927 247.22237 210.826048 247.20671 210.823542 247.178523 210.819157 247.14971 210.814773 247.121522 210.811641 247.102105 210.809762 247.082687 210.809762 247.063895 210.809135 247.03884 210.807256 247.013785 210.805377 246.988729 210.805377 246.9643 210.805377 246.939245 210.807256 246.91419 210.809135 246.894772 210.809762 246.87598 210.809762 246.856562 210.811641 246.827749 210.814773 246.799562 210.819157 246.770748 210.823542 246.755715 210.826048 246.740055 210.827927 246.724396 210.831059 246.696208 210.83607 246.669274 210.843586 246.641087 210.850477 246.624801 210.854861 246.608515 210.85862 246.592229 210.863004 246.569053 210.869894 246.545876 210.878664 246.5227 210.886807 246.50203 210.894323 246.481359 210.901214 246.460688 210.909357 246.44315 210.916247 246.426237 210.925016 246.408699 210.933159 246.383017 210.944434 246.357335 210.956335 246.33228 210.969489 246.319752 210.97638 246.307225 210.983896 246.294697 210.991413 246.265883 211.007699 246.237696 211.024611 246.210135 211.043402 246.207003 211.045282 246.203245 211.047161 246.200113 211.04904 246.19197 211.054677 246.18508 211.060941 246.177563 211.066579 246.150629 211.08537 246.124321 211.105414 246.098639 211.126085 246.085485 211.136734 246.072957 211.148635 246.06043 211.159283 246.039759 211.178075 246.018462 211.197493 245.998418 211.217537 245.982758 211.233197 245.968351 211.249482 245.953318 211.265768 245.938285 211.282681 245.922625 211.299593 245.908219 211.317758 245.89068 211.338429 245.87502 211.359726 245.859987 211.381649 245.851218 211.392924 245.842448 211.402946 245.834305 211.414221L240.600876 219.0705C240.164913 219.708158 240.328399 220.578204 240.966057 221.014167 241.603715 221.450129 242.473761 221.286643 242.909723 220.648985L246.988729 214.681435 251.068362 220.648985C251.504324 221.286643 252.37437 221.450129 253.012028 221.014167 253.649686 220.578204 253.813172 219.708158 253.377209 219.0705"/>
    <path fill="#FF6700" d="M172.46187,264.518093 L167.446422,253.081593 L151.279477,260.164732 L161.041656,282.034267 L164.205516,281.823802 L190.793595,270.171826 C191.716257,269.767183 192.112131,268.672265 191.660509,267.771526 C189.463783,263.145062 183.932195,261.175714 179.306357,263.372439 L174.597836,265.366842 C173.773516,265.716364 172.821414,265.338029 172.46187,264.518093"/>
    <polygon fill="#FFB280" points="111.379 284.864 93.467 237.782 89.826 237.789 72 284.8 75.646 284.8 91.646 242.605 107.443 284.8"/>
    <path fill="#FFB280" d="M104.548864 239.093647L78.8302053 239.093647C75.1489525 239.093647 72.164864 236.108932 72.164864 232.427679 72.164864 228.746426 75.1489525 225.761711 78.8302053 225.761711L104.548864 225.761711C108.230117 225.761711 111.214832 228.746426 111.214832 232.427679 111.214832 236.108932 108.230117 239.093647 104.548864 239.093647M107.785949 146.626929C107.383811 153.013529 112.235147 158.51693 118.621748 158.919695 125.008975 159.321832 130.512376 154.46987 130.914514 148.083269 131.316652 141.696668 126.464689 136.193267 120.078088 135.791129 113.691487 135.388992 108.188086 140.240328 107.785949 146.626929"/>
    <path fill="#0C266D" d="M130.241277,141.258012 C128.574472,137.822928 125.370523,135.385672 121.666721,134.664079 C121.666094,134.664079 121.665468,134.663452 121.665468,134.663452 C120.704596,134.47679 119.711779,134.405382 118.703303,134.460504 C118.690149,134.461757 118.676368,134.462383 118.662588,134.46301 C118.500355,134.472405 118.338122,134.484933 118.175262,134.501219 C118.173383,134.501219 118.171504,134.501219 118.170251,134.501845 C117.831378,134.53567 117.490625,134.583902 117.149873,134.647166 C110.578489,135.865481 106.238908,142.179422 107.456596,148.750805 C107.490421,148.934336 107.529883,149.11536 107.571851,149.295132 C107.613192,149.472399 107.659545,149.647786 107.707776,149.82192 C108.196981,151.566397 109.043225,153.185597 110.167582,154.490979 L110.887922,155.262683 C110.926758,155.262056 113.073999,152.865515 113.073999,152.865515 C113.86011,151.984821 114.411953,150.894288 114.520944,149.719193 C114.565417,149.243142 114.7502,148.715102 115.142316,148.128181 C118.271099,145.434108 119.853342,149.412266 119.853342,149.412266 C119.87276,149.424167 128.206785,144.549028 130.241277,141.258012"/>
    <path fill="#0C266D" d="M130.240651,141.258012 L130.263201,141.231078 C133.350016,137.557968 132.142976,131.959983 127.817175,129.885403 C123.882864,127.998737 119.181233,129.938019 117.721761,134.049597 L116.826659,136.569536"/>
    <path fill="#FFB280" d="M132.815899,149.748446 C132.778316,150.347894 131.911402,150.781351 130.880376,150.716207 C129.849349,150.651063 129.044447,150.113 129.08203,149.513552 C129.119613,148.913477 129.985901,148.48002 131.016927,148.545164 C132.047954,148.610308 132.853482,149.148371 132.815899,149.748446"/>
    <path fill="#0C266D" d="M127.877934,148.607614 C127.854132,148.987202 127.526533,149.275965 127.146945,149.252162 C126.767357,149.227733 126.478595,148.900761 126.502397,148.520547 C126.5262,148.140959 126.853798,147.852196 127.233386,147.876625 C127.613601,147.900428 127.901737,148.228026 127.877934,148.607614"/>
    <path stroke="#0C266D" stroke-linecap="round" stroke-linejoin="round" stroke-width=".5" d="M122.44876,155.438195 C121.523592,155.438195 120.773812,154.688415 120.773812,153.763247"/>
    <path fill="#0C266D" d="M113.356122,210.46475 L125.911342,210.459735 C141.847152,210.452849 156.272752,219.889308 162.65121,234.492801 L172.460993,257.038204 C173.053552,258.384927 172.450345,259.957148 171.109259,260.562234 L154.252667,268.159007 C152.916592,268.761587 151.34437,268.179051 150.722998,266.851119 L137.590253,238.646346"/>
    <path fill="#FFF" d="M148.881057,190.960311 L140.526987,183.720577 C139.492202,182.823597 137.975103,182.752815 136.867658,183.557717 C135.565407,184.503556 133.740754,185.597847 132.050146,185.80518 C125.724931,186.578762 119.505574,182.939477 117.149121,176.971927 C116.265295,174.733234 116.090534,172.498926 116.244624,170.524567 C116.596025,166.034027 114.308475,161.748941 110.355372,159.589173 C105.183327,156.764185 97.726238,157.817135 95.4317971,163.24537 C83.7892167,190.793694 74.7530158,186.99656 74.7530158,210.46024 L74.7530158,210.46024 L111.143361,210.46024 C111.725898,207.857619 111.789162,205.165425 111.330023,202.538374 L110.297118,196.620308 C115.431579,202.500165 122.224703,204.369292 130.015028,203.881966 C136.963494,203.44663 143.935763,201.712175 149.347712,194.909656 C150.235297,193.670671 150.032975,191.958766 148.881057,190.960311"/>
    <path stroke="#0C266D" stroke-linecap="round" stroke-linejoin="round" stroke-width=".5" d="M171.763892,177.043773 C175.673148,178.393628 177.498428,182.42315 177.399459,185.902081 C177.301117,189.380386 175.812205,192.641335 175.34555,196.07642 C174.501812,202.287007 177.229083,208.988052 182.534547,213.736661 C187.840011,218.485271 195.609665,221.17997 203.011633,220.839218 C204.823759,220.755909 206.666578,220.482806 208.126676,219.643453 C209.894956,218.626833 210.986741,216.626792 209.832317,214.788358 C209.174615,213.741046 207.835408,213.064552 206.506224,213.236181 C204.542513,213.48924 203.597301,215.311388 203.626115,216.937478 C203.915504,233.055565 222.83039,241.853741 238.44236,238.285863"/>
    <path fill="#FF6700" d="M105.900097,256.920757 L95.448271,269.846169 L111.645908,282.812924 L129.41702,282.088198 C129.41702,277.494932 125.677514,273.692787 121.084247,273.722854 L119.313462,273.741019 C117.605942,273.752294 114.926276,273.783613 114.926276,273.783613 L119.7156,268.448709 L105.900097,256.920757 Z"/>
    <path fill="#0C266D" d="M74.8382039,210.46049 L74.8382039,210.46049 C74.8382039,223.448542 85.3677018,233.978039 98.3557529,233.978039 L112.211344,233.978039 C115.855014,233.978039 117.846286,238.226795 115.514262,241.026727 L104.888301,253.786775 C104.050201,254.792746 104.188631,256.287922 105.196481,257.12289 L119.652774,269.099333 C120.659372,269.933049 122.151416,269.793365 122.985132,268.786142 L134.130364,255.320787 C148.894837,237.45008 136.183647,210.46049 113.002466,210.46049 L74.8382039,210.46049 Z"/>
    <path fill="#FF9357" d="M126.642018,284.863639 L111.117116,284.863639 L111.117116,282.088136 L129.417521,282.088136 C129.417521,283.620895 128.174777,284.863639 126.642018,284.863639"/>
    <path fill="#FF9357" d="M111.138726 284.863639L96.0353797 273.726549C94.8014053 272.817041 94.5389508 271.079455 95.4484589 269.846107L112.785487 282.629957 111.138726 284.863639zM161.041656 282.034204L161.041656 282.034204 191.592233 267.658088C192.361431 269.136352 191.746949 270.957874 190.238619 271.667566L165.057397 283.518105C163.55721 284.224665 161.768886 283.580117 161.063579 282.07993 161.056063 282.064271 161.049172 282.049237 161.041656 282.034204M108.277158 267.329175C108.277158 268.903275 107.001216 270.178591 105.427742 270.178591 103.853642 270.178591 102.577699 268.903275 102.577699 267.329175 102.577699 265.755074 103.853642 264.479759 105.427742 264.479759 107.001216 264.479759 108.277158 265.755074 108.277158 267.329175M166.740927 273.256887C166.740927 274.830988 165.464985 276.106304 163.89151 276.106304 162.31741 276.106304 161.041468 274.830988 161.041468 273.256887 161.041468 271.683413 162.31741 270.407471 163.89151 270.407471 165.464985 270.407471 166.740927 271.683413 166.740927 273.256887"/>
    <line x1="115.994" x2="111.379" y1="273.57" y2="273.57" stroke="#0C266D" stroke-linecap="round" stroke-linejoin="round" stroke-width=".5"/>
    <line x1="115.994" x2="111.713" y1="273.57" y2="270.827" stroke="#0C266D" stroke-linecap="round" stroke-linejoin="round" stroke-width=".5"/>
    <line x1="174.206" x2="170.174" y1="265.254" y2="267.499" stroke="#0C266D" stroke-linecap="round" stroke-linejoin="round" stroke-width=".5"/>
    <line x1="174.206" x2="168.492" y1="265.254" y2="265.549" stroke="#0C266D" stroke-linecap="round" stroke-linejoin="round" stroke-width=".5"/>
    <path fill="#0C266D" d="M168.164946,179.206799 L159.304132,192.322632 C157.781395,194.57761 154.719009,195.170169 152.464656,193.647432 C150.209678,192.124068 149.616493,189.061682 151.139856,186.806703 L160.000044,173.69087 C161.523407,171.436518 164.585793,170.843333 166.840772,172.366696 C169.095124,173.889433 169.688309,176.95182 168.164946,179.206799"/>
    <path fill="#FF9357" d="M309.482207,284.801564 L259.9516,284.801564 L251.815511,242.919093 C250.86842,238.04458 254.602289,233.516458 259.567001,233.516458 L309.547351,233.516458 C314.488886,233.516458 318.216492,238.004492 317.310115,242.862092 L309.482207,284.801564 Z"/>
    <path fill="#0633EF" d="M279.589583 143.33015C279.438625 144.614235 278.275431 145.532512 276.991973 145.38218 275.707888 145.231222 274.78961 144.068029 274.939942 142.783944 275.090274 141.500485 276.254094 140.581581 277.538179 140.73254 278.821011 140.883498 279.739915 142.046065 279.589583 143.33015M289.579264 152.503842C289.428932 153.7873 288.265739 154.706204 286.98228 154.555246 285.698195 154.404914 284.779291 153.241721 284.929623 151.957636 285.080581 150.674177 286.243775 149.755273 287.52786 149.906231 288.811318 150.056563 289.730222 151.219757 289.579264 152.503842M318.577601 210.414577C318.427269 211.698662 317.26345 212.617566 315.980618 212.466607 314.696532 212.315649 313.777629 211.152456 313.927961 209.868997 314.078919 208.584912 315.242112 207.666008 316.526197 207.816966 317.809656 207.967925 318.72856 209.130492 318.577601 210.414577M321.576159 164.802997C321.425201 166.087082 320.262008 167.005359 318.978549 166.855027 317.694464 166.704069 316.77556 165.540876 316.926518 164.256791 317.07685 162.973332 318.24067 162.054428 319.524129 162.205386 320.807587 162.356345 321.726491 163.518912 321.576159 164.802997M298.314989 202.421491C298.164031 203.70495 297.000837 204.623854 295.717379 204.472896 294.433294 204.322564 293.51439 203.15937 293.665348 201.875285 293.81568 200.591827 294.978873 199.672923 296.262958 199.823881 297.546417 199.974213 298.465321 201.137406 298.314989 202.421491M310.652416 198.524011C310.502084 199.808096 309.338891 200.726374 308.055432 200.575415 306.771347 200.425084 305.852443 199.26189 306.003402 197.977805 306.153733 196.694346 307.316927 195.775443 308.601012 195.926401 309.88447 196.077359 310.803374 197.239926 310.652416 198.524011M310.862192 161.188454C310.71186 162.472539 309.54804 163.390816 308.264581 163.239858 306.981123 163.089526 306.062219 161.926333 306.212551 160.642248 306.363509 159.358789 307.526702 158.439885 308.810787 158.590844 310.094246 158.741802 311.012524 159.904369 310.862192 161.188454M312.627589 174.479549C312.476631 175.763634 311.313438 176.682538 310.029979 176.53158 308.745894 176.380621 307.827617 175.217428 307.977949 173.933969 308.128281 172.649884 309.2921 171.73098 310.576185 171.881939 311.859018 172.032897 312.777921 173.19609 312.627589 174.479549M289.502783 178.200201C289.352451 179.484286 288.189258 180.40319 286.905799 180.252232 285.621714 180.101273 284.70281 178.93808 284.853768 177.654622 285.0041 176.370536 286.167293 175.451633 287.451378 175.602591 288.734837 175.753549 289.653741 176.916742 289.502783 178.200201M277.893902 156.54658C277.74357 157.830039 276.580377 158.748943 275.296918 158.597984 274.012833 158.447652 273.093929 157.284459 273.244887 156.000374 273.395219 154.716915 274.558412 153.798012 275.842497 153.94897 277.125956 154.099302 278.04486 155.262495 277.893902 156.54658M291.515289 191.563769C291.364957 192.847854 290.201763 193.766131 288.918305 193.615173 287.63422 193.464841 286.715316 192.301648 286.866274 191.017563 287.016606 189.734104 288.179799 188.8152 289.463884 188.966159 290.747343 189.117117 291.666247 190.279684 291.515289 191.563769M277.125643 224.818629C277.108731 226.110857 276.046385 227.145015 274.754157 227.128729 273.461302 227.111191 272.427144 226.049472 272.444057 224.756617 272.461595 223.464389 273.523314 222.430231 274.815542 222.447143 276.108397 222.464682 277.141929 223.526401 277.125643 224.818629M286.897593 217.000493C286.880681 218.292721 285.818962 219.326879 284.526734 219.309967 283.233879 219.293054 282.199721 218.231335 282.216633 216.938481 282.234172 215.646253 283.295265 214.612094 284.588119 214.629007 285.880974 214.645919 286.914506 215.708264 286.897593 217.000493M273.655419 209.168889C273.638506 210.461117 272.576161 211.495275 271.283933 211.478363 269.991078 211.46145 268.957546 210.399731 268.973832 209.106877 268.991371 207.814649 270.05309 206.78049 271.345318 206.797403 272.638173 206.814315 273.672331 207.876661 273.655419 209.168889"/>
    <path fill="#FF6700" d="M327.510887,148.79935 C328.016379,147.711949 327.545339,146.420974 326.457311,145.915483 C325.827796,145.622336 325.131259,145.659292 324.557492,145.951187 C324.410918,145.324177 323.989362,144.767323 323.359847,144.474802 C322.730333,144.182281 322.033795,144.218611 321.460028,144.510506 C321.312828,143.883496 320.891899,143.327268 320.262384,143.034121 C319.174983,142.52863 317.884007,143.000296 317.378516,144.087697 C317.347197,144.153468 317.320889,144.219864 317.297087,144.286887 L317.287691,144.282502 C315.986693,147.080555 317.199997,150.403517 319.99805,151.705141 C322.796103,153.006138 326.118438,151.792834 327.420062,148.994782 L327.41004,148.98977 C327.44637,148.929011 327.480195,148.86512 327.510887,148.79935"/>
    <path stroke="#0C266D" stroke-linecap="round" stroke-linejoin="round" stroke-width=".5" d="M138.486106,183.424173 C137.532125,183.257555 136.523022,183.454239 135.678657,184.028632 C130.482811,187.243856 123.777381,186.577384 119.316281,182.402542 L117.858062,181.037027"/>
    <path fill="#0C266D" d="M163.948198,180.641529 L151.376692,182.240058 C150.745924,177.282863 152.943276,173.10301 157.901097,172.472242 L163.448971,171.56336 L163.948198,180.641529 Z"/>
    <path fill="#3B7CFF" d="M160.641648,173.194649 C160.641648,174.314622 159.734019,175.222251 158.614046,175.222251 C157.4947,175.222251 156.587071,174.314622 156.587071,173.194649 C156.587071,172.074677 157.4947,171.167674 158.614046,171.167674 C159.734019,171.167674 160.641648,172.074677 160.641648,173.194649"/>
    <path fill="#FFB280" d="M167.385663,178.977354 L153.759954,177.771567 C153.084086,177.682621 152.717026,176.93472 153.059031,176.345293 L154.255423,174.288878 L157.998061,173.480844 C158.920723,173.281654 159.584063,172.471114 159.595964,171.526529 C159.613503,170.224279 158.415232,169.244616 157.142422,169.519598 L153.481213,170.310093 C152.268536,170.571921 151.196168,171.275349 150.472696,172.282573 L145.321949,179.45779 L140.57835,183.832449 L149.09528,191.176163 L149.739828,190.595506 C150.822218,189.622107 152.278558,189.175496 153.720492,189.375938 L161.467596,190.452064 C162.387753,190.579846 163.294755,190.043663 163.564726,189.156078 C163.68875,188.747676 163.667453,188.343033 163.540298,187.982863 L164.033887,188.051765 C165.062408,188.19458 165.914915,187.461712 165.928696,186.423795 C165.987576,186.00036 165.898003,185.591959 165.703198,185.246822 C166.873281,185.426594 167.62682,183.963363 167.206517,183.10835 C168.1724,183.165977 169.231156,182.477583 169.231156,181.125222 C169.244767,180.086679 168.414183,179.12017 167.385663,178.977354"/>
    <path fill="#FFF" d="M205.066169,267.051499 L205.066169,267.051499 C206.650918,267.051499 207.936256,268.336211 207.936256,269.921586 L207.936256,271.553314 L219.694091,271.553314 L219.759861,267.032708 L208.579551,267.032708 L205.066169,267.051499 Z"/>
    <line x1="200.778" x2="204.007" y1="271.101" y2="273.049" stroke="#3B7CFF" stroke-linecap="round" stroke-linejoin="round" stroke-width=".5"/>
    <line x1="198.244" x2="201.474" y1="272.882" y2="274.83" stroke="#3B7CFF" stroke-linecap="round" stroke-linejoin="round" stroke-width=".5"/>
    <polygon fill="#FFB280" points="311.955 271.553 257.378 271.553 253.38 250.97 315.797 250.97"/>
    <path fill="#FFF" d="M258.800245,273.164809 C255.041321,273.164809 251.993341,270.117456 251.993341,266.357905 C251.993341,262.598355 255.041321,259.551001 258.800245,259.551001 C262.559796,259.551001 265.607149,262.598355 265.607149,266.357905 C265.607149,270.117456 262.559796,273.164809 258.800245,273.164809 M269.089212,266.357905 C269.089212,262.598355 272.136565,259.551001 275.896116,259.551001 C275.911149,259.551001 275.926809,259.551628 275.941842,259.552254 C274.070209,254.841854 270.316296,251.087941 265.605896,249.216309 C265.606523,249.231968 265.607149,249.246375 265.607149,249.262035 C265.607149,253.021585 262.559796,256.068938 258.800245,256.068938 C255.041321,256.068938 251.993341,253.021585 251.993341,249.262035 C251.993341,249.246375 251.994594,249.231968 251.994594,249.216309 C247.284194,251.087941 243.530907,254.841854 241.658649,259.552254 C241.674308,259.551628 241.689341,259.551001 241.704374,259.551001 C245.463925,259.551001 248.511278,262.598355 248.511278,266.357905 C248.511278,270.117456 245.463925,273.164809 241.704374,273.164809 C241.689341,273.164809 241.674308,273.164183 241.658649,273.164183 C243.530907,277.873956 247.284194,281.627243 251.994594,283.499502 C251.994594,283.484469 251.993341,283.468809 251.993341,283.453776 C251.993341,279.694225 255.041321,276.646872 258.800245,276.646872 C262.559796,276.646872 265.607149,279.694225 265.607149,283.453776 C265.607149,283.468809 265.606523,283.484469 265.605896,283.499502 C270.316296,281.627243 274.070209,277.873956 275.941842,273.164183 C275.926809,273.164183 275.911149,273.164809 275.896116,273.164809 C272.136565,273.164809 269.089212,270.117456 269.089212,266.357905"/>
    <path fill="#0C266D" d="M258.800245 256.069001C262.559796 256.069001 265.607149 253.021648 265.607149 249.262097 265.607149 249.246438 265.606523 249.231405 265.605896 249.216371 263.499997 248.379524 261.204929 247.914121 258.800245 247.914121 256.395561 247.914121 254.10112 248.379524 251.994594 249.216371 251.994594 249.231405 251.993341 249.246438 251.993341 249.262097 251.993341 253.021648 255.041321 256.069001 258.800245 256.069001M258.800245 259.550814C255.041321 259.550814 251.993341 262.598167 251.993341 266.357717 251.993341 270.117268 255.041321 273.164621 258.800245 273.164621 262.559796 273.164621 265.607149 270.117268 265.607149 266.357717 265.607149 262.598167 262.559796 259.550814 258.800245 259.550814M258.800245 276.646622C255.041321 276.646622 251.993341 279.694601 251.993341 283.454152 251.993341 283.469185 251.994594 283.484218 251.994594 283.499251 254.10112 284.336725 256.395561 284.801502 258.800245 284.801502 261.204929 284.801502 263.499997 284.336725 265.605896 283.499251 265.606523 283.484218 265.607149 283.469185 265.607149 283.454152 265.607149 279.694601 262.559796 276.646622 258.800245 276.646622M275.941967 259.552004C275.926934 259.552004 275.911274 259.550751 275.896241 259.550751 272.13669 259.550751 269.089337 262.598104 269.089337 266.357655 269.089337 270.117205 272.13669 273.164559 275.896241 273.164559 275.911274 273.164559 275.926934 273.163932 275.941967 273.163932 276.778815 271.057406 277.244217 268.762965 277.244217 266.357655 277.244217 263.95297 276.778815 261.65853 275.941967 259.552004M248.511404 266.35778C248.511404 262.598229 245.46405 259.550876 241.7045 259.550876 241.68884 259.550876 241.673807 259.551503 241.658774 259.552129 240.821926 261.658655 240.356524 263.953096 240.356524 266.35778 240.356524 268.762464 240.821926 271.056905 241.658774 273.164057 241.673807 273.164057 241.68884 273.164684 241.7045 273.164684 245.46405 273.164684 248.511404 270.117331 248.511404 266.35778"/>
    <line x1="64" x2="320" y1="284.5" y2="284.5" stroke="#0C266D" stroke-linecap="round" stroke-linejoin="round" stroke-width=".5"/>
  </g>
</svg>
