<?xml version="1.0" encoding="UTF-8"?>
<svg width="256px" height="256px" viewBox="0 0 256 256" version="1.1" xmlns="http://www.w3.org/2000/svg" xmlns:xlink="http://www.w3.org/1999/xlink">
    <title>DAFE1F83-F6CE-4BB6-8AB8-65E1FEF612B3</title>
    <defs>
        <path d="M238,128 C238,188.751553 188.751303,238 128,238 C67.2486967,238 18,188.751553 18,128 C18,67.2486967 67.2486967,18 128,18 C188.751303,18 238,67.2486967 238,128" id="path-1"></path>
    </defs>
    <g id="screens" stroke="none" stroke-width="1" fill="none" fill-rule="evenodd">
        <g id="1-1-1-home" transform="translate(-1019.000000, -1010.000000)">
            <g id="higher-conversions" transform="translate(1019.000000, 1010.000000)">
                <g id="bg">
                    <rect x="0" y="0" width="256" height="256"></rect>
                    <mask id="mask-2" fill="white">
                        <use xlink:href="#path-1"></use>
                    </mask>
                    <use id="Mask" fill="#FFE4D2" xlink:href="#path-1"></use>
                    <path d="M138.77066,75.4763291 L165.39706,40.0027014 C167.234376,37.5546425 166.732166,34.0854257 164.274943,32.2548351 C159.112997,28.409132 154.845467,22.0064044 149,19.4241245 C134.930394,15.8879254 95.0111394,12.0142489 55.6082595,43.5490143 C80.4063581,47.2905229 106.7258,58.7189698 130.930518,76.5439384 C133.384908,78.4304758 136.914028,77.9500516 138.77066,75.4763291 Z" id="Fill-1396" fill="#0633EF" mask="url(#mask-2)"></path>
                </g>
                <path d="M143.268325,69.4665926 L162,44.5457663 C167.23725,48.4587312 174.269075,49.1061257 179.749575,45.5393085 L197.636075,33.8987794 C200.819575,31.8181568 205.093575,32.7019545 207.182325,35.8728183 C209.271075,39.0439311 208.383825,43.3010517 205.200325,45.3819233 L203.516325,46.4826237 L211.327325,44.9530984 C215.061825,44.2142346 218.690575,46.6307949 219.432325,50.3510128 C219.486825,54.1910128 216.437575,57.9446004 212.656325,58.6929272 L209.130825,59.3904525 L219.631325,62.5685381 C223.332325,63.6889116 225.395075,67.6295187 224.168075,71.308398 C223.002825,74.8022502 219.010575,76.7351996 215.474075,75.6646315 L203.659575,72.0886004 C205.194575,79.2999311 203.701325,87.0344681 199.130075,93.2536743 C196.890825,96.2986832 192.458825,97.328756 189.402575,95.1004603 C186.344825,92.8699233 185.818075,88.222577 188.057325,85.1767249 C191.470575,80.533363 191.337825,74.1388416 187.734825,69.625721 C183.316075,64.0918377 175.202075,63.170935 169.646825,67.5724914 C166.369075,70.1693474 164.566825,74.1261412 164.804825,78.4273397 C164.901325,80.1730206 165.372825,81.8898144 166.184575,83.4397599 L167.751575,85.6197443 C169.781325,88.4439622 169.227075,92.3579233 166.492075,94.512756 C163.578075,96.8085381 159.307825,96.2429973 157.150575,93.2297677 C151.187575,84.9017988 151.021075,75.0238844 143.604325,69.7111373 L143.268325,69.4665926 Z" id="Fill-1394" fill="#FFB280"></path>
                <line x1="46.5" y1="26.1177507" x2="46.5" y2="235.798685" id="Stroke-1398" stroke="#0C266D" stroke-linecap="round" stroke-linejoin="round"></line>
                <polyline id="Stroke-1400" stroke="#0C266D" stroke-linecap="round" stroke-linejoin="round" points="41 38.5691126 46.5162541 25.6196962 52 38.5691126"></polyline>
                <polyline id="Stroke-1402" stroke="#0C266D" stroke-linecap="round" stroke-linejoin="round" points="222 218.864832 235 224.359622 222 229.822031"></polyline>
                <line x1="35" y1="224.343432" x2="234" y2="224.343432" id="Stroke-1404" stroke="#0C266D" stroke-linecap="round" stroke-linejoin="round"></line>
                <path d="M97.443425,216.032171 L76.573675,216.032171 C73.882675,216.032171 71.701175,213.859159 71.701175,211.17863 L71.701175,190.390085 C71.701175,187.709805 73.882675,185.536544 76.573675,185.536544 L97.443425,185.536544 C100.134425,185.536544 102.315925,187.709805 102.315925,190.390085 L102.315925,211.17863 C102.315925,213.859159 100.134425,216.032171 97.443425,216.032171" id="Fill-1406" fill="#3B7CFF"></path>
                <path d="M158.67305,185.536544 L137.8033,185.536544 C135.1123,185.536544 132.9308,183.363533 132.9308,180.683003 L132.9308,159.894459 C132.9308,157.214179 135.1123,155.040918 137.8033,155.040918 L158.67305,155.040918 C161.36405,155.040918 163.54555,157.214179 163.54555,159.894459 L163.54555,180.683003 C163.54555,183.363533 161.36405,185.536544 158.67305,185.536544" id="Fill-1408" fill="#3B7CFF"></path>
                <path d="M189.2878,216.032171 L168.41805,216.032171 C165.72705,216.032171 163.54555,213.859159 163.54555,211.17863 L163.54555,190.390085 C163.54555,187.709805 165.72705,185.536544 168.41805,185.536544 L189.2878,185.536544 C191.9788,185.536544 194.1603,187.709805 194.1603,190.390085 L194.1603,211.17863 C194.1603,213.859159 191.9788,216.032171 189.2878,216.032171" id="Fill-1410" fill="#0633EF"></path>
                <path d="M128.194525,185.536544 L107.324775,185.536544 C104.633775,185.536544 102.452275,183.363533 102.452275,180.683003 L102.452275,159.894459 C102.452275,157.214179 104.633775,155.040918 107.324775,155.040918 L128.194525,155.040918 C130.885525,155.040918 133.067025,157.214179 133.067025,159.894459 L133.067025,180.683003 C133.067025,183.363533 130.885525,185.536544 128.194525,185.536544" id="Fill-1412" fill="#0633EF"></path>
                <path d="M172.207225,122.70239 L159.261225,106.396834 C157.591975,104.294546 157.949725,101.242219 160.060475,99.5792152 L176.429475,86.6835887 C178.540225,85.0210829 181.604475,85.3771918 183.273725,87.4799778 L196.219725,103.785036 C197.889225,105.887822 197.531225,108.9399 195.420725,110.602655 L179.051475,123.498281 C176.940975,125.161285 173.876475,124.804678 172.207225,122.70239" id="Fill-1414" fill="#FF6700"></path>
                <path d="M158.67305,216.032171 L137.8033,216.032171 C135.1123,216.032171 132.9308,213.859159 132.9308,211.17863 L132.9308,190.390085 C132.9308,187.709805 135.1123,185.536544 137.8033,185.536544 L158.67305,185.536544 C161.36405,185.536544 163.54555,187.709805 163.54555,190.390085 L163.54555,211.17863 C163.54555,213.859159 161.36405,216.032171 158.67305,216.032171" id="Fill-1416" fill="#FF6700"></path>
                <path d="M189.2878,155.040918 L168.41805,155.040918 C165.72705,155.040918 163.54555,152.867906 163.54555,150.187377 L163.54555,129.398832 C163.54555,126.718552 165.72705,124.545291 168.41805,124.545291 L189.2878,124.545291 C191.9788,124.545291 194.1603,126.718552 194.1603,129.398832 L194.1603,150.187377 C194.1603,152.867906 191.9788,155.040918 189.2878,155.040918" id="Fill-1418" fill="#FFFFFF"></path>
                <path d="M189.2878,185.536544 L168.41805,185.536544 C165.72705,185.536544 163.54555,183.363533 163.54555,180.683003 L163.54555,159.894459 C163.54555,157.214179 165.72705,155.040918 168.41805,155.040918 L189.2878,155.040918 C191.9788,155.040918 194.1603,157.214179 194.1603,159.894459 L194.1603,180.683003 C194.1603,183.363533 191.9788,185.536544 189.2878,185.536544" id="Fill-1420" fill="#FF6700"></path>
                <path d="M128.058175,216.032171 L107.188425,216.032171 C104.497425,216.032171 102.315925,213.859159 102.315925,211.17863 L102.315925,190.390085 C102.315925,187.709805 104.497425,185.536544 107.188425,185.536544 L128.058175,185.536544 C130.749175,185.536544 132.930675,187.709805 132.930675,190.390085 L132.930675,211.17863 C132.930675,213.859159 130.749175,216.032171 128.058175,216.032171" id="Fill-1422" fill="#FFFFFF"></path>
                <path d="M158.67305,155.040918 L137.8033,155.040918 C135.1123,155.040918 132.9308,152.867906 132.9308,150.187377 L132.9308,129.398832 C132.9308,126.718552 135.1123,124.545291 137.8033,124.545291 L158.67305,124.545291 C161.36405,124.545291 163.54555,126.718552 163.54555,129.398832 L163.54555,150.187377 C163.54555,152.867906 161.36405,155.040918 158.67305,155.040918" id="Fill-1424" fill="#0633EF"></path>
            </g>
        </g>
    </g>
</svg>