<?xml version="1.0" encoding="UTF-8"?>
<svg width="256px" height="256px" viewBox="0 0 256 256" version="1.1" xmlns="http://www.w3.org/2000/svg" xmlns:xlink="http://www.w3.org/1999/xlink">
    <title>9C71AC3D-B55D-42AF-B71D-DAC9A7692CBA</title>
    <g id="screens" stroke="none" stroke-width="1" fill="none" fill-rule="evenodd">
        <g id="1-1-1-home" transform="translate(-1019.000000, -1500.000000)">
            <g id="home-best-ux" transform="translate(1019.000000, 1500.000000)">
                <rect id="bg" x="0" y="0" width="256" height="256"></rect>
                <path d="M238,128 C238,188.751553 188.751303,238 128,238 C67.2486967,238 18,188.751553 18,128 C18,67.2486967 67.2486967,18 128,18 C188.751303,18 238,67.2486967 238,128" id="Fill-1392" fill="#FFE4D2"></path>
                <path d="M169.35865,198.535175 C169.35865,194.591425 166.1614,191.394425 162.21765,191.394425 L104.4864,191.394425 C100.54315,191.394425 97.3464,194.590925 97.3464,198.534175 L97.3464,199.104175 C97.3464,210.657925 93.2494,221.664675 86.03965,230.316425 C98.97115,235.653925 113.1414,238.599925 127.9999,238.599925 C140.09115,238.599925 151.7259,236.648175 162.6089,233.045925 C167.04115,222.140425 169.35865,210.427675 169.35865,198.535175" id="Fill-1572" fill="#0C266D"></path>
                <path d="M33.0265,140.727575 C27.22,140.727575 22.51325,136.020575 22.51325,130.214075 L12,130.214075 C12,141.826825 21.41375,151.240825 33.0265,151.240825 C44.63925,151.240825 54.053,141.826825 54.053,130.214075 L43.53975,130.214075 C43.53975,136.020575 38.83275,140.727575 33.0265,140.727575" id="Fill-1574" fill="#FF6700"></path>
                <path d="M33.0265,119.70095 L33.0265,109.18745 C21.41375,109.18745 12,118.6017 12,130.2142 L22.51325,130.2142 C22.51325,124.4077 27.22,119.70095 33.0265,119.70095" id="Fill-1576" fill="#0633EF"></path>
                <path d="M33.0265,109.187525 L33.0265,119.701025 C38.83275,119.701025 43.53975,124.407775 43.53975,130.214025 L54.053,130.214025 C54.053,118.601525 44.63925,109.187525 33.0265,109.187525" id="Fill-1578" fill="#FFFFFF"></path>
                <path d="M95.64845,108.037625 C95.64845,112.343625 92.1577,115.834375 87.8517,115.834375 C83.5457,115.834375 80.05495,112.343625 80.05495,108.037625 C80.05495,103.731625 83.5457,100.240875 87.8517,100.240875 C92.1577,100.240875 95.64845,103.731625 95.64845,108.037625" id="Fill-1580" fill="#FFB280"></path>
                <polygon id="Fill-1582" fill="#FFB280" points="87.851725 115.8342 99.452475 115.8342 99.452475 100.24095 87.851725 100.24095"></polygon>
                <path d="M145.836175,173.441675 L109.714925,173.441675 C102.813425,173.441675 97.218675,167.846925 97.218675,160.945425 L97.218675,88.763425 C97.218675,81.862175 102.813425,76.267425 109.714925,76.267425 L145.836175,76.267425 C152.737675,76.267425 158.332425,81.862175 158.332425,88.763425 L158.332425,160.945425 C158.332425,167.846925 152.737675,173.441675 145.836175,173.441675" id="Fill-1584" fill="#3B7CFF"></path>
                <path d="M133.677975,158.925575 C133.677975,162.301575 130.941225,165.038075 127.565225,165.038075 C124.189225,165.038075 121.452725,162.301575 121.452725,158.925575 C121.452725,155.549575 124.189225,152.812825 127.565225,152.812825 C130.941225,152.812825 133.677975,155.549575 133.677975,158.925575" id="Fill-1585" fill="#0633EF"></path>
                <path d="M116.4452,135.03665 C114.88595,135.03115 113.7407,133.57915 114.08545,132.05865 C115.4792,125.90765 120.97195,121.3189 127.53545,121.304367 C134.1627,121.29015 139.70895,125.9414 141.0687,132.16015 C141.40145,133.68165 140.24495,135.12265 138.6872,135.116917 L116.4452,135.03665 Z" id="Fill-1586" fill="#FFFFFF"></path>
                <path d="M134.756225,114.641875 C134.756225,118.613375 131.536725,121.832875 127.565225,121.832875 C123.593975,121.832875 120.374475,118.613375 120.374475,114.641875 C120.374475,110.670375 123.593975,107.450875 127.565225,107.450875 C131.536725,107.450875 134.756225,110.670375 134.756225,114.641875" id="Fill-1587" fill="#FFFFFF"></path>
                <path d="M158.33545,173.198025 L144.1632,135.775275 C142.4632,131.286525 144.72395,126.269775 149.21245,124.569775 C153.7012,122.870025 158.71795,125.130525 160.41795,129.619525 L174.5902,167.042275 L158.33545,173.198025 Z" id="Fill-1588" fill="#FFB280"></path>
                <path d="M175.645875,173.308125 C175.645875,183.296625 167.548375,191.394125 157.559625,191.394125 C147.571125,191.394125 139.473625,183.296625 139.473625,173.308125 C139.473625,163.319375 147.571125,155.221875 157.559625,155.221875 C167.548375,155.221875 175.645875,163.319375 175.645875,173.308125" id="Fill-1589" fill="#FFB280"></path>
                <polygon id="Fill-1590" fill="#FFB280" points="111.785975 191.39395 158.827225 191.39395 158.827225 173.44145 111.785975 173.44145"></polygon>
                <path d="M135.157475,87.28665 L120.393475,87.28665 C119.485225,87.28665 118.748975,86.5504 118.748975,85.64215 L118.748975,85.6419 C118.748975,84.73365 119.485225,83.9974 120.393475,83.9974 L135.157475,83.9974 C136.065725,83.9974 136.802225,84.73365 136.802225,85.6419 L136.802225,85.64215 C136.802225,86.5504 136.065725,87.28665 135.157475,87.28665" id="Fill-1591" fill="#0633EF"></path>
                <polyline id="Stroke-1592" stroke="#0C266D" stroke-linecap="round" stroke-linejoin="round" points="88.10585 46.619175 95.1656 39.470425 85.1366 39.922175"></polyline>
                <polyline id="Stroke-1593" stroke="#0C266D" stroke-linecap="round" stroke-linejoin="round" points="209.621225 95.4009 215.966725 103.55615 216.847725 93.26865"></polyline>
                <path d="M93.52345,40.229525 C67.25245,50.508525 47.21045,72.776275 39.76545,100.016025" id="Stroke-1594" stroke="#0C266D" stroke-linecap="round" stroke-linejoin="round"></path>
                <path d="M160.432,41.518825 C187.451,52.090325 208.06325,74.410325 215.72,102.425075" id="Stroke-1595" stroke="#0C266D" stroke-linecap="round" stroke-linejoin="round"></path>
                <path d="M151.0475,22.8655 C151.0475,29.685 144.3795,42.302 138.24525,52.46625 C133.67325,60.0415 122.69075,60.0415 118.119,52.46625 C111.98475,42.302 105.31675,29.685 105.31675,22.8655 C105.31675,10.23725 115.55375,0 128.18225,0 C140.81025,0 151.0475,10.23725 151.0475,22.8655" id="Fill-1596" fill="#FF6700"></path>
                <path d="M136.51905,21.264675 C136.51905,25.868925 132.78655,29.601675 128.18205,29.601675 C123.5778,29.601675 119.84505,25.868925 119.84505,21.264675 C119.84505,16.660175 123.5778,12.927425 128.18205,12.927425 C132.78655,12.927425 136.51905,16.660175 136.51905,21.264675" id="Fill-1597" fill="#FF9357"></path>
                <path d="M245.177975,130.21415 C245.177975,141.8269 235.763975,151.24065 224.151475,151.24065 C212.538725,151.24065 203.124975,141.8269 203.124975,130.21415 C203.124975,118.60165 212.538725,109.18765 224.151475,109.18765 C235.763975,109.18765 245.177975,118.60165 245.177975,130.21415" id="Fill-1598" fill="#FF6700"></path>
                <path d="M229.2201,120.923375 L229.2201,120.923375 C226.42085,120.923375 224.1516,123.192875 224.1516,125.992125 C224.1516,123.192875 221.8821,120.923375 219.08285,120.923375 C214.8686,120.923375 212.49485,125.767125 215.07685,129.097625 L222.5276,138.709125 C223.35035,139.770125 224.9526,139.770125 225.7751,138.709125 L233.2261,129.097625 C235.8081,125.767125 233.43435,120.923375 229.2201,120.923375" id="Fill-1599" fill="#FFFFFF"></path>
                <path d="M99.7832,131.20805 L95.21945,131.20805 C90.97395,131.20805 87.53245,127.7663 87.53245,123.5213 C87.53245,119.2758 90.97395,115.8343 95.21945,115.8343 L99.7832,115.8343 C104.02845,115.8343 107.46995,119.2758 107.46995,123.5213 C107.46995,127.7663 104.02845,131.20805 99.7832,131.20805" id="Fill-1600" fill="#FFB280"></path>
                <path d="M99.7832,144.49295 L95.21945,144.49295 C90.97395,144.49295 87.53245,141.0512 87.53245,136.8062 C87.53245,132.5607 90.97395,129.1192 95.21945,129.1192 L99.7832,129.1192 C104.02845,129.1192 107.46995,132.5607 107.46995,136.8062 C107.46995,141.0512 104.02845,144.49295 99.7832,144.49295" id="Fill-1601" fill="#FFB280"></path>
                <path d="M99.7832,158.1348 L95.21945,158.1348 C90.97395,158.1348 87.53245,154.6933 87.53245,150.44805 C87.53245,146.20255 90.97395,142.7613 95.21945,142.7613 L99.7832,142.7613 C104.02845,142.7613 107.46995,146.20255 107.46995,150.44805 C107.46995,154.6933 104.02845,158.1348 99.7832,158.1348" id="Fill-1602" fill="#FFB280"></path>
                <line x1="92.4535" y1="130.1614" x2="102.549" y2="130.1614" id="Stroke-1603" stroke="#FF9357" stroke-linecap="round" stroke-linejoin="round"></line>
                <line x1="92.4535" y1="143.6995" x2="102.549" y2="143.6995" id="Stroke-1604" stroke="#FF9357" stroke-linecap="round" stroke-linejoin="round"></line>
                <path d="M141.443125,182.663125 C139.627625,179.414375 138.837875,175.692125 139.177625,171.986125" id="Stroke-1605" stroke="#FF9357" stroke-linecap="round" stroke-linejoin="round"></path>
            </g>
        </g>
    </g>
</svg>