<?xml version="1.0" encoding="UTF-8"?>
<svg width="256px" height="256px" viewBox="0 0 256 256" version="1.1" xmlns="http://www.w3.org/2000/svg" xmlns:xlink="http://www.w3.org/1999/xlink">
    <title>FC50C534-FE1B-45C8-BD23-1044F708C95A</title>
    <g id="screens" stroke="none" stroke-width="1" fill="none" fill-rule="evenodd">
        <g id="1-1-1-home" transform="translate(-611.000000, -1010.000000)">
            <g id="home-oustanding" transform="translate(611.000000, 1010.000000)">
                <rect id="bg" x="0" y="0" width="256" height="256"></rect>
                <path d="M238,128 C238,188.751681 188.751882,238 127.99955,238 C67.2490174,238 18,188.751681 18,128 C18,67.248319 67.2490174,18 127.99955,18 C188.751882,18 238,67.248319 238,128" id="Fill-643" fill="#FFE4D2"></path>
                <path d="M137.885213,150.082454 L137.885213,150.082454 C136.279231,148.807063 136.010965,146.471253 137.286357,144.865271 L152.706676,125.446255 C153.982068,123.840273 156.317877,123.572007 157.92386,124.848302 C159.529842,126.123694 159.798107,128.459504 158.522716,130.064583 L143.102397,149.483598 C141.827005,151.08958 139.491195,151.357846 137.885213,150.082454" id="Fill-645" fill="#FFB280"></path>
                <path d="M129.954841,152.912162 L129.954841,152.912162 C129.021782,151.085787 129.747093,148.849335 131.573469,147.916275 L153.657078,136.63827 C155.484356,135.706114 157.720808,136.431426 158.652965,138.256898 C159.586024,140.084177 158.861616,142.320629 157.034337,143.253688 L134.950728,154.53079 C133.124352,155.462946 130.8879,154.738538 129.954841,152.912162" id="Fill-647" fill="#FFB280"></path>
                <path d="M133.419174,158.907678 L133.419174,158.907678 C132.487018,157.082206 133.211426,154.844851 135.037801,153.911791 L157.12141,142.63469 C158.948689,141.70163 161.185141,142.426942 162.117297,144.253317 C163.050357,146.079693 162.325949,148.316145 160.499573,149.249204 L138.415061,160.526306 C136.588685,161.458462 134.352233,160.734054 133.419174,158.907678" id="Fill-649" fill="#FFB280"></path>
                <path d="M135.491234,164.869684 L135.491234,164.869684 C134.558175,163.043308 135.283486,160.806856 137.109862,159.873797 L159.193471,148.596695 C161.019846,147.663636 163.257201,148.388947 164.189358,150.21442 C165.122417,152.041698 164.398009,154.27815 162.464146,154.979074 L140.380537,166.255272 C138.660745,167.420467 136.424293,166.696059 135.491234,164.869684" id="Fill-651" fill="#FFB280"></path>
                <path d="M150.30538,158.921769 L139.721976,143.522225 C138.575749,141.850306 136.324845,141.361646 134.588795,142.407612 C133.858967,142.847496 133.128236,143.271121 132.560091,143.563775 C132.49054,143.599002 132.422797,143.634228 132.353246,143.669455 C121.720163,149.13142 108.938244,148.268815 99.0991193,141.479972 L79.1941542,127.748735 C70.079438,121.461198 58.5963949,121.461198 49.9125298,127.452468 L15.9412209,150.887342 C12.311051,153.39206 10.1432461,157.520825 10.1432461,161.931405 C10.1432461,169.341685 16.1498721,175.349214 23.5601518,175.349214 L51.3776046,175.349214 L51.8491022,175.724967 L91.5416095,175.517219 L89.4993567,167.903707 C94.5133087,172.758687 101.228084,175.460314 108.207513,175.430507 L108.427003,175.429603 C120.271347,175.429603 134.90674,172.078538 146.654436,165.761193 C147.560397,165.274341 148.376937,164.811876 149.075151,164.390057 L149.132056,164.35483 C151.01082,163.216733 151.546449,160.733693 150.30538,158.921769" id="Fill-653" fill="#FF6700"></path>
                <path d="M60.7232824,197.715721 L81.6127922,197.715721 L86.8986231,197.715721 C91.765345,197.715721 95.3837727,193.21301 94.3350971,188.460098 L91.5277898,175.724244 L28.7725483,175.724244 C32.4659459,183.607828 37.064402,190.982881 42.4324288,197.715721 L60.7232824,197.715721 Z" id="Fill-655" fill="#FF6700"></path>
                <path d="M42.4328804,197.715721 C53.4399097,211.521025 67.6850975,222.628316 84.0204105,229.887752 L83.1957414,197.715721 L42.4328804,197.715721 Z" id="Fill-657" fill="#3B7CFF"></path>
                <path d="M80.9035587,175.362853 L50.9381725,175.362853 L53.3932115,161.810459 L81.6812587,169.631719 C82.9458115,169.981277 83.821966,171.13202 83.821966,172.445349 C83.821966,174.05675 82.5149603,175.362853 80.9035587,175.362853" id="Fill-659" fill="#FFB280"></path>
                <path d="M48.5532259,97.3083285 C47.969725,106.566662 55.0024454,114.544184 64.2607787,115.127685 C73.519112,115.710282 81.4975372,108.677562 82.0801348,99.4192285 C82.6627324,90.1608952 75.6309153,82.1833733 66.372582,81.5998724 C57.1142486,81.0172749 49.1358234,88.0499952 48.5532259,97.3083285" id="Fill-661" fill="#FFB280"></path>
                <path d="M81.1042613,89.5248251 C78.6880621,84.5451967 74.0435402,81.012578 68.6746101,79.9666121 C68.6737068,79.9666121 68.6728036,79.9657089 68.6728036,79.9657089 C67.2799889,79.6947333 65.8411085,79.5917625 64.3787434,79.672152 C64.3588719,79.6730552 64.3399036,79.6748617 64.320032,79.675765 C64.0851865,79.6884105 63.8494377,79.7073788 63.6136889,79.7299601 C63.6109792,79.7308633 63.6082694,79.7308633 63.6055597,79.7308633 C63.1141906,79.7805422 62.621015,79.8500926 62.1269361,79.9422243 C52.6012402,81.708082 46.3100898,90.8607349 48.0750442,100.386431 C48.1247231,100.651987 48.181628,100.914833 48.2421459,101.175873 C48.303567,101.4333 48.3695044,101.687114 48.439958,101.939121 L48.439958,101.939121 C49.1490109,104.468227 50.3747239,106.815779 52.0050938,108.707189 L53.0492532,109.827221 C53.1052548,109.826318 56.2187646,106.351507 56.2187646,106.351507 C57.3577654,105.075212 58.1580467,103.494521 58.3161158,101.790988 C58.3811499,101.1 58.6485125,100.334945 59.216658,99.484082 C63.7518865,95.5793235 66.0461467,101.345684 66.0461467,101.345684 C66.0741475,101.361943 78.1551434,94.2958024 81.1042613,89.5248251" id="Fill-663" fill="#0C266D"></path>
                <path d="M81.103358,89.5248251 L81.1367784,89.4859853 C85.6105857,84.1622178 83.8609865,76.0464983 77.5897076,73.0395723 C71.8874776,70.3045251 65.0715377,73.1154454 62.9561215,79.0760056 L61.6590515,82.7287568" id="Fill-665" fill="#0C266D"></path>
                <path d="M84.8367697,101.832537 C84.7816713,102.702369 83.5252477,103.330129 82.0312689,103.236191 C80.5363867,103.14135 79.3684819,102.36094 79.4235802,101.492011 C79.4786786,100.62218 80.7341989,99.9944194 82.2290811,100.088358 C83.7239632,100.183199 84.891868,100.963609 84.8367697,101.832537" id="Fill-667" fill="#FFB280"></path>
                <path d="M77.678678,100.178593 C77.6434511,100.729576 77.1692438,101.147782 76.6191633,101.113458 C76.0681796,101.078232 75.6499739,100.604024 75.6842975,100.05304 C75.7195243,99.50296 76.1937316,99.0847543 76.7438121,99.1190779 C77.2947959,99.1534015 77.7130015,99.628512 77.678678,100.178593" id="Fill-669" fill="#0C266D"></path>
                <path d="M69.8082817,110.080854 C68.4669524,110.080854 67.3803402,108.994242 67.3803402,107.652913" id="Stroke-671" stroke="#0C266D" stroke-width="0.903252033" stroke-linecap="round" stroke-linejoin="round"></path>
                <path d="M202.456262,125.063909 C201.515977,125.529083 200.520593,125.916579 199.476434,126.216458 C190.083516,128.912666 180.284135,123.483218 177.587927,114.091203 C175.565546,107.045837 178.11362,99.7719485 183.47713,95.4381452 C183.525906,95.3984021 183.634296,95.3189155 183.634296,95.3189155 C186.080303,95.3162062 203.169831,108.678013 206.889423,117.5344 C208.176557,120.599134 204.336833,124.135366 202.456262,125.063909" id="Fill-673" fill="#FFB280"></path>
                <path d="M179.739112,109.916824 C179.690337,110.970016 178.217133,111.757651 176.449468,111.674552 C174.680901,111.592356 173.288086,110.671942 173.337765,109.617847 C173.386541,108.564655 174.859745,107.77702 176.627409,107.860119 C178.395073,107.941411 179.788791,108.862729 179.739112,109.916824" id="Fill-675" fill="#FFB280"></path>
                <path d="M197.363547,91.696514 C202.716218,92.4868595 207.292996,95.6970172 210.008172,100.116629 C211.494021,102.535538 213.641051,104.496499 216.193642,105.73847 C219.352314,107.274902 223.070099,110.379379 222.896675,116.435684 C222.77293,120.760455 219.990913,124.597469 215.92086,126.063447 C211.233885,127.750722 206.831434,126.496105 203.918447,123.722218 L203.918447,123.722218 C202.131814,122.607605 200.425571,121.380086 198.820492,120.038756 C197.484582,118.922337 196.905598,117.091445 197.462904,115.44301 C197.590263,115.06816 197.648974,114.65989 197.624586,114.229942 C197.540584,112.768481 196.435907,111.523799 194.993413,111.269082 C193.672859,111.03514 192.459791,111.63219 191.760674,112.631186 C187.911014,107.568459 185.095577,101.692804 183.632838,95.3230709 C183.632309,95.3212644 183.632838,95.3203611 183.634116,95.3194579 C187.349191,92.4155026 192.205977,90.9341693 197.363547,91.696514" id="Fill-677" fill="#FF6700"></path>
                <path d="M186.328697,119.746735 C187.688091,119.944547 188.950838,119.001552 189.14865,117.641254" id="Stroke-679" stroke="#0C266D" stroke-width="0.903252033" stroke-linecap="round" stroke-linejoin="round"></path>
                <path d="M182.548045,106.769532 C182.336684,107.303354 182.598628,107.908533 183.13245,108.119894 C183.667175,108.331255 184.272354,108.069312 184.483715,107.53549 C184.695076,107.000765 184.433132,106.395586 183.89931,106.185128 C183.364585,105.972864 182.759406,106.234807 182.548045,106.769532" id="Fill-681" fill="#0C266D"></path>
                <path d="M138.166576,99.2568238 L106.002675,99.2568238 C99.7783648,99.2568238 94.7327989,94.2103547 94.7327989,87.986045 C94.7327989,81.7626385 99.7783648,76.7161693 106.002675,76.7161693 L138.166576,76.7161693 C144.390886,76.7161693 149.437355,81.7626385 149.437355,87.986045 C149.437355,94.2103547 144.390886,99.2568238 138.166576,99.2568238" id="Fill-683" fill="#FFFFFF"></path>
                <path d="M110.880236,98.1533208 L116.463236,98.1533208 L116.463236,98.7684354 C116.463236,104.962938 111.408638,109.967857 105.214136,109.906436 C108.848822,107.100032 110.948883,102.744551 110.880236,98.1533208" id="Fill-685" fill="#FFFFFF"></path>
                <path d="M113.322268,88.3790499 C113.322268,89.751993 112.210364,90.8638963 110.838325,90.8638963 C109.466285,90.8638963 108.354382,89.751993 108.354382,88.3790499 C108.354382,87.0070101 109.466285,85.8951068 110.838325,85.8951068 C112.210364,85.8951068 113.322268,87.0070101 113.322268,88.3790499" id="Fill-687" fill="#FFE4D2"></path>
                <path d="M124.568839,88.3790499 C124.568839,89.751993 123.456936,90.8638963 122.084896,90.8638963 C120.712857,90.8638963 119.600953,89.751993 119.600953,88.3790499 C119.600953,87.0070101 120.712857,85.8951068 122.084896,85.8951068 C123.456936,85.8951068 124.568839,87.0070101 124.568839,88.3790499" id="Fill-689" fill="#FFE4D2"></path>
                <path d="M135.413554,88.3790499 C135.413554,89.751993 134.301651,90.8638963 132.929611,90.8638963 C131.557571,90.8638963 130.445668,89.751993 130.445668,88.3790499 C130.445668,87.0070101 131.557571,85.8951068 132.929611,85.8951068 C134.301651,85.8951068 135.413554,87.0070101 135.413554,88.3790499" id="Fill-691" fill="#FFE4D2"></path>
                <line x1="9.04389805" y1="175.724515" x2="198.270683" y2="175.724515" id="Stroke-693" stroke="#0C266D" stroke-width="0.903252033" stroke-linecap="round" stroke-linejoin="round"></line>
                <path d="M225.359482,182.567733 C225.359482,182.567733 218.352053,157.643397 215.830173,148.755397 C212.836796,138.205413 202.178422,131.592705 191.468563,133.955612 C191.267137,133.998968 191.066615,134.04684 190.86519,134.097423 C183.103545,136.048447 177.13034,142.248369 175.471066,150.077757 L170.091297,207.392712 C169.142882,224.030614 171.878832,230.609902 171.878832,230.609902 C192.6455,220.902653 214.09051,205.513948 225.359482,182.567733" id="Fill-695" fill="#0633EF"></path>
                <path d="M126.245637,197.437881 L121.627309,193.060722 C120.24172,191.747393 117.98901,191.766361 116.701876,193.176338 C115.453581,194.544765 115.525841,196.666504 116.8753,197.945509 L120.742122,201.609099 C121.275041,202.114017 120.788188,202.996494 120.077328,202.816747 L107.391154,199.606589 C105.572004,199.147737 103.788984,200.277705 103.428587,202.119436 C103.068189,203.961167 104.261385,205.844448 106.080535,206.3033 L112.182002,207.846957 L104.361646,209.317452 C102.559658,209.656171 101.268911,211.33351 101.521822,213.150853 C101.792797,215.090135 103.623689,216.389012 105.525938,216.031324 L113.679594,214.499409 L107.428187,218.484557 C105.842076,219.496199 105.375998,221.602583 106.386737,223.188693 C107.39838,224.775707 109.504763,225.240882 111.090874,224.230143 L118.245533,219.66872 L114.105929,223.917618 C112.703179,225.213784 112.572207,227.461979 113.894568,228.840341 C115.176283,230.176251 117.297119,230.244898 118.663739,228.983958 L129.287789,219.171028 C131.858445,216.796379 134.965632,215.078393 138.343794,214.164302 L140.952386,213.457959 L136.891365,198.128869 L132.900797,199.158576 C130.534277,199.769174 128.019623,199.118833 126.245637,197.437881" id="Fill-697" fill="#FFB280"></path>
                <path d="M203.621006,150.293273 L203.621006,150.293273 C199.259202,184.316068 174.558872,212.222039 141.31739,220.681898 L140.926282,220.781256 C138.83706,221.313271 136.712611,220.050525 136.180596,217.960399 L131.271421,198.670549 C130.739406,196.581327 132.002152,194.456878 134.091374,193.924863 C134.42648,193.839054 134.760684,193.750535 135.093984,193.66021 C155.391863,188.10521 170.205197,171.749122 174.959915,151.730347 C175.482898,149.530025 176.070915,148.160695 176.776355,146.013665 C177.357146,144.244195 179.935028,142.413303 181.79663,142.442751 L203.643587,144.639819 L203.621006,150.293273 Z" id="Fill-699" fill="#0633EF"></path>
                <path d="M219.585805,47.0393722 C219.585805,60.0452982 198.541839,70.5898624 172.582375,70.5898624 C146.622912,70.5898624 125.578946,60.0452982 125.578946,47.0393722 C125.578946,34.0325429 146.622912,23.4879787 172.582375,23.4879787 C198.541839,23.4879787 219.585805,34.0325429 219.585805,47.0393722 Z" id="Stroke-701" stroke="#0C266D" stroke-width="0.903252033" stroke-linecap="round" stroke-linejoin="round"></path>
                <path d="M170.105478,93.2498365 C162.177635,88.4933113 160.533716,76.6652259 166.434661,66.8297146" id="Stroke-703" stroke="#0C266D" stroke-width="0.903252033" stroke-linecap="round" stroke-linejoin="round"></path>
                <path d="M147.105158,52.2789566 C149.864593,48.5214281 153.368308,45.1252005 157.439265,42.2582785 C159.213252,41.009081 161.11821,39.8493054 163.276983,39.1005094 C164.796253,38.5730102 166.554884,38.2622915 168.087703,38.7635964 C169.494066,39.2233517 170.479514,40.3072541 170.963657,41.4724493 C171.446897,42.6385476 171.49206,43.890455 171.488447,45.1206842 C171.477608,48.4193607 171.149727,51.7171338 170.505709,54.9733574 C172.502799,53.219242 174.521567,51.4497712 176.944089,50.0930867 C178.336904,49.3135802 179.921208,48.6632387 181.613902,48.6298184 C182.068238,48.6207859 182.539736,48.6605289 182.939876,48.8375663 C183.665188,49.1582208 184.00752,49.8609509 184.093329,50.5284541 C184.178235,51.1941509 184.064425,51.8697834 184.152944,52.5363834 C184.178235,52.7251631 184.228817,52.9283948 184.404048,53.0539468 C184.650636,53.2318875 185.033614,53.1849184 185.347043,53.1018192 C186.785923,52.7233566 187.993571,51.8327501 189.483937,51.6231956 C191.56503,51.3314452 193.769868,52.6899363 193.980326,54.3952761" id="Stroke-705" stroke="#0C266D" stroke-width="0.903252033" stroke-linecap="round" stroke-linejoin="round"></path>
                <path d="M170.108549,207.416829 C179.441852,200.235072 187.177302,190.353495 187.177302,190.353495" id="Stroke-707" stroke="#3B7CFF" stroke-width="0.903252033" stroke-linecap="round" stroke-linejoin="round"></path>
                <line x1="63.2266454" y1="175.667249" x2="63.2266454" y2="216.875413" id="Stroke-709" stroke="#0C266D" stroke-width="0.903252033" stroke-linecap="round" stroke-linejoin="round"></line>
            </g>
        </g>
    </g>
</svg>