<svg width="912" height="750" viewBox="0 0 912 750" fill="none" xmlns="http://www.w3.org/2000/svg">
<mask id="mask0_47_43" style="mask-type:alpha" maskUnits="userSpaceOnUse" x="0" y="0" width="912" height="750">
<path d="M912 0H0V750H912V0Z" fill="white"/>
</mask>
<g mask="url(#mask0_47_43)">
<path fill-rule="evenodd" clip-rule="evenodd" d="M792 423.5C792 603.821 646.045 750 466 750C285.955 750 140 603.821 140 423.5C140 243.18 285.955 97 466 97C646.045 97 792 243.18 792 423.5Z" fill="#FFE4D2"/>
<path fill-rule="evenodd" clip-rule="evenodd" d="M263.303 750H123.697C112.818 750 104 741.147 104 730.227V622.773C104 611.852 112.818 603 123.697 603H263.303C274.182 603 283 611.852 283 622.773V730.227C283 741.147 274.182 750 263.303 750Z" fill="#FF9357"/>
<path fill-rule="evenodd" clip-rule="evenodd" d="M149.118 654.357L145.307 647.98L137.892 647.876L134.641 641.895L126.493 641.294L148.504 603.17H178.67L149.118 654.357Z" fill="#0633EF"/>
<path fill-rule="evenodd" clip-rule="evenodd" d="M163.331 738.256H131.681C128.815 738.256 126.493 735.934 126.493 733.069C126.493 730.203 128.815 727.881 131.681 727.881H163.331C166.196 727.881 168.518 730.203 168.518 733.069C168.518 735.934 166.196 738.256 163.331 738.256Z" fill="#FFE4D2"/>
<path d="M104.193 676.464H271.142" stroke="#0C266D" stroke-linecap="round" stroke-linejoin="round"/>
<path d="M204.037 749.758V603.053" stroke="#0C266D" stroke-linecap="round" stroke-linejoin="round"/>
<path fill-rule="evenodd" clip-rule="evenodd" d="M429.808 725.699H472.737V698.75H429.808V725.699Z" fill="#3B7CFF"/>
<path fill-rule="evenodd" clip-rule="evenodd" d="M645.2 592.496L655.401 595.823V595.824C658.746 602.63 660.535 610.094 660.64 617.676L661.045 646.848L627.637 634.445L645.2 592.496Z" fill="#3B7CFF"/>
<path fill-rule="evenodd" clip-rule="evenodd" d="M388.983 727.427L428.073 714.206C433.673 712.311 439.452 716.564 439.307 722.474C449.103 717.505 460.265 715.911 471.061 717.939L472.738 718.254V740.124L450.112 746.862H428.683L379.875 740.124C379.875 734.376 383.539 729.268 388.983 727.427Z" fill="#0C266D"/>
<path fill-rule="evenodd" clip-rule="evenodd" d="M389.807 750H463.193C468.609 750 473 745.523 473 740H380C380 745.523 384.391 750 389.807 750Z" fill="#0633EF"/>
<path fill-rule="evenodd" clip-rule="evenodd" d="M519.133 726.25L472.5 726V706L519.133 706.052V726.25Z" fill="#FF9357"/>
<path fill-rule="evenodd" clip-rule="evenodd" d="M395.553 687.79L404.322 703.248L366.145 723.911L357.899 708.839L395.553 687.79Z" fill="#FF6700"/>
<path fill-rule="evenodd" clip-rule="evenodd" d="M466.023 452.315V457.665C466.003 474.858 472.621 493.877 484.929 505.883H485.243C526.175 545.809 550.942 599.214 555.53 656.21L558.61 697.638C559.043 702.446 563.103 706.111 567.929 706.053H612.487C617.915 705.986 622.118 701.279 621.571 695.879L617.268 649.624C609.743 579.731 580.574 505.828 534.988 452.315H466.023Z" fill="#0C266D"/>
<path fill-rule="evenodd" clip-rule="evenodd" d="M458.521 706.052H520.853C526.201 706.052 530.536 701.717 530.536 696.37V452.315H458.521V706.052Z" fill="#0C266D"/>
<path fill-rule="evenodd" clip-rule="evenodd" d="M404.323 703.248L414.5 720C417.646 725.532 383.665 737.011 377.942 739.795L327 740V739C326.952 733.782 330.623 728.93 335.695 727.709L350.722 724.694C353.878 723.925 356.553 721.842 358.072 718.971L359.279 716.691C360.627 714.142 364.202 713.936 365.835 716.315L368.889 720.763L404.323 703.248Z" fill="#CCDEFF"/>
<path fill-rule="evenodd" clip-rule="evenodd" d="M407.228 584.346L388.36 602.863C376.26 614.739 373.732 633.3 382.216 647.978L400.507 679.673C403.564 685.428 402.384 690.149 396.886 693.037L359.627 710.213C355.213 712.224 350.427 711.027 347.828 706.053L330.904 675.674C313.343 642.55 317.974 602.034 342.557 573.726L364.536 548.417L407.228 584.346Z" fill="#0C266D"/>
<path fill-rule="evenodd" clip-rule="evenodd" d="M381.564 444.378L427.063 706.053H441.193L472.5 706L474.818 446.56L381.564 444.378Z" fill="#0633EF"/>
<path fill-rule="evenodd" clip-rule="evenodd" d="M664.935 293.949C662.571 291.53 658.694 291.485 656.275 293.849L625.878 323.545C620.595 323.092 614.139 323.176 611.39 324.009C613.111 320.428 615.606 317.201 618.793 314.609L618.8 314.603C621.368 312.513 621.693 308.688 619.46 306.191C617.369 303.854 613.752 303.687 611.319 305.667C601.12 314.036 595.882 326.95 597.26 339.982L586.854 352.336C584.751 354.504 593.658 362.073 595.825 364.176L596.336 364.672C598.505 366.776 601.968 366.723 604.073 364.555L610.914 357.502C611.826 357.641 612.549 357.557 612.96 357.155L665.258 302.151C667.269 299.738 667.129 296.196 664.935 293.949Z" fill="#3B7CFF"/>
<path fill-rule="evenodd" clip-rule="evenodd" d="M612.899 328.679C615.255 331.052 619.089 331.066 621.461 328.71L659.626 290.815C661.999 288.459 662.011 284.625 659.656 282.252C657.3 279.879 653.466 279.865 651.093 282.222L612.929 320.117C610.556 322.473 610.543 326.306 612.899 328.679Z" fill="#0C266D"/>
<path fill-rule="evenodd" clip-rule="evenodd" d="M375.819 140.641C372.888 139.262 369.434 140.622 368.209 143.58L368.205 143.588C366.858 146.841 364.901 149.732 362.498 152.148C362.603 149.396 354.637 155.403 352.645 150.454L377.068 103.116C378.588 100.22 377.474 96.6403 374.577 95.1197C371.888 93.7075 368.568 94.559 366.89 97.0896L330.398 160.766C330.106 161.321 330.298 162.132 330.801 163.075L326.958 169.939C325.531 172.489 326.441 175.713 328.99 177.14L329.59 177.475C332.14 178.903 341.617 185.061 343.044 182.511L350.91 170.518C363.255 168.122 373.66 159.724 378.558 148.04C379.719 145.236 378.564 141.932 375.819 140.641Z" fill="#FFB280"/>
<path fill-rule="evenodd" clip-rule="evenodd" d="M355.777 153.713C352.859 152.08 351.818 148.39 353.452 145.473L379.724 98.5442C381.357 95.6258 385.047 94.5851 387.965 96.2181C390.882 97.852 391.924 101.541 390.29 104.459L364.017 151.388C362.384 154.306 358.694 155.346 355.777 153.713Z" fill="#0C266D"/>
<path fill-rule="evenodd" clip-rule="evenodd" d="M438.165 428.184L440.003 428.703C456.553 433.359 474.696 398.948 477.732 452.314C480.434 499.835 553.128 548.911 606.73 568.824L643.212 582.16C647.721 583.883 650.144 588.786 648.774 593.415L636.66 636.295C635.12 641.5 629.448 644.265 624.4 642.271L581.584 627.46C516.37 601.215 455.954 563.739 416.852 505.321L418.873 495.813L438.165 428.184Z" fill="#0633EF"/>
<path fill-rule="evenodd" clip-rule="evenodd" d="M621.53 354.523L594.489 331.869C591.823 329.636 587.804 330.24 585.911 333.159C576.79 347.229 555.334 343.969 550.805 327.823L542.675 299.912L485.229 278.156L497.12 338.214C508.943 397.93 586.737 414.085 621.358 364.014L622.575 362.255C624.276 359.795 623.824 356.444 621.53 354.523Z" fill="white"/>
<path fill-rule="evenodd" clip-rule="evenodd" d="M301.331 389.466C310.43 379.931 314.025 366.366 310.784 353.536C310.015 350.549 307.058 348.569 304.039 349.196C300.815 349.866 298.838 353.08 299.649 356.233L299.651 356.241C300.607 359.959 300.742 363.768 300.125 367.431C298.513 365.061 293.276 360.86 288.788 357.96L283.563 318.263C283.129 314.966 280.105 312.646 276.809 313.08C273.748 313.483 271.487 316.135 271.577 319.222L280.3 393.927C280.384 394.56 281.098 403.142 281.098 403.142C281.406 406.096 284.051 408.242 287.005 407.933L287.701 407.861C290.655 407.551 302.136 407.114 301.828 404.16L301.331 389.466Z" fill="#FF9357"/>
<path fill-rule="evenodd" clip-rule="evenodd" d="M410.296 191.25C409.177 192.493 410.003 195.062 412.142 196.987C414.281 198.911 416.922 199.464 418.041 198.22C419.16 196.977 418.333 194.408 416.195 192.484C414.056 190.559 411.415 190.007 410.296 191.25Z" fill="#FFB280"/>
<path fill-rule="evenodd" clip-rule="evenodd" d="M446.933 179.897C440.026 190.857 457.114 201.505 455.841 214.04C454.865 223.661 434.357 235.062 436.761 244.521C429.939 243.233 423.465 239.81 418.473 234.242C406.393 220.774 407.52 200.064 420.988 187.984C428.341 181.391 437.848 178.761 446.933 179.897Z" fill="#FFB280"/>
<path fill-rule="evenodd" clip-rule="evenodd" d="M469.263 192.976C475.112 200.895 476.852 210.91 474.649 220.086C473.437 225.133 473.643 230.44 475.325 235.349C477.341 241.233 478.124 249.701 470.784 257.113C464.973 262.98 456.017 264.632 448.575 261.052C440.468 257.151 436.476 249.893 436.316 242.607C435.454 238.837 434.843 235.025 434.514 231.195C434.247 228.074 435.85 225.005 438.673 223.647C439.445 223.276 440.155 222.72 440.743 221.974C442.223 220.096 442.386 217.442 441.146 215.397C439.783 213.152 437.321 212.246 435.019 212.646C436.611 201.164 440.582 189.976 446.934 179.896C455.46 180.963 463.618 185.333 469.263 192.976Z" fill="#FF6700"/>
<path fill-rule="evenodd" clip-rule="evenodd" d="M544.265 307.093L557.875 431.636C558.972 442.711 550.273 452.314 539.143 452.314H477.732L462.147 308.76C463.416 286.975 481.451 269.96 503.272 269.96C524.45 269.96 542.177 286.018 544.265 307.093Z" fill="white"/>
<path fill-rule="evenodd" clip-rule="evenodd" d="M470.293 309.367C469.088 288.086 455.456 269.514 435.514 261.985L381.244 241.497C358.788 232.371 349.555 205.522 361.648 184.515C364.133 180.198 362.51 174.68 358.084 172.394L329.175 157.473C325.017 155.326 319.905 156.838 317.584 160.901C290.54 208.229 311.141 268.551 361.486 289.449L370.589 293.315C382.453 298.354 389.522 310.667 387.89 323.454L371.446 452.315H477.732L470.293 309.367Z" fill="#3B7CFF"/>
<path fill-rule="evenodd" clip-rule="evenodd" d="M448.489 597.432H358.924C352.71 597.432 347.673 592.395 347.673 586.181V585.173C347.673 578.959 352.71 573.922 358.924 573.922H448.489C454.703 573.922 459.74 578.959 459.74 585.173V586.181C459.74 592.395 454.703 597.432 448.489 597.432Z" fill="#FFB280"/>
<path fill-rule="evenodd" clip-rule="evenodd" d="M296.3 370.474C292.985 370.912 289.942 368.578 289.505 365.263L282.47 311.943C282.032 308.628 284.366 305.586 287.681 305.149C290.996 304.711 294.038 307.044 294.476 310.359L301.51 363.679C301.948 366.994 299.614 370.036 296.3 370.474ZM466.673 348.443C466.673 355.756 460.745 361.684 453.433 361.684C446.119 361.684 440.192 355.756 440.192 348.443C440.192 341.131 446.119 335.203 453.433 335.203C460.745 335.203 466.673 341.131 466.673 348.443Z" fill="#0C266D"/>
<path fill-rule="evenodd" clip-rule="evenodd" d="M485.896 370.312C483.429 377.195 475.848 380.776 468.964 378.308C462.08 375.841 458.5 368.26 460.968 361.376C463.435 354.493 471.016 350.912 477.899 353.38C484.783 355.847 488.363 363.427 485.896 370.312Z" fill="#0C266D"/>
<path fill-rule="evenodd" clip-rule="evenodd" d="M495.106 391.03C495.106 398.342 489.178 404.27 481.865 404.27C474.553 404.27 468.625 398.342 468.625 391.03C468.625 383.718 474.553 377.79 481.865 377.79C489.178 377.79 495.106 383.718 495.106 391.03Z" fill="#0C266D"/>
<path fill-rule="evenodd" clip-rule="evenodd" d="M311.395 701.492L315.765 717.041L274.469 730.549L269.789 714.018L311.395 701.492Z" fill="#FF6700"/>
<path fill-rule="evenodd" clip-rule="evenodd" d="M455.314 525.728C455.288 558.437 428.765 584.939 396.055 584.939H352.428C322.621 584.939 300.208 612.118 305.883 641.379L318.026 690.881C319.215 695.871 316.308 700.925 311.396 702.403L269.789 714.929C264.526 716.513 259.001 713.407 257.62 708.086L247.603 669.821C228.677 596.888 283.73 525.728 359.077 525.728H455.314Z" fill="#0C266D"/>
<path d="M558.65 393.815C544.676 393.164 531.337 387.905 520.773 378.88L519.495 377.789" stroke="#0C266D" stroke-linecap="round" stroke-linejoin="round"/>
<mask id="mask1_47_43" style="mask-type:alpha" maskUnits="userSpaceOnUse" x="267" y="373" width="200" height="153">
<path d="M389.149 381.323L389.126 381.305L348.85 408.856C334.752 418.5 315.615 408.406 315.615 391.325C315.615 387.655 312.612 384.652 308.943 384.652H273.481C270.409 384.652 267.842 386.991 267.56 390.051L267.357 392.238C262.083 449.184 321.795 486.327 369.286 462.232L364.813 494.642C363.206 506.282 367.537 517.954 376.349 525.728H455.314C463.55 516.985 467.444 505.018 465.929 493.103L455.546 411.371C453.146 389.915 435.005 373.689 413.415 373.689C404.429 373.689 396.048 376.5 389.149 381.323Z" fill="white"/>
</mask>
<g mask="url(#mask1_47_43)">
<path fill-rule="evenodd" clip-rule="evenodd" d="M254.256 534.604H483.214V361.138H254.256V534.604Z" fill="#FF9357"/>
<path fill-rule="evenodd" clip-rule="evenodd" d="M268.348 455.996C268.348 448.052 271.49 440.846 276.59 435.537C275.739 435.708 274.859 435.798 273.956 435.798H260.154V492.099L295.488 485.429C280.297 484.207 268.348 471.501 268.348 455.996Z" fill="#FF9357"/>
<path fill-rule="evenodd" clip-rule="evenodd" d="M288.441 371.496L319.287 435.648C313.907 429.99 306.311 426.456 297.886 426.456C293.458 426.456 289.261 427.439 285.49 429.185C286.652 427.203 287.321 424.896 287.321 422.433V368.841C287.65 369.735 288.02 370.62 288.441 371.496ZM260.154 435.798H273.956C274.859 435.798 275.739 435.708 276.59 435.537C271.49 440.846 268.348 448.052 268.348 455.996C268.348 471.501 280.297 484.207 295.488 485.429L260.154 492.099V526.5H394.342C400.63 511.463 404.23 494.323 404.511 474.84C404.586 469.667 399.922 465.714 394.838 466.674L310.887 482.522C320.681 477.713 327.425 467.643 327.425 455.996C327.425 452.223 326.71 448.62 325.421 445.303C334.012 454.5 347.894 457.496 359.835 451.755L426.263 419.814C426.327 419.784 426.388 419.749 426.452 419.717C413.09 431.107 404.614 448.058 404.614 466.992C404.614 495.107 423.302 518.855 448.932 526.5H468.435V404.921C467.861 404.905 467.287 404.896 466.71 404.896C454.963 404.896 443.98 408.159 434.612 413.826C443.044 405.186 445.629 391.872 440.095 380.361L416.559 331.413L468.435 383.288V318.22H410.595C410.567 318.436 410.545 318.653 410.529 318.871L410.216 318.22H331.017L302.272 332.041C295.041 335.52 289.873 341.557 287.321 348.544V318.22H260.154V435.798Z" fill="#FF6700"/>
</g>
<path d="M426.674 218.294C424.699 220.187 421.563 220.121 419.67 218.146M422.095 191.865C419.792 194.516 420.073 198.531 422.724 200.834C425.373 203.137 429.389 202.856 431.692 200.206C433.995 197.555 433.714 193.541 431.063 191.238C428.414 188.935 424.398 189.216 422.095 191.865ZM431.8 200.3L444.985 211.757C449.167 215.392 449.611 221.73 445.976 225.912L431.8 200.3Z" stroke="#0C266D" stroke-linecap="round" stroke-linejoin="round"/>
<path fill-rule="evenodd" clip-rule="evenodd" d="M429.304 343.767C425.435 352.193 429.082 361.109 420.879 363.676C420.655 363.746 420.44 363.895 420.214 363.961C413.226 365.977 405.499 365.51 398.371 362.237C382.588 354.988 375.669 336.316 382.919 320.532C385.286 315.378 388.403 311.409 392.707 308.33C392.895 308.197 428.413 315.335 431.127 323.135C431.711 324.81 433.752 327.85 434.047 329.605C434.456 332.04 439.907 332.995 439.727 335.496C439.465 339.159 430.928 340.232 429.304 343.767Z" fill="#FF9357"/>
<path fill-rule="evenodd" clip-rule="evenodd" d="M375.413 326.806C375.065 328.342 376.925 330.072 379.567 330.67C382.209 331.269 384.632 330.508 384.98 328.972C385.328 327.436 383.468 325.705 380.826 325.107C378.184 324.509 375.761 325.27 375.413 326.806Z" fill="#FF9357"/>
<path fill-rule="evenodd" clip-rule="evenodd" d="M390.323 331.109C390.103 332.082 390.713 333.049 391.687 333.27C392.66 333.49 393.627 332.88 393.848 331.907C394.068 330.934 393.458 329.966 392.484 329.745C391.512 329.526 390.543 330.135 390.323 331.109Z" fill="#0C266D"/>
<path d="M401.545 346.74C400.935 349.256 398.401 350.801 395.885 350.191" stroke="#0C266D" stroke-linecap="round" stroke-linejoin="round"/>
<path fill-rule="evenodd" clip-rule="evenodd" d="M409.903 735.247L382.078 748.915C380.625 749.63 379.031 750 377.415 750H337.046C331.498 750 327.001 745.46 327 739.858H376.256L414.58 720C417.675 725.493 415.53 732.483 409.903 735.247Z" fill="#3B7CFF"/>
<path fill-rule="evenodd" clip-rule="evenodd" d="M433.353 749.795C431.365 749.795 429.657 748.385 429.279 746.434L400.083 595.735L407.626 591.023L437.427 744.855C437.923 747.416 435.962 749.795 433.353 749.795Z" fill="#FFB280"/>
<path fill-rule="evenodd" clip-rule="evenodd" d="M374.485 749.795C376.474 749.795 378.182 748.385 378.56 746.434L407.755 595.735L400.212 591.023L370.411 744.855C369.915 747.416 371.876 749.795 374.485 749.795Z" fill="#FFB280"/>
<path fill-rule="evenodd" clip-rule="evenodd" d="M315.765 717.041L322 739L234.096 741.447L230 739C230.176 733.624 233.957 729.015 239.164 727.665L269.734 719.741C274.834 718.419 280.057 721.412 281.495 726.48L315.765 717.041Z" fill="#CCDEFF"/>
<path fill-rule="evenodd" clip-rule="evenodd" d="M310.62 750H240.299C234.503 750 229.848 745.189 230.004 739.358L230.013 739H322C321.755 745.145 316.732 750 310.62 750Z" fill="#3B7CFF"/>
<path fill-rule="evenodd" clip-rule="evenodd" d="M472.5 740V718.131L516.163 724.96L516.133 720.93C516.101 716.614 520.592 713.75 524.492 715.599L551.249 728.284C556.097 730.584 559.436 734.74 560.5 740H472.5Z" fill="#FF6700"/>
<path d="M540.108 713.644L536.012 722.865" stroke="#0C266D" stroke-linecap="round" stroke-linejoin="round"/>
<path d="M546.396 718.453L536.012 722.865" stroke="#0C266D" stroke-linecap="round" stroke-linejoin="round"/>
<path fill-rule="evenodd" clip-rule="evenodd" d="M560.5 740H472.5V744.139C472.5 747.218 474.818 749.861 477.807 749.964C480.014 750.042 486.134 749.969 488.261 749.969H498.024H507.788H517.552H527.315H537.079H546.843L556 750C557.138 750 558.001 749.435 558.879 748.824C560.694 747.562 561.517 745.235 561.087 743.022L560.5 740Z" fill="#FF9357"/>
<path fill-rule="evenodd" clip-rule="evenodd" d="M567.02 726.25H612.656V706.052H567.02V726.25Z" fill="#FF9357"/>
<path fill-rule="evenodd" clip-rule="evenodd" d="M567 740V718L610.445 724.96L610.418 721.174C610.385 716.743 614.993 713.801 618.998 715.695L645.656 727.977C650.506 730.271 653.975 734.734 655 740H567Z" fill="#FF6700"/>
<path d="M633.711 713.644L629.615 722.865" stroke="#0C266D" stroke-linecap="round" stroke-linejoin="round"/>
<path d="M639.999 718.453L629.614 722.865" stroke="#0C266D" stroke-linecap="round" stroke-linejoin="round"/>
<path fill-rule="evenodd" clip-rule="evenodd" d="M664.006 690.28L651.056 649.383C649.2 643.523 653.738 637.604 659.878 637.874C654.976 625.942 653.246 612.946 654.856 600.147L655.401 595.823L678.9 603.484L685.445 627.138L685.011 649.41L677.018 700.005C671.045 699.888 665.81 695.976 664.006 690.28Z" fill="#0C266D"/>
<path fill-rule="evenodd" clip-rule="evenodd" d="M687.395 690.025L688.801 617.92C688.926 611.486 684.947 605.685 678.9 603.485L677.019 700.005C682.639 700.114 687.286 695.646 687.395 690.025Z" fill="#0633EF"/>
<path d="M354.41 723.145C354.233 724.191 353.943 728.793 353.943 728.793L349.751 724.353L348.203 730.822L344.755 725.886M260.118 722.234C259.941 723.279 259.651 727.882 259.651 727.882L255.459 723.442L253.91 729.911L250.463 724.976L260.118 722.234Z" stroke="#3B7CFF" stroke-linecap="round" stroke-linejoin="round"/>
<path fill-rule="evenodd" clip-rule="evenodd" d="M655 740H567V744.139C567 747.218 569.318 749.861 572.306 749.964C574.513 750.042 648.48 749.969 650.607 749.969C651.745 749.969 652.803 749.612 653.68 749.001C655.495 747.739 656.318 745.411 655.888 743.198L655 740Z" fill="#FF9357"/>
<path fill-rule="evenodd" clip-rule="evenodd" d="M819.957 394.966C867.275 417.401 887.449 473.947 865.015 521.265C842.58 568.584 786.034 588.757 738.715 566.323C691.397 543.888 671.224 487.342 693.657 440.024C716.093 392.705 772.639 372.532 819.957 394.966Z" fill="#CCDEFF"/>
<path d="M752.259 164.221L731.721 165.457L747.991 178.88" stroke="#0C266D" stroke-linecap="round" stroke-linejoin="round"/>
<path fill-rule="evenodd" clip-rule="evenodd" d="M709.055 150.763C709.055 184.428 681.764 211.72 648.098 211.72C614.432 211.72 587.142 184.428 587.142 150.763C587.142 117.098 614.432 89.806 648.098 89.806C681.764 89.806 709.055 117.098 709.055 150.763Z" stroke="#0C266D" stroke-linecap="round" stroke-linejoin="round"/>
<path d="M676.02 134.755L680.172 124.472H691.844" stroke="#0C266D" stroke-linecap="round" stroke-linejoin="round"/>
<path fill-rule="evenodd" clip-rule="evenodd" d="M618.59 134.607H676.149L664.181 166.301L631.795 156.564C623.956 154.208 618.59 146.99 618.59 138.805V134.607ZM664.181 166.301C662.615 170.405 658.678 173.117 654.285 173.117H626.927L664.181 166.301ZM638.094 180.419C638.094 181.894 636.899 183.089 635.424 183.089C633.949 183.089 632.754 181.894 632.754 180.419C632.754 178.944 633.949 177.749 635.424 177.749C636.899 177.749 638.094 178.944 638.094 180.419ZM653.962 180.419C653.962 181.894 652.767 183.089 651.293 183.089C649.818 183.089 648.623 181.894 648.623 180.419C648.623 178.944 649.818 177.749 651.293 177.749C652.767 177.749 653.962 178.944 653.962 180.419Z" stroke="#0C266D" stroke-linecap="round" stroke-linejoin="round"/>
<path fill-rule="evenodd" clip-rule="evenodd" d="M259.415 264.451C259.669 264.157 259.932 263.875 260.183 263.574C280.278 239.415 276.985 203.539 252.825 183.442H252.824C228.665 163.347 192.789 166.64 172.693 190.8C152.597 214.959 155.891 250.835 180.051 270.932C199.424 287.047 226.327 288.107 246.59 275.442L265.139 281.625L259.415 264.451Z" fill="#3B7CFF"/>
<path fill-rule="evenodd" clip-rule="evenodd" d="M468.793 69.2059C468.793 57.8279 478.016 48.6052 489.394 48.6052C500.771 48.6052 509.994 57.8279 509.994 69.2059C509.994 80.5828 500.771 89.8055 489.394 89.8055C478.016 89.8055 468.793 80.5828 468.793 69.2059Z" fill="#FFB280"/>
<path fill-rule="evenodd" clip-rule="evenodd" d="M501.588 69.2059C501.588 75.9412 496.128 81.4007 489.393 81.4007C482.658 81.4007 477.198 75.9412 477.198 69.2059C477.198 62.4705 482.658 57.011 489.393 57.011C496.128 57.011 501.588 62.4705 501.588 69.2059Z" fill="#FFD9BF"/>
<path fill-rule="evenodd" clip-rule="evenodd" d="M509.98 97.0209C509.98 108.398 500.756 117.621 489.379 117.621C478.002 117.621 468.778 108.398 468.778 97.0209C468.778 85.643 478.002 76.4203 489.379 76.4203C500.756 76.4203 509.98 85.643 509.98 97.0209Z" fill="#FF6700"/>
<path fill-rule="evenodd" clip-rule="evenodd" d="M501.573 97.0209C501.573 103.756 496.114 109.216 489.378 109.216C482.643 109.216 477.184 103.756 477.184 97.0209C477.184 90.2856 482.643 84.8251 489.378 84.8251C496.114 84.8251 501.573 90.2856 501.573 97.0209Z" fill="#FF8C40"/>
<path fill-rule="evenodd" clip-rule="evenodd" d="M468.8 124.193C468.8 112.816 478.023 103.593 489.4 103.593C500.777 103.593 510.001 112.816 510.001 124.193C510.001 135.571 500.777 144.794 489.4 144.794C478.023 144.794 468.8 135.571 468.8 124.193Z" fill="#FFB280"/>
<path fill-rule="evenodd" clip-rule="evenodd" d="M501.573 124.193C501.573 130.929 496.114 136.388 489.378 136.388C482.643 136.388 477.184 130.929 477.184 124.193C477.184 117.458 482.643 111.999 489.378 111.999C496.114 111.999 501.573 117.458 501.573 124.193Z" fill="#FFD9BF"/>
<path fill-rule="evenodd" clip-rule="evenodd" d="M210.019 488.449C210.019 477.071 219.241 467.848 230.619 467.848C241.996 467.848 251.219 477.071 251.219 488.449C251.219 499.827 241.996 509.049 230.619 509.049C219.241 509.049 210.019 499.827 210.019 488.449Z" fill="#FFB280"/>
<path fill-rule="evenodd" clip-rule="evenodd" d="M242.814 488.449C242.814 495.184 237.354 500.644 230.619 500.644C223.883 500.644 218.424 495.184 218.424 488.449C218.424 481.713 223.883 476.254 230.619 476.254C237.354 476.254 242.814 481.713 242.814 488.449Z" fill="#FFD9BF"/>
<path fill-rule="evenodd" clip-rule="evenodd" d="M251.205 516.264C251.205 527.641 241.982 536.864 230.605 536.864C219.228 536.864 210.004 527.641 210.004 516.264C210.004 504.886 219.228 495.663 230.605 495.663C241.982 495.663 251.205 504.886 251.205 516.264Z" fill="#FF6700"/>
<path fill-rule="evenodd" clip-rule="evenodd" d="M242.8 516.264C242.8 522.999 237.34 528.459 230.605 528.459C223.87 528.459 218.41 522.999 218.41 516.264C218.41 509.529 223.87 504.069 230.605 504.069C237.34 504.069 242.8 509.529 242.8 516.264Z" fill="#FF8C40"/>
<path fill-rule="evenodd" clip-rule="evenodd" d="M210.025 543.436C210.025 532.059 219.248 522.837 230.626 522.837C242.003 522.837 251.226 532.059 251.226 543.436C251.226 554.814 242.003 564.037 230.626 564.037C219.248 564.037 210.025 554.814 210.025 543.436Z" fill="#FFB280"/>
<path fill-rule="evenodd" clip-rule="evenodd" d="M242.8 543.436C242.8 550.172 237.34 555.631 230.605 555.631C223.87 555.631 218.41 550.172 218.41 543.436C218.41 536.701 223.87 531.241 230.605 531.241C237.34 531.241 242.8 536.701 242.8 543.436Z" fill="#FFD9BF"/>
<path fill-rule="evenodd" clip-rule="evenodd" d="M614.21 416.707C614.21 405.329 623.433 396.106 634.811 396.106C646.188 396.106 655.411 405.329 655.411 416.707C655.411 428.084 646.188 437.307 634.811 437.307C623.433 437.307 614.21 428.084 614.21 416.707Z" fill="#FFB280"/>
<path fill-rule="evenodd" clip-rule="evenodd" d="M647.005 416.707C647.005 423.442 641.545 428.902 634.81 428.902C628.075 428.902 622.615 423.442 622.615 416.707C622.615 409.972 628.075 404.511 634.81 404.511C641.545 404.511 647.005 409.972 647.005 416.707Z" fill="#FFD9BF"/>
<path fill-rule="evenodd" clip-rule="evenodd" d="M655.397 444.522C655.397 455.9 646.174 465.122 634.796 465.122C623.419 465.122 614.195 455.9 614.195 444.522C614.195 433.145 623.419 423.922 634.796 423.922C646.174 423.922 655.397 433.145 655.397 444.522Z" fill="#FF6700"/>
<path fill-rule="evenodd" clip-rule="evenodd" d="M646.991 444.522C646.991 451.257 641.532 456.717 634.796 456.717C628.061 456.717 622.602 451.257 622.602 444.522C622.602 437.786 628.061 432.327 634.796 432.327C641.532 432.327 646.991 437.786 646.991 444.522Z" fill="#FF8C40"/>
<path fill-rule="evenodd" clip-rule="evenodd" d="M614.217 471.695C614.217 460.317 623.44 451.094 634.817 451.094C646.194 451.094 655.418 460.317 655.418 471.695C655.418 483.073 646.194 492.295 634.817 492.295C623.44 492.295 614.217 483.073 614.217 471.695Z" fill="#FFB280"/>
<path fill-rule="evenodd" clip-rule="evenodd" d="M646.991 471.695C646.991 478.43 641.532 483.889 634.796 483.889C628.061 483.889 622.602 478.43 622.602 471.695C622.602 464.959 628.061 459.5 634.796 459.5C641.532 459.5 646.991 464.959 646.991 471.695Z" fill="#FFD9BF"/>
<path fill-rule="evenodd" clip-rule="evenodd" d="M224.249 212.761V191.394H215.397C215.397 195.185 212.324 198.258 208.533 198.258C204.742 198.258 201.669 195.185 201.669 191.394H192.816V247.926" fill="#0633EF"/>
<path fill-rule="evenodd" clip-rule="evenodd" d="M247.466 220.616C244.949 223.452 240.611 223.711 237.775 221.196C234.94 218.679 234.68 214.341 237.196 211.505L230.574 205.631L193.058 247.921L199.68 253.795C202.196 250.959 206.534 250.699 209.37 253.215C212.206 255.732 212.466 260.07 209.95 262.906L216.572 268.78L254.088 226.49L247.466 220.616Z" fill="#CCDEFF"/>
<path d="M657.067 330.447C666.774 337.508 678.026 342.785 690.452 345.679C740.159 357.257 789.84 326.347 801.418 276.641C812.995 226.934 782.085 177.254 732.378 165.676" stroke="#0C266D" stroke-linecap="round" stroke-linejoin="round"/>
<path d="M740.122 415.6L738.973 412.689" stroke="#0C266D" stroke-linecap="round" stroke-linejoin="round"/>
<path d="M736.427 421.243L733.307 420.668" stroke="#0C266D" stroke-linecap="round" stroke-linejoin="round"/>
<path d="M746.889 416.438L748.19 413.886" stroke="#0C266D" stroke-linecap="round" stroke-linejoin="round"/>
<path d="M255.942 352.196C181.891 351.879 121.602 411.65 121.282 485.701C121.12 523.898 136.942 558.432 162.466 582.963" stroke="#0C266D" stroke-linecap="round" stroke-linejoin="round"/>
<path d="M234.789 360.941L257.659 352.033L233.944 345.708" stroke="#0C266D" stroke-linecap="round" stroke-linejoin="round"/>
<path fill-rule="evenodd" clip-rule="evenodd" d="M430.837 309.315C430.135 308.75 429.414 308.22 428.679 307.726C428.675 307.723 428.672 307.72 428.668 307.717C428.314 307.48 427.957 307.251 427.598 307.03C427.569 307.011 427.538 306.993 427.508 306.974C425.266 305.605 422.904 304.545 420.475 303.792C420.474 303.791 420.472 303.791 420.47 303.79C411.098 300.881 400.757 302.515 392.708 308.331C392.749 309.024 392.811 310.267 392.881 311.774C393.269 320.131 397.394 327.87 404.117 332.85L410.561 337.622C411.623 335.674 413.826 334.438 416.293 334.899C418.328 335.278 420.021 336.875 420.491 338.89C420.869 340.504 420.515 342.02 419.702 343.197C417.857 345.866 416.756 348.969 417.088 352.196C417.205 353.338 417.412 354.619 417.73 356.065C417.73 356.065 419.696 364.2 419.784 364.249L422.385 363.368C426.569 361.763 430.5 359.097 433.77 355.704C434.096 355.365 434.417 355.019 434.731 354.665C435.049 354.305 435.362 353.938 435.666 353.56C446.55 340.009 444.388 320.2 430.837 309.315Z" fill="#0C266D"/>
<path fill-rule="evenodd" clip-rule="evenodd" d="M472.5 742.5V735.62L493.44 735.68C497.24 735.68 500.32 738.76 500.32 742.56L472.5 742.5ZM567 742.38V735.5L587.782 735.68C590.315 735.68 592.609 737.973 594.662 742.56L567 742.38Z" fill="#FF9357"/>
<path fill-rule="evenodd" clip-rule="evenodd" d="M493.377 744.956H478.613C477.227 744.956 476.104 743.833 476.104 742.446V742.304C476.104 740.918 477.227 739.796 478.613 739.796H493.377C494.763 739.796 495.886 740.918 495.886 742.304V742.446C495.886 743.833 494.763 744.956 493.377 744.956ZM587.893 744.956H573.129C571.743 744.956 570.62 743.833 570.62 742.446V742.304C570.62 740.918 571.743 739.796 573.129 739.796H587.893C589.279 739.796 590.403 740.918 590.403 742.304V742.446C590.403 743.833 589.279 744.956 587.893 744.956Z" fill="#FF6700"/>
<path fill-rule="evenodd" clip-rule="evenodd" d="M813.116 539.978L715.42 492.692C710.922 490.514 709.04 485.103 711.218 480.604L737.045 427.244C739.223 422.746 744.634 420.865 749.132 423.042L846.827 470.328C851.326 472.505 853.207 477.916 851.03 482.415L825.203 535.775C823.026 540.273 817.614 542.155 813.116 539.978Z" fill="white"/>
<path fill-rule="evenodd" clip-rule="evenodd" d="M841.879 501.32L727.894 446.149L734.256 433.005L848.241 488.176L841.879 501.32Z" fill="#0C266D"/>
<path fill-rule="evenodd" clip-rule="evenodd" d="M821.609 518.687C821.384 518.677 821.158 518.623 820.945 518.518L784.583 500.947C783.759 500.549 783.421 499.578 783.829 498.779C784.238 497.98 785.237 497.654 786.062 498.054L822.424 515.626C823.248 516.024 823.585 516.995 823.177 517.794C822.875 518.386 822.249 518.717 821.609 518.687ZM827.038 509.199C826.813 509.188 826.588 509.135 826.374 509.03L779.134 486.2C778.308 485.803 777.971 484.832 778.379 484.033C778.787 483.233 779.788 482.906 780.612 483.309L827.853 506.137C828.678 506.536 829.015 507.506 828.607 508.305C828.304 508.897 827.678 509.229 827.038 509.199Z" fill="#FF6700"/>
<path d="M655.125 663.958C682.127 679.286 716.381 669.841 731.709 642.838M654.789 663.749C674.223 687.965 709.545 691.832 733.76 672.398L654.789 663.749Z" stroke="#CCDEFF" stroke-linecap="round" stroke-linejoin="round"/>
<path fill-rule="evenodd" clip-rule="evenodd" d="M182.206 694.784C186.966 700.847 181.016 713.466 168.916 722.969C156.815 732.471 143.145 735.26 138.384 729.196C133.622 723.133 139.572 710.515 151.674 701.012C163.775 691.509 177.444 688.721 182.206 694.784Z" stroke="#0C266D" stroke-linecap="round" stroke-linejoin="round"/>
<path d="M151.572 722.298C151.495 719.879 151.835 717.369 152.579 714.893C152.903 713.815 153.308 712.731 153.95 711.732C154.401 711.03 155.02 710.339 155.806 710.053C156.528 709.789 157.278 709.916 157.849 710.237C158.42 710.558 158.84 711.054 159.232 711.557C160.286 712.908 161.209 714.36 161.99 715.896C162.244 714.539 162.5 713.169 163.054 711.839C163.373 711.074 163.811 710.3 164.492 709.744C164.674 709.595 164.88 709.46 165.1 709.404C165.499 709.302 165.864 709.479 166.113 709.724C166.361 709.969 166.531 710.281 166.781 710.524C166.852 710.595 166.937 710.66 167.049 710.656C167.207 710.649 167.348 710.507 167.45 710.373C167.916 709.757 168.124 709.007 168.665 708.443C169.421 707.657 170.757 707.504 171.389 708.133" stroke="#0C266D" stroke-linecap="round" stroke-linejoin="round"/>
<path d="M388.712 139.091L386.601 135.235" stroke="#0C266D" stroke-linecap="round" stroke-linejoin="round"/>
<path d="M398.376 129.855L394.621 127.572" stroke="#0C266D" stroke-linecap="round" stroke-linejoin="round"/>
<path d="M402.128 117.024L397.734 116.924" stroke="#0C266D" stroke-linecap="round" stroke-linejoin="round"/>
<path fill-rule="evenodd" clip-rule="evenodd" d="M500.231 220.241C493.936 236.341 501.883 254.496 517.983 260.792C534.083 267.088 552.238 259.14 558.534 243.041C564.83 226.941 556.882 208.785 540.783 202.489C524.682 196.193 506.527 204.141 500.231 220.241Z" fill="#3B7CFF"/>
<path fill-rule="evenodd" clip-rule="evenodd" d="M562.789 247.985C562.199 249.496 559.611 249.898 557.013 248.882C554.413 247.865 552.785 245.816 553.376 244.305C553.968 242.793 556.554 242.391 559.153 243.408C561.752 244.425 563.38 246.473 562.789 247.985Z" fill="#3B7CFF"/>
<path fill-rule="evenodd" clip-rule="evenodd" d="M550.29 241.888C549.916 242.845 548.836 243.318 547.879 242.944C546.921 242.568 546.448 241.489 546.823 240.531C547.197 239.574 548.277 239.102 549.234 239.475C550.192 239.85 550.665 240.93 550.29 241.888Z" fill="#0C266D"/>
<path d="M538.849 253.09C536.372 252.967 534.465 250.859 534.588 248.382" stroke="#0C266D" stroke-linecap="round" stroke-linejoin="round"/>
<path fill-rule="evenodd" clip-rule="evenodd" d="M580.77 203.787C580.77 192.476 571.601 183.308 560.29 183.308C558.797 183.308 557.346 183.476 555.944 183.78C557.049 178.171 554.447 172.266 549.147 169.422C542.642 165.933 534.54 168.379 531.052 174.884L522.277 191.244L518.745 187.699C515.418 184.359 510.013 184.348 506.673 187.676C503.333 191.003 503.324 196.408 506.65 199.748L510.369 203.48C503.588 208.601 498.793 216.338 497.634 225.433C497.571 225.933 497.523 226.432 497.482 226.928C497.444 227.42 497.417 227.908 497.4 228.396C497.288 231.429 497.57 234.452 498.233 237.332C498.64 239.095 499.19 240.807 499.88 242.434L501.099 245.014C501.121 245.021 502.058 244.589 503.481 243.923C508.337 241.649 511.973 237.556 514.242 232.698C515.04 230.988 516.477 229.534 518.499 228.719C521.236 227.614 524.437 228.227 526.603 230.232C528.709 232.183 529.475 234.856 529.061 237.334C530.6 237.037 567.714 222.863 567.714 222.863C567.714 222.861 567.714 222.86 567.715 222.859C575.35 219.883 580.77 212.476 580.77 203.787Z" fill="#0C266D"/>
</g>
</svg>
