<?xml version="1.0" encoding="UTF-8"?>
<svg width="626px" height="626px" viewBox="0 0 626 626" version="1.1" xmlns="http://www.w3.org/2000/svg" xmlns:xlink="http://www.w3.org/1999/xlink">
    <title>home-we-are-your</title>
    <defs>
        <rect id="path-1" x="0" y="0" width="626" height="626"></rect>
        <path d="M21.572496,0.272052 C9.805752,0.272052 0.2673,9.810504 0.2673,21.576456 L0.2673,21.576456 L0.2673,80.161884 C0.2673,91.92744 9.805752,101.466288 21.572496,101.466288 L21.572496,101.466288 L86.576688,101.466288 C98.342244,101.466288 107.881092,91.92744 107.881092,80.161884 L107.881092,80.161884 L107.881092,21.576456 C107.881092,9.810504 98.342244,0.272052 86.576688,0.272052 L86.576688,0.272052" id="path-3"></path>
        <path d="M21.572496,0.272052 C9.805752,0.272052 0.2673,9.810504 0.2673,21.576456 L0.2673,21.576456 L0.2673,80.161884 C0.2673,91.92744 9.805752,101.466288 21.572496,101.466288 L21.572496,101.466288 L86.576688,101.466288 C98.342244,101.466288 107.881092,91.92744 107.881092,80.161884 L107.881092,80.161884 L107.881092,21.576456 C107.881092,9.810504 98.342244,0.272052 86.576688,0.272052 L86.576688,0.272052" id="path-5"></path>
        <path d="M21.572496,0.272052 C9.805752,0.272052 0.2673,9.810504 0.2673,21.576456 L0.2673,21.576456 L0.2673,80.161884 C0.2673,91.92744 9.805752,101.466288 21.572496,101.466288 L21.572496,101.466288 L86.576688,101.466288 C98.342244,101.466288 107.881092,91.92744 107.881092,80.161884 L107.881092,80.161884 L107.881092,21.576456 C107.881092,9.810504 98.342244,0.272052 86.576688,0.272052 L86.576688,0.272052" id="path-7"></path>
        <path d="M21.572496,0.272052 C9.805752,0.272052 0.2673,9.810504 0.2673,21.576456 L0.2673,21.576456 L0.2673,80.161884 C0.2673,91.92744 9.805752,101.466288 21.572496,101.466288 L21.572496,101.466288 L86.576688,101.466288 C98.342244,101.466288 107.881092,91.92744 107.881092,80.161884 L107.881092,80.161884 L107.881092,21.576456 C107.881092,9.810504 98.342244,0.272052 86.576688,0.272052 L86.576688,0.272052" id="path-9"></path>
        <path d="M129.142728,5.595876 L128.11194,7.791696 C111.010284,43.822548 80.557884,71.782128 43.202412,85.751028 L43.202412,85.751028 L43.202412,85.752216 C20.05146,94.067424 4.1976,115.521912 3.046032,140.094108 L3.046032,140.094108 L0.221364,200.383128 L67.845096,200.383128 C76.60224,200.383128 83.403144,192.751416 82.3977,184.051692 L82.3977,184.051692 L78.138324,147.208248 C76.204656,130.474476 83.804292,114.090768 97.78428,104.692896 L97.78428,104.692896 C127.53972,84.691728 151.657704,56.927772 167.275944,24.024528 L167.275944,24.024528 L167.451372,23.650704 C169.668576,18.91692 167.64066,13.280652 162.915588,11.044836 L162.915588,11.044836 L141.794532,1.050192 C140.483376,0.42966 139.101336,0.135828 137.741076,0.135828 L137.741076,0.135828 C134.175888,0.135828 130.758804,2.153844 129.142728,5.595876" id="path-11"></path>
        <path d="M129.142728,5.595876 L128.11194,7.791696 C111.010284,43.822548 80.557884,71.782128 43.202412,85.751028 L43.202412,85.751028 L43.202412,85.752216 C20.05146,94.067424 4.1976,115.521912 3.046032,140.094108 L3.046032,140.094108 L0.221364,200.383128 L67.845096,200.383128 C76.60224,200.383128 83.403144,192.751416 82.3977,184.051692 L82.3977,184.051692 L78.138324,147.208248 C76.204656,130.474476 83.804292,114.090768 97.78428,104.692896 L97.78428,104.692896 C127.53972,84.691728 151.657704,56.927772 167.275944,24.024528 L167.275944,24.024528 L167.451372,23.650704 C169.668576,18.91692 167.64066,13.280652 162.915588,11.044836 L162.915588,11.044836 L141.794532,1.050192 C140.483376,0.42966 139.101336,0.135828 137.741076,0.135828 L137.741076,0.135828 C134.175888,0.135828 130.758804,2.153844 129.142728,5.595876" id="path-13"></path>
        <path d="M129.142728,5.595876 L128.11194,7.791696 C111.010284,43.822548 80.557884,71.782128 43.202412,85.751028 L43.202412,85.751028 L43.202412,85.752216 C20.05146,94.067424 4.1976,115.521912 3.046032,140.094108 L3.046032,140.094108 L0.221364,200.383128 L67.845096,200.383128 C76.60224,200.383128 83.403144,192.751416 82.3977,184.051692 L82.3977,184.051692 L78.138324,147.208248 C76.204656,130.474476 83.804292,114.090768 97.78428,104.692896 L97.78428,104.692896 C127.53972,84.691728 151.657704,56.927772 167.275944,24.024528 L167.275944,24.024528 L167.451372,23.650704 C169.668576,18.91692 167.64066,13.280652 162.915588,11.044836 L162.915588,11.044836 L141.794532,1.050192 C140.483376,0.42966 139.101336,0.135828 137.741076,0.135828 L137.741076,0.135828 C134.175888,0.135828 130.758804,2.153844 129.142728,5.595876" id="path-15"></path>
        <path d="M129.142728,5.595876 L128.11194,7.791696 C111.010284,43.822548 80.557884,71.782128 43.202412,85.751028 L43.202412,85.751028 L43.202412,85.752216 C20.05146,94.067424 4.1976,115.521912 3.046032,140.094108 L3.046032,140.094108 L0.221364,200.383128 L67.845096,200.383128 C76.60224,200.383128 83.403144,192.751416 82.3977,184.051692 L82.3977,184.051692 L78.138324,147.208248 C76.204656,130.474476 83.804292,114.090768 97.78428,104.692896 L97.78428,104.692896 C127.53972,84.691728 151.657704,56.927772 167.275944,24.024528 L167.275944,24.024528 L167.451372,23.650704 C169.668576,18.91692 167.64066,13.280652 162.915588,11.044836 L162.915588,11.044836 L141.794532,1.050192 C140.483376,0.42966 139.101336,0.135828 137.741076,0.135828 L137.741076,0.135828 C134.175888,0.135828 130.758804,2.153844 129.142728,5.595876" id="path-17"></path>
        <path d="M0.14256,31.28796 C0.14256,48.473964 14.074632,62.40564 31.26024,62.40564 L31.26024,62.40564 C48.445848,62.40564 62.37792,48.473964 62.37792,31.28796 L62.37792,31.28796 C62.37792,14.102352 48.445848,0.170676 31.26024,0.170676 L31.26024,0.170676 C14.074632,0.170676 0.14256,14.102352 0.14256,31.28796" id="path-19"></path>
        <path d="M0.14256,31.28796 C0.14256,48.473964 14.074632,62.40564 31.26024,62.40564 L31.26024,62.40564 C48.445848,62.40564 62.37792,48.473964 62.37792,31.28796 L62.37792,31.28796 C62.37792,14.102352 48.445848,0.170676 31.26024,0.170676 L31.26024,0.170676 C14.074632,0.170676 0.14256,14.102352 0.14256,31.28796" id="path-21"></path>
        <path d="M0.14256,31.28796 C0.14256,48.473964 14.074632,62.40564 31.26024,62.40564 L31.26024,62.40564 C48.445848,62.40564 62.37792,48.473964 62.37792,31.28796 L62.37792,31.28796 C62.37792,14.102352 48.445848,0.170676 31.26024,0.170676 L31.26024,0.170676 C14.074632,0.170676 0.14256,14.102352 0.14256,31.28796" id="path-23"></path>
        <path d="M0.14256,31.28796 C0.14256,48.473964 14.074632,62.40564 31.26024,62.40564 L31.26024,62.40564 C48.445848,62.40564 62.37792,48.473964 62.37792,31.28796 L62.37792,31.28796 C62.37792,14.102352 48.445848,0.170676 31.26024,0.170676 L31.26024,0.170676 C14.074632,0.170676 0.14256,14.102352 0.14256,31.28796" id="path-25"></path>
    </defs>
    <g id="screens" stroke="none" stroke-width="1" fill="none" fill-rule="evenodd">
        <g id="1-1-1-home" transform="translate(-709.000000, -2646.000000)">
            <g id="home-we-are-your" transform="translate(709.000000, 2646.000000)">
                <mask id="mask-2" fill="white">
                    <use xlink:href="#path-1"></use>
                </mask>
                <g id="bg"></g>
                <path d="M576,313 C576,458.250683 458.25099,576 313.000198,576 C167.74901,576 50,458.250683 50,313 C50,167.749317 167.74901,50 313.000198,50 C458.25099,50 576,167.749317 576,313" id="Fill-1" fill="#FFE4D2" mask="url(#mask-2)"></path>
                <path d="M355.814925,540.418674 L325.776741,540.418674 C321.880101,540.418674 318.720813,537.259782 318.720813,533.363142 L318.720813,374.005218 L362.870061,374.005218 L362.870061,533.363142 C362.870061,537.259782 359.711565,540.418674 355.814925,540.418674" id="Fill-3" fill="#3B7CFF" mask="url(#mask-2)"></path>
                <path d="M300.384191,87.9403222 C290.487359,86.4877942 283.642103,77.2871302 285.095027,67.3906942 C286.547555,57.4938622 295.747823,50.6486062 305.644259,52.1011342 L316.876007,41.0887702 L312.455459,5.6978542 C276.930695,0.483326196 243.905879,25.0547302 238.691351,60.5794942 C233.477219,96.1038622 258.048623,129.12947 293.572991,134.343602 C329.097755,139.55813 362.122571,114.986726 367.337099,79.4619622 L351.455123,58.1967622 L320.934215,72.6511582 C319.481291,82.5475942 310.280627,89.3928502 300.384191,87.9403222" id="Fill-5" fill="#FF6700" mask="url(#mask-2)"></path>
                <path d="M318.852324,61.2404974 C320.714712,64.5942214 321.53364,68.5621414 320.934096,72.6508414 L324.086256,71.7626134 C331.449876,69.6867814 339.3576,71.0537734 345.597768,75.4806574 C350.752104,79.1373214 357.087708,80.7335974 363.35916,79.9554574 L367.337376,79.4620414 C369.49122,64.7858854 366.558048,50.5382014 359.87238,38.4998014 L328.060512,45.5628574 L318.852324,61.2404974 Z" id="Fill-7" fill="#FFB280" mask="url(#mask-2)"></path>
                <path d="M335.545823,13.7158642 L328.906091,25.2069922 L314.243399,39.5651602 L312.074507,54.3391282 C314.936795,55.9940122 317.271611,58.3941682 318.852443,61.2406162 C323.818679,55.4316922 330.707099,51.6007882 338.261987,50.4460522 L339.124475,50.3145802 C345.537695,49.3344802 351.499079,46.4207122 356.212271,41.9621482 L359.872499,38.4999202 C354.197819,28.2815362 345.820043,19.6558642 335.545823,13.7158642" id="Fill-9" fill="#3B7CFF" mask="url(#mask-2)"></path>
                <path d="M312.074705,54.3390886 L312.498029,52.7408326 C314.302997,45.9244846 318.136277,39.8173726 323.489801,35.2281286 C328.832633,30.6479926 332.661557,24.5551366 334.471277,17.7542326 L335.546021,13.7158246 C328.625129,9.7146406 320.846501,6.9295726 312.455657,5.6980126 L310.874825,10.8064126 C309.076193,16.6196926 308.511893,22.7446246 309.219149,28.7887726 C310.026593,35.6914486 309.174797,42.6871846 306.734645,49.1946526 L305.644457,52.1012926 C307.982441,52.4446246 310.146581,53.2243486 312.074705,54.3390886" id="Fill-11" fill="#0633EF" mask="url(#mask-2)"></path>
                <g id="Group-1188" mask="url(#mask-2)">
                    <g transform="translate(325.195096, 540.009131)">
                        <path d="M141.133964,32.6514276 L140.84924,28.0922796 C140.26712,18.7716276 132.5174,11.5216596 123.178136,11.5612596 L118.283972,11.5818516 C114.716804,11.5972956 111.78284,8.7753996 111.658892,5.2102116 L111.485048,0.2008116 L87.9792804,0.179423549 C82.9342404,0.1746756 78.8902884,4.3516836 79.0581924,9.3935556 L79.5179484,32.6514276 L141.133964,32.6514276 Z" id="Fill-1124" stroke="none" fill="#0633EF" fill-rule="evenodd"></path>
                        <path d="M100.2118,10.468458 L79.0836156,10.678734 L78.7018716,0.170874 L110.364844,0.20097 L106.701448,0.190278 C103.00954,0.179982 100.037164,3.21651 100.125868,6.906834 L100.2118,10.468458 Z" id="Fill-1126" stroke="none" fill="#CCDEFF" fill-rule="evenodd"></path>
                        <polygon id="Fill-1128" stroke="none" fill="#3B7CFF" fill-rule="evenodd" points="141.227935 32.6514276 79.6119192 32.6514276 79.4115432 27.1608876 140.943607 27.5865876"></polygon>
                        <line x1="113.838199" y1="9.0627372" x2="106.374787" y2="13.8737412" id="Stroke-1130" stroke="#FFFFFF" stroke-width="1" fill="none" stroke-linecap="round" stroke-linejoin="round"></line>
                        <line x1="118.488506" y1="11.0073744" x2="111.025094" y2="15.8183784" id="Stroke-1132" stroke="#FFFFFF" stroke-width="1" fill="none" stroke-linecap="round" stroke-linejoin="round"></line>
                        <path d="M85.553226,32.3625456 C85.553226,34.0324776 84.199302,35.3864016 82.52937,35.3864016 C80.859438,35.3864016 79.50591,34.0324776 79.50591,32.3625456 C79.50591,30.6926136 80.859438,29.3390856 82.52937,29.3390856 C84.199302,29.3390856 85.553226,30.6926136 85.553226,32.3625456" id="Fill-1134" stroke="none" fill="#3B7CFF" fill-rule="evenodd"></path>
                        <path d="M91.1111256,32.3625456 C91.1111256,34.0324776 89.7575976,35.3864016 88.0876656,35.3864016 C86.4173376,35.3864016 85.0638096,34.0324776 85.0638096,32.3625456 C85.0638096,30.6926136 86.4173376,29.3390856 88.0876656,29.3390856 C89.7575976,29.3390856 91.1111256,30.6926136 91.1111256,32.3625456" id="Fill-1136" stroke="none" fill="#3B7CFF" fill-rule="evenodd"></path>
                        <path d="M96.6694212,32.3625456 C96.6694212,34.0324776 95.3154972,35.3864016 93.6455652,35.3864016 C91.9756332,35.3864016 90.6221052,34.0324776 90.6221052,32.3625456 C90.6221052,30.6926136 91.9756332,29.3390856 93.6455652,29.3390856 C95.3154972,29.3390856 96.6694212,30.6926136 96.6694212,32.3625456" id="Fill-1138" stroke="none" fill="#3B7CFF" fill-rule="evenodd"></path>
                        <path d="M102.22736,32.3625456 C102.22736,34.0324776 100.873832,35.3864016 99.2035044,35.3864016 C97.5335724,35.3864016 96.1800444,34.0324776 96.1800444,32.3625456 C96.1800444,30.6926136 97.5335724,29.3390856 99.2035044,29.3390856 C100.873832,29.3390856 102.22736,30.6926136 102.22736,32.3625456" id="Fill-1140" stroke="none" fill="#3B7CFF" fill-rule="evenodd"></path>
                        <path d="M107.785656,32.3625456 C107.785656,34.0324776 106.431732,35.3864016 104.7618,35.3864016 C103.091868,35.3864016 101.73834,34.0324776 101.73834,32.3625456 C101.73834,30.6926136 103.091868,29.3390856 104.7618,29.3390856 C106.431732,29.3390856 107.785656,30.6926136 107.785656,32.3625456" id="Fill-1142" stroke="none" fill="#3B7CFF" fill-rule="evenodd"></path>
                        <path d="M113.343595,32.3625456 C113.343595,34.0324776 111.989671,35.3864016 110.319739,35.3864016 C108.649807,35.3864016 107.296279,34.0324776 107.296279,32.3625456 C107.296279,30.6926136 108.649807,29.3390856 110.319739,29.3390856 C111.989671,29.3390856 113.343595,30.6926136 113.343595,32.3625456" id="Fill-1144" stroke="none" fill="#3B7CFF" fill-rule="evenodd"></path>
                        <path d="M118.901495,32.3625456 C118.901495,34.0324776 117.547967,35.3864016 115.878035,35.3864016 C114.208103,35.3864016 112.854179,34.0324776 112.854179,32.3625456 C112.854179,30.6926136 114.208103,29.3390856 115.878035,29.3390856 C117.547967,29.3390856 118.901495,30.6926136 118.901495,32.3625456" id="Fill-1146" stroke="none" fill="#3B7CFF" fill-rule="evenodd"></path>
                        <path d="M124.45983,32.3625456 C124.45983,34.0324776 123.105906,35.3864016 121.435974,35.3864016 C119.766042,35.3864016 118.412514,34.0324776 118.412514,32.3625456 C118.412514,30.6926136 119.766042,29.3390856 121.435974,29.3390856 C123.105906,29.3390856 124.45983,30.6926136 124.45983,32.3625456" id="Fill-1148" stroke="none" fill="#3B7CFF" fill-rule="evenodd"></path>
                        <path d="M130.01773,32.3625456 C130.01773,34.0324776 128.664202,35.3864016 126.99427,35.3864016 C125.324338,35.3864016 123.970414,34.0324776 123.970414,32.3625456 C123.970414,30.6926136 125.324338,29.3390856 126.99427,29.3390856 C128.664202,29.3390856 130.01773,30.6926136 130.01773,32.3625456" id="Fill-1150" stroke="none" fill="#3B7CFF" fill-rule="evenodd"></path>
                        <path d="M135.576065,32.3625456 C135.576065,34.0324776 134.222141,35.3864016 132.552209,35.3864016 C130.882277,35.3864016 129.528749,34.0324776 129.528749,32.3625456 C129.528749,30.6926136 130.882277,29.3390856 132.552209,29.3390856 C134.222141,29.3390856 135.576065,30.6926136 135.576065,32.3625456" id="Fill-1152" stroke="none" fill="#3B7CFF" fill-rule="evenodd"></path>
                        <path d="M141.133964,32.3625456 C141.133964,34.0324776 139.780436,35.3864016 138.110504,35.3864016 C136.440176,35.3864016 135.086648,34.0324776 135.086648,32.3625456 C135.086648,30.6926136 136.440176,29.3390856 138.110504,29.3390856 C139.780436,29.3390856 141.133964,30.6926136 141.133964,32.3625456" id="Fill-1154" stroke="none" fill="#3B7CFF" fill-rule="evenodd"></path>
                        <path d="M61.9134912,32.6514276 L61.6287672,28.0922796 C61.0466472,18.7716276 53.2965312,11.5216596 43.9576632,11.5612596 L39.0634992,11.5818516 C35.4963312,11.5972956 32.5623672,8.7753996 32.4384192,5.2102116 L32.2645752,0.2008116 L20.6190072,0.4095036 L20.3362632,10.4762196 L0.3152952,10.6690716 L0.2974752,32.6514276 L61.9134912,32.6514276 Z" id="Fill-1156" stroke="none" fill="#0633EF" fill-rule="evenodd"></path>
                        <path d="M20.8439352,10.4709924 L0.2851992,10.6784964 L0.3188592,0.1710324 L27.6971112,0.2011284 L27.7129512,0.2011284 C23.8879872,0.3171564 20.8471032,3.4503084 20.8455192,7.2772524 L20.8439352,10.4709924 Z" id="Fill-1158" stroke="none" fill="#CCDEFF" fill-rule="evenodd"></path>
                        <polygon id="Fill-1160" stroke="none" fill="#3B7CFF" fill-rule="evenodd" points="62.007462 32.6514276 0.297594 32.6514276 0.297594 27.1608876 61.722738 27.5865876"></polygon>
                        <line x1="34.617726" y1="9.0627372" x2="27.154314" y2="13.8737412" id="Stroke-1162" stroke="#FFFFFF" stroke-width="1" fill="none" stroke-linecap="round" stroke-linejoin="round"></line>
                        <line x1="39.2675976" y1="11.0073744" x2="31.8041856" y2="15.8183784" id="Stroke-1164" stroke="#FFFFFF" stroke-width="1" fill="none" stroke-linecap="round" stroke-linejoin="round"></line>
                        <path d="M6.3327132,32.3625456 C6.3327132,34.0324776 4.9787892,35.3864016 3.3088572,35.3864016 C1.6389252,35.3864016 0.2853972,34.0324776 0.2853972,32.3625456 C0.2853972,30.6926136 1.6389252,29.3390856 3.3088572,29.3390856 C4.9787892,29.3390856 6.3327132,30.6926136 6.3327132,32.3625456" id="Fill-1166" stroke="none" fill="#3B7CFF" fill-rule="evenodd"></path>
                        <path d="M11.8906524,32.3625456 C11.8906524,34.0324776 10.5371244,35.3864016 8.8667964,35.3864016 C7.1968644,35.3864016 5.8433364,34.0324776 5.8433364,32.3625456 C5.8433364,30.6926136 7.1968644,29.3390856 8.8667964,29.3390856 C10.5371244,29.3390856 11.8906524,30.6926136 11.8906524,32.3625456" id="Fill-1168" stroke="none" fill="#3B7CFF" fill-rule="evenodd"></path>
                        <path d="M17.448552,32.3625456 C17.448552,34.0324776 16.095024,35.3864016 14.425092,35.3864016 C12.75516,35.3864016 11.401236,34.0324776 11.401236,32.3625456 C11.401236,30.6926136 12.75516,29.3390856 14.425092,29.3390856 C16.095024,29.3390856 17.448552,30.6926136 17.448552,32.3625456" id="Fill-1170" stroke="none" fill="#3B7CFF" fill-rule="evenodd"></path>
                        <path d="M23.0068476,32.3625456 C23.0068476,34.0324776 21.6529236,35.3864016 19.9829916,35.3864016 C18.3130596,35.3864016 16.9595316,34.0324776 16.9595316,32.3625456 C16.9595316,30.6926136 18.3130596,29.3390856 19.9829916,29.3390856 C21.6529236,29.3390856 23.0068476,30.6926136 23.0068476,32.3625456" id="Fill-1172" stroke="none" fill="#3B7CFF" fill-rule="evenodd"></path>
                        <path d="M28.5647868,32.3625456 C28.5647868,34.0324776 27.2112588,35.3864016 25.5413268,35.3864016 C23.8713948,35.3864016 22.5174708,34.0324776 22.5174708,32.3625456 C22.5174708,30.6926136 23.8713948,29.3390856 25.5413268,29.3390856 C27.2112588,29.3390856 28.5647868,30.6926136 28.5647868,32.3625456" id="Fill-1174" stroke="none" fill="#3B7CFF" fill-rule="evenodd"></path>
                        <path d="M34.1230824,32.3625456 C34.1230824,34.0324776 32.7691584,35.3864016 31.0992264,35.3864016 C29.4292944,35.3864016 28.0757664,34.0324776 28.0757664,32.3625456 C28.0757664,30.6926136 29.4292944,29.3390856 31.0992264,29.3390856 C32.7691584,29.3390856 34.1230824,30.6926136 34.1230824,32.3625456" id="Fill-1176" stroke="none" fill="#3B7CFF" fill-rule="evenodd"></path>
                        <path d="M39.6810216,32.3625456 C39.6810216,34.0324776 38.3274936,35.3864016 36.6575616,35.3864016 C34.9876296,35.3864016 33.6337056,34.0324776 33.6337056,32.3625456 C33.6337056,30.6926136 34.9876296,29.3390856 36.6575616,29.3390856 C38.3274936,29.3390856 39.6810216,30.6926136 39.6810216,32.3625456" id="Fill-1178" stroke="none" fill="#3B7CFF" fill-rule="evenodd"></path>
                        <path d="M45.2393172,32.3625456 C45.2393172,34.0324776 43.8853932,35.3864016 42.2154612,35.3864016 C40.5455292,35.3864016 39.1920012,34.0324776 39.1920012,32.3625456 C39.1920012,30.6926136 40.5455292,29.3390856 42.2154612,29.3390856 C43.8853932,29.3390856 45.2393172,30.6926136 45.2393172,32.3625456" id="Fill-1180" stroke="none" fill="#3B7CFF" fill-rule="evenodd"></path>
                        <path d="M50.7972564,32.3625456 C50.7972564,34.0324776 49.4437284,35.3864016 47.7737964,35.3864016 C46.1034684,35.3864016 44.7499404,34.0324776 44.7499404,32.3625456 C44.7499404,30.6926136 46.1034684,29.3390856 47.7737964,29.3390856 C49.4437284,29.3390856 50.7972564,30.6926136 50.7972564,32.3625456" id="Fill-1182" stroke="none" fill="#3B7CFF" fill-rule="evenodd"></path>
                        <path d="M56.355552,32.3625456 C56.355552,34.0324776 55.001628,35.3864016 53.331696,35.3864016 C51.661764,35.3864016 50.308236,34.0324776 50.308236,32.3625456 C50.308236,30.6926136 51.661764,29.3390856 53.331696,29.3390856 C55.001628,29.3390856 56.355552,30.6926136 56.355552,32.3625456" id="Fill-1184" stroke="none" fill="#3B7CFF" fill-rule="evenodd"></path>
                        <path d="M61.9134912,32.3625456 C61.9134912,34.0324776 60.5599632,35.3864016 58.8896352,35.3864016 C57.2197032,35.3864016 55.8661752,34.0324776 55.8661752,32.3625456 C55.8661752,30.6926136 57.2197032,29.3390856 58.8896352,29.3390856 C60.5599632,29.3390856 61.9134912,30.6926136 61.9134912,32.3625456" id="Fill-1186" stroke="none" fill="#3B7CFF" fill-rule="evenodd"></path>
                    </g>
                </g>
                <g id="Group-1201" mask="url(#mask-2)">
                    <g transform="translate(434.887096, 71.541131)">
                        <g id="Group-1191">
                            <mask id="mask-4" fill="white">
                                <use xlink:href="#path-3"></use>
                            </mask>
                            <g id="Clip-1190"></g>
                            <path d="M127.658758,125.497588 C129.028126,129.110692 129.019414,133.245724 127.30711,137.04772 C123.883294,144.650524 114.944782,148.037908 107.341582,144.614092 C93.2245776,138.256708 87.2394336,131.108116 82.4296176,125.36374 C78.6046536,120.795088 76.0773816,117.776776 68.2702416,114.261088 C60.4634976,110.7454 56.5288416,110.853508 50.5726056,111.017056 C43.0838496,111.222976 33.7631976,111.478792 19.6461936,105.121012 C5.5299816,98.7644196 -0.4555584,91.6150356 -5.2645824,85.8710556 C-9.0895464,81.3027996 -11.6160264,78.2848836 -19.4223744,74.7691956 C-27.2283264,71.2539036 -31.1629824,71.3620116 -37.1184264,71.5259556 C-44.6075784,71.7318756 -53.9274384,71.9880876 -68.0432544,65.6307036 C-82.1598624,59.2737156 -88.1450064,52.1251236 -92.9540304,46.3807476 C-96.7789944,41.8124916 -99.3058704,38.7945756 -107.111426,35.2792836 C-114.714626,31.8550716 -118.10201,22.9165596 -114.678194,15.3137556 C-111.254378,7.7109516 -102.31547,4.3227756 -94.7126664,7.7469876 C-80.5960584,14.1043716 -74.6109144,21.2525676 -69.8022864,26.9969436 C-65.9769264,31.5651996 -63.4504464,34.5831156 -55.6444944,38.0984076 C-47.8389384,41.6136996 -43.9042824,41.5055916 -37.9484424,41.3416476 C-30.4596864,41.1357276 -21.1398264,40.8799116 -7.0232184,47.2372956 C7.0929936,53.5942836 13.0781376,60.7432716 17.8875576,66.4872516 C21.7125216,71.0555076 24.2390016,74.0734236 32.0453496,77.5891116 C39.8524896,81.1047996 43.7871456,80.9966916 49.7437776,80.8331436 C57.2325336,80.6276196 66.5527896,80.3714076 80.6697936,86.7291876 C94.7864016,93.0865716 100.771942,100.235164 105.581362,105.97954 C109.406722,110.547796 111.933598,113.566108 119.740738,117.082192 C123.541942,118.793704 126.28939,121.884088 127.658758,125.497588" id="Fill-1189" fill="#CCDEFF" mask="url(#mask-4)"></path>
                        </g>
                        <g id="Group-1194">
                            <mask id="mask-6" fill="white">
                                <use xlink:href="#path-5"></use>
                            </mask>
                            <g id="Clip-1193"></g>
                            <path d="M182.307154,182.186492 C183.307846,188.2742 181.986394,194.74286 178.10599,200.151032 C170.34439,210.967376 155.284114,213.443564 144.46777,205.681568 C124.384234,191.26994 117.276826,178.190456 111.565714,167.681012 C107.023594,159.321452 104.022706,153.799232 92.9164896,145.829336 C81.8098776,137.85944 75.6172296,136.784696 66.2439096,135.157928 C54.4585536,133.112588 39.7919016,130.5671 19.7087616,116.155076 C-0.3739824,101.744636 -7.4817864,88.6643604 -13.1925024,78.1545204 C-17.7338304,69.7965444 -20.7343224,64.2747204 -31.8397464,56.3060124 C-42.9451704,48.3365124 -49.1370264,47.2621644 -58.5091584,45.6357924 C-70.2941184,43.5908484 -84.9607704,41.0453604 -105.043118,26.6345244 C-125.125862,12.2232924 -132.232874,-0.8561916 -137.94359,-11.3660316 C-142.485314,-19.7240076 -145.485806,-25.2462276 -156.590834,-33.2149356 C-167.406782,-40.9765356 -169.88297,-56.0364156 -162.12137,-66.8527596 C-154.35977,-77.6691036 -139.29989,-80.1452916 -128.483546,-72.3832956 C-108.400802,-57.9720636 -101.29379,-44.8925796 -95.5830744,-34.3827396 C-91.0413504,-26.0247636 -88.0408584,-20.5025436 -76.9358304,-12.5338356 C-65.8308024,-4.5655236 -59.6397384,-3.4911756 -50.2672104,-1.8648036 C-38.4822504,0.1801404 -23.8155984,2.7252324 -3.7328544,17.1368604 C16.3498896,31.5476964 23.4569016,44.6275764 29.1680136,55.1370204 C33.7097376,63.4953924 36.7102296,69.0172164 47.8156536,76.9863204 C58.9222656,84.9566124 65.1149136,86.0313564 74.4878376,87.6581244 C86.2731936,89.7038604 100.939846,92.2489524 121.023382,106.66058 C141.106918,121.072604 148.214326,134.152088 153.925438,144.661532 C158.467954,153.021092 161.468842,158.543312 172.575058,166.513208 C177.98323,170.394008 181.306462,176.09918 182.307154,182.186492" id="Fill-1192" fill="#3B7CFF" mask="url(#mask-6)"></path>
                        </g>
                        <g id="Group-1197">
                            <mask id="mask-8" fill="white">
                                <use xlink:href="#path-7"></use>
                            </mask>
                            <g id="Clip-1196"></g>
                            <path d="M216.324068,146.300933 C217.400792,152.848397 215.979152,159.806117 211.805312,165.622565 C203.457236,177.256253 187.259252,179.919749 175.625564,171.571277 C154.024556,156.070649 146.379776,142.002749 140.237024,130.698929 C135.351176,121.708145 132.123776,115.768145 120.178436,107.196329 C108.232304,98.6241168 101.572376,97.4681928 91.4906124,95.7186648 C78.8150484,93.5184888 63.0395964,90.7809408 41.4389844,75.2799168 C19.8383724,59.7804768 12.1939884,45.7117848 6.0516324,34.4079648 C1.1669724,25.4183688 -2.0608236,19.4791608 -14.0053716,10.9081368 C-25.9495236,2.3363208 -32.6090556,1.1807928 -42.6892356,-0.5683392 C-55.3647996,-2.7681192 -71.1398556,-5.5048752 -92.7400716,-21.0055032 C-114.340288,-36.5053392 -121.98388,-50.5728432 -128.126236,-61.8770592 C-133.011292,-70.8674472 -136.238296,-76.8058632 -148.182844,-85.3772832 C-159.816532,-93.7245672 -162.479236,-109.923343 -154.131556,-121.557031 C-145.783876,-133.190719 -129.585496,-135.853819 -117.951808,-127.505347 C-96.3511956,-112.005511 -88.7068116,-97.9372152 -82.5652476,-86.6333952 C-77.6801916,-77.6437992 -74.4527916,-71.7045912 -62.5086396,-63.1335672 C-50.5644876,-54.5625432 -43.9049556,-53.4070152 -33.8243796,-51.6574872 C-21.1492116,-49.4581032 -5.3745516,-46.7209512 16.2260604,-31.2211152 C37.8262764,-15.7212792 45.4706604,-1.6525872 51.6130164,9.6512328 C56.4976764,18.6408288 59.7250764,24.5800368 71.6696244,33.1510608 C83.6157564,41.7240648 90.2756844,42.8799888 100.357448,44.6295168 C113.033012,46.8296928 128.808464,49.5672408 150.409472,65.0678688 C172.01048,80.5688928 179.654864,94.6367928 185.797616,105.940613 C190.683464,114.931397 193.910864,120.871001 205.856204,129.443213 C211.673444,133.617449 215.247344,139.753469 216.324068,146.300933" id="Fill-1195" fill="#CCDEFF" mask="url(#mask-8)"></path>
                        </g>
                        <g id="Group-1200">
                            <mask id="mask-10" fill="white">
                                <use xlink:href="#path-9"></use>
                            </mask>
                            <g id="Clip-1199"></g>
                            <path d="M242.092303,96.7280292 C243.351187,102.767425 242.305351,109.286773 238.657399,114.854533 C231.362683,125.990845 216.421207,129.104593 205.285291,121.809481 C184.607755,108.263905 176.950699,95.4976572 170.798443,85.2400692 C165.905071,77.0812812 162.672523,71.6913252 151.237231,64.2001932 C139.802731,56.7098532 133.570483,55.8992412 124.136575,54.6720372 C112.275187,53.1296172 97.5127032,51.2090172 76.8355632,37.6634412 C56.1588192,24.1186572 48.5021592,11.3524092 42.3502992,1.0948212 C37.4569272,-7.0631748 34.2247752,-12.4527348 22.7906712,-19.9430748 C11.3577552,-27.4326228 5.1259032,-28.2428388 -4.3076088,-29.4700428 C-16.1686008,-31.0120668 -30.9295008,-32.9318748 -51.6062448,-46.4770548 C-72.2829888,-60.0222348 -79.9392528,-72.7880868 -86.0911128,-83.0456748 C-90.9840888,-91.2040668 -94.2166368,-96.5936268 -105.649949,-104.083571 C-116.786261,-111.378287 -119.900009,-126.319367 -112.604501,-137.455679 C-105.309389,-148.591991 -90.3683088,-151.705739 -79.2323928,-144.410627 C-58.5552528,-130.865051 -50.8989888,-118.099199 -44.7471288,-107.842007 C-39.8541528,-99.6840108 -36.6220008,-94.2948468 -25.1878968,-86.8041108 C-13.7549808,-79.3149588 -7.5235248,-78.5043468 1.9099872,-77.2775388 C13.7709792,-75.7351188 28.5322752,-73.8157068 49.2086232,-60.2701308 C69.8857632,-46.7253468 77.5424232,-33.9594948 83.6942832,-23.7015108 C88.5868632,-15.5435148 91.8190152,-10.1539548 103.253515,-2.6636148 C114.688411,4.8271212 120.921055,5.6381292 130.354963,6.8653332 C142.216351,8.4077532 156.977647,10.3275612 177.655183,23.8727412 C198.333115,37.4187132 205.989775,50.1853572 212.142427,60.4429452 C217.035799,68.6017332 220.268347,73.9912932 231.703243,81.4824252 C237.271003,85.1299812 240.833815,90.6886332 242.092303,96.7280292" id="Fill-1198" fill="#3B7CFF" mask="url(#mask-10)"></path>
                        </g>
                    </g>
                </g>
                <g id="Group-1214" mask="url(#mask-2)">
                    <g transform="translate(325.591096, 58.473131)">
                        <path d="M0.365611824,300.108442 L0.365611824,318.577882 C0.3517668,330.899026 9.9607068,329.893186 18.7812108,338.496682 C48.1145148,367.110058 65.8632348,405.381082 69.1512228,446.226502 L71.3581308,475.91581 C71.6689908,479.36101 74.5780068,481.987282 78.0370668,481.945702 L109.968527,481.945702 C113.858435,481.898182 116.870015,478.525054 116.478767,474.654946 L113.394323,441.506974 C108.695387,397.854706 92.2138668,352.020082 66.4318908,315.57739 C62.6306868,310.204462 58.9086828,304.976074 58.9086828,304.976074 L0.365611824,300.108442 Z" id="Fill-1202" fill="#3B7CFF"></path>
                        <path d="M131.208066,120.452072 L142.257654,123.875888 L152.875998,89.6088204 C153.82125,86.5572444 152.11449,83.3175684 149.06331,82.3719204 C146.01213,81.4262724 142.771662,83.1334284 141.826014,86.1846084 L131.208066,120.452072 Z" id="Fill-1204" fill="#FFB280"></path>
                        <path d="M138.038274,128.051471 L147.79017,134.273819 L167.086854,104.030903 C168.805098,101.338103 168.015078,97.7622228 165.322278,96.0439788 C162.629478,94.3253388 159.053202,95.1157548 157.334958,97.8085548 L138.038274,128.051471 Z" id="Fill-1206" fill="#FFB280"></path>
                        <path d="M133.451406,121.501037 L143.469414,127.285013 L161.407026,96.2164368 C163.004094,93.4499808 162.05607,89.9125128 159.29001,88.3154448 C156.523554,86.7183768 152.986086,87.6660048 151.388622,90.4324608 L133.451406,121.501037 Z" id="Fill-1208" fill="#FFB280"></path>
                        <path d="M127.11002,109.488773 L120.987464,122.984453 L137.778656,121.654289 L139.590752,109.139105 L147.180092,67.5511848 C147.7535,64.4089248 145.670936,61.3961568 142.528676,60.8227488 C139.38602,60.2493408 136.373648,62.3319048 135.799844,65.4745608 L127.11002,109.488773 Z" id="Fill-1210" fill="#FFB280"></path>
                        <path d="M225.543859,5.0884416 C232.155079,11.6996616 232.155079,22.4185896 225.543859,29.0298096 C218.932639,35.6414256 208.213315,35.6414256 201.602491,29.0298096 C194.991271,22.4185896 194.991271,11.6996616 201.602491,5.0884416 C208.213315,-1.5227784 218.932639,-1.5227784 225.543859,5.0884416" id="Fill-1212" fill="#0633EF"></path>
                    </g>
                </g>
                <g id="Group-1227" mask="url(#mask-2)">
                    <g transform="translate(314.503096, 166.977131)">
                        <g id="Group-1217">
                            <mask id="mask-12" fill="white">
                                <use xlink:href="#path-11"></use>
                            </mask>
                            <g id="Clip-1216"></g>
                            <path d="M-103.801302,303.756156 C-106.437078,310.711104 -106.419654,318.671496 -103.124142,325.98918 C-96.533514,340.624152 -79.326522,347.14548 -64.69155,340.554456 C-37.517238,328.316472 -25.995618,314.555868 -16.737534,303.49836 C-9.37431,294.704388 -4.509846,288.894276 10.518354,282.126636 C25.546158,275.358996 33.12045,275.566896 44.586234,275.881716 C59.001822,276.278112 76.943394,276.77034 104.11731,264.532356 C131.29083,252.29556 142.81245,238.534164 152.069742,227.477052 C159.432174,218.683476 164.296638,212.874156 179.322858,206.106912 C194.349078,199.340064 201.922974,199.54836 213.387174,199.863576 C227.802762,200.259972 245.74275,200.752596 272.915874,188.515404 C300.089394,176.277816 311.610618,162.517608 320.867514,151.460496 C328.230342,142.666524 333.09441,136.856808 348.12063,130.08996 C362.755998,123.498936 369.27693,106.292736 362.685906,91.657368 C356.094882,77.022 338.88789,70.501068 324.252918,77.092092 C297.079398,89.32968 285.55857,103.089888 276.301278,114.146604 C268.93845,122.940972 264.074382,128.750688 249.048558,135.517536 C234.02313,142.283592 226.449234,142.075296 214.985034,141.76008 C200.569446,141.363684 182.629062,140.87106 155.455146,153.108648 C128.282022,165.345444 116.760798,179.10684 107.503506,190.163952 C100.140678,198.957528 95.27661,204.767244 80.249994,211.534488 C65.221794,218.302128 57.647502,218.094228 46.181718,217.779408 C31.76613,217.383804 13.824954,216.890784 -13.349754,229.128372 C-40.52367,241.366356 -52.045686,255.12696 -61.30377,266.184864 C-68.666598,274.978836 -73.531458,280.788552 -88.558866,287.556588 C-95.87655,290.8521 -101.165526,296.800812 -103.801302,303.756156" id="Fill-1215" fill="#FFFFFF" mask="url(#mask-12)"></path>
                        </g>
                        <g id="Group-1220">
                            <mask id="mask-14" fill="white">
                                <use xlink:href="#path-13"></use>
                            </mask>
                            <g id="Clip-1219"></g>
                            <path d="M9.6627564,284.868263 C11.1727044,290.082395 14.6713644,294.719555 19.8019404,297.545807 C30.0619044,303.197519 42.9612084,299.462051 48.6125244,289.201691 C59.1073164,270.150527 59.7999204,257.071043 60.3570924,246.561203 C60.7994244,238.202039 61.0916724,232.679423 66.8950524,222.144239 C72.6992244,211.608659 77.2104564,208.410167 84.0390804,203.569067 C92.6251524,197.482151 103.31042,189.907067 113.804816,170.855903 C124.299212,151.805927 124.99142,138.726047 125.548196,128.216603 C125.990528,119.858231 126.283172,114.336407 132.086156,103.802015 C137.88914,93.2672268 142.399976,90.0695268 149.227808,85.2288228 C157.81388,79.1426988 168.499148,71.5676148 178.993148,52.5176388 C189.487544,33.4672668 190.179752,20.3877828 190.735736,9.8783388 C191.178464,1.5199668 191.470316,-4.0018572 197.273696,-14.5358532 C202.925408,-24.7962132 199.18994,-37.6951212 188.92958,-43.3472292 C178.669616,-48.9993372 165.770312,-45.2634732 160.118204,-35.0031132 C149.624204,-15.9527412 148.9316,-2.8732572 148.375616,7.6361868 C147.933284,15.9945588 147.641036,21.5163828 141.838052,32.0503788 C136.035068,42.5843748 131.524232,45.7820748 124.696004,50.6223828 C116.110328,56.7089028 105.424664,64.2839868 94.9306644,83.3343588 C84.4366644,102.384335 83.7440604,115.464215 83.1880764,125.974055 C82.7453484,134.332031 82.4527044,139.854251 76.6497204,150.388247 C70.8463404,160.924223 66.3347124,164.122715 59.5060884,168.964211 C50.9204124,175.051127 40.2347484,182.626211 29.7403524,201.676979 C19.2459564,220.728143 18.5529564,233.807627 17.9965764,244.317467 C17.5538484,252.676631 17.2612044,258.199247 11.4578244,268.734431 C8.6315724,273.864611 8.1528084,279.654131 9.6627564,284.868263" id="Fill-1218" fill="#FF6700" mask="url(#mask-14)"></path>
                        </g>
                        <g id="Group-1223">
                            <mask id="mask-16" fill="white">
                                <use xlink:href="#path-15"></use>
                            </mask>
                            <g id="Clip-1222"></g>
                            <path d="M-26.4722436,262.74505 C-24.9622956,267.959182 -21.4636356,272.596342 -16.3330596,275.422594 C-6.0730956,281.074702 6.8258124,277.338838 12.4775244,267.078478 C22.9719204,248.02771 23.6649204,234.94783 24.2220924,224.438386 C24.6644244,216.078826 24.9566724,210.556606 30.7600524,200.021026 C36.5642244,189.485446 41.0750604,186.28735 47.9040804,181.44625 C56.4901524,175.359334 67.1754204,167.783854 77.6698164,148.733086 C88.1642124,129.68311 88.8564204,116.602834 89.4131964,106.09339 C89.8555284,97.7350176 90.1477764,92.2131936 95.9507604,81.6788016 C101.753744,71.1444096 106.26458,67.9463136 113.092808,63.1060056 C121.678484,57.0194856 132.364148,49.4447976 142.858544,30.3944256 C153.352148,11.3440536 154.044752,-1.7346384 154.601132,-12.2444784 C155.043068,-20.6032464 155.335316,-26.1242784 161.138696,-36.6590664 C166.790804,-46.9186344 163.05494,-59.8183344 152.794976,-65.4704424 C142.535012,-71.1225504 129.635708,-67.3866864 123.9836,-57.1263264 C113.489204,-38.0759544 112.7966,-24.9964704 112.240616,-14.4866304 C111.798284,-6.1286544 111.506036,-0.6068304 105.703052,9.9275616 C99.9000684,20.4615576 95.3888364,23.6596536 88.5610044,28.4999616 C79.9753284,34.5860856 69.2896644,42.1607736 58.7956644,61.2111456 C48.3012684,80.2611216 47.6090604,93.3410016 47.0526804,103.850842 C46.6103484,112.209214 46.3177044,117.731038 40.5147204,128.26543 C34.7113404,138.801406 30.1997124,141.999502 23.3710884,146.840998 C14.7854124,152.927914 4.0997484,160.502998 -6.3950436,179.553766 C-16.8890436,198.60493 -17.5820436,211.68481 -18.1384236,222.194254 C-18.5811516,230.553418 -18.8737956,236.076034 -24.6771756,246.611614 C-27.5034276,251.741398 -27.9821916,257.530918 -26.4722436,262.74505" id="Fill-1221" fill="#FF9357" mask="url(#mask-16)"></path>
                        </g>
                        <g id="Group-1226">
                            <mask id="mask-18" fill="white">
                                <use xlink:href="#path-17"></use>
                            </mask>
                            <g id="Clip-1225"></g>
                            <path d="M-63.1149948,241.699036 C-61.6050468,246.913168 -58.1059908,251.550328 -52.9758108,254.37658 C-42.7154508,260.028688 -29.8161468,256.292824 -24.1648308,246.032464 C-13.6700388,226.981696 -12.9774348,213.90142 -12.4206588,203.39158 C-11.9779308,195.032416 -11.6860788,189.5098 -5.8823028,178.974616 C-0.0785268,168.439828 4.4323092,165.241336 11.2613292,160.400236 C19.8474012,154.313716 30.5330652,146.73784 41.0274612,127.687072 C51.5214612,108.636304 52.2140652,95.5568196 52.7708412,85.0473756 C53.2131732,76.6886076 53.5054212,71.1667836 59.3084052,60.6319956 C65.1113892,50.0983956 69.6222252,46.9002996 76.4504532,42.0599916 C85.0365252,35.9734716 95.7217932,28.3991796 106.215793,9.3488076 C116.709793,-9.7019604 117.402397,-22.7810484 117.958381,-33.2908884 C118.400713,-41.6496564 118.692961,-47.1714804 124.495945,-57.7054764 C130.148053,-67.9658364 126.412189,-80.8647444 116.151829,-86.5168524 C105.891865,-92.1689604 92.9929572,-88.4330964 87.3408492,-78.1727364 C76.8468492,-59.1223644 76.1542452,-46.0428804 75.5978652,-35.5334364 C75.1555332,-27.1750644 74.8636812,-21.6532404 69.0603012,-11.1184524 C63.2577132,-0.5848524 58.7464812,2.6128476 51.9186492,7.4535516 C43.3329732,13.5396756 32.6473092,21.1143636 22.1533092,40.1647356 C11.6593092,59.2151076 10.9667052,72.2945916 10.4103252,82.8044316 C9.9679932,91.1631996 9.6753492,96.6850236 3.8723652,107.219812 C-1.9310148,117.754996 -6.4426428,120.953488 -13.2712668,125.794984 C-21.8573388,131.881504 -32.5426068,139.456588 -43.0373988,158.50696 C-53.5317948,177.55852 -54.2243988,190.638796 -54.7811748,201.148636 C-55.2235068,209.507404 -55.5161508,215.03002 -61.3195308,225.565204 C-64.1453868,230.695384 -64.6249428,236.484904 -63.1149948,241.699036" id="Fill-1224" fill="#FF6700" mask="url(#mask-18)"></path>
                        </g>
                    </g>
                </g>
                <path d="M241.458678,475.199335 L35.7552904,475.199335 L35.7552904,452.453095 C35.7552904,441.051067 44.9987224,431.807239 56.4011464,431.807239 L220.812822,431.807239 C232.215246,431.807239 241.458678,441.051067 241.458678,452.453095 L241.458678,475.199335 Z" id="Fill-1228" fill="#3B7CFF" mask="url(#mask-2)"></path>
                <path d="M220.812941,575.557655 L56.4008692,575.557655 C44.9984452,575.557655 35.7554092,566.314223 35.7554092,554.911799 L35.7554092,475.199375 L241.458797,475.199375 L241.458797,554.911799 C241.458797,566.314223 232.215365,575.557655 220.812941,575.557655" id="Fill-1230" fill="#CCDEFF" mask="url(#mask-2)"></path>
                <path d="M171.358786,522 L62.6408196,522 C57.8684297,522 54,518.130511 54,513.3573 L54,495.643094 C54,490.869489 57.8684297,487 62.6408196,487 L171.358786,487 C176.131176,487 180,490.869489 180,495.643094 L180,513.3573 C180,518.130511 176.131176,522 171.358786,522" id="Fill-1232" fill="#FFFFFF" mask="url(#mask-2)"></path>
                <path d="M79.3735713,562 L63.6260346,562 C58.3097236,562 54,557.689882 54,552.373571 L54,536.626429 C54,531.309724 58.3097236,527 63.6260346,527 L79.3735713,527 C84.6898823,527 89,531.309724 89,536.626429 L89,552.373571 C89,557.689882 84.6898823,562 79.3735713,562" id="Fill-1234" fill="#FFFFFF" mask="url(#mask-2)"></path>
                <path d="M302.709899,224.126821 C294.513887,232.891885 280.763975,233.352829 271.998911,225.157213 C263.233847,216.960805 262.772507,203.211289 270.968915,194.446225 C279.164927,185.681161 292.914839,185.219821 301.679507,193.416229 C310.444571,201.612241 310.905515,215.361757 302.709899,224.126821" id="Fill-1236" fill="#FFB280" mask="url(#mask-2)"></path>
                <path d="M281.146472,186.583962 C287.977076,184.438434 295.423856,185.675142 301.173776,189.799482 C301.174568,189.800274 301.175756,189.801066 301.175756,189.801066 C302.666696,190.870662 304.041212,192.13311 305.262872,193.580886 C305.279108,193.60029 305.29574,193.619694 305.311976,193.639098 C305.5076,193.872342 305.69966,194.109942 305.887364,194.35269 C305.888948,194.355462 305.890928,194.358234 305.893304,194.361006 C306.283364,194.867094 306.655208,195.393378 307.008044,195.939462 C313.799048,206.47227 310.767668,220.516014 300.236048,227.308602 C299.942216,227.49789 299.644424,227.677278 299.345048,227.851518 C299.049632,228.02259 298.751048,228.185742 298.451276,228.342954 L298.451276,228.34335 C295.442072,229.920618 292.14458,230.849238 288.917576,230.99457 L286.93718,231.00447 C286.888472,230.951406 287.395748,224.93775 287.395748,224.93775 C287.585432,222.732822 288.363572,220.577394 289.826,218.916174 C290.418416,218.242974 290.901932,217.311978 291.19814,216.02181 C290.848076,208.288326 283.385456,211.246446 283.385456,211.246446 C283.344668,211.234962 279.273392,193.593558 281.146472,186.583962" id="Fill-1238" fill="#0C266D" mask="url(#mask-2)"></path>
                <path d="M281.147264,186.584754 L281.155184,186.519018 C282.19508,177.582882 291.385448,172.027794 299.781044,175.260738 C307.415924,178.200642 310.818752,187.10985 307.087244,194.391102 L304.800344,198.85323" id="Fill-1240" fill="#0C266D" mask="url(#mask-2)"></path>
                <path d="M266.250852,193.994072 C265.481424,194.81696 266.004936,196.556588 267.419844,197.88002 C268.835148,199.203056 270.60606,199.608956 271.375488,198.786068 C272.144916,197.962784 271.6218,196.223156 270.2061,194.90012 C268.791192,193.576688 267.02028,193.171184 266.250852,193.994072" id="Fill-1242" fill="#FFB280" mask="url(#mask-2)"></path>
                <path d="M274.160002,199.263129 C273.672526,199.784265 273.69985,200.602401 274.220986,201.089877 C274.742518,201.577353 275.560258,201.549633 276.047734,201.028497 C276.53521,200.507361 276.507886,199.689225 275.986354,199.201749 C275.465218,198.714273 274.647082,198.741993 274.160002,199.263129" id="Fill-1244" fill="#0C266D" mask="url(#mask-2)"></path>
                <path d="M271.825028,215.457945 C273.015404,216.720393 275.003324,216.778209 276.265376,215.588229" id="Stroke-1246" stroke="#0C266D" stroke-width="1.584" stroke-linecap="round" stroke-linejoin="round" mask="url(#mask-2)"></path>
                <path d="M345.641487,236.632541 C346.958187,236.803217 348.308943,236.858657 349.682271,236.788961 C362.033907,236.160905 371.538303,225.638789 370.910247,213.287153 C370.439007,204.023525 364.402779,196.361321 356.203203,193.374293 C356.127567,193.346573 355.965603,193.295489 355.965603,193.295489 C353.036787,194.297369 338.061651,217.308533 337.243515,229.437221 C336.960375,233.634425 343.009671,236.291585 345.641487,236.632541" id="Fill-1248" fill="#FFB280" mask="url(#mask-2)"></path>
                <path d="M366.620973,209.173188 C367.112409,210.414252 369.198933,210.75204 371.281497,209.927964 C373.364061,209.103492 374.654229,207.429204 374.162793,206.187744 C373.671753,204.94668 371.585229,204.608892 369.502269,205.433364 C367.420101,206.257836 366.129933,207.932124 366.620973,209.173188" id="Fill-1250" fill="#FFB280" mask="url(#mask-2)"></path>
                <path d="M338.042484,194.593695 C331.7049,197.868615 327.453444,203.939691 326.194956,210.669315 C325.635012,213.664263 324.195156,216.440619 321.940728,218.489919 C319.103784,221.067879 315.891828,225.402495 316.75788,231.366255 C317.916972,239.346843 325.728864,244.696011 333.613224,243.002715 C338.087628,242.041623 341.473428,239.215371 343.340172,235.626423 L343.340568,235.626027 C343.672416,235.217355 343.999116,234.805119 344.319876,234.388527 C347.098212,230.782947 348.212952,226.065399 346.980204,221.682867 C346.760028,220.897995 346.74498,219.980463 347.014656,218.958387 C348.68934,216.180447 351.506088,216.018879 353.34234,217.356963 C355.873968,209.715351 356.833476,201.524883 355.969008,193.296795 C350.32878,191.344119 343.906056,191.564295 338.042484,194.593695" id="Fill-1252" fill="#3B7CFF" mask="url(#mask-2)"></path>
                <path d="M363.786326,220.296749 C363.63743,220.423865 363.483386,220.539101 363.321818,220.638101 C363.155894,220.740269 362.987198,220.834913 362.811374,220.908173 C362.632382,220.982225 362.445866,221.032517 362.260142,221.077265 C362.072042,221.122013 361.882358,221.158445 361.69109,221.173097 C361.49903,221.188145 361.306178,221.177057 361.11491,221.162009 C360.923246,221.146565 360.731582,221.126765 360.543878,221.082017 C360.357758,221.037665 360.17837,220.966781 359.999378,220.893125 C359.823158,220.820261 359.641394,220.751753 359.476262,220.650377 C359.313902,220.550981 359.163818,220.427825 359.01611,220.301105 C358.871966,220.177949 358.744058,220.034993 358.616546,219.886097" id="Stroke-1254" stroke="#0C266D" stroke-width="1.584" stroke-linecap="round" stroke-linejoin="round" mask="url(#mask-2)"></path>
                <path d="M361.966072,206.558004 C362.4385,207.11082 362.37316,207.94242 361.820344,208.414848 C361.267132,208.887276 360.436324,208.822332 359.9635,208.26912 C359.491072,207.716304 359.556412,206.8851 360.109228,206.412276 C360.662044,205.939848 361.493644,206.005188 361.966072,206.558004" id="Fill-1256" fill="#0C266D" mask="url(#mask-2)"></path>
                <line x1="461.261132" y1="113.297073" x2="459.473192" y2="108.046113" id="Stroke-1258" stroke="#0C266D" stroke-linecap="round" stroke-linejoin="round" mask="url(#mask-2)"></line>
                <line x1="480.507722" y1="111.511232" x2="477.565046" y2="115.879508" id="Stroke-1260" stroke="#0C266D" stroke-linecap="round" stroke-linejoin="round" mask="url(#mask-2)"></line>
                <line x1="469.699694" y1="112.700381" x2="470.59109" y2="106.422197" id="Stroke-1262" stroke="#0C266D" stroke-linecap="round" stroke-linejoin="round" mask="url(#mask-2)"></line>
                <path d="M205.76106,164.982241 L194.206176,164.434969 L195.903432,128.600137 C196.054704,125.409565 198.76374,122.945257 201.954708,123.096529 C205.14528,123.247405 207.609588,125.956837 207.458712,129.147409 L205.76106,164.982241 Z" id="Fill-1264" fill="#FFB280" mask="url(#mask-2)"></path>
                <path d="M191.889458,169.933983 L180.36467,170.932695 L177.267554,135.192111 C176.991938,132.009459 179.348138,129.205779 182.53079,128.930163 C185.713046,128.654547 188.516726,131.010747 188.792738,134.193399 L191.889458,169.933983 Z" id="Fill-1266" fill="#FFB280" mask="url(#mask-2)"></path>
                <path d="M200.969223,165.842709 L189.444039,166.841421 L186.347319,131.100837 C186.071703,127.918185 188.427903,125.114505 191.610159,124.838889 C194.792811,124.562877 197.596095,126.919473 197.872107,130.102125 L200.969223,165.842709 Z" id="Fill-1268" fill="#FFB280" mask="url(#mask-2)"></path>
                <path d="M210.931514,156.101228 L199.67363,153.440108 L209.398994,112.299272 C210.133574,109.190672 213.249698,107.266112 216.358298,108.001088 C219.467294,108.735668 221.391458,111.851792 220.656878,114.960392 L210.931514,156.101228 Z" id="Fill-1270" fill="#FFB280" mask="url(#mask-2)"></path>
                <path d="M308.189351,355.405058 L308.189351,355.405058 C311.724443,369.095966 306.359039,383.51393 294.780395,391.630346 C287.275403,396.891206 278.580035,403.821602 270.483419,412.332434 C248.505419,437.365178 239.631851,472.120514 249.580955,504.80081 C250.056155,506.361446 255.995759,522.656054 255.995759,522.656054 C257.706875,526.743566 256.413539,531.134414 252.301871,532.786922 L222.297743,543.205286 C218.258939,544.82849 213.666527,542.898782 211.998971,538.87859 L203.389535,516.228182 C185.692295,471.068342 200.410031,428.14313 216.481295,401.258294 C216.511787,401.20721 216.481295,401.258294 216.513767,401.204438 C224.029847,388.79063 240.704615,363.059342 252.728363,354.550886 L302.494871,338.137874 L308.189351,355.405058 Z" id="Fill-1272" fill="#0C266D" mask="url(#mask-2)"></path>
                <path d="M310.785369,540.418674 L279.330297,540.418674 C274.947765,540.418674 271.394457,536.865762 271.394457,532.482834 L271.394457,357.910986 L318.721209,357.910986 L318.721209,532.482834 C318.721209,536.865762 315.167901,540.418674 310.785369,540.418674" id="Fill-1274" fill="#0C266D" mask="url(#mask-2)"></path>
                <path d="M55.1708536,279.051308 L126.980702,279.051308 C136.95119,279.051308 145.033946,270.968552 145.033946,260.998064 L145.033946,200.910212 C145.033946,190.939328 136.95119,182.856572 126.980702,182.856572 L55.1708536,182.856572 C45.2003656,182.856572 37.1176096,190.939328 37.1176096,200.910212 L37.1176096,260.998064 C37.1176096,270.968552 45.2003656,279.051308 55.1708536,279.051308" id="Fill-1276" fill="#FF9357" mask="url(#mask-2)"></path>
                <path d="M576.504458,401.724703 L459.046502,401.724703 C449.689418,401.724703 442.104038,394.139323 442.104038,384.782239 L442.104038,311.097331 L593.446526,311.097331 L593.446526,384.782239 C593.446526,394.139323 585.861542,401.724703 576.504458,401.724703" id="Fill-1278" fill="#3B7CFF" mask="url(#mask-2)"></path>
                <path d="M593.446605,317.325461 L442.104117,317.325461 L442.104117,302.489321 C442.104117,293.132237 449.689497,285.546461 459.046185,285.546461 L576.504537,285.546461 C585.861621,285.546461 593.446605,293.132237 593.446605,302.489321 L593.446605,317.325461 Z" id="Fill-1280" fill="#0633EF" mask="url(#mask-2)"></path>
                <path d="M126.562248,232.955007 C126.562248,252.527703 110.69532,268.394631 91.1226244,268.394631 C71.5499284,268.394631 55.6830004,252.527703 55.6830004,232.955007 C55.6830004,213.382311 71.5499284,197.515383 91.1226244,197.515383 C110.69532,197.515383 126.562248,213.382311 126.562248,232.955007" id="Fill-1282" fill="#FFB280" mask="url(#mask-2)"></path>
                <path d="M302.689426,391.525763 L293.775466,394.962647 C291.100486,395.994227 289.672906,399.059267 290.753986,401.714447 C291.80299,404.289635 294.725866,405.560399 297.330754,404.556143 L304.79377,401.678411 C305.820994,401.282411 306.70447,402.510407 306.00157,403.358243 L293.465002,418.486235 C291.667558,420.655523 292.048906,423.802139 294.313234,425.479199 C296.577166,427.155863 299.900398,426.753131 301.698238,424.583447 L307.727734,417.308135 L304.674574,428.857871 C303.970486,431.520575 305.411134,434.352371 308.037802,435.180803 C310.842274,436.065467 313.78495,434.422463 314.527846,431.612051 L317.71129,419.569691 L319.080658,430.616111 C319.428346,433.419395 321.982942,435.410483 324.786226,435.062795 C327.58951,434.715107 329.580202,432.160511 329.23291,429.357227 L327.665146,416.715323 L330.755134,425.068547 C331.606534,427.806491 334.570198,429.434447 337.29151,428.531963 C339.930454,427.656407 341.392486,424.824611 340.563658,422.158343 L334.114402,401.423783 C332.554162,396.406463 332.230234,391.086599 333.170734,385.916819 L333.896602,381.924347 L310.493398,377.539439 L309.315298,383.614079 C308.616754,387.216491 306.113242,390.205895 302.689426,391.525763" id="Fill-1284" fill="#FFB280" mask="url(#mask-2)"></path>
                <path d="M261.360767,228.502542 C236.178731,215.592942 218.266067,190.95699 215.589107,162.027606 C215.460011,160.62933 215.413679,159.224718 215.425559,157.820502 L215.454863,156.72675 C215.484959,153.173442 212.602079,150.283038 209.048771,150.30352 L181.379459,150.463614 C177.889511,150.48381 175.065635,153.30927 175.047419,156.799218 L174.975347,167.983842 C175.579247,209.82045 201.503783,237.953478 223.109543,254.177598 C223.151123,254.208882 223.193099,254.240562 223.237055,254.273034 C236.695511,264.261738 244.097147,280.454178 242.856083,297.168546 L239.205755,346.342638 C238.702835,353.11503 244.273367,358.78377 251.053679,358.39965 L303.478931,358.092354 C303.469031,361.51815 303.250835,364.97127 302.809295,368.437854 C302.624759,369.88365 302.355083,371.317566 302.026007,372.737226 L301.218167,376.22757 C300.386567,379.82127 302.655647,383.400318 306.260831,384.180834 L334.333667,390.259434 C337.874699,391.02609 341.373359,388.800174 342.179219,385.26825 L345.306035,371.562294 C357.256523,311.93301 327.438119,260.63913 261.360767,228.502542" id="Fill-1286" fill="#0633EF" mask="url(#mask-2)"></path>
                <path d="M469.921295,301.77858 C469.921295,305.101416 467.227307,307.795008 463.904867,307.795008 C460.582031,307.795008 457.888043,305.101416 457.888043,301.77858 C457.888043,298.455744 460.582031,295.762152 463.904867,295.762152 C467.227307,295.762152 469.921295,298.455744 469.921295,301.77858" id="Fill-1288" fill="#3B7CFF" mask="url(#mask-2)"></path>
                <path d="M491.385723,301.77858 C491.385723,305.101416 488.692131,307.795008 485.369691,307.795008 C482.046459,307.795008 479.352867,305.101416 479.352867,301.77858 C479.352867,298.455744 482.046459,295.762152 485.369691,295.762152 C488.692131,295.762152 491.385723,298.455744 491.385723,301.77858" id="Fill-1290" fill="#3B7CFF" mask="url(#mask-2)"></path>
                <path d="M512.126619,301.77858 C512.126619,305.101416 509.432631,307.795008 506.110191,307.795008 C502.787355,307.795008 500.093763,305.101416 500.093763,301.77858 C500.093763,298.455744 502.787355,295.762152 506.110191,295.762152 C509.432631,295.762152 512.126619,298.455744 512.126619,301.77858" id="Fill-1292" fill="#3B7CFF" mask="url(#mask-2)"></path>
                <path d="M264.237984,567.087373 L255.95406,542.783665 L252.52074,532.634581 L221.510376,543.503197 L222.588684,546.580513 C223.3395,548.722081 222.079428,551.043433 219.875292,551.581201 L200.13786,555.226777 C194.50476,556.601293 190.541196,561.647917 190.541196,567.446149 C190.541196,571.836205 194.10084,575.395453 198.490896,575.395453 L240.531444,575.395453 L258.29244,575.395453 C262.597752,575.395453 265.627152,571.162609 264.237984,567.087373" id="Fill-1294" fill="#FF6700" mask="url(#mask-2)"></path>
                <path d="M111.762105,453.955636 C111.762105,449.446384 115.417185,445.791304 119.926437,445.791304 C124.435689,445.791304 128.090769,449.446384 128.090769,453.955636 C128.090769,458.464492 124.435689,462.119968 119.926437,462.119968 C115.417185,462.119968 111.762105,458.464492 111.762105,453.955636" id="Fill-1296" fill="#FF6700" mask="url(#mask-2)"></path>
                <path d="M83.8441048,453.955636 C83.8441048,449.446384 87.4991848,445.791304 92.0080408,445.791304 C96.5172928,445.791304 100.172373,449.446384 100.172373,453.955636 C100.172373,458.464492 96.5172928,462.119968 92.0080408,462.119968 C87.4991848,462.119968 83.8441048,458.464492 83.8441048,453.955636" id="Fill-1298" fill="#FFB280" mask="url(#mask-2)"></path>
                <path d="M55.9257484,453.955636 C55.9257484,449.446384 59.5808284,445.791304 64.0896844,445.791304 C68.5989364,445.791304 72.2540164,449.446384 72.2540164,453.955636 C72.2540164,458.464492 68.5989364,462.119968 64.0896844,462.119968 C59.5808284,462.119968 55.9257484,458.464492 55.9257484,453.955636" id="Fill-1300" fill="#0633EF" mask="url(#mask-2)"></path>
                <path d="M102.80997,218.951339 C102.80997,225.432275 97.5562384,230.685611 91.0756984,230.685611 C84.5951584,230.685611 79.3410304,225.432275 79.3410304,218.951339 C79.3410304,212.470799 84.5951584,207.217067 91.0756984,207.217067 C97.5562384,207.217067 102.80997,212.470799 102.80997,218.951339" id="Fill-1302" fill="#FF9357" mask="url(#mask-2)"></path>
                <path d="M55.7099284,276.026779 C55.7099284,256.494871 71.5435924,240.661207 91.0758964,240.661207 C110.607804,240.661207 126.441072,256.494871 126.441072,276.026779 L55.7099284,276.026779 Z" id="Fill-1304" fill="#FF9357" mask="url(#mask-2)"></path>
                <path d="M330.240017,554.298593 L316.531289,551.523425 C313.722857,550.954769 311.703653,548.486105 311.703653,545.620649 L311.703653,540.418793 L278.843969,540.418793 L278.843969,567.022865 C278.843969,571.646957 282.592505,575.395493 287.216201,575.395493 L295.720301,575.395493 L311.703653,575.395493 L332.605325,575.395493 C337.128833,575.395493 340.795397,571.728533 340.795397,567.205025 C340.795397,560.939513 336.381185,555.541637 330.240017,554.298593" id="Fill-1306" fill="#FF6700" mask="url(#mask-2)"></path>
                <path d="M258.490955,575.395453 L198.662087,575.395453 C194.177387,575.395453 190.541315,571.759777 190.541315,567.275077 L264.302255,567.275077 C265.659743,571.258045 262.698851,575.395453 258.490955,575.395453" id="Fill-1308" fill="#FF9357" mask="url(#mask-2)"></path>
                <path d="M333.506661,575.395453 L287.068929,575.395453 C282.526413,575.395453 278.844009,571.712653 278.844009,567.170137 L340.795437,567.170137 L340.795437,568.106677 C340.795437,572.132017 337.532397,575.395453 333.506661,575.395453" id="Fill-1310" fill="#FF9357" mask="url(#mask-2)"></path>
                <path d="M248.224734,550.546255 C248.224734,554.282911 245.19573,557.311915 241.458678,557.311915 C237.722418,557.311915 234.693018,554.282911 234.693018,550.546255 C234.693018,546.809203 237.722418,543.780199 241.458678,543.780199 C245.19573,543.780199 248.224734,546.809203 248.224734,550.546255" id="Fill-1312" fill="#FF9357" mask="url(#mask-2)"></path>
                <path d="M302.287248,550.546255 C302.287248,554.282911 299.258244,557.311915 295.521192,557.311915 C291.784932,557.311915 288.755532,554.282911 288.755532,550.546255 C288.755532,546.809203 291.784932,543.780199 295.521192,543.780199 C299.258244,543.780199 302.287248,546.809203 302.287248,550.546255" id="Fill-1314" fill="#FF9357" mask="url(#mask-2)"></path>
                <line x1="227.286591" y1="553.177279" x2="221.704179" y2="548.466463" id="Stroke-1316" stroke="#0C266D" stroke-linecap="round" stroke-linejoin="round" mask="url(#mask-2)"></line>
                <line x1="307.297559" y1="552.587358" x2="312.972239" y2="547.987818" id="Stroke-1318" stroke="#0C266D" stroke-linecap="round" stroke-linejoin="round" mask="url(#mask-2)"></line>
                <line x1="312.304425" y1="555.287048" x2="317.979105" y2="550.687904" id="Stroke-1320" stroke="#0C266D" stroke-linecap="round" stroke-linejoin="round" mask="url(#mask-2)"></line>
                <line x1="222.248045" y1="556.06994" x2="216.665237" y2="551.359124" id="Stroke-1322" stroke="#0C266D" stroke-linecap="round" stroke-linejoin="round" mask="url(#mask-2)"></line>
                <path d="M302.671646,358.092393 L302.671646,352.615713 C302.671646,343.245561 300.991814,334.011633 297.767978,325.332897 C295.310006,318.715737 291.954698,312.421713 287.76185,306.636549 L287.76185,306.636549" id="Stroke-1324" stroke="#0C266D" stroke-width="1.584" stroke-linecap="round" stroke-linejoin="round" mask="url(#mask-2)"></path>
                <line x1="165.900809" y1="85.915099" x2="133.650173" y2="53.664463" id="Stroke-1326" stroke="#0C266D" stroke-linecap="round" stroke-linejoin="round" mask="url(#mask-2)"></line>
                <line x1="133.650015" y1="85.915099" x2="165.900651" y2="53.664463" id="Stroke-1328" stroke="#0C266D" stroke-linecap="round" stroke-linejoin="round" mask="url(#mask-2)"></line>
                <path d="M190.882073,111.820983 L185.871485,94.8001114 C197.759801,77.6841994 196.077197,53.9974594 180.822485,38.7427474 C163.675685,21.5959474 135.875297,21.5959474 118.728497,38.7427474 C101.581697,55.8895474 101.581697,83.6899354 118.728497,100.836735 C133.937669,116.045511 157.527389,117.762171 174.630629,105.990675 L190.882073,111.820983 Z" id="Stroke-1330" stroke="#0C266D" stroke-linecap="round" stroke-linejoin="round" mask="url(#mask-2)"></path>
                <path d="M315.592294,120.01557 L390.223642,120.01557 C401.40589,120.01557 410.470726,129.080406 410.470726,140.262654 C410.470726,151.444902 401.40589,160.509738 390.223642,160.509738 L370.00903,160.509738 L358.536514,176.099466 C356.693926,178.60377 352.952122,178.60377 351.109138,176.099466 L339.636622,160.509738 L315.592294,160.509738 C304.410442,160.509738 295.34521,151.444902 295.34521,140.262654 C295.34521,129.080406 304.410442,120.01557 315.592294,120.01557" id="Fill-1332" fill="#FFFFFF" mask="url(#mask-2)"></path>
                <path d="M367.043267,135.027019 C358.389875,135.027019 358.389875,147.113335 349.736879,147.113335 C341.083091,147.113335 341.083091,135.027019 332.429699,135.027019 C323.775515,135.027019 323.775515,147.113335 315.121727,147.113335 C306.467147,147.113335 306.467147,135.027019 297.812963,135.027019 C289.158779,135.027019 289.158779,147.113335 280.504595,147.113335" id="Stroke-1334" stroke="#0C266D" stroke-linecap="round" stroke-linejoin="round" mask="url(#mask-2)"></path>
                <path d="M466.596281,387.279969 L466.596281,387.279969 C461.786861,387.279969 457.888241,383.381349 457.888241,378.571929 L457.888241,338.714529 C457.888241,333.905109 461.786861,330.006489 466.596281,330.006489 C471.405701,330.006489 475.304321,333.905109 475.304321,338.714529 L475.304321,378.571929 C475.304321,383.381349 471.405701,387.279969 466.596281,387.279969" id="Fill-1336" fill="#FFFFFF" mask="url(#mask-2)"></path>
                <path d="M500.093882,387.279969 L500.093882,387.279969 C495.284462,387.279969 491.385842,383.381349 491.385842,378.571929 L491.385842,338.714529 C491.385842,333.905109 495.284462,330.006489 500.093882,330.006489 C504.903302,330.006489 508.801526,333.905109 508.801526,338.714529 L508.801526,378.571929 C508.801526,383.381349 504.903302,387.279969 500.093882,387.279969" id="Fill-1338" fill="#FFFFFF" mask="url(#mask-2)"></path>
                <path d="M533.591046,387.279969 L533.591046,387.279969 C528.781626,387.279969 524.883402,383.381349 524.883402,378.571929 L524.883402,338.714529 C524.883402,333.905109 528.781626,330.006489 533.591046,330.006489 C538.400466,330.006489 542.299086,333.905109 542.299086,338.714529 L542.299086,378.571929 C542.299086,383.381349 538.400466,387.279969 533.591046,387.279969" id="Fill-1340" fill="#FFFFFF" mask="url(#mask-2)"></path>
                <path d="M567.088647,387.279969 L567.088647,387.279969 C562.279227,387.279969 558.380607,383.381349 558.380607,378.571929 L558.380607,338.714529 C558.380607,333.905109 562.279227,330.006489 567.088647,330.006489 C571.898067,330.006489 575.796291,333.905109 575.796291,338.714529 L575.796291,378.571929 C575.796291,383.381349 571.898067,387.279969 567.088647,387.279969" id="Fill-1342" fill="#FFFFFF" mask="url(#mask-2)"></path>
                <path d="M466.596281,387.279969 L466.596281,387.279969 C461.786861,387.279969 457.888241,383.381349 457.888241,378.571929 L457.888241,352.580469 L475.304321,352.580469 L475.304321,378.571929 C475.304321,383.381349 471.405701,387.279969 466.596281,387.279969" id="Fill-1344" fill="#FF6700" mask="url(#mask-2)"></path>
                <path d="M567.088647,387.279969 L567.088647,387.279969 C562.279227,387.279969 558.380607,383.381349 558.380607,378.571929 L558.380607,365.162181 L575.796291,365.162181 L575.796291,378.571929 C575.796291,383.381349 571.898067,387.279969 567.088647,387.279969" id="Fill-1346" fill="#FFB280" mask="url(#mask-2)"></path>
                <path d="M500.093882,387.279969 L500.093882,387.279969 C495.284462,387.279969 491.385842,383.381349 491.385842,378.571929 L491.385842,367.261773 L508.801526,367.261773 L508.801526,378.571929 C508.801526,383.381349 504.903302,387.279969 500.093882,387.279969" id="Fill-1348" fill="#CCDEFF" mask="url(#mask-2)"></path>
                <path d="M533.591046,387.279969 L533.591046,387.279969 C528.781626,387.279969 524.883402,383.381349 524.883402,378.571929 L524.883402,343.523157 L542.299086,343.523157 L542.299086,378.571929 C542.299086,383.381349 538.400466,387.279969 533.591046,387.279969" id="Fill-1350" fill="#0633EF" mask="url(#mask-2)"></path>
                <path d="M575.437119,509.974629 L503.378187,509.974629 C476.308023,509.974629 459.341007,480.725673 472.780059,457.227033 L508.809327,394.226997 C522.344211,370.560453 556.471095,370.560453 570.005583,394.226997 L606.035247,457.227033 C619.473903,480.725673 602.506887,509.974629 575.437119,509.974629" id="Fill-1352" fill="#FF6700" mask="url(#mask-2)"></path>
                <g id="Group-1367" mask="url(#mask-2)">
                    <g transform="translate(508.147096, 424.377131)">
                        <g id="Group-1357">
                            <mask id="mask-20" fill="white">
                                <use xlink:href="#path-19"></use>
                            </mask>
                            <g id="Clip-1356"></g>
                            <path d="M104.006668,92.0744352 C104.93212,94.5161712 104.925784,97.3107432 103.769068,99.8799912 C101.455636,105.018091 95.4142596,107.307367 90.2761596,104.993539 C80.7357276,100.696939 76.6909836,95.8661352 73.4406156,91.9837512 C70.8555276,88.8965352 69.1479756,86.8567392 63.8716716,84.4807392 C58.5957636,82.1047392 55.9366236,82.1779992 51.9112836,82.2884832 C46.8504036,82.4274792 40.5516276,82.6005312 31.0111956,78.3039312 C21.4711596,74.0077272 17.4260196,69.1765272 14.1760476,65.2945392 C11.5913556,62.2073232 9.8838036,60.1679232 4.6082916,57.7919232 C-0.6672204,55.4163192 -3.3259644,55.4895792 -7.3509084,55.6000632 C-12.4117884,55.7394552 -18.7105644,55.9121112 -28.2498084,51.6163032 C-37.7898444,47.3197032 -41.8345884,42.4888992 -45.0849564,38.6069112 C-47.6696484,35.5196952 -49.3772004,33.4798992 -54.6527124,31.1042952 C-59.7908124,28.7900712 -62.0800884,22.7494872 -59.7662604,17.6113872 C-57.4524324,12.4732872 -51.4114524,10.1840112 -46.2733524,12.4978392 C-36.7333164,16.7940432 -32.6885724,21.6252432 -29.4386004,25.5068352 C-26.8535124,28.5944472 -25.1463564,30.6338472 -19.8708444,33.0098472 C-14.5957284,35.3850552 -11.9365884,35.3121912 -7.9116444,35.2013112 C-2.8507644,35.0623152 3.4476156,34.8892632 12.9876516,39.1854672 C22.5272916,43.4816712 26.5724316,48.3128712 29.8224036,52.1948592 C32.4074916,55.2820752 34.1150436,57.3218712 39.3905556,59.6974752 C44.6664636,62.0734752 47.3256036,62.0006112 51.3509436,61.8897312 C56.4122196,61.7511312 62.7109956,61.5780792 72.2514276,65.8742832 C81.7914636,70.1708832 85.8366036,75.0020832 89.0865756,78.8840712 C91.6720596,81.9712872 93.3796116,84.0110832 98.6555196,86.3870832 C101.224768,87.5441952 103.081216,89.6326992 104.006668,92.0744352" id="Fill-1355" fill="#FF9357" mask="url(#mask-20)"></path>
                        </g>
                        <g id="Group-1360">
                            <mask id="mask-22" fill="white">
                                <use xlink:href="#path-21"></use>
                            </mask>
                            <g id="Clip-1359"></g>
                            <path d="M113.26586,74.2536828 C114.191312,76.6954188 114.184976,79.4899908 113.027864,82.0588428 C110.714432,87.1973388 104.673452,89.4866148 99.5353524,87.1727868 C89.9949204,82.8761868 85.9501764,78.0453828 82.6994124,74.1633948 C80.1143244,71.0757828 78.4067724,69.0359868 73.1308644,66.6599868 C67.8545604,64.2839868 65.1954204,64.3568508 61.1700804,64.4677308 C56.1092004,64.6067268 49.8108204,64.7797788 40.2703884,60.4831788 C30.7303524,56.1869748 26.6852124,51.3557748 23.4352404,47.4737868 C20.8505484,44.3865708 19.1426004,42.3471708 13.8674844,39.9715668 C8.5919724,37.5955668 5.9328324,37.6684308 1.9078884,37.7793108 C-3.1525956,37.9183068 -9.4513716,38.0913588 -18.9910116,33.7951548 C-28.5310476,29.4989508 -32.5757916,24.6677508 -35.8257636,20.7857628 C-38.4104556,17.6989428 -40.1184036,15.6591468 -45.3935196,13.2835428 C-50.5316196,10.9693188 -52.8208956,4.9287348 -50.5070676,-0.2093652 C-48.1936356,-5.3474652 -42.1526556,-7.6367412 -37.0141596,-5.3229132 C-27.4741236,-1.0267092 -23.4293796,3.8044908 -20.1794076,7.6864788 C-17.5947156,10.7736948 -15.8871636,12.8130948 -10.6116516,15.1890948 C-5.3365356,17.5643028 -2.6777916,17.4914388 1.3471524,17.3805588 C6.4080324,17.2415628 12.7068084,17.0685108 22.2464484,21.3647148 C31.7864844,25.6609188 35.8316244,30.4921188 39.0815964,34.3741068 C41.6662884,37.4613228 43.3742364,39.5007228 48.6493524,41.8763268 C53.9252604,44.2527228 56.5847964,44.1798588 60.6101364,44.0689788 C65.6714124,43.9299828 71.9697924,43.7573268 81.5102244,48.0535308 C91.0502604,52.3501308 95.0954004,57.1809348 98.3457684,61.0629228 C100.931252,64.1505348 102.638804,66.1903308 107.914316,68.5663308 C110.48396,69.7234428 112.340408,71.8115508 113.26586,74.2536828" id="Fill-1358" fill="#FFB280" mask="url(#mask-22)"></path>
                        </g>
                        <g id="Group-1363">
                            <mask id="mask-24" fill="white">
                                <use xlink:href="#path-23"></use>
                            </mask>
                            <g id="Clip-1362"></g>
                            <path d="M120.774377,55.3048452 C121.699829,57.7465812 121.693493,60.5411532 120.536777,63.1104012 C118.222949,68.2485012 112.181969,70.5377772 107.043869,68.2239492 C97.5034368,63.9273492 93.4586928,59.0965452 90.2079288,55.2145572 C87.6232368,52.1269452 85.9152888,50.0871492 80.6393808,47.7111492 C75.3634728,45.3355452 72.7039368,45.4084092 68.6785968,45.5188932 C63.6177168,45.6578892 57.3193368,45.8309412 47.7789048,41.5343412 C38.2388688,37.2381372 34.1937288,32.4069372 30.9437568,28.5253452 C28.3590648,25.4377332 26.6511168,23.3983332 21.3760008,21.0227292 C16.1004888,18.6467292 13.4413488,18.7199892 9.4168008,18.8304732 C4.3559208,18.9698652 -1.9428552,19.1429172 -11.4824952,14.8467132 C-21.0225312,10.5501132 -25.0672752,5.7193092 -28.3172472,1.8373212 C-30.9019392,-1.2498948 -32.6094912,-3.2892948 -37.8850032,-5.6652948 C-43.0231032,-7.9787268 -45.3123792,-14.0201028 -42.9985512,-19.1582028 C-40.6851192,-24.2963028 -34.6441392,-26.5855788 -29.5060392,-24.2717508 C-19.9656072,-19.9755468 -15.9208632,-15.1443468 -12.6708912,-11.2623588 C-10.0861992,-8.1751428 -8.3786472,-6.1353468 -3.1031352,-3.7597428 C2.1719808,-1.3841388 4.8311208,-1.4573988 8.8560648,-1.5678828 C13.9165488,-1.7068788 20.2153248,-1.8803268 29.7549648,2.4158772 C39.2950008,6.7120812 43.3401408,11.5432812 46.5901128,15.4252692 C49.1748048,18.5124852 50.8827528,20.5522812 56.1578688,22.9278852 C61.4341728,25.3038852 64.0933128,25.2310212 68.1186528,25.1205372 C73.1799288,24.9815412 79.4787048,24.8084892 89.0191368,29.1046932 C98.5587768,33.4012932 102.603917,38.2324932 105.854285,42.1140852 C108.439769,45.2016972 110.147321,47.2414932 115.423229,49.6174932 C117.992477,50.7746052 119.848925,52.8631092 120.774377,55.3048452" id="Fill-1361" fill="#FF9357" mask="url(#mask-24)"></path>
                        </g>
                        <g id="Group-1366">
                            <mask id="mask-26" fill="white">
                                <use xlink:href="#path-25"></use>
                            </mask>
                            <g id="Clip-1365"></g>
                            <path d="M128.789536,36.6238224 C129.714988,39.0659544 129.708652,41.8605264 128.55154,44.4293784 C126.238108,49.5674784 120.196732,51.8567544 115.058632,49.5429264 C105.5182,45.2463264 101.473456,40.4151264 98.2230876,36.5331384 C95.6379996,33.4459224 93.9304476,31.4061264 88.6541436,29.0301264 C83.3782356,26.6545224 80.7190956,26.7273864 76.6937556,26.8378704 C71.6328756,26.9768664 65.3340996,27.1499184 55.7936676,22.8533184 C46.2536316,18.5571144 42.2084916,13.7259144 38.9585196,9.8443224 C36.3738276,6.7567104 34.6658796,4.7169144 29.3903676,2.3413104 C24.1156476,-0.0342936 21.4565076,0.0389664 17.4315636,0.1494504 C12.3706836,0.2888424 6.0723036,0.4618944 -3.4673364,-3.8343096 C-13.0073724,-8.1309096 -17.0525124,-12.9617136 -20.3024844,-16.8437016 C-22.8871764,-19.9313136 -24.5951244,-21.9707136 -29.8702404,-24.3463176 C-35.0083404,-26.6605416 -37.2976164,-32.7011256 -34.9837884,-37.8392256 C-32.6703564,-42.9773256 -26.6289804,-45.2666016 -21.4908804,-42.9527736 C-11.9508444,-38.6565696 -7.9061004,-33.8253696 -4.6557324,-29.9437776 C-2.0710404,-26.8565616 -0.3638844,-24.8167656 4.9120236,-22.4407656 C10.1867436,-20.0655576 12.8458836,-20.1384216 16.8708276,-20.2493016 C21.9317076,-20.3882976 28.2300876,-20.5613496 37.7697276,-16.2651456 C47.3101596,-11.9689416 51.3549036,-7.1377416 54.6048756,-3.2557536 C57.1899636,-0.1685376 58.8975156,1.8712584 64.1730276,4.2468624 C69.4489356,6.6228624 72.1084716,6.5499984 76.1334156,6.4395144 C81.1950876,6.3001224 87.4934676,6.1270704 97.0335036,10.4232744 C106.573936,14.7198744 110.619076,19.5514704 113.869048,23.4330624 C116.454532,26.5206744 118.162084,28.5604704 123.437992,30.9364704 C126.00724,32.0935824 127.864084,34.1820864 128.789536,36.6238224" id="Fill-1364" fill="#FFB280" mask="url(#mask-26)"></path>
                        </g>
                    </g>
                </g>
                <path d="M69.313162,400.464195 L41.489014,378.507183 C34.096486,372.673311 32.83285,361.951611 38.666326,354.559083 L60.623734,326.734539 C66.45721,319.342011 77.179306,318.078375 84.571834,323.912247 L112.395982,345.869259 C119.78851,351.702735 121.052146,362.424831 115.21867,369.817359 L93.261658,397.641903 C87.427786,405.034431 76.70569,406.297671 69.313162,400.464195" id="Fill-1368" fill="#FF6700" mask="url(#mask-2)"></path>
                <path d="M203.153796,315.442718 C204.858576,326.153726 197.557128,336.218462 186.84612,337.923242 C176.135112,339.627626 166.06998,332.326574 164.365596,321.615566 C162.660816,310.904558 169.962264,300.839822 180.672876,299.135042 C191.38428,297.430658 201.449016,304.73171 203.153796,315.442718 Z" id="Stroke-1370" stroke="#0C266D" stroke-linecap="round" stroke-linejoin="round" mask="url(#mask-2)"></path>
                <path d="M123.485091,328.121292 C125.189871,338.8323 117.888819,348.897432 107.177415,350.601816 C96.4664068,352.306596 86.4016708,345.005148 84.6972868,334.29414 C82.9925068,323.583132 90.2939548,313.518396 101.004567,311.813616 C111.715575,310.109232 121.780707,317.410284 123.485091,328.121292 Z" id="Stroke-1372" stroke="#0C266D" stroke-linecap="round" stroke-linejoin="round" mask="url(#mask-2)"></path>
                <path d="M173.783664,384.767072 C175.488444,395.47808 168.186996,405.542816 157.475988,407.247596 C146.76498,408.952376 136.700244,401.650928 134.99586,390.93992 C133.29108,380.228912 140.592528,370.164176 151.30314,368.459396 C162.014148,366.755012 172.078884,374.056064 173.783664,384.767072 Z" id="Stroke-1374" stroke="#0C266D" stroke-linecap="round" stroke-linejoin="round" mask="url(#mask-2)"></path>
                <line x1="176.944338" y1="336.948924" x2="161.686062" y2="369.135804" id="Stroke-1376" stroke="#0C266D" stroke-linecap="round" stroke-linejoin="round" mask="url(#mask-2)"></line>
                <line x1="164.365517" y1="321.615527" x2="123.485249" y2="328.121411" id="Stroke-1378" stroke="#0C266D" stroke-linecap="round" stroke-linejoin="round" mask="url(#mask-2)"></line>
                <path d="M139.131764,203.407784 L139.131764,203.407784 C130.37858,203.407784 123.28226,196.31186 123.28226,187.558676 C123.28226,178.805096 130.37858,171.709172 139.131764,171.709172 C147.884948,171.709172 154.980872,178.805096 154.980872,187.558676 C154.980872,196.31186 147.884948,203.407784 139.131764,203.407784" id="Fill-1384" fill="#FF6700" mask="url(#mask-2)"></path>
                <polyline id="Stroke-1390" stroke="#0C266D" stroke-linecap="round" stroke-linejoin="round" mask="url(#mask-2)" points="567.121119 171.460761 564.022419 147.539985 581.245251 163.078629"></polyline>
                <path d="M564.614043,148.842905 C572.456427,160.068713 577.056363,173.727149 577.056363,188.459537 C577.056363,226.710365 546.047979,257.718353 507.797547,257.718353" id="Stroke-1426" stroke="#0C266D" stroke-linecap="round" stroke-linejoin="round" mask="url(#mask-2)"></path>
            </g>
        </g>
    </g>
</svg>