<?xml version="1.0" encoding="UTF-8"?>
<svg width="518px" height="508px" viewBox="0 0 518 508" version="1.1" xmlns="http://www.w3.org/2000/svg" xmlns:xlink="http://www.w3.org/1999/xlink">
    <title>88799321-F866-4D96-AF58-5AF5E88BC7FE</title>
    <defs>
        <path d="M243,0 C377.205986,0 486,108.794014 486,243 C486,377.205986 377.205986,486 243,486 C108.794014,486 0,377.205986 0,243 C0,108.794014 108.794014,0 243,0" id="path-1"></path>
    </defs>
    <g id="screens" stroke="none" stroke-width="1" fill="none" fill-rule="evenodd">
        <g id="1-1-1-home-special" transform="translate(-718.000000, -6699.000000)">
            <g id="home-join-our-expanding" transform="translate(718.000000, 6699.000000)">
                <g id="Fill-1572" transform="translate(14.000000, 22.000000)">
                    <mask id="mask-2" fill="white">
                        <use xlink:href="#path-1"></use>
                    </mask>
                    <use id="Mask" fill="#FFE4D2" xlink:href="#path-1"></use>
                    <path d="M335.65092,399.615513 C335.65092,390.59273 328.546631,383.278412 319.783618,383.278412 L191.504781,383.278412 C182.742879,383.278412 175.639701,390.591586 175.639701,399.613225 L175.639701,400.91731 C175.639701,427.350777 166.536167,452.532779 150.516102,472.32685 C179.249895,484.53835 210.736191,491.278412 243.751778,491.278412 C270.618535,491.278412 296.47095,486.813064 320.652976,478.571588 C330.501435,453.621233 335.65092,426.823995 335.65092,399.615513" fill="#0C266D" mask="url(#mask-2)"></path>
                </g>
                <path d="M285.633209,7.94632425 C277.626576,2.91345171 268.154167,0 258,0 C254.410751,0 250.905719,0.364933387 247.518991,1.05670272 C243.290094,1.92291823 239.243666,3.30445177 235.455906,5.12911871 C234.697952,5.49204697 233.95203,5.87703164 233.212124,6.27605221 C217.002352,15.0825766 206,32.2565022 206,52.0010026 C206,80.718453 229.279991,104 258,104 C281.33413,104 301.079011,88.63069 307.661975,67.4645536 C309.181892,62.5780554 310,57.3847726 310,52.0010026 C310,33.4355178 300.270929,17.1458538 285.633209,7.94632425" id="Fill-2047" fill="#3B7CFF"></path>
                <path d="M297,51.9989931 C297,51.9989931 279.540283,75 257.998995,75 C236.459717,75 219,51.9989931 219,51.9989931 C219,51.9989931 236.459717,29 257.998995,29 C279.540283,29 297,51.9989931 297,51.9989931" id="Fill-2048" fill="#FFFFFF"></path>
                <path d="M269,51.5 C269,57.2995727 264.300029,62 258.50102,62 C252.70201,62 248,57.2995727 248,51.5 C248,45.7004273 252.70201,41 258.50102,41 C264.300029,41 269,45.7004273 269,51.5" id="Fill-2049" fill="#0633EF"></path>
                <path d="M46.720883,292.696672 C33.81884,292.696672 23.3604415,282.237718 23.3604415,269.335675 L0,269.335675 C0,295.139205 20.9173525,316.057113 46.720883,316.057113 C72.5244135,316.057113 93.441766,295.139205 93.441766,269.335675 L70.0813245,269.335675 C70.0813245,282.237718 59.6223705,292.696672 46.720883,292.696672" id="Fill-1574" fill="#FF6700"></path>
                <path d="M46.720883,222.614514 C20.9173525,222.614514 0,243.532977 0,269.335952 L23.3604415,269.335952 C23.3604415,256.433909 33.81884,245.975511 46.720883,245.975511 L46.720883,222.614514 Z" id="Fill-1576" fill="#0633EF"></path>
                <path d="M46.720883,245.975678 C59.6223705,245.975678 70.0813245,256.434076 70.0813245,269.335564 L93.441766,269.335564 C93.441766,243.532589 72.5244135,222.614681 46.720883,222.614681 L46.720883,245.975678 Z" id="Fill-1578" fill="#FFFFFF"></path>
                <path d="M185.866856,220.059603 C185.866856,229.627535 178.110409,237.383981 168.542477,237.383981 C158.974545,237.383981 151.218099,229.627535 151.218099,220.059603 C151.218099,210.491671 158.974545,202.735224 168.542477,202.735224 C178.110409,202.735224 185.866856,210.491671 185.866856,220.059603" id="Fill-1580" fill="#FFB280"></path>
                <polygon id="Fill-1582" fill="#FFB280" points="168.542533 237.383592 194.319399 237.383592 194.319399 202.735391 168.542533 202.735391"></polygon>
                <path d="M297.383981,365.387402 L217.122563,365.387402 C201.78743,365.387402 189.355896,352.955867 189.355896,337.620734 L189.355896,177.23233 C189.355896,161.897753 201.78743,149.466218 217.122563,149.466218 L297.383981,149.466218 C312.719114,149.466218 325.150648,161.897753 325.150648,177.23233 L325.150648,337.620734 C325.150648,352.955867 312.719114,365.387402 297.383981,365.387402" id="Fill-1584" fill="#3B7CFF"></path>
                <path d="M270.36846,333.132628 C270.36846,340.6341 264.287402,346.714603 256.78593,346.714603 C249.284458,346.714603 243.203955,340.6341 243.203955,333.132628 C243.203955,325.631156 249.284458,319.550097 256.78593,319.550097 C264.287402,319.550097 270.36846,325.631156 270.36846,333.132628" id="Fill-1585" fill="#0633EF"></path>
                <path d="M232.077234,280.051436 C228.612581,280.039215 226.067835,276.812871 226.83387,273.43432 C229.930782,259.766798 242.135673,249.570596 256.71977,249.538304 C271.445519,249.506713 283.769287,259.841791 286.790651,273.659853 C287.530022,277.040626 284.960279,280.242528 281.498958,280.22979 L232.077234,280.051436 Z" id="Fill-1586" fill="#FFFFFF"></path>
                <path d="M272.764332,234.734246 C272.764332,243.558919 265.610603,250.712648 256.78593,250.712648 C247.961812,250.712648 240.808083,243.558919 240.808083,234.734246 C240.808083,225.909573 247.961812,218.755844 256.78593,218.755844 C265.610603,218.755844 272.764332,225.909573 272.764332,234.734246" id="Fill-1587" fill="#FFFFFF"></path>
                <path d="M325.15737,364.846012 L293.66663,281.692661 C289.88923,271.718659 294.912617,260.57144 304.886064,256.79404 C314.860066,253.017196 326.007285,258.040027 329.784685,268.014585 L361.275424,351.167935 L325.15737,364.846012 Z" id="Fill-1588" fill="#FFB280"></path>
                <path d="M363.621134,365.090654 C363.621134,387.285101 345.628489,405.277746 323.433487,405.277746 C301.23904,405.277746 283.246395,387.285101 283.246395,365.090654 C283.246395,342.895651 301.23904,324.903006 323.433487,324.903006 C345.628489,324.903006 363.621134,342.895651 363.621134,365.090654" id="Fill-1589" fill="#FFB280"></path>
                <polygon id="Fill-1590" fill="#FFB280" points="221.724436 405.277357 326.250094 405.277357 326.250094 365.386902 221.724436 365.386902"></polygon>
                <path d="M273.655909,173.950936 L240.850301,173.950936 C238.83217,173.950936 237.196222,172.314989 237.196222,170.296857 L237.196222,170.296302 C237.196222,168.27817 238.83217,166.642223 240.850301,166.642223 L273.655909,166.642223 C275.674041,166.642223 277.310544,168.27817 277.310544,170.296302 L277.310544,170.296857 C277.310544,172.314989 275.674041,173.950936 273.655909,173.950936" id="Fill-1591" fill="#0633EF"></path>
                <polyline id="Stroke-1592" stroke="#0C266D" stroke-linecap="round" stroke-linejoin="round" points="167.107199 84.5878068 182.793963 68.7032843 160.509525 69.7070728"></polyline>
                <polyline id="Stroke-1593" stroke="#0C266D" stroke-linecap="round" stroke-linejoin="round" points="439.114362 191.9808 453.214063 210.101765 455.171645 187.24294"></polyline>
                <path d="M181.145106,69.3900045 C122.770944,92.2299425 78.2376199,141.708883 61.6948299,202.235608" id="Stroke-1594" stroke="#0C266D" stroke-linecap="round" stroke-linejoin="round"></path>
                <path d="M329.815904,72.2548291 C389.852122,95.7447021 435.652541,145.339742 452.66584,207.588517" id="Stroke-1595" stroke="#0C266D" stroke-linecap="round" stroke-linejoin="round"></path>
                <path d="M517.679694,269.114958 C517.679694,294.796497 496.86068,315.614958 471.179694,315.614958 C445.498156,315.614958 424.679694,294.796497 424.679694,269.114958 C424.679694,243.433972 445.498156,222.614958 471.179694,222.614958 C496.86068,222.614958 517.679694,243.433972 517.679694,269.114958" id="Fill-1598" fill="#FF6700"></path>
                <path d="M482.663062,248.691739 L482.663062,248.691739 C476.443129,248.691739 471.400855,253.734568 471.400855,259.954502 C471.400855,253.734568 466.358026,248.691739 460.138093,248.691739 C450.774029,248.691739 445.499557,259.454552 451.236761,266.854923 L467.792327,288.211676 C469.620478,290.569218 473.180677,290.569218 475.008272,288.211676 L491.564394,266.854923 C497.301598,259.454552 492.027126,248.691739 482.663062,248.691739" id="Fill-1599" fill="#FFFFFF"></path>
                <path d="M195.05427,271.544287 L184.913618,271.544287 C175.480117,271.544287 167.833104,263.896719 167.833104,254.464329 C167.833104,245.030828 175.480117,237.383815 184.913618,237.383815 L195.05427,237.383815 C204.487216,237.383815 212.134229,245.030828 212.134229,254.464329 C212.134229,263.896719 204.487216,271.544287 195.05427,271.544287" id="Fill-1600" fill="#FFB280"></path>
                <path d="M195.05427,301.063335 L184.913618,301.063335 C175.480117,301.063335 167.833104,293.415766 167.833104,283.983376 C167.833104,274.549875 175.480117,266.902862 184.913618,266.902862 L195.05427,266.902862 C204.487216,266.902862 212.134229,274.549875 212.134229,283.983376 C212.134229,293.415766 204.487216,301.063335 195.05427,301.063335" id="Fill-1601" fill="#FFB280"></path>
                <path d="M195.05427,331.375526 L184.913618,331.375526 C175.480117,331.375526 167.833104,323.728513 167.833104,314.295567 C167.833104,304.862066 175.480117,297.215609 184.913618,297.215609 L195.05427,297.215609 C204.487216,297.215609 212.134229,304.862066 212.134229,314.295567 C212.134229,323.728513 204.487216,331.375526 195.05427,331.375526" id="Fill-1602" fill="#FFB280"></path>
                <line x1="178.767677" y1="269.218631" x2="201.199878" y2="269.218631" id="Stroke-1603" stroke="#FF9357" stroke-linecap="round" stroke-linejoin="round"></line>
                <line x1="178.767677" y1="299.300289" x2="201.199878" y2="299.300289" id="Stroke-1604" stroke="#FF9357" stroke-linecap="round" stroke-linejoin="round"></line>
                <path d="M288.622624,385.877464 C284.588583,378.658741 282.745076,370.234732 283.5,362" id="Stroke-1605" stroke="#FF9357" stroke-linecap="round" stroke-linejoin="round"></path>
            </g>
        </g>
    </g>
</svg>