<svg xmlns="http://www.w3.org/2000/svg" xmlns:xlink="http://www.w3.org/1999/xlink" width="79" height="105" viewBox="0 0 79 105">
    <defs>
        <path id="6kcaq1kuha" d="M0 0.039L37.578 0.039 37.578 45.542 0 45.542z"/>
    </defs>
    <g fill="none" fill-rule="evenodd">
        <g>
            <g>
                <g>
                    <g>
                        <path fill="#FF6700" d="M58.827 47.164v-.004c8.119-.18 14.646-6.823 14.646-14.992 0-8.282-6.71-14.996-14.985-14.996-8.276 0-14.985 6.714-14.985 14.996 0 .077.002.154.003.23 0 .01-.003.019-.003.029v40.55c0 .204.166.37.37.37.205 0 .37-.166.37-.37v-21.47s.076-4.343 6.484-4.343h8.1z" transform="translate(-103 -738) translate(103 735) translate(0 3) translate(2.469 2.47)"/>
                        <g transform="translate(-103 -738) translate(103 735) translate(0 3) translate(2.469 2.47) translate(0 27.805)">
                            <mask id="kkcar3leib" fill="#fff">
                                <use xlink:href="#6kcaq1kuha"/>
                            </mask>
                            <path fill="#FF6700" d="M36.838 45.171c0 .205.165.37.37.37.204 0 .37-.165.37-.37V19.366c0-.02-.003-.04-.006-.058.004-.155.006-.31.006-.466C37.578 8.457 29.166.039 18.79.039S0 8.457 0 18.842c0 10.32 8.308 18.696 18.596 18.8l-.003.003h12.36s5.885-.141 5.885 4.639v2.887z" mask="url(#kkcar3leib)"/>
                        </g>
                        <path fill="#FF6700" d="M27.774 27.126c.176 0 .35-.005.523-.012h5.087c.96 0 1.914.206 2.774.635 1.354.674 2.901 2.034 2.901 4.73v40.497c0 .205.166.37.37.37.205 0 .371-.165.371-.37V15.66c0-.03-.004-.058-.01-.085.006-.16.01-.32.01-.483 0-6.646-5.384-12.034-12.026-12.034-6.642 0-12.026 5.388-12.026 12.034 0 6.647 5.384 12.035 12.026 12.035M41.652 73.347c.204 0 .37-.166.37-.37V21.894c-.009-2.99.507-4.865 1.134-6.04.621-1.166 1.804-1.924 3.12-2.036l1.832-.156c3.77 0 6.826-3.058 6.826-6.831C54.934 3.059 51.878 0 48.108 0c-3.77 0-6.827 3.059-6.827 6.832 0 .099.003.197.008.296-.005.024-.008.049-.008.074v65.774c0 .205.166.37.37.37M28.516 97.167c-2.666-.036-4.656-2.03-4.623-4.631.035-2.654 1.965-4.533 4.635-4.514 2.541.019 4.564 2.062 4.544 4.59-.02 2.585-2.025 4.588-4.556 4.555m-.057-11.213c-3.79.01-6.65 2.878-6.642 6.66.008 3.645 2.957 6.58 6.624 6.591 3.68.011 6.702-2.986 6.673-6.616-.03-3.705-2.978-6.644-6.655-6.635M64.274 97.167c-2.668-.042-4.65-2.029-4.623-4.637.026-2.626 1.99-4.53 4.65-4.508 2.537.02 4.571 2.08 4.542 4.595-.03 2.586-2.041 4.589-4.569 4.55m.003-11.213c-3.794-.006-6.69 2.85-6.7 6.609-.01 3.673 2.95 6.634 6.641 6.642 3.662.008 6.645-2.937 6.65-6.566.004-3.708-2.925-6.68-6.591-6.685M41.652 87.99c.562-.173 1.164-.225 1.752-.301.417-.055 1.044.098 1.212-.12.224-.291.08-.854.118-1.298.035-.411-.094-.61-.545-.573-.346.03-.697.004-1.046-.01-4.089-.178-7.551 3.466-6.587 8.124.653 3.161 3.301 5.123 6.69 5.076.35 0 .699-.013 1.047.003.31.014.456-.093.44-.42-.017-.346-.022-.696.002-1.042.027-.392-.096-.522-.519-.522-.714 0-1.445-.017-2.138-.168-2.167-.474-3.55-2.088-3.639-4.147-.095-2.214 1.095-3.95 3.213-4.602M55.364 97.396c.04-.438-.17-.477-.544-.485-.714-.014-1.444-.024-2.135-.178-2.154-.481-3.546-2.124-3.615-4.163-.075-2.22 1.12-3.944 3.233-4.585.542-.166 1.122-.221 1.689-.294.436-.056.88-.06 1.32-.088.016-.467.018-.935.05-1.4.025-.361-.086-.53-.48-.504-.366.025-.737.005-1.106-.012-4.069-.185-7.655 3.494-6.541 8.294.718 3.095 3.307 4.948 6.632 4.965.48-.05 1.117.062 1.395-.201.242-.23.06-.885.102-1.349M19.477 86.033c-.93.236-1.756.681-2.525 1.238-.238.172-.395.236-.402-.164-.005-.32.066-.79-.106-.921-.227-.174-.658-.083-1.002-.102-.102-.006-.205-.002-.308-.001-.558.008-.57.008-.572.586-.006 1.963-.002 3.927-.002 5.89h-.011v5.154c0 1.393 0 1.393 1.389 1.377.61-.007.621-.007.622-.605.002-2.087.048-4.174-.02-6.258-.073-2.25 1.486-3.863 3.488-4.259.412-.082.571-.233.544-.628-.01-.142.01-.286.015-.429.044-1.176.045-1.17-1.11-.878" transform="translate(-103 -738) translate(103 735) translate(0 3) translate(2.469 2.47)"/>
                    </g>
                </g>
            </g>
        </g>
    </g>
</svg>
