<svg xmlns="http://www.w3.org/2000/svg" xmlns:xlink="http://www.w3.org/1999/xlink" width="40" height="40" viewBox="0 0 40 40">
  <defs>
    <path id="mark-color-a" d="M40,20 C40,31.0459455 31.0459455,40 20,40 C8.95405447,40 0,31.0459455 0,20 C0,8.95405447 8.95405447,0 20,0 C31.0459455,0 40,8.95405447 40,20"/>
  </defs>
  <g fill="none" fill-rule="evenodd">
    <mask id="mark-color-b" fill="#fff">
      <use xlink:href="#mark-color-a"/>
    </mask>
    <use fill="#FFF" xlink:href="#mark-color-a"/>
    <path fill="#FF6700" d="M26 40C34.7025038 37.1380613 41 30.8208141 41 20.9995804 41 11.1791859 34.7025038 2.86193873 26 0L26 40zM1 13C8.35832491 12.3103734 14.6854148 8.81493776 16 0 9.1916139 1.50954357 3.60682169 6.44979253 1 13M0 19.6224738C0 28.6843192 5.45783 36.3591238 13 39L13 18 .0649571711 18C.0256973424 18.5359198 0 19.0757118 0 19.6224738" mask="url(#mark-color-b)"/>
  </g>
</svg>
