<svg xmlns="http://www.w3.org/2000/svg" xmlns:xlink="http://www.w3.org/1999/xlink" width="384" height="285" viewBox="0 0 384 285">
  <defs>
    <path id="music-video-a" d="M0.80224241,2.6304217 L0.164954558,12.1318042 C-0.651771667,30.3572712 9.90692935,43.2703968 18.8921248,50.8900904 L18.8921248,50.8900904 L21.3020707,52.9262734 C25.7960765,56.7242515 28.1303847,62.4932354 27.5409739,68.3479152 L27.5409739,68.3479152 L25.2199426,91.4210346 C24.8260633,94.3556164 27.1044478,96.9667263 30.0655833,96.9743706 L30.0655833,96.9743706 L62.129933,97.0508129 C65.9653277,97.0596642 68.8572627,93.5702718 68.1378999,89.8032729 L68.1378999,89.8032729 L65.5404691,72.7357065 C74.6190047,78.5964212 74.1181061,88.000038 74.1474761,97.0439734 L74.1474761,97.0439734 C74.14989,97.6728123 74.1152898,98.3020536 74.0529289,98.9280763 L74.0529289,98.9280763 L73.7596317,102.194177 C73.6071493,103.735898 74.7445311,105.105021 76.2886667,105.235375 L76.2886667,105.235375 L88.1050456,105.72863 C89.6214206,105.857777 90.9587595,104.742121 91.1044023,103.226953 L91.1044023,103.226953 L91.8133046,95.5815104 C93.1997275,77.3902413 84.191197,64.6798891 75.4486054,56.7833937 L75.4486054,56.7833937 C75.43211,56.7685076 74.2882909,55.8326922 73.5029463,55.2726514 L73.5029463,55.2726514 C67.9254706,51.2940279 61.6105273,48.4680747 54.9395236,46.907846 L54.9395236,46.907846 C50.7569198,45.9293838 46.5948346,44.9573589 46.361082,44.9058609 L46.361082,44.9058609 L46.361082,44.9054586 C30.4091716,40.8363113 19.5290103,26.9962215 18.9641416,10.638362 L18.9641416,10.638362 C18.9424158,10.0091207 19.3580209,3.64107012 19.3580209,3.64107012 L19.3580209,3.64107012 C19.4630285,2.09532521 18.2825976,0.763216576 16.7356457,0.680336969 L16.7356457,0.680336969 L3.72193808,0.0362095371 C3.67124473,0.0333932398 3.62135604,0.0321862552 3.57146734,0.0321862552 L3.57146734,0.0321862552 C2.11705093,0.0321862552 0.896789535,1.16192381 0.80224241,2.6304217 L0.80224241,2.6304217 Z"/>
    <path id="music-video-c" d="M83.9578467,0.395488611 L72.35269,3.21460224 C70.4565173,3.67526801 69.2567746,5.54488711 69.6257095,7.46077395 L69.6257095,7.46077395 C69.6462283,7.56739092 69.6615168,7.64866122 69.6695633,7.69854991 L69.6695633,7.69854991 C71.8365029,20.8265187 66.9719528,34.2554291 56.6594766,42.9469249 L56.6594766,42.9469249 L1.71955068,89.2295529 C0.101789032,90.5853989 -0.0897191863,93.004196 1.29469211,94.5974156 L1.29469211,94.5974156 L8.92404158,103.372193 C10.2541386,104.903455 12.5558581,105.109447 14.1366056,103.838894 L14.1366056,103.838894 L44.8587885,78.2343258 L44.9046539,78.4419272 C49.775239,100.488707 36.7313567,122.538304 15.0647767,128.88664 L15.0647767,128.88664 L15.0643744,128.88664 L15.828798,130.032873 C35.5714446,159.630549 73.6493938,170.902578 106.31281,156.798158 L106.31281,156.798158 C106.468511,156.730567 106.621798,156.664585 106.771867,156.599408 L106.771867,156.599408 L106.771867,150.424073 C106.771867,127.212955 94.2059503,105.820763 73.9326328,94.5185593 L73.9326328,94.5185593 C79.1053664,83.8278946 78.84506,71.3058321 73.2321794,60.8392642 L73.2321794,60.8392642 L70.9248273,56.5367665 L71.8948405,55.6673353 C86.6031545,42.4894778 92.9273513,22.3235819 88.3790311,3.10637595 L88.3790311,3.10637595 C87.9807262,1.42383946 86.4792374,0.291285609 84.8236569,0.291285609 L84.8236569,0.291285609 C84.5380039,0.291285609 84.2479253,0.324678849 83.9578467,0.395488611"/>
    <path id="music-video-e" d="M83.9578467,0.395488611 L72.35269,3.21460224 C70.4565173,3.67526801 69.2567746,5.54488711 69.6257095,7.46077395 L69.6257095,7.46077395 C69.6462283,7.56739092 69.6615168,7.64866122 69.6695633,7.69854991 L69.6695633,7.69854991 C71.8365029,20.8265187 66.9719528,34.2554291 56.6594766,42.9469249 L56.6594766,42.9469249 L1.71955068,89.2295529 C0.101789032,90.5853989 -0.0897191863,93.004196 1.29469211,94.5974156 L1.29469211,94.5974156 L8.92404158,103.372193 C10.2541386,104.903455 12.5558581,105.109447 14.1366056,103.838894 L14.1366056,103.838894 L44.8587885,78.2343258 L44.9046539,78.4419272 C49.775239,100.488707 36.7313567,122.538304 15.0647767,128.88664 L15.0647767,128.88664 L15.0643744,128.88664 L15.828798,130.032873 C35.5714446,159.630549 73.6493938,170.902578 106.31281,156.798158 L106.31281,156.798158 C106.468511,156.730567 106.621798,156.664585 106.771867,156.599408 L106.771867,156.599408 L106.771867,150.424073 C106.771867,127.212955 94.2059503,105.820763 73.9326328,94.5185593 L73.9326328,94.5185593 C79.1053664,83.8278946 78.84506,71.3058321 73.2321794,60.8392642 L73.2321794,60.8392642 L70.9248273,56.5367665 L71.8948405,55.6673353 C86.6031545,42.4894778 92.9273513,22.3235819 88.3790311,3.10637595 L88.3790311,3.10637595 C87.9807262,1.42383946 86.4792374,0.291285609 84.8236569,0.291285609 L84.8236569,0.291285609 C84.5380039,0.291285609 84.2479253,0.324678849 83.9578467,0.395488611"/>
    <path id="music-video-g" d="M83.9578467,0.395488611 L72.35269,3.21460224 C70.4565173,3.67526801 69.2567746,5.54488711 69.6257095,7.46077395 L69.6257095,7.46077395 C69.6462283,7.56739092 69.6615168,7.64866122 69.6695633,7.69854991 L69.6695633,7.69854991 C71.8365029,20.8265187 66.9719528,34.2554291 56.6594766,42.9469249 L56.6594766,42.9469249 L1.71955068,89.2295529 C0.101789032,90.5853989 -0.0897191863,93.004196 1.29469211,94.5974156 L1.29469211,94.5974156 L8.92404158,103.372193 C10.2541386,104.903455 12.5558581,105.109447 14.1366056,103.838894 L14.1366056,103.838894 L44.8587885,78.2343258 L44.9046539,78.4419272 C49.775239,100.488707 36.7313567,122.538304 15.0647767,128.88664 L15.0647767,128.88664 L15.0643744,128.88664 L15.828798,130.032873 C35.5714446,159.630549 73.6493938,170.902578 106.31281,156.798158 L106.31281,156.798158 C106.468511,156.730567 106.621798,156.664585 106.771867,156.599408 L106.771867,156.599408 L106.771867,150.424073 C106.771867,127.212955 94.2059503,105.820763 73.9326328,94.5185593 L73.9326328,94.5185593 C79.1053664,83.8278946 78.84506,71.3058321 73.2321794,60.8392642 L73.2321794,60.8392642 L70.9248273,56.5367665 L71.8948405,55.6673353 C86.6031545,42.4894778 92.9273513,22.3235819 88.3790311,3.10637595 L88.3790311,3.10637595 C87.9807262,1.42383946 86.4792374,0.291285609 84.8236569,0.291285609 L84.8236569,0.291285609 C84.5380039,0.291285609 84.2479253,0.324678849 83.9578467,0.395488611"/>
    <path id="music-video-i" d="M83.9578467,0.395488611 L72.35269,3.21460224 C70.4565173,3.67526801 69.2567746,5.54488711 69.6257095,7.46077395 L69.6257095,7.46077395 C69.6462283,7.56739092 69.6615168,7.64866122 69.6695633,7.69854991 L69.6695633,7.69854991 C71.8365029,20.8265187 66.9719528,34.2554291 56.6594766,42.9469249 L56.6594766,42.9469249 L1.71955068,89.2295529 C0.101789032,90.5853989 -0.0897191863,93.004196 1.29469211,94.5974156 L1.29469211,94.5974156 L8.92404158,103.372193 C10.2541386,104.903455 12.5558581,105.109447 14.1366056,103.838894 L14.1366056,103.838894 L44.8587885,78.2343258 L44.9046539,78.4419272 C49.775239,100.488707 36.7313567,122.538304 15.0647767,128.88664 L15.0647767,128.88664 L15.0643744,128.88664 L15.828798,130.032873 C35.5714446,159.630549 73.6493938,170.902578 106.31281,156.798158 L106.31281,156.798158 C106.468511,156.730567 106.621798,156.664585 106.771867,156.599408 L106.771867,156.599408 L106.771867,150.424073 C106.771867,127.212955 94.2059503,105.820763 73.9326328,94.5185593 L73.9326328,94.5185593 C79.1053664,83.8278946 78.84506,71.3058321 73.2321794,60.8392642 L73.2321794,60.8392642 L70.9248273,56.5367665 L71.8948405,55.6673353 C86.6031545,42.4894778 92.9273513,22.3235819 88.3790311,3.10637595 L88.3790311,3.10637595 C87.9807262,1.42383946 86.4792374,0.291285609 84.8236569,0.291285609 L84.8236569,0.291285609 C84.5380039,0.291285609 84.2479253,0.324678849 83.9578467,0.395488611"/>
    <path id="music-video-k" d="M83.9578467,0.395488611 L72.35269,3.21460224 C70.4565173,3.67526801 69.2567746,5.54488711 69.6257095,7.46077395 L69.6257095,7.46077395 C69.6462283,7.56739092 69.6615168,7.64866122 69.6695633,7.69854991 L69.6695633,7.69854991 C71.8365029,20.8265187 66.9719528,34.2554291 56.6594766,42.9469249 L56.6594766,42.9469249 L1.71955068,89.2295529 C0.101789032,90.5853989 -0.0897191863,93.004196 1.29469211,94.5974156 L1.29469211,94.5974156 L8.92404158,103.372193 C10.2541386,104.903455 12.5558581,105.109447 14.1366056,103.838894 L14.1366056,103.838894 L44.8587885,78.2343258 L44.9046539,78.4419272 C49.775239,100.488707 36.7313567,122.538304 15.0647767,128.88664 L15.0647767,128.88664 L15.0643744,128.88664 L15.828798,130.032873 C35.5714446,159.630549 73.6493938,170.902578 106.31281,156.798158 L106.31281,156.798158 C106.468511,156.730567 106.621798,156.664585 106.771867,156.599408 L106.771867,156.599408 L106.771867,150.424073 C106.771867,127.212955 94.2059503,105.820763 73.9326328,94.5185593 L73.9326328,94.5185593 C79.1053664,83.8278946 78.84506,71.3058321 73.2321794,60.8392642 L73.2321794,60.8392642 L70.9248273,56.5367665 L71.8948405,55.6673353 C86.6031545,42.4894778 92.9273513,22.3235819 88.3790311,3.10637595 L88.3790311,3.10637595 C87.9807262,1.42383946 86.4792374,0.291285609 84.8236569,0.291285609 L84.8236569,0.291285609 C84.5380039,0.291285609 84.2479253,0.324678849 83.9578467,0.395488611"/>
  </defs>
  <g fill="none" fill-rule="evenodd">
    <polygon points="0 0 384 0 384 285 0 285"/>
    <path fill="#FFB280" d="M225.890775,77.6646879 C225.078072,76.6395557 223.565318,76.5067874 222.525299,77.3005809 L221.085367,78.3997415 L223.600723,68.1806055 C223.930229,66.9140764 223.158564,65.6197866 221.88077,65.3120055 C220.626713,65.009857 219.370644,65.8261809 219.045563,67.0750076 L217.461999,73.1578075 C217.051624,72.316137 216.147995,71.7371867 215.066537,71.8530572 C214.017265,71.9657091 213.191285,72.805368 213.035987,73.8494097 L213.03317,73.8683191 C212.59423,73.0375114 211.678934,72.5181057 210.690011,72.6339762 C209.487452,72.7751934 208.605549,73.8023373 208.61963,74.9863892 C208.085338,74.4858929 207.326145,74.2404727 206.553675,74.396576 L206.553675,74.396576 C206.008118,74.5064116 205.545038,74.7980996 205.214727,75.1951975 C204.777798,75.7218451 204.57422,76.4335637 204.719863,77.1565474 L204.769752,77.4043816 L205.908743,83.0530694 C206.268827,84.8381995 206.386306,86.6639649 206.257159,88.4804766 L206.061225,91.2432643 L218.714447,92.1404562 C218.714447,92.1404562 218.714447,92.1400539 218.714849,92.1392492 C219.037114,88.1055068 221.058813,84.3976502 224.275025,81.9426436 L225.471146,81.0297609 C226.525649,80.2247022 226.718766,78.7091319 225.890775,77.6646879"/>
    <polygon fill="#FFB280" points="285.976 268.577 271.44 273.231 269.235 266.345 283.772 261.691"/>
    <polygon fill="#FF9357" points="287.629 273.74 273.093 278.394 270.888 271.508 285.425 266.854"/>
    <path fill="#0C266D" d="M305.726407,271.878402 C305.087107,269.892108 303.297149,268.499248 301.214699,268.367284 L287.199998,267.481358 C285.45148,267.37112 284.140293,269.055668 284.677401,270.723721 L285.044726,271.865528 L284.845574,271.850239 C280.247365,271.49257 275.723184,273.164646 272.463522,276.427527 L274.250663,282.009026 L305.726407,271.878402 Z"/>
    <path fill="#3B7CFF" d="M303.452287,276.311093 L278.762613,284.23535 C276.904259,284.832002 274.907907,283.846298 274.250502,282.008865 L276.456468,281.298756 L305.726246,271.878241 C306.322496,273.73056 305.304204,275.715245 303.452287,276.311093"/>
    <path stroke="#3B7CFF" stroke-width=".5" d="M298.405925 266.193545C297.821744 266.812326 294.612372 267.967008 294.612372 267.967008 294.612372 267.967008 295.579569 264.696482 296.16375 264.077299 296.748333 263.458116 297.723979 263.429953 298.343162 264.014536 298.961942 264.598716 298.990508 265.574362 298.405925 266.193545zM290.812543 269.879354C291.397931 269.261378 294.608912 268.111122 294.608912 268.111122 294.608912 268.111122 293.636887 271.380441 293.0515 271.998819 292.466515 272.617198 291.490869 272.643751 290.87249 272.058364 290.254112 271.473379 290.227156 270.497733 290.812543 269.879354z"/>
    <path fill="#0633EF" d="M262.554701,183.659699 L241.290449,190.467494 L265.314673,265.506932 C265.932649,267.436498 267.998202,268.500656 269.928572,267.88268 L284.202774,263.312634 C286.133145,262.694658 287.196901,260.629105 286.578924,258.698734 L262.554701,183.659699 Z"/>
    <polygon fill="#FFB280" points="239.133 275.155 237.344 269.906 235.582 264.698 221.332 269.364 224.391 278.015"/>
    <polygon fill="#FF9357" points="240.131 277.917 238.313 272.677 236.524 267.48 222.414 272.543 225.404 280.857"/>
    <path fill="#FFB280" d="M275.793994,200.135924 L278.049446,196.398295 C279.22867,194.444589 279.919468,192.233393 280.063501,189.953802 L280.174946,188.192811 L290.466501,188.79389 L290.330514,194.269174 C290.248439,195.862394 290.988723,197.38601 292.289852,198.301307 L295.677053,200.685504 C296.693737,201.401246 289.661442,200.158856 289.661442,200.158856 L275.793994,200.135924 Z"/>
    <path fill="#0C266D" d="M275.952914,198.082239 L294.248386,198.79597 C295.647683,198.850686 296.737591,200.029105 296.683276,201.428001 L296.441075,207.687423 C296.387163,209.087525 295.208341,210.177834 293.808641,210.12352 L275.513169,209.409387 C274.113872,209.355073 273.023965,208.176654 273.077877,206.777356 L273.320481,200.518337 C273.374393,199.118234 274.553214,198.027523 275.952914,198.082239"/>
    <path fill="#FFB280" d="M287.945593 199.45619L290.703955 196.797203C291.533958 195.996972 292.85279 196.024331 293.6494 196.857552 294.44601 197.690774 294.419054 199.015238 293.589051 199.815469L290.830286 202.474054C290.000685 203.273882 288.681854 203.246926 287.885244 202.413705 287.088634 201.580081 287.11559 200.256019 287.945593 199.45619M289.886304 206.965686L289.886304 206.965686C291.022881 207.009942 291.908405 207.967081 291.864551 209.103658L291.808225 210.55566C291.763969 211.69264 290.806428 212.578567 289.669449 212.53431 288.532871 212.490054 287.647347 211.532916 287.691201 210.396338L287.747527 208.944336C287.791381 207.807357 288.748922 206.92143 289.886304 206.965686"/>
    <path fill="#FFB280" d="M285.928641,206.811272 L285.928641,206.811272 C287.065218,206.855529 287.950743,207.812667 287.906889,208.949244 L287.850563,210.401247 C287.806709,211.538226 286.849168,212.424153 285.711786,212.379897 C284.575209,212.335641 283.689685,211.378502 283.733539,210.241925 L283.789865,208.789922 C283.833718,207.652943 284.791662,206.767016 285.928641,206.811272"/>
    <path fill="#FFB280" d="M281.97114,206.656859 L281.97114,206.656859 C283.107717,206.701115 283.993242,207.658254 283.949388,208.794831 L283.893062,210.246833 C283.849208,211.383813 282.891667,212.269739 281.754285,212.225483 C280.617708,212.181227 279.732184,211.224088 279.776038,210.087511 L279.832363,208.635509 C279.876217,207.498529 280.833758,206.612603 281.97114,206.656859"/>
    <path fill="#FFB280" d="M278.013478,206.502445 L278.013478,206.502445 C279.150055,206.546701 280.035579,207.50384 279.991726,208.640417 L279.9354,210.09242 C279.891546,211.229399 278.934005,212.115326 277.796623,212.07107 C276.660046,212.026814 275.774522,211.069675 275.818375,209.933098 L275.874701,208.481095 C275.918555,207.344116 276.876498,206.458189 278.013478,206.502445"/>
    <line x1="267.078" x2="265.138" y1="112.595" y2="113.458" stroke="#3B7CFF" stroke-width=".5"/>
    <path fill="#0633EF" d="M261.946864,181.022961 L261.946864,181.022961 C263.614916,187.483949 261.083065,194.287721 255.619046,198.117483 C252.077753,200.600251 247.974408,203.870776 244.153497,207.886816 C233.782281,219.699574 229.594447,236.100483 234.289617,251.522527 C234.513714,252.258788 237.316734,259.948084 237.316734,259.948084 C238.124207,261.877248 237.513875,263.948836 235.573849,264.72895 L221.414713,269.644998 C219.508884,270.411433 217.341542,269.500562 216.554588,267.603585 L212.49228,256.914932 C204.140752,235.60401 211.086143,215.34759 218.67003,202.660976 C218.684514,202.636836 218.67003,202.660976 218.685318,202.635629 C222.232244,196.77773 230.100978,184.635466 235.775013,180.62023 L259.259311,172.87501 L261.946864,181.022961 Z"/>
    <path fill="#0C266D" d="M224.881213,274.410656 L224.754479,274.472615 L224.754479,273.273274 C224.754479,271.521135 222.989868,270.318978 221.359232,270.959887 L209.639814,276.096813 C207.697776,276.860432 206.420786,278.734477 206.420786,280.821353 L241.134064,280.821353 L238.896717,274.387723 C234.468693,272.245728 229.302397,272.254579 224.881213,274.410656"/>
    <path fill="#FFE4D2" d="M264.534317,101.696716 L264.395514,101.696716 L264.509775,101.934492 C264.516212,101.855234 264.524259,101.775573 264.534317,101.696716"/>
    <g transform="translate(202.086 87.128)">
      <mask id="music-video-b" fill="#fff">
        <use xlink:href="#music-video-a"/>
      </mask>
      <polygon fill="#FF9357" points="-12.438 114.262 130.179 114.262 130.179 -5.229 -12.438 -5.229" mask="url(#music-video-b)"/>
      <path fill="#FF6700" d="M14.2517922,36.9752883 L35.3881036,68.1746325 C32.1304523,65.6299067 27.8790503,64.3698148 23.4671194,65.0240004 C21.1480997,65.367991 19.0258185,66.2076499 17.1867763,67.4154392 C17.6418095,66.2869086 17.8136036,65.0276214 17.6220954,63.7373549 L13.459608,35.6725496 C13.7006025,36.114306 13.9637252,36.5496251 14.2517922,36.9752883 L14.2517922,36.9752883 Z M-5.70207674,74.3499678 L11.661201,71.7742628 C12.1331319,71.7042577 12.5873604,71.5883872 13.0202656,71.4330885 C10.7611928,74.6094695 9.67571134,78.6267165 10.2924805,82.78679 C11.4970511,90.9069798 18.7413724,96.6325123 26.7911549,96.0925879 L8.80628012,102.329882 L11.4777393,120.345333 L81.7491856,109.922619 C83.8738808,101.559423 84.428289,92.3042656 83.0623848,82.079497 C82.6994848,79.3645864 79.9499739,77.6567032 77.3626013,78.5546998 L34.629715,93.3744586 C39.3852342,90.0950816 42.134745,84.298337 41.2303113,78.1986393 C40.9374163,76.2232079 40.2828284,74.3914077 39.3502316,72.7547366 C44.563198,76.9035449 52.0658141,77.3947876 57.8730192,73.4608225 L90.1791681,51.5745714 C90.2105497,51.553248 90.2399197,51.5303152 90.270899,51.5089919 C84.1579245,58.5111117 81.0358577,68.0466921 82.5063672,77.961668 C84.6902047,92.6852704 96.320708,103.669635 110.336615,105.682885 L120.550119,104.168522 L111.107074,40.4996833 C110.80573,40.5362951 110.503984,40.5757233 110.201835,40.6207841 C104.050237,41.5328621 98.5516178,44.0944856 94.0869819,47.7898701 C97.831048,42.610297 98.1508989,35.4371877 94.3585534,29.8391932 L78.2312279,6.03423889 L109.426951,29.1713284 L104.373307,-4.90345528 L74.0836266,-0.41146104 C74.0860406,-0.295992849 74.0912708,-0.180926987 74.0993174,-0.0654587965 L73.8848765,-0.382091082 L32.4104727,5.76950694 L18.4311774,15.2399102 C14.913622,17.6224977 12.6766773,21.1863208 11.8832861,25.0430389 L7.02798952,-3.92740709 L-15.3583556,9.24320853 L-5.70207674,74.3499678 Z" mask="url(#music-video-b)"/>
      <path fill="#FF9357" d="M10.0788442,65.181874 C10.0788442,62.2750528 11.2282958,59.6385962 13.0950986,57.696558 C12.7832943,57.7585166 12.4610294,57.7919098 12.1311203,57.7919098 L7.08069451,57.7919098 L7.08069451,78.3923201 L20.0091086,75.9517973 C14.4509446,75.5044084 10.0788442,70.8555061 10.0788442,65.181874" mask="url(#music-video-b)"/>
      <path fill="#FFE4D2" d="M62.1267144,14.7702323 L61.9879112,14.7702323 L62.1021724,15.0080082 C62.1086096,14.9287496 62.1166562,14.8490886 62.1267144,14.7702323" mask="url(#music-video-b)"/>
    </g>
    <path fill="#FFB280" d="M264.210362,126.465045 C260.338758,130.670582 253.791269,130.940947 249.585732,127.069342 C245.380196,123.197738 245.109429,116.649847 248.981033,112.44431 C252.85304,108.239176 259.400529,107.968409 263.606065,111.840013 C267.811602,115.711618 268.081966,122.259509 264.210362,126.465045"/>
    <path fill="#0C266D" d="M253.800523,108.662425 L253.804144,108.631044 C254.266419,104.370388 258.623231,101.69048 262.634443,103.199211 C266.28195,104.571552 267.935921,108.802838 266.185391,112.284586 L265.112784,114.418937"/>
    <path fill="#FFB280" d="M246.89472,111.897184 C246.531418,112.291868 246.786896,113.118653 247.466026,113.743871 C248.144754,114.369089 248.990045,114.555367 249.353348,114.160683 C249.717052,113.765999 249.461172,112.939214 248.782042,112.313996 C248.103314,111.688778 247.258023,111.5025 246.89472,111.897184"/>
    <path fill="#0C266D" d="M250.519013 114.727201C250.288881 114.977449 250.304975 115.366903 250.55482 115.597035 250.805069 115.827166 251.194522 115.811073 251.424654 115.561227 251.655188 115.310979 251.639095 114.921526 251.388847 114.691394 251.139001 114.461262 250.749145 114.477355 250.519013 114.727201M266.153245 113.022818C265.983463 112.763316 265.804427 112.514275 265.616942 112.27489 265.615735 112.273683 265.61493 112.272476 265.613723 112.270867 265.523602 112.156203 265.431066 112.043149 265.337324 111.933313 265.329277 111.92406 265.321633 111.914806 265.313586 111.905553 264.726187 111.22079 264.066771 110.624137 263.353041 110.120423 263.352639 110.12002 263.352236 110.119618 263.351834 110.119216 260.597495 108.17597 257.045742 107.614723 253.800161 108.661983 252.960904 111.903139 254.815637 119.875272 254.950417 120.375768 255.640007 119.884525 256.567374 119.727617 257.468187 120.096955 258.40883 120.482787 259.042094 121.429868 259.049336 122.446954 259.053762 123.072172 258.849379 123.628189 258.509814 124.065922 257.315704 125.606437 256.669565 127.501 256.710603 129.449476 256.715431 129.667538 256.719454 129.79588 256.722672 129.799501L257.666132 129.787431C258.249508 129.756854 258.838114 129.671963 259.421088 129.537183 260.373398 129.316305 261.31203 128.961854 262.197554 128.489118 262.339576 128.413078 262.481196 128.334222 262.621608 128.252147 262.76363 128.167658 262.904445 128.081158 263.043651 127.989829 268.035337 124.71528 269.427392 118.014504 266.153245 113.022818"/>
    <path stroke="#0C266D" stroke-linecap="round" stroke-linejoin="round" stroke-width=".5" d="M251.257487,120.573955 C250.659225,121.284467 249.598285,121.37499 248.888176,120.776728"/>
    <path fill="#3B7CFF" d="M209.943411 284.3443L230.691475 284.3443 237.611118 284.3443C239.556777 284.3443 241.133903 282.766771 241.133903 280.821514L238.476526 280.821514 206.420625 280.821514C206.420625 282.766771 207.997751 284.3443 209.943411 284.3443M257.384744 122.792232C257.091044 122.792232 256.809817 122.624058 256.679865 122.339612 256.502036 121.950159 256.673025 121.4907 257.062479 121.312871L269.897955 115.446524C270.286202 115.269097 270.571452 114.94643 270.7006 114.538871 270.829747 114.132117 270.782272 113.704443 270.567027 113.335508 270.179585 112.672471 269.360042 112.410957 268.660394 112.72759L267.397888 113.300103C267.008836 113.476322 266.549378 113.304528 266.372353 112.91427 266.195731 112.524414 266.368732 112.06576 266.758186 111.888735L268.021094 111.316625C269.446945 110.67129 271.116205 111.20357 271.904768 112.554589 272.337271 113.295677 272.436646 114.189248 272.177547 115.006779 271.918447 115.825114 271.322197 116.498612 270.542083 116.855477L257.706204 122.721824C257.602001 122.769701 257.492568 122.792232 257.384744 122.792232"/>
    <path stroke="#0C266D" stroke-linecap="round" stroke-linejoin="round" stroke-width=".5" d="M253.84156,123.860936 C249.08242,125.921259 240.069061,129.940115 242.923178,135.417009 C246.848291,142.947788 284.568571,129.713202 295.201703,143.82084 C301.822415,152.604871 284.894859,167.600448 290.995361,176.236824 C297.62573,185.623141 315.351505,177.764062 319.387662,187.042153 C322.392249,193.948116 310.599607,204.655276 296.742217,204.450893"/>
    <path fill="#3B7CFF" d="M260.754242,122.147501 C260.754242,124.154716 259.126825,125.782134 257.119609,125.782134 C255.112394,125.782134 253.484977,124.154716 253.484977,122.147501 C253.484977,120.140285 255.112394,118.512868 257.119609,118.512868 C259.126825,118.512868 260.754242,120.140285 260.754242,122.147501"/>
    <line x1="222.506" x2="222.927" y1="62.67" y2="60.579" stroke="#0C266D" stroke-linecap="round" stroke-linejoin="round" stroke-width=".5"/>
    <line x1="219.698" x2="218.627" y1="63.094" y2="61.131" stroke="#0C266D" stroke-linecap="round" stroke-linejoin="round" stroke-width=".5"/>
    <line x1="224.93" x2="226.546" y1="64.149" y2="62.859" stroke="#0C266D" stroke-linecap="round" stroke-linejoin="round" stroke-width=".5"/>
    <path stroke="#3B7CFF" stroke-width=".5" d="M211.183386,270.877692 C211.966719,271.210417 214.164236,273.819515 214.164236,273.819515 C214.164236,273.819515 210.760941,274.048038 209.977206,273.71491 C209.193873,273.381782 208.828559,272.476946 209.161687,271.693211 C209.494815,270.909475 210.399651,270.544564 211.183386,270.877692 Z"/>
    <path stroke="#3B7CFF" stroke-width=".5" d="M217.144643,276.761339 C216.36131,276.428211 214.164195,273.819515 214.164195,273.819515 C214.164195,273.819515 217.567087,273.590993 218.350823,273.923718 C219.134156,274.256846 219.49947,275.162084 219.166342,275.94582 C218.833214,276.729153 217.928378,277.094064 217.144643,276.761339 Z"/>
    <path fill="#FFF" d="M196.727292,66.3366549 L189.376756,73.6875933 C188.022519,75.04183 185.826612,75.04183 184.472375,73.6875933 L177.121839,66.3366549 C175.7672,64.9824183 175.7672,62.786511 177.121839,61.4322743 L184.472375,54.0817383 C185.826612,52.7275016 188.022519,52.7275016 189.376756,54.0817383 L196.727292,61.4322743 C198.081528,62.786511 198.081528,64.9824183 196.727292,66.3366549"/>
    <path fill="#3B7CFF" d="M271.192969 78.5660238L266.095873 83.6631196C265.156839 84.6025559 263.634027 84.6025559 262.694993 83.6631196L257.597495 78.5660238C256.658863 77.6269898 256.658863 76.1041776 257.597495 75.1651436L262.694993 70.0680477C263.634027 69.1290137 265.156839 69.1290137 266.095873 70.0680477L271.192969 75.1651436C272.132003 76.1041776 272.132003 77.6269898 271.192969 78.5660238M122.007182 87.7476359C118.321453 87.7476359 115.333362 90.7357273 115.333362 94.4214559 115.333362 98.1075867 118.321453 101.095678 122.007182 101.095678 125.693313 101.095678 128.681002 98.1075867 128.681002 94.4214559 128.681002 90.7357273 125.693313 87.7476359 122.007182 87.7476359"/>
    <path fill="#FF6700" d="M159.477937,21.3701632 C153.928222,21.3701632 149.429388,25.868997 149.429388,31.4191144 C149.429388,36.9684271 153.928222,41.4672609 159.477937,41.4672609 C165.027652,41.4672609 169.526486,36.9684271 169.526486,31.4191144 C169.526486,25.868997 165.027652,21.3701632 159.477937,21.3701632"/>
    <path fill="#FF9357" d="M206.153922,28.6537518 L217.694303,43.7724405 C219.795664,46.5255723 224.08931,45.9715664 225.422626,42.7750689 L232.745803,25.22149 C234.079521,22.0249925 231.45272,18.5838795 228.017642,19.0268429 L209.154485,21.4617331 C205.719407,21.9055011 204.052159,25.90062 206.153922,28.6537518"/>
    <path stroke="#0C266D" stroke-linecap="round" stroke-linejoin="round" stroke-width=".5" d="M186.231394,146.823093 C185.778373,148.584888 183.372852,149.488115 180.859106,148.841574 C178.345359,148.194228 176.675295,146.242131 177.128719,144.480336 C177.58174,142.718943 179.986858,141.815717 182.501007,142.462258 C185.014754,143.109604 186.684818,145.0617 186.231394,146.823093 Z"/>
    <polyline stroke="#0C266D" stroke-linecap="round" stroke-linejoin="round" stroke-width=".5" points="186.295 146.126 186.295 120.969 194.787 131.171"/>
    <path stroke="#0C266D" stroke-linecap="round" stroke-linejoin="round" stroke-width=".5" d="M121.597209,65.0558029 C121.143786,66.8171957 118.738668,67.7208248 116.224921,67.0738811 C113.711175,66.4269374 112.04111,64.474841 112.494132,62.7130459 C112.947556,60.9516531 115.352674,60.0484263 117.866822,60.6949677 C120.380167,61.3423137 122.050231,63.2944101 121.597209,65.0558029 Z"/>
    <polyline stroke="#0C266D" stroke-linecap="round" stroke-linejoin="round" stroke-width=".5" points="121.66 64.359 121.66 39.202 130.153 49.403"/>
    <path stroke="#0C266D" stroke-linecap="round" stroke-linejoin="round" stroke-width=".5" d="M249.261738,78.0839139 C248.716985,80.2013672 245.825855,81.2872509 242.80437,80.5095506 C239.782885,79.7322525 237.775268,77.3854722 238.32002,75.2680189 C238.865175,73.1505656 241.756305,72.0646818 244.777388,72.8423822 C247.799275,73.6196803 249.80649,75.9664606 249.261738,78.0839139 Z"/>
    <polyline stroke="#0C266D" stroke-linecap="round" stroke-linejoin="round" stroke-width=".5" points="249.338 77.246 249.338 47.008 259.546 59.27"/>
    <path fill="#FFB280" d="M149.340353,88.7043723 L145.378225,87.5645765 C144.189345,87.2221952 143.459522,85.9588847 143.823629,84.7764422 C144.177276,83.6298068 145.385065,82.9728049 146.543368,83.3059326 L149.860564,84.2602551 C150.317206,84.3918164 150.650334,83.8305686 150.315999,83.4926129 L144.353898,77.4641273 C143.49895,76.599524 143.544011,75.2324129 144.453675,74.4257448 C145.363741,73.6190768 146.807697,73.6665515 147.662645,74.5307525 L150.530038,77.4303318 L148.77991,72.5810701 C148.376375,71.463 148.888539,70.1908383 149.986492,69.7354028 C151.158474,69.248988 152.485755,69.8436291 152.911418,71.02406 L154.735977,76.0801183 L154.906564,71.2795384 C154.949613,70.0612886 155.972331,69.1085755 157.190983,69.1520269 L157.190983,69.1516246 C158.409233,69.1954784 159.361544,70.2181966 159.318495,71.4364464 L159.123366,76.9298355 L160.135221,73.2223812 C160.397539,72.013385 161.610156,71.2010844 162.813922,71.4859327 C163.981478,71.7627345 164.717337,72.924256 164.461858,74.1018706 L162.474759,83.2596649 C161.993977,85.4756886 162.055936,87.7745918 162.656209,89.9616479 L163.119289,91.6502193 L153.224832,94.4214559 L152.488169,91.854602 C152.051643,90.3325945 150.861958,89.1425077 149.340353,88.7043723"/>
    <polygon fill="#FFB280" points="186.479 273.166 167.882 273.135 167.949 244.226 186.546 246.454"/>
    <path fill="#FF6700" d="M200.555686,280.453827 L167.878993,280.453827 L167.878993,272.090631 L192.192087,272.090631 C196.811217,272.090631 200.555686,275.835099 200.555686,280.453827"/>
    <polygon fill="#FF6700" points="186.482 279.154 167.879 279.154 167.896 266.577 186.482 266.577"/>
    <line x1="187.057" x2="182.221" y1="272.012" y2="271.967" stroke="#0C266D" stroke-linecap="round" stroke-linejoin="round" stroke-width=".5"/>
    <line x1="187.057" x2="182.504" y1="272.012" y2="268.992" stroke="#0C266D" stroke-linecap="round" stroke-linejoin="round" stroke-width=".5"/>
    <path fill="#FF9357" d="M196.733166 284.276347L171.701513 284.276347C169.590497 284.276347 167.878993 282.565245 167.878993 280.453827L200.555686 280.453827C200.555686 282.565245 198.844182 284.276347 196.733166 284.276347M178.294062 271.495346C178.294062 273.218517 176.897179 274.615803 175.173605 274.615803 173.450031 274.615803 172.053147 273.218517 172.053147 271.495346 172.053147 269.771772 173.450031 268.374486 175.173605 268.374486 176.897179 268.374486 178.294062 269.771772 178.294062 271.495346"/>
    <path fill="#FF6700" d="M186.492666,266.787623 L181.807957,266.787623 L181.807957,265.392349 C181.807957,264.207895 182.768314,263.247135 183.95317,263.247135 L186.492666,263.247135 L186.492666,266.787623 Z"/>
    <polygon fill="#FFB280" points="98.077 260.994 88.234 245.131 132.048 217.84 133.237 239.226"/>
    <path fill="#FF6700" d="M91.8437926,278.108615 L87.4105383,245.633891 L95.7246503,244.46392 L99.1074257,268.557746 C99.7632207,273.22757 96.5043623,277.454027 91.8437926,278.108615"/>
    <polygon fill="#FF6700" points="97.267 261.486 87.395 245.634 98.121 238.974 107.984 254.812"/>
    <line x1="98.052" x2="97.174" y1="261.086" y2="256.311" stroke="#0C266D" stroke-linecap="round" stroke-linejoin="round" stroke-width=".5"/>
    <line x1="98.052" x2="100.16" y1="261.086" y2="256.021" stroke="#0C266D" stroke-linecap="round" stroke-linejoin="round" stroke-width=".5"/>
    <path fill="#FF9357" d="M87.6344741 274.826744L84.1937634 250.320934C83.9849551 248.833929 84.6677061 247.362212 85.9382585 246.561982L87.4107797 245.63381 91.9679511 278.093246C89.8694072 278.388153 87.9289784 276.925288 87.6344741 274.826744M99.4479563 250.445012C97.9794584 251.359504 96.0474784 250.910506 95.1329865 249.442008 94.2180922 247.973107 94.6674927 246.04153 96.1359906 245.126635 97.6044885 244.212144 99.5364685 244.661142 100.451363 246.12964 101.365855 247.59854 100.916454 249.53052 99.4479563 250.445012"/>
    <path fill="#FF6700" d="M107.810388,254.933103 L105.324402,250.940801 L106.51288,250.200517 C107.522723,249.57208 108.850406,249.880666 109.479245,250.890108 L110.827045,253.054231 L107.810388,254.933103 Z"/>
    <g transform="translate(79.778 89.944)">
      <mask id="music-video-d" fill="#fff">
        <use xlink:href="#music-video-c"/>
      </mask>
      <path fill="#3B7CFF" d="M14.6710181,208.498337 C14.1560381,212.277405 15.0830022,216.251603 17.5734137,219.527762 C22.5542367,226.079676 31.9031368,227.353045 38.4546491,222.372222 C50.6198466,213.123904 54.7891736,204.92003 58.1389581,198.327882 C60.8035777,193.085144 62.5637635,189.6215 69.2914955,184.507104 C76.0188252,179.392708 79.8268615,178.622652 85.5914198,177.457912 C92.8397645,175.993035 101.859962,174.170086 114.024758,164.921366 C126.189553,155.673852 130.35888,147.469978 133.708664,140.878233 C136.372882,135.635494 138.133067,132.171851 144.859592,127.057857 C151.58652,121.944266 155.394556,121.174612 161.158712,120.010275 C168.406252,118.545398 177.426048,116.722449 189.590441,107.474533 C201.755236,98.2266171 205.92416,90.0231453 209.273945,83.4314002 C211.938162,78.1882592 213.698348,74.7250182 220.424873,69.6114269 C226.976788,64.6306039 228.250156,55.2821061 223.269333,48.7301915 C218.28851,42.1782769 208.93961,40.9049082 202.388098,45.8857312 C190.223303,55.1340493 186.054378,63.3371188 182.704594,69.9292662 C180.040376,75.1720048 178.280593,78.6356482 171.553665,83.7492395 C164.827543,88.8628308 161.019506,89.6324846 155.255351,90.7968224 C148.007811,92.2616993 138.987612,94.0846484 126.822817,103.332162 C114.658022,112.580078 110.489097,120.783952 107.139313,127.376099 C104.475096,132.618435 102.71491,136.082079 95.9883849,141.196475 C89.2606529,146.310871 85.4522142,147.080524 79.6876559,148.245265 C72.4397136,149.710142 63.4195156,151.533091 51.2543181,160.781409 C39.0891206,170.029727 34.9201959,178.233199 31.5700091,184.825748 C28.9053895,190.068487 27.1452037,193.532533 20.417874,198.646929 C17.1421179,201.136938 15.1855959,204.719268 14.6710181,208.498337" mask="url(#music-video-d)"/>
    </g>
    <g transform="translate(79.778 89.944)">
      <mask id="music-video-f" fill="#fff">
        <use xlink:href="#music-video-e"/>
      </mask>
      <path fill="#FFF" d="M-4.3597892,186.179744 C-4.87436695,189.958812 -3.94780513,193.93301 -1.45739363,197.209169 C3.52342936,203.761083 12.8723295,205.034452 19.4238417,200.053629 C31.5890392,190.805311 35.7583663,182.601437 39.1085531,176.009692 C41.7731727,170.766551 43.5333585,167.302907 50.2606882,162.188511 C56.9880178,157.074115 60.7964565,156.304059 66.5610148,155.139319 C73.8093595,153.674442 82.8291551,151.851493 94.9943526,142.602773 C107.159148,133.355662 111.328072,125.151385 114.678259,118.55964 C117.342074,113.316901 119.10226,109.85366 125.829187,104.739667 C132.556115,99.6256731 136.363749,98.8560193 142.127905,97.6916815 C149.375445,96.2268046 158.395643,94.4038555 170.560036,85.1559398 C182.724831,75.908024 186.893755,67.7041499 190.24354,61.1128071 C192.907355,55.8696662 194.667541,52.4064251 201.394066,47.2928338 C207.94598,42.3120108 209.219349,32.963513 204.238526,26.4115984 C199.258105,19.8596839 189.909205,18.5863152 183.357693,23.5671381 C171.192898,32.8154562 167.023571,41.018928 163.674189,47.6110754 C161.009971,52.8534117 159.249785,56.3170551 152.52326,61.4310487 C145.796735,66.5442377 141.988699,67.3138915 136.224946,68.4782293 C128.977003,69.9431063 119.956805,71.7660553 107.792412,81.0135687 C95.6276172,90.2614845 91.4586925,98.4653586 88.1085057,105.057506 C85.4442884,110.299842 83.6845049,113.763486 76.9575775,118.877479 C70.2298456,123.992278 66.4218092,124.761931 60.6572509,125.926672 C53.4089063,127.391951 44.3891106,129.214498 32.2239131,138.462816 C20.0587156,147.711134 15.8893886,155.915008 12.5392018,162.506753 C9.87458216,167.749894 8.11439633,171.21394 1.38706667,176.328336 C-1.88868945,178.818345 -3.84480911,182.400675 -4.3597892,186.179744" mask="url(#music-video-f)"/>
    </g>
    <g transform="translate(79.778 89.944)">
      <mask id="music-video-h" fill="#fff">
        <use xlink:href="#music-video-g"/>
      </mask>
      <path fill="#3B7CFF" d="M-23.6729102,163.370793 C-24.1995578,167.235557 -23.2516726,171.300682 -20.7045328,174.651271 C-15.6106556,181.351644 -6.0493262,182.654383 0.651047477,177.560506 C13.0926444,168.10177 17.3565186,159.711216 20.7831478,152.969805 C23.5081166,147.607574 25.3081329,144.065075 32.1887496,138.834808 C39.068964,133.604139 42.9639032,132.816783 48.8596205,131.625087 C56.2721151,130.126817 65.4970981,128.262428 77.9386951,118.804497 C90.3798897,109.346566 94.6437638,100.955609 98.0699907,94.2137957 C100.794557,88.8523702 102.594574,85.3106752 109.474386,80.0804087 C116.353795,74.8501423 120.248332,74.062786 126.143245,72.8718945 C133.555739,71.3740267 142.780722,69.5100402 155.221515,60.0517068 C167.662709,50.5933734 171.926181,42.2040259 175.352408,35.4622125 C178.076975,30.0999824 179.876991,26.5582873 186.756803,21.3280208 C193.457177,16.234546 194.759513,6.67281419 189.665636,-0.027559481 C184.572161,-6.72833548 175.010429,-8.0302695 168.310055,-2.93639229 C155.868458,6.52153879 151.604987,14.9116909 148.179162,21.6535043 C145.454596,27.0149298 143.654579,30.5574295 136.774767,35.7872936 C129.895358,41.0171578 126.001223,41.8041117 120.10631,42.9954055 C112.693816,44.4932733 103.468833,46.3572599 91.0276381,55.8155933 C78.5864435,65.273122 74.3225693,73.6636764 70.8967448,80.4054899 C68.1721783,85.7669154 66.3717596,89.3090127 59.4919476,94.5392792 C52.6117332,99.769948 48.716794,100.557304 42.8210767,101.749 C35.4085821,103.247271 26.1831967,105.111257 13.7420021,114.569993 C1.30040518,124.028326 -2.96346898,132.418478 -6.38969584,139.159889 C-9.115067,144.52212 -10.9150833,148.065022 -17.7957,153.29569 C-21.1458869,155.842428 -23.1462626,159.506431 -23.6729102,163.370793" mask="url(#music-video-h)"/>
    </g>
    <g transform="translate(79.778 89.944)">
      <mask id="music-video-j" fill="#fff">
        <use xlink:href="#music-video-i"/>
      </mask>
      <path fill="#3B7CFF" d="M-54.5044862,110.676019 C-55.1003342,114.442616 -54.2594683,118.43693 -51.8402689,121.765391 C-47.0022724,128.423118 -37.6827422,129.897651 -31.0254177,125.059654 C-18.663884,116.075666 -14.3183372,107.963925 -10.8269332,101.445806 C-8.05006405,96.2614048 -6.21584983,92.8359826 0.620510767,87.8680341 C7.45687137,82.9000856 11.2810008,82.2125067 17.0692965,81.172086 C24.3470111,79.8637148 33.4042233,78.2354926 45.7661593,69.2519064 C58.1272906,60.2687226 62.472435,52.156177 65.9638391,45.638058 C68.7403059,40.4544616 70.5745201,37.0294417 77.4100761,32.0622979 C84.245632,27.0943494 88.0693591,26.4071728 93.8568501,25.3667521 C101.134565,24.0587832 110.191777,22.4309633 122.553311,13.4477795 C134.91404,4.46419336 139.258782,-3.6475476 142.750186,-10.1656666 C145.526653,-15.3500677 147.360867,-18.7742829 154.196423,-23.7422314 C160.85415,-28.5798255 162.328682,-37.8993557 157.490686,-44.5570826 C152.652287,-51.2148095 143.333159,-52.6897446 136.675432,-47.8509435 C124.313899,-38.8673573 119.969157,-30.7556164 116.477753,-24.2374974 C113.701688,-19.0534986 111.867072,-15.6288811 105.031918,-10.6613349 C98.196362,-5.69378878 94.3730372,-5.00661223 88.5851439,-3.96619153 C81.3074292,-2.65822258 72.250217,-1.03040273 59.8890857,7.9527811 C47.5275521,16.9359649 43.18281,25.0485105 39.6914059,31.5666295 C36.9149391,36.7506283 35.0807249,40.1752458 28.2451689,45.1423896 C21.4088083,50.1111428 17.5846789,50.7987217 11.7963832,51.8391424 C4.5186686,53.1475136 -4.53894594,54.7753335 -16.9004796,63.759322 C-29.2620132,72.7429081 -33.60756,80.8550514 -37.098964,87.3731704 C-39.8758332,92.5575715 -41.7104497,95.9825914 -48.546408,100.95054 C-51.8752714,103.370142 -53.9082358,106.90902 -54.5044862,110.676019" mask="url(#music-video-j)"/>
    </g>
    <g transform="translate(79.778 89.944)">
      <mask id="music-video-l" fill="#fff">
        <use xlink:href="#music-video-k"/>
      </mask>
      <path fill="#FFF" d="M-38.8126809,137.729452 C-39.327661,141.50852 -38.4006969,145.483121 -35.9102854,148.759279 C-30.9294624,155.310791 -21.5805622,156.584562 -15.02905,151.603337 C-2.86385252,142.355421 1.30547451,134.151145 4.65566135,127.5594 C7.32028095,122.315856 9.08046678,118.852615 15.8077964,113.738219 C22.5351261,108.623824 26.3431624,107.85417 32.1077207,106.68943 C39.3560654,105.224553 48.3762634,103.401604 60.5414609,94.1528832 C72.706256,84.9049674 76.8751807,76.7014957 80.2249652,70.1093483 C82.8895848,64.8666096 84.6493683,61.4029662 91.3762957,56.2889726 C98.1028207,51.1753813 101.910857,50.4061298 107.675013,49.2413897 C114.922553,47.7769151 123.942349,45.9543684 136.107144,36.7060503 C148.271537,27.4581345 152.440864,19.2542604 155.790246,12.6625154 C158.454463,7.41937438 160.214649,3.95613332 166.941576,-1.15745797 C173.493089,-6.13828096 174.766457,-15.4867788 169.786037,-22.0386933 C164.805214,-28.5906079 155.456313,-29.8639766 148.904801,-24.8831537 C136.740006,-15.6348356 132.570679,-7.43136376 129.220895,-0.839216371 C126.55708,4.40311994 124.796894,7.86676333 118.069966,12.9807569 C111.343844,18.0943482 107.535807,18.8635997 101.771651,20.0283398 C94.5241114,21.4932168 85.5039134,23.3153612 73.3395206,32.5632769 C61.1747255,41.811595 57.0053984,50.0150668 53.6556139,56.6072142 C50.9913966,61.8499529 49.2316131,65.3135962 42.5046858,70.4275899 C35.7769538,75.5419858 31.9685152,76.312042 26.2039569,77.4767821 C18.9560145,78.9412567 9.93621884,80.7642057 -2.22897864,90.0121215 C-14.3945784,99.2608419 -18.5635031,107.464716 -21.91369,114.056863 C-24.5779073,119.300004 -26.3384954,122.76405 -33.0658251,127.878446 C-36.3415812,130.368455 -38.2981032,133.950383 -38.8126809,137.729452" mask="url(#music-video-l)"/>
    </g>
    <path fill="#FFB280" d="M126.04539,122.107027 C126.420762,122.521022 126.147179,123.380395 125.434656,124.02573 C124.722133,124.671064 123.840632,124.858549 123.465259,124.444151 C123.089887,124.029753 123.363068,123.170782 124.075591,122.525448 C124.788115,121.880113 125.670018,121.692628 126.04539,122.107027"/>
    <path fill="#FFB280" d="M111.274393,135.548087 C113.939013,137.478458 114.365481,140.870487 117.348744,140.234406 C117.430015,140.217106 117.52255,140.226359 117.603418,140.207048 C120.115555,139.613211 122.42331,138.121781 124.056762,135.867938 C127.672888,130.876252 126.558037,123.89787 121.566753,120.281342 C119.936519,119.100106 118.09788,118.402067 116.230272,118.2005 C116.149404,118.191649 116.173946,118.434253 116.097504,118.461611 C112.501494,119.75751 110.938047,119.927695 108.553448,123.21874 C106.69791,125.779961 106.595719,126.60232 107.115527,129.487013 C107.226972,130.106598 107.125585,131.401693 107.340428,131.995932 C107.638151,132.8199 110.156726,134.738201 111.274393,135.548087"/>
    <path fill="#0C266D" d="M121.12041,124.841209 C121.358186,125.103527 121.33807,125.509073 121.075752,125.746849 C120.813032,125.985028 120.407887,125.964911 120.170111,125.702191 C119.931933,125.439471 119.952049,125.033924 120.21477,124.79655 C120.477088,124.558774 120.882634,124.578891 121.12041,124.841209"/>
    <path fill="#FF6700" d="M116.776915,119.295034 C116.535921,118.817471 116.338378,118.421982 116.230554,118.200299 C112.728287,117.805213 109.246539,119.102319 106.855502,121.634573 L106.854295,121.63578 C106.235112,122.292379 105.689153,123.031456 105.234924,123.845768 L105.168138,123.96526 C105.110605,124.069463 105.055888,124.174873 105.003586,124.281892 L102.50553,129.162133 C101.150488,131.823534 98.6158209,133.686313 95.6715832,134.185603 C91.072972,134.965717 87.9698147,139.316092 88.7298126,143.917519 L88.7298126,143.917922 C89.4918222,148.534235 93.8518528,151.658314 98.4681665,150.896706 C103.628025,150.044978 110.062058,147.383979 113.839517,143.766646 L114.773321,142.860603 C117.110445,140.593484 117.166771,136.826887 114.898445,134.490568 C114.365763,133.94139 114.063614,133.200703 114.093386,132.435877 C114.093789,132.419784 114.094593,132.403691 114.095398,132.387598 C114.15615,131.255447 115.187317,130.421018 116.31625,130.523612 L117.129355,130.597238 L118.190294,127.49569 C119.232324,124.334195 118.113047,121.946377 116.776915,119.295034"/>
    <path stroke="#0C266D" stroke-linecap="round" stroke-linejoin="round" stroke-width=".5" d="M123.218109 132.255594C123.145288 132.344911 123.071662 132.431412 122.985966 132.501819 122.897856 132.575043 122.800895 132.634587 122.702325 132.687695 122.602145 132.741607 122.495528 132.779023 122.388106 132.812014 122.279478 132.845005 122.170044 132.86834 122.057392 132.880008 121.945143 132.89087 121.832491 132.894491 121.719437 132.884031 121.607992 132.873168 121.494535 132.859489 121.385504 132.8269 121.278485 132.794714 121.173075 132.749653 121.072493 132.695741 120.974325 132.643439 120.886215 132.571422 120.796898 132.4986M113.30607 136.703614C103.264763 150.4049 105.049491 157.103665 105.90122 159.236809 111.803375 174.017542 152.96356 141.613225 166.721977 156.603571 182.129537 173.391117 135.233761 226.514933 98.0075409 224.586574 96.0377421 224.484383 80.1477902 222.668676 75.9044348 209.48599"/>
    <path fill="#FFF" d="M115.871878,135.751625 C115.354082,136.494323 114.332168,136.676175 113.58947,136.158379 C112.846772,135.640582 112.664518,134.618669 113.182314,133.875971 C113.700513,133.132871 114.722426,132.951018 115.465124,133.468815 C116.20742,133.986611 116.390077,135.008525 115.871878,135.751625"/>
    <path fill="#FFF" d="M112.455629,137.739287 L112.455629,137.739287 C112.163539,137.535709 112.091924,137.133783 112.295905,136.842095 L113.325865,135.365149 C113.529443,135.072656 113.931369,135.001042 114.223459,135.20462 C114.515549,135.4086 114.586761,135.810124 114.383586,136.102616 L113.353223,137.579563 C113.149645,137.871251 112.747719,137.943268 112.455629,137.739287"/>
    <path fill="#0C266D" d="M78.7478893,187.45824 L81.2644521,206.137131 C81.4563627,207.562178 80.4569795,208.872963 79.031933,209.064874 L72.6819872,209.920223 C71.2569407,210.112536 69.9465578,209.112751 69.7542449,207.687704 L67.2376821,189.008813 C67.0457716,187.583767 68.0451548,186.273384 69.4702012,186.081071 L75.8201471,185.225721 C77.2451935,185.033811 78.5555764,186.033194 78.7478893,187.45824"/>
    <path fill="#FFB280" d="M85.2277469,200.554345 L84.9907756,198.634837 C84.7602415,196.975233 85.4003457,195.31402 86.6841749,194.237792 L88.325674,192.867865 L81.1815323,184.650714 L79.9367289,185.669007 C78.440068,186.894096 76.6734449,187.745422 74.7829048,188.152981 L67.4307594,189.737752 C67.3301774,189.752235 67.2312046,189.774363 67.1338412,189.801722 L67.1032643,189.808561 L67.1040689,189.810975 C66.4209157,190.012944 65.8387468,190.523096 65.5780381,191.244068 C65.1749053,192.359322 65.6810341,193.579583 66.7138106,194.099794 C66.5194861,194.315442 66.3621757,194.57092 66.2571681,194.860999 C65.8544376,195.975448 66.3601641,197.196111 67.3929406,197.716322 C67.1986161,197.93197 67.0413057,198.187448 66.9367004,198.477527 C66.5335676,199.591976 67.0392941,200.813042 68.0720706,201.333252 C67.8781484,201.5489 67.7204357,201.803976 67.6158304,202.094055 C67.1805113,203.297821 67.8037177,204.626308 69.0074836,205.061628 C69.786391,205.342855 70.6159917,205.179912 71.2231049,204.704762 L79.0274672,199.048028 C79.561759,198.660586 80.3161244,198.986472 80.4006133,199.640658 L80.6134449,201.28618 C80.7981135,202.614265 82.0654473,203.525941 83.3999699,203.248737 C84.6194267,202.99527 85.3987364,201.787883 85.2277469,200.554345"/>
    <line x1="64.816" x2="320.816" y1="284.232" y2="284.232" stroke="#0C266D" stroke-linecap="round" stroke-linejoin="round" stroke-width=".5"/>
  </g>
</svg>
