<svg xmlns="http://www.w3.org/2000/svg" width="180" height="104" viewBox="0 0 180 104">
    <g fill="none" fill-rule="evenodd">
        <g>
            <g>
                <path fill="#FFF" stroke="#F4F2F2" stroke-width="2" d="M15.383 1h149.234c5.066 0 6.917.492 8.772 1.485 1.78.95 3.175 2.347 4.126 4.126.993 1.855 1.485 3.706 1.485 8.772h0v73.234c0 5.066-.492 6.917-1.485 8.772-.95 1.78-2.347 3.175-4.126 4.126-1.855.993-3.706 1.485-8.772 1.485h0H15.383c-5.066 0-6.917-.492-8.772-1.485-1.78-.95-3.175-2.347-4.126-4.126C1.492 95.534 1 93.683 1 88.617h0V15.383c0-5.066.492-6.917 1.485-8.772.95-1.78 2.347-3.175 4.126-4.126C8.466 1.492 10.317 1 15.383 1h0z" transform="translate(-514 -872) translate(514 872)"/>
                <g>
                    <path fill="#25316A" d="M39.126.66c.076.027.15.063.247.105.18 1.052.362 2.109.55 3.195-.133.045-.252.092-.374.123-.124.032-.252.048-.403.075-.042-.147-.084-.286-.121-.425l-.156-.6c-.027-.1-.055-.2-.085-.298-.31-1.005-.987-1.606-2.033-1.748-.881-.12-1.77-.155-2.644.068-.564.144-1.073.398-1.505.798-.67.621-.829 1.39-.628 2.242.142.604.465 1.105.96 1.501.904.723 1.946 1.209 2.96 1.744.825.437 1.67.841 2.474 1.314 1.066.627 1.852 1.49 2.175 2.729.452 1.737-.084 3.806-2.11 4.856-1.2.622-2.489.814-3.815.781-1.252-.03-2.476-.267-3.668-.655-.123-.04-.242-.091-.335-.127l-.756-3.424.738-.198c.052.146.093.265.137.383.126.336.239.677.382 1.006.52 1.195 1.437 1.89 2.73 2.053.849.108 1.709.144 2.546-.084 1.133-.307 2.05-.905 2.44-2.07.386-1.155.205-2.223-.636-3.148-.528-.58-1.19-.973-1.873-1.334-1.014-.536-2.047-1.039-3.042-1.608-.623-.356-1.222-.77-1.779-1.223-1.453-1.18-1.908-3.984.218-5.544.763-.56 1.631-.844 2.55-.957 1.648-.202 3.275-.079 4.856.47zM22.93 11.486v5.625H0v-5.625h22.93zm26.486-4.999c1.38.507 2.22 1.54 2.601 2.932.435 1.583.407 3.178-.093 4.738-.52 1.62-1.709 2.504-3.36 2.802-.833.15-1.67.144-2.497-.038-1.805-.398-2.901-1.518-3.289-3.305-.14-.651-.186-1.323-.275-1.985.037-.966.167-1.897.53-2.792.493-1.213 1.37-2.024 2.612-2.42 1.258-.401 2.533-.386 3.771.068zm39.513-.199c1.186.253 2.023 1.267 2.083 2.482.028.556.02 1.113.02 1.669.002 1.342-.004 2.683.004 4.025.002.343.029.687.074 1.026.09.674.383.862 1.048.7.047-.011.097-.013.184-.024l.15.425c-1.297.734-2.4.433-2.93-.829-.133.113-.249.216-.37.313-1.124.9-2.408 1.18-3.794.863-1.044-.24-1.831-.856-2.054-1.95-.243-1.2.1-2.232 1.106-2.997.673-.512 1.431-.864 2.235-1.106.752-.226 1.52-.4 2.28-.597.155-.04.31-.082.464-.123 0-.536.035-1.044-.007-1.546-.114-1.346-.966-1.81-2.204-1.734-.95.058-1.626.553-1.977 1.454-.054.136-.105.277-.181.401-.18.294-.577.428-.906.32-.326-.106-.519-.392-.422-.779.072-.29.219-.583.403-.82.449-.576 1.086-.889 1.773-1.09.997-.29 2.014-.297 3.021-.083zm-24.747-2.76v2.891h2.416v.716h-2.416v.486c0 2.292-.003 4.584.004 6.876 0 .292.027.59.088.875.141.653.56.955 1.216.85.316-.052.618-.195.924-.306.115-.042.222-.108.345-.17l.317.453c-.1.094-.182.194-.285.263-.85.576-1.78.74-2.77.476-.824-.219-1.337-.92-1.41-1.87-.01-.13-.011-.26-.01-.392V7.17h-1.718l-.026-.53c.156-.031.28-.064.405-.08.966-.131 1.644-.639 1.978-1.55.172-.47.273-.968.415-1.482h.527zM68.72.446c2.367.005 4.735-.004 7.102.023 1.024.012 2.025.197 2.95.672 1.14.586 1.9 1.45 1.982 2.775.09 1.451-.505 2.568-1.738 3.344-.69.435-1.458.658-2.26.848.416.07.833.132 1.247.212.765.149 1.476.43 2.12.873 1.428.98 1.984 2.436 1.56 4.11-.464 1.828-1.698 2.868-3.494 3.253-.732.158-1.497.21-2.249.22-2.4.026-4.8.01-7.2.011h-.325v-.655l.682-.035c.87-.043 1.082-.254 1.12-1.134.014-.294.017-.59.018-.884l-.001-10.905c0-.343-.007-.687-.026-1.03-.04-.727-.275-.96-.99-1.003-.26-.016-.52-.028-.798-.042v-.63c.111-.009.206-.023.3-.023zm32.49 5.989c.848.362 1.271 1.055 1.432 1.92.075.398.1.811.103 1.218.012 1.8.006 3.6.009 5.4 0 .18-.004.363.022.54.076.502.226.635.736.682.097.009.193.014.318.023v.547h-3.815v-.542c.167-.012.341-.019.514-.039.347-.04.49-.164.558-.51.044-.223.073-.453.074-.68.006-1.833.008-3.666 0-5.499 0-.31-.037-.62-.079-.927-.175-1.29-1.09-1.836-2.406-1.444-.45.134-.869.46-1.231.778-.415.363-.752.815-1.092 1.194v6.156c0 .082.002.164.014.245.075.551.188.655.751.702.081.006.162.016.242.027.014.002.026.02.062.047v.484h-3.965v-.532c.214-.015.407-.021.598-.042.403-.042.553-.164.643-.552.044-.19.062-.388.063-.582.004-2.078.003-4.157.001-6.235 0-.18-.003-.362-.035-.538-.083-.452-.267-.61-.73-.642-.163-.011-.327-.002-.549-.002v-.525c.895-.167 1.769-.377 2.49-.925.258.027.295.184.302.382.014.472.042.943.07 1.525l.09-.1.143-.155.115-.125c.67-.721 1.434-1.296 2.43-1.487.727-.14 1.439-.079 2.122.213zM60.937 1.47c.4.3.724.666.805 1.188.058.374-.066.66-.342.79-.27.126-.621.05-.85-.203-.098-.107-.17-.239-.244-.365-.123-.212-.245-.426-.354-.645-.484-.978-1.72-.864-2.224-.215-.235.302-.442.665-.53 1.032-.135.567-.18 1.16-.22 1.743-.034.52-.006 1.045-.006 1.626h2.87v.709h-2.83c-.018.139-.042.246-.042.353-.001 2.503-.003 5.007.003 7.51.003.98.195 1.168 1.179 1.203.178.006.357 0 .595 0v.564h-5.091c-.007-.1-.017-.178-.015-.255.002-.08.016-.158.029-.28.254-.014.495-.024.736-.04.647-.044.838-.215.924-.843.029-.21.05-.422.05-.634l.004-3.608V7.154h-1.7v-.716h1.677c.01-.217.015-.389.024-.56.038-.75-.003-1.514.131-2.246.251-1.367.995-2.38 2.43-2.717 1.068-.25 2.089-.12 2.99.555zm47.01-.64l.087.088c.01.013.026.025.029.04.01.047.021.096.021.144l.001 9.926c.426-.195 3.6-3.324 3.82-3.758-.184-.21-.184-.21-.75-.3-.012-.08-.034-.17-.038-.262-.004-.077.011-.155.02-.255h3.34l.026.5c-.095.026-.169.062-.243.064-.415.013-.777.174-1.07.445-.888.824-1.76 1.666-2.658 2.518.096.153.18.29.268.424 1.042 1.587 2.094 3.168 3.122 4.765.406.63.882 1.095 1.695 1.053.028-.002.056.028.112.058v.478H113.1l-3.709-5.747-1.302 1.437c0 .801-.01 1.783.004 2.764.012.867.344.994.962.988.095 0 .19.018.295.03.015.083.033.145.035.207.002.097-.007.193-.013.32h-4.217v-.533c.226-.015.453-.02.677-.048.322-.04.558-.192.603-.543.026-.21.062-.42.062-.631.004-3.814.006-7.629.001-11.443-.001-1.083-.141-1.22-1.237-1.314-.03-.002-.06-.019-.126-.04V1.78c.497-.124.996-.216 1.47-.377.47-.159.914-.387 1.341-.573zM46.46 7.007c-1.014.288-1.576 1.012-1.896 1.958-.286.846-.354 1.725-.336 2.61-.014.954.065 1.895.409 2.795.195.509.445.98.886 1.33 1.609 1.273 3.922.623 4.642-1.321.496-1.336.48-2.725.348-4.115-.04-.42-.131-.841-.26-1.242-.279-.872-.753-1.605-1.666-1.936-.695-.252-1.408-.283-2.127-.08zm42.965 3.912c-1.216.3-2.354.69-3.378 1.372-.816.543-1.192 1.274-1.063 2.258.093.712.441 1.217 1.13 1.468.424.155.854.191 1.305.117.82-.135 1.45-.577 2.006-1.14v-4.075zm-17.42-2.232c-.012.029-.035.058-.035.087-.002 2.144-.008 4.287.004 6.43.003.53.192.694.731.698 1.085.008 2.17.01 3.254-.006.392-.005.787-.045 1.173-.111 1.487-.256 2.496-1.209 2.786-2.665.082-.411.072-.846.066-1.27-.01-.606-.242-1.143-.607-1.625-.518-.682-1.221-1.1-2.039-1.286-1.758-.399-3.546-.335-5.333-.252zm.39-7.346c-.255-.005-.38.168-.418.402-.012.075-.015.151-.015.228v.115 5.302c0 .11.014.22.021.323 1.176 0 2.325.05 3.466-.021.591-.037 1.196-.226 1.746-.46 1.292-.552 1.958-1.752 1.773-3.24-.174-1.39-.87-2.088-2.257-2.45-1.422-.37-2.875-.175-4.316-.2zM22.924.116v5.623H.002V.116h22.922z" transform="translate(-514 -872) translate(514 872) translate(32 43)"/>
                </g>
            </g>
        </g>
    </g>
</svg>
