<svg xmlns="http://www.w3.org/2000/svg" width="180" height="104" viewBox="0 0 180 104">
    <g fill="none" fill-rule="evenodd">
        <g>
            <g>
                <path fill="#FFF" stroke="#F4F2F2" stroke-width="2" d="M15.383 1h149.234c5.066 0 6.917.492 8.772 1.485 1.78.95 3.175 2.347 4.126 4.126.993 1.855 1.485 3.706 1.485 8.772h0v73.234c0 5.066-.492 6.917-1.485 8.772-.95 1.78-2.347 3.175-4.126 4.126-1.855.993-3.706 1.485-8.772 1.485h0H15.383c-5.066 0-6.917-.492-8.772-1.485-1.78-.95-3.175-2.347-4.126-4.126C1.492 95.534 1 93.683 1 88.617h0V15.383c0-5.066.492-6.917 1.485-8.772.95-1.78 2.347-3.175 4.126-4.126C8.466 1.492 10.317 1 15.383 1h0z" transform="translate(-310 -728) translate(310 728)"/>
                <path fill="#25316A" fill-rule="nonzero" d="M81.892 27.068c3.204.29 4.976 1.204 5.868 2.386.296.392.472.863.511 1.358.029.59-.227 1.357-1.079 2.107-.846.756-2.579 1.647-4.97 2.448-2.483.824-5.874 1.699-9.26 2.477-1.96.443-3.896 1-5.793 1.664-2.239.762-2.915 2.988-1.523 3.67 1.568.767 3.028 1.727 4.357 2.852 2.13 1.692 4.079 3.607 5.806 5.708 2.107 2.574 5.555 7.482 6.788 12.248 1.374 5.231.517 10.19-2.443 11.576-2.903 1.364-6.771-.602-9.486-3.425-2.58-2.664-4.386-5.817-6.09-10.657-1.471-4.186-2.062-10.224-2.062-13.394v-.71c.002-.522.008-.828.029-1.523.096-.829-2.142-1.522-4.545.029-2.738 1.76-5.413 4.948-6.998 6.805-.687.812-1.625 2-2.613 3.244-1.307 1.636-2.744 3.34-4.056 4.294-1.965 1.403-5.14 2.011-7.373.432-1.239-.88-1.903-2.55-1.903-4.25-.017-1.17.284-2.323.875-3.34.76-1.306 1.965-2.709 3.913-4.316 2.568-1.994 5.408-3.613 8.43-4.806 4.903-1.971 10.18-2.59 13.679-1.966.761.12.914-.04 1.017-.76.25-1.682.75-3.318 1.482-4.852 1-2.045 2.58-4.294 4.806-5.805 2.244-1.449 4.715-2.511 7.305-3.142 1.75-.386 3.545-.505 5.328-.352zM137.96 44.57c2.89 0 4.561 1.5 4.561 4.237v3.8c0 2.716-1.67 4.238-4.561 4.238-2.863-.005-4.516-1.522-4.516-4.237v-3.8c0-2.739 1.653-4.238 4.516-4.238zm-38.588-.006c2.647 0 4.454 1.693 4.454 4.584v2.13h-7.607v1.13c0 2.085 1.108 3.37 3.346 3.37 1.693 0 2.716-.455 3.562-.915.176-.085.716.846.5.977-1.108.63-2.477 1-4.016 1-2.869 0-4.562-1.608-4.562-4.346V48.91c0-2.648 1.87-4.346 4.323-4.346zm16.116 0c2.647 0 4.453 1.693 4.453 4.584v2.13h-7.606v1.13c0 2.085 1.108 3.37 3.346 3.37 1.693 0 2.715-.455 3.561-.915.177-.085.716.846.5.977-1.107.63-2.476 1-4.016 1-2.868 0-4.561-1.608-4.561-4.346V48.91c0-2.648 1.869-4.346 4.323-4.346zm12.372.006c1.891 0 3.084 1.414 3.084 3.476v8.492c0 .117-.292.13-.508.13l-.077.001c-.216 0-.585 0-.585-.13v-7.976c0-1.931-.846-2.823-2.26-2.823-1.5 0-2.892 1.284-3.739 2.522v8.276c0 .117-.291.13-.508.13l-.077.001c-.216 0-.585 0-.585-.13V44.853c0-.116.292-.13.508-.13h.077c.216 0 .563 0 .563.13v2.107c.931-1.323 2.368-2.391 4.107-2.391zm18.444.284v2.63c1.301-1.977 2-2.715 3.3-2.715h.432c.13 0 .13.414.13.63 0 .216-.045.585-.175.585h-.693v-.006c-.955 0-1.761.87-2.954 2.693v7.867c0 .117-.292.13-.508.13l-.077.001c-.216 0-.562 0-.562-.13V44.853c0-.116.273-.13.486-.13h.076c.216 0 .545 0 .545.13zm-55.606-2.568v2.846h2.562c.114 0 .129.183.13.403v.097c0 .261 0 .477-.13.477h-2.562v8.186c0 .914.392 1.26 1.346 1.26h1.193c.154 0 .193.046.193.478 0 .477-.045.545-.193.545h-1.471c-1.63 0-2.238-.954-2.238-2.238v-8.23h-1.653c-.134 0-.151-.2-.153-.396v-.082c0-.216 0-.5.153-.5h1.653v-2.846c0-.116.292-.129.508-.13h.077c.216 0 .585 0 .585.13zm16.916-1.846v13.855c0 .914.415 1.283 1.37 1.283h.585c.153 0 .193.046.193.478 0 .477-.046.522-.193.522h-.887c-1.607 0-2.238-.954-2.238-2.238v-13.9c0-.116.292-.129.508-.13h.077c.216 0 .585 0 .585.13zm30.346 5.192c-2.085 0-3.346.892-3.346 3.368v3.409c0 2.454 1.26 3.385 3.346 3.385 2.107 0 3.385-.892 3.385-3.385V49c.006-2.453-1.278-3.368-3.385-3.368zm-38.594-.04c-1.715 0-3.147 1.13-3.147 3.386v1.346h6.43v-1.278h-.005c0-2.323-1.5-3.454-3.278-3.454zm16.116 0c-1.716 0-3.147 1.13-3.147 3.386v1.346h6.43v-1.278h-.005c0-2.323-1.5-3.454-3.278-3.454z" transform="translate(-310 -728) translate(310 728)"/>
            </g>
        </g>
    </g>
</svg>
