<svg xmlns="http://www.w3.org/2000/svg" width="384" height="285" viewBox="0 0 384 285">
  <g fill="none" fill-rule="evenodd">
    <polygon fill="#FF6700" points="187.119 178.263 138.912 198.066 132.79 184.036 185.312 162.342"/>
    <polygon points="0 0 384 0 384 285 0 285"/>
    <line x1="66" x2="198.93" y1="134.308" y2="134.308" stroke="#0C266D" stroke-linecap="round" stroke-linejoin="round" stroke-width=".5"/>
    <path fill="#3B7CFF" d="M126.888577,121.276933 C122.710745,117.693274 116.418929,118.174858 112.835269,122.35269 C109.25161,126.530523 109.73348,132.822339 113.911312,136.405998 C115.396745,137.68029 117.150042,138.438047 118.953475,138.700755 L120.405102,141.166831 L121.968172,138.681274 C124.220529,138.323452 126.363161,137.196987 127.964334,135.330241 C131.547994,131.152409 131.06641,124.860593 126.888577,121.276933"/>
    <polygon fill="#FF6700" points="164.289 205.844 149.571 210.802 142.611 198.365 155.457 190.052"/>
    <polygon fill="#3B7CFF" points="85.663 152.116 101.781 180.653 108.298 204.763 73.973 199.932 73.973 160.229"/>
    <polyline stroke="#0C266D" stroke-linecap="round" stroke-linejoin="round" stroke-width=".5" points="130.75 103.21 125.164 108.28 125.82 100.771"/>
    <polygon fill="#FFB280" points="143.201 284.532 157.287 284.532 157.287 266.611 143.201 266.611"/>
    <path fill="#0C266D" d="M299.263056 284.531974L154.768726 284.531974 154.768726 264.953201C154.768726 262.322396 156.901331 260.189504 159.532137 260.189504L299.263056 260.189504 299.263056 284.531974zM179.286927 184.870917L105.581403 215.592296 94.0411541 196.690777 174.22557 163.25809C176.26077 162.409517 178.553522 163.688679 178.90017 165.866263L181.340462 181.191285C181.5877 182.744901 180.739127 184.265571 179.286927 184.870917"/>
    <path fill="#FFB280" d="M255.328806,200.271084 C259.39319,198.097511 262.113952,194.017944 262.532795,189.39663 C262.627622,188.297668 261.864422,187.278922 260.770903,187.132527 C259.603471,186.976106 258.555217,187.826684 258.455233,188.986668 L258.454946,188.989819 C258.330611,190.429414 257.887417,191.795095 257.185525,193.003781 C256.885574,192.039468 255.631909,190.142641 254.455595,188.694738 L257.086114,173.985949 C257.295536,172.815365 256.516292,171.696349 255.345709,171.486927 C254.258492,171.29269 253.200498,171.952181 252.896249,173.013614 L247.232698,199.093625 C247.197174,199.293019 247.314919,199.519917 247.536087,199.758273 L246.83706,203.140819 C246.621909,204.181338 247.291141,205.199225 248.33166,205.41409 L248.576606,205.464798 C249.617125,205.679663 253.578374,206.7749 253.793238,205.734381 L255.328806,200.271084 Z"/>
    <path fill="#0C266D" d="M255.257184,193.863613 L255.257184,193.863613 C254.066546,193.617521 253.300482,192.452667 253.54686,191.261743 L257.505244,172.109549 C257.751622,170.918911 258.91619,170.152846 260.107114,170.399224 C261.297752,170.645316 262.063817,171.81017 261.817725,173.000808 L257.859055,192.153289 C257.612963,193.343927 256.448109,194.109705 255.257184,193.863613"/>
    <path fill="#FF6700" d="M292.871542,193.61848 L292.871542,193.61848 C288.657326,193.590735 284.629326,195.354059 281.791104,198.469313 L271.550358,209.709038 C266.511634,215.248827 257.425142,209.716486 260.164239,202.746557 C260.192602,202.674649 260.22211,202.60274 260.252764,202.530832 C260.762423,201.338189 260.113531,199.968497 258.867888,199.607524 L246.232402,195.949092 C245.160942,195.638827 244.029607,196.195757 243.621937,197.233984 L243.330294,197.97627 C243.226585,198.240411 243.127461,198.504265 243.032921,198.768405 C235.96358,218.499303 254.368618,234.697249 271.379039,231.071762 C271.379039,231.071762 266.771191,238.086384 261.426785,252.723265 L279.796872,271.757713 L307.629607,260.773249 L307.629607,208.474854 C307.629607,200.308557 301.037839,193.672957 292.871542,193.61848"/>
    <path fill="#FFB280" d="M306.208405,180.042474 C305.540318,186.274701 299.94667,190.785717 293.714443,190.117631 C287.482216,189.449544 282.971199,183.855896 283.639286,177.623669 C284.307086,171.391155 289.901021,166.880425 296.133248,167.548512 C302.365475,168.216312 306.876491,173.810247 306.208405,180.042474"/>
    <path fill="#0C266D" d="M285.418424,171.145722 L285.400949,171.115927 C283.028554,167.059565 285.119619,161.854679 289.638943,160.567209 C293.748878,159.396338 297.967105,162.046338 298.6965,166.257117 L299.143705,168.8375"/>
    <path fill="#FFB280" d="M281.443138,178.502466 C281.380397,179.087471 282.145316,179.649271 283.151457,179.757277 C284.157884,179.864996 285.024219,179.478239 285.086959,178.892947 C285.1497,178.307941 284.384781,177.746141 283.378641,177.638423 C282.3725,177.530417 281.505878,177.91746 281.443138,178.502466"/>
    <path fill="#0C266D" d="M286.483925,178.631843 C286.444103,179.002557 286.712541,179.335167 287.082968,179.374989 C287.453682,179.414524 287.786579,179.146373 287.826401,178.775659 C287.865936,178.404946 287.597784,178.072335 287.227071,178.032513 C286.856357,177.992978 286.523746,178.26113 286.483925,178.631843"/>
    <path stroke="#0C266D" stroke-linecap="round" stroke-linejoin="round" stroke-width=".5" d="M288.290136,184.149372 C289.107482,184.524097 290.073801,184.165416 290.448525,183.34807"/>
    <path fill="#0C266D" d="M299.14975,166.92844 C298.830891,166.810981 298.510312,166.708132 298.188875,166.619321 C298.187156,166.619035 298.185437,166.618462 298.183431,166.618176 C298.029015,166.575776 297.874312,166.536527 297.71961,166.500716 C297.706431,166.497851 297.693539,166.4947 297.680934,166.491835 C296.716048,166.27124 295.745718,166.176127 294.78828,166.1979 C294.787707,166.1979 294.786848,166.197613 294.786275,166.1979 C291.091172,166.282413 287.594891,168.104754 285.41788,171.145808 C286.793015,174.54984 293.629156,180.36523 294.074642,180.718467 C294.361702,179.835516 295.076772,179.092084 296.111848,178.829662 C297.192475,178.555781 298.368215,178.977489 299.038021,179.868749 C299.449988,180.417084 299.633053,181.040765 299.619588,181.648116 C299.572318,183.784446 300.238972,185.876084 301.546496,187.566354 C301.692891,187.755435 301.780269,187.865732 301.785426,187.866592 L302.609075,187.240619 C303.103264,186.832662 303.566512,186.373997 303.992231,185.874651 C304.687534,185.059024 305.283712,184.134246 305.755269,183.139565 C305.830902,182.979992 305.904242,182.818127 305.974145,182.65397 C306.044334,182.487235 306.112231,182.318781 306.175258,182.147462 C308.437356,176.004905 305.292021,169.191111 299.14975,166.92844"/>
    <polygon fill="#FFB280" points="196.713 280.72 182.902 281.484 181.629 271.129 193.967 250.696 209.264 259.932"/>
    <path fill="#3B7CFF" d="M188.892475,284.565837 L162.493891,284.565837 C160.186243,284.565837 158.316059,282.695366 158.316059,280.388004 L158.316059,279.942804 C158.316059,278.384318 159.233962,276.971939 160.658086,276.338804 L178.06214,267.816118 C180.841059,266.575345 183.981237,268.588485 184.013897,271.631545 L184.02421,272.605026 C189.654529,270.43661 195.882459,270.396501 201.540281,272.491864 L201.655162,272.53455 L196.779735,280.591696 L194.360356,281.861118 C193.058848,283.565712 191.037113,284.565837 188.892475,284.565837"/>
    <path fill="#0633EF" d="M192.805795 284.565837L162.289827 284.565837C160.095054 284.565837 158.315973 282.786756 158.315973 280.591696L196.779935 280.591696C196.779935 282.786756 195.000568 284.565837 192.805795 284.565837M289.546866 258.432196C281.651012 258.432196 274.080034 255.288579 268.506439 249.695504L255.349261 236.492774C237.305769 218.313487 206.989196 221.895714 193.679607 243.779844L185.517894 257.199444C184.585094 258.733293 185.085585 260.733828 186.63118 261.64772L202.568137 271.069114C204.058153 271.95006 205.977899 271.496266 206.915856 270.041201L218.819083 251.57772C221.613185 247.28472 227.675812 246.709741 231.227099 250.400833L250.25725 270.083887C259.183023 279.315914 271.473294 284.529682 284.314477 284.531974 297.759861 284.534266 302.908596 273.635174 302.908596 260.189504L302.961883 258.432196 289.546866 258.432196zM162.435706 196.694902L154.502895 182.084091C145.062306 164.713556 121.076511 162.340875 108.415814 177.524945L102.972857 184.059416C95.8041059 192.66547 85.171733 197.626843 73.9709708 197.592464L73.9709708 197.592464C73.9709708 208.859405 83.104733 217.99288 94.3716735 217.99288 103.184571 217.99288 111.462884 213.766918 116.63196 206.629394L127.563998 191.533848C129.444495 188.936561 133.384257 189.16661 134.949906 191.964724L143.356852 206.951691C144.081663 208.24747 145.709192 208.725329 147.019295 208.027161 150.665695 206.083637 157.636198 202.36848 161.323279 200.403183 162.660025 199.690691 163.159084 198.025918 162.435706 196.694902"/>
    <path fill="#FFB280" d="M287.252052,278.859312 L285.291339,278.859312 C283.703631,278.859312 282.416447,280.146496 282.416447,281.734204 C282.416447,283.321912 283.703631,284.609096 285.291339,284.609096 L315.315409,284.609096 C316.903117,284.609096 318.190301,283.321912 318.190301,281.734204 C318.190301,280.146496 316.903117,278.859312 315.315409,278.859312 L308.704734,278.859312 C306.677842,278.859312 305.03169,277.221469 305.021663,275.194577 L305.018798,274.632777 L290.883555,274.596966 L290.882696,275.234685 C290.879544,277.237512 289.254879,278.859312 287.252052,278.859312"/>
    <path stroke="#0633EF" stroke-width=".5" d="M174.480429 276.093085C173.327034 275.563371 170.163364 271.582641 170.163364 271.582641 170.163364 271.582641 175.244488 271.386685 176.397883 271.916112 177.551277 272.445539 178.056926 273.809787 177.527499 274.963469 176.998072 276.116863 175.633823 276.622512 174.480429 276.093085zM165.846528 267.072256C166.999923 267.601683 170.163306 271.582699 170.163306 271.582699 170.163306 271.582699 165.082469 271.778656 163.929074 271.249229 162.775679 270.719515 162.269744 269.355553 162.799171 268.201872 163.328598 267.048477 164.693134 266.542829 165.846528 267.072256z"/>
    <path fill="#3B7CFF" d="M145.20469,284.569189 L136.549074,284.569189 L134.973684,270.846486 C134.973684,268.535399 134.500409,243.931653 136.811495,243.931653 C139.152663,243.931653 141.279825,245.29447 142.25789,247.421632 L149.860955,263.95448 C150.126241,264.531751 150.263755,265.159156 150.263755,265.79401 C150.263755,268.122859 148.450009,270.048621 146.125457,270.188426 L145.20469,270.243718 C146.957414,274.509502 147.076879,279.27148 145.540165,283.619772 L145.20469,284.569189 Z"/>
    <path fill="#0633EF" d="M136.549102,243.931596 L136.549102,284.531888 C134.372951,284.531888 132.609054,282.767991 132.609054,280.591839 L132.609054,247.871645 C132.609054,245.695493 134.372951,243.931596 136.549102,243.931596"/>
    <path fill="#FF6700" d="M305.342385,274.664147 L290.158028,274.664147 C288.893763,274.664147 287.869288,273.639385 287.869288,272.375693 L287.869288,214.311185 L307.630839,214.311185 L307.630839,272.375693 C307.630839,273.639385 306.606363,274.664147 305.342385,274.664147"/>
    <line x1="287.692" x2="287.692" y1="261.416" y2="242.084" stroke="#0C266D" stroke-linecap="round" stroke-linejoin="round" stroke-width=".5"/>
    <path stroke="#0633EF" stroke-width=".5" d="M151.225375,252.702867 C150.312629,253.584959 145.453818,255.084143 145.453818,255.084143 C145.453818,255.084143 147.119164,250.279764 148.03191,249.397672 C148.94437,248.515867 150.399148,248.540791 151.28124,249.453537 C152.163045,250.366283 152.138121,251.821061 151.225375,252.702867 Z"/>
    <path stroke="#0633EF" stroke-width=".5" d="M139.682405,257.465017 C140.595151,256.583212 145.453962,255.084028 145.453962,255.084028 C145.453962,255.084028 143.788616,259.888406 142.87587,260.770212 C141.963124,261.652017 140.508345,261.627093 139.62654,260.714347 C138.744735,259.801601 138.769659,258.346823 139.682405,257.465017 Z"/>
    <path fill="#FF6700" d="M161.613318,123.25518 C161.613318,125.373174 159.896691,127.089801 157.778696,127.089801 C155.660988,127.089801 153.944075,125.373174 153.944075,123.25518 C153.944075,121.137472 155.660988,119.420558 157.778696,119.420558 C159.896691,119.420558 161.613318,121.137472 161.613318,123.25518"/>
    <path fill="#FFB280" d="M173.680444,123.25518 C173.680444,125.373174 171.96353,127.089801 169.845822,127.089801 C167.728114,127.089801 166.011201,125.373174 166.011201,123.25518 C166.011201,121.137472 167.728114,119.420558 169.845822,119.420558 C171.96353,119.420558 173.680444,121.137472 173.680444,123.25518"/>
    <path fill="#3B7CFF" d="M185.747426,123.25518 C185.747426,125.373174 184.030513,127.089801 181.912805,127.089801 C179.795097,127.089801 178.078183,125.373174 178.078183,123.25518 C178.078183,121.137472 179.795097,119.420558 181.912805,119.420558 C184.030513,119.420558 185.747426,121.137472 185.747426,123.25518"/>
    <path fill="#FFB280" d="M84.4871735,141.145631 C84.8954168,141.620052 85.3515032,142.064679 85.8551465,142.472636 C90.3847843,146.141382 97.0309843,145.443501 100.69973,140.913863 C103.451433,137.516706 103.746801,132.928912 101.811584,129.299701 C101.793822,129.266182 101.752855,129.197139 101.752855,129.197139 C100.767341,128.778296 83.8073411,135.977987 83.8073411,135.977987 C83.8073411,135.977987 83.6855843,139.758177 84.3642708,140.966577 C84.40266,141.035047 84.4436276,141.094923 84.4871735,141.145631"/>
    <path fill="#FFB280" d="M100.490824,138.120734 C100.272235,138.71061 100.897635,139.486129 101.887732,139.852832 C102.87783,140.219248 103.857327,140.038189 104.075916,139.448313 C104.294219,138.858437 103.668819,138.082918 102.679008,137.716216 C101.688911,137.349799 100.709414,137.530572 100.490824,138.120734"/>
    <path stroke="#0C266D" stroke-linecap="round" stroke-linejoin="round" stroke-width=".5" d="M95.994333,141.126608 C95.9235708,141.124889 95.8539546,141.122024 95.7857708,141.112284 C95.7158681,141.10197 95.6465384,141.092516 95.579787,141.074467 C95.5118897,141.055846 95.4485762,141.025478 95.3844032,140.999408 C95.3193708,140.972765 95.2569168,140.942684 95.1961816,140.908878 C95.13516,140.875073 95.0744249,140.840694 95.0182735,140.799727 C94.9618357,140.758759 94.9071168,140.7155 94.8558357,140.667943 C94.8051276,140.620386 94.7561384,140.570538 94.71116,140.517251 C94.6661816,140.463965 94.6234951,140.4081 94.5853924,140.349943 C94.5472897,140.2915 94.5186411,140.227613 94.4874141,140.165159 C94.45676,140.102705 94.4289708,140.039392 94.4057654,139.973213 C94.38256,139.907894 94.36136,139.841716 94.3464627,139.773246 C94.3315654,139.705635 94.3209654,139.636878 94.3143762,139.566689 C94.307787,139.497932 94.3011978,139.428316 94.3032032,139.357554"/>
    <path fill="#0C266D" d="M99.5646422,136.638367 C99.5563341,136.981005 99.2715665,137.252308 98.9289286,137.243713 C98.5860043,137.235405 98.3152746,136.950638 98.3235827,136.608 C98.3318908,136.265362 98.6163719,135.994346 98.9592962,136.002654 C99.3019341,136.011249 99.5729503,136.29573 99.5646422,136.638367"/>
    <path fill="#FF6700" d="M94.7343654,123.982884 C91.4672735,123.195333 88.085587,123.985749 85.499187,125.907787 C84.0951168,126.951457 82.4137276,127.56683 80.6684519,127.688014 C78.5220951,127.837273 75.7050735,128.740279 74.3826519,132.165798 C73.4054465,134.697479 74.2617546,137.342036 76.0600303,139.374657 C79.8688681,143.67883 87.7283384,139.8889 89.6850411,139.037176 C89.04016,138.312079 88.9396032,137.158684 89.7752843,136.272868 C90.0580465,135.973203 90.4439438,135.782403 90.8539059,135.74029 C90.9407114,135.731409 91.0257978,135.727111 91.1088789,135.727111 C94.4129276,135.731695 97.5562573,134.287517 99.7516032,131.81829 C100.473549,131.006387 101.151663,130.148073 101.781074,129.245354 C101.781503,129.244781 101.781503,129.243636 101.781074,129.242776 C100.319992,126.714819 97.8733978,124.739781 94.7343654,123.982884"/>
    <path fill="#FFB280" d="M120.19293,165.660938 C118.641032,162.048057 118.999427,157.880538 121.180735,154.577349 C121.702714,153.794095 122.753546,153.52136 123.560292,154.005809 C124.421757,154.523203 124.667562,155.648236 124.116649,156.474749 L124.115216,156.476754 C123.431659,157.502663 122.824595,159.82836 122.824595,159.82836 L126.938254,158.409392 L133.015492,147.204619 C133.499081,146.312787 134.614086,145.982181 135.506205,146.465771 C136.334151,146.914981 136.688249,147.917684 136.325843,148.787457 L124.500254,172.454679 L118.728124,169.128857 L120.19293,165.660938 Z"/>
    <path fill="#0C266D" d="M123.651882,161.428129 L123.651882,161.428129 C124.57666,161.897967 125.707136,161.529259 126.17726,160.60448 L133.73506,145.730961 C134.204898,144.805897 133.83619,143.675421 132.911411,143.205583 C131.986633,142.735459 130.855871,143.104453 130.386033,144.029232 L122.828233,158.902751 C122.358395,159.827529 122.727103,160.958005 123.651882,161.428129"/>
    <path fill="#3B7CFF" d="M86.0729049,150.016914 L86.0729049,150.016914 C88.9051103,150.967763 91.2494292,152.740827 92.9139157,154.991179 L92.9227968,154.988027 L103.206516,168.602725 C106.658105,173.172184 113.885872,171.536346 115.033537,165.926081 C115.422013,164.769249 116.686278,164.140698 117.84311,164.529173 L129.020381,168.28186 C129.988705,168.607022 130.549932,169.616314 130.315586,170.610422 L130.147991,171.321195 C125.783656,189.829368 103.030899,195.217319 90.6117103,182.596444 L76.4369319,166.24093 C71.1472454,160.137909 74.8689914,150.51139 82.9060832,149.714957 C84.0102022,149.605233 85.0805157,149.68373 86.0729049,150.016914"/>
    <path stroke="#0C266D" stroke-linecap="round" stroke-linejoin="round" stroke-width=".5" d="M100.901388,188.91794 L100.627221,188.819389 C95.0014854,186.798799 90.2498205,182.890837 87.1809773,177.76101 L87.1809773,177.76101"/>
    <path fill="#3B7CFF" d="M180.087198,217.992966 L164.648728,217.992966 C162.598058,217.992966 160.922398,216.356556 160.873982,214.306458 L160.145734,215.642345 C159.35589,217.091393 157.837512,217.992966 156.18735,217.992966 C154.508539,217.992966 152.968674,217.060166 152.191436,215.572156 L151.530225,214.306458 L183.773706,214.306458 C183.773706,216.342518 182.123258,217.992966 180.087198,217.992966"/>
    <path fill="#CCDEFF" d="M183.773764,214.306544 L151.52971,214.306544 L149.571288,210.802241 C152.423261,207.406517 156.62258,205.434917 161.056531,205.40942 L161.320672,205.407701 C161.536969,203.006944 164.06378,201.542425 166.254542,202.548279 L180.397234,209.041209 C182.45478,209.985755 183.773764,212.042441 183.773764,214.306544"/>
    <path fill="#3B7CFF" d="M194.463434,146.682039 L196.823796,161.623742 C197.137212,163.60852 195.809634,165.480423 193.833164,165.840823 L195.237521,166.341601 C196.760483,166.884493 197.865175,168.216083 198.117569,169.812958 C198.437002,171.917774 197.28991,173.968445 195.343807,174.831342 L195.242391,174.87632 L190.332012,143.677656 C192.302466,143.366531 194.15231,144.711585 194.463434,146.682039"/>
    <path fill="#CCDEFF" d="M190.34267,143.67714 L195.242448,174.876664 L187.118551,178.262934 C184.952999,174.502226 184.127059,170.118124 184.776237,165.827416 L184.918335,164.887453 C182.969081,165.057053 181.450989,163.226118 181.978697,161.341897 L185.791545,147.729778 C186.386291,145.60548 188.164226,144.022643 190.34267,143.67714"/>
    <path fill="#FFF" d="M122.985199,124.677958 L122.985199,124.677958 C121.55735,124.677958 120.399945,125.835363 120.399945,127.263212 C120.399945,125.835363 119.242539,124.677958 117.814691,124.677958 C115.665183,124.677958 114.454491,127.148331 115.771469,128.847196 L119.571712,133.749552 C119.991129,134.290725 120.808475,134.290725 121.228177,133.749552 L125.028421,128.847196 C126.345399,127.148331 125.134421,124.677958 122.985199,124.677958"/>
    <path fill="#3B7CFF" d="M240.181664,174.555169 C240.169631,174.446304 240.161037,174.337726 240.146426,174.228288 L240.146712,174.228288 C238.97928,165.440029 230.908669,159.261947 222.12041,160.429093 L222.12041,160.429093 C213.331864,161.596526 207.153783,169.667137 208.321215,178.455396 C209.488361,187.243942 217.559258,193.421737 226.347518,192.254591 L226.347518,192.254591 C233.395085,191.318639 238.759831,185.941861 240.008339,179.317147 L244.838215,176.65225 L240.181664,174.555169 Z"/>
    <path fill="#FFF" d="M227.518761,170.829842 L227.518761,170.829842 C225.512782,170.829842 223.886398,172.456226 223.886398,174.462204 C223.886398,172.456226 222.260301,170.829842 220.254036,170.829842 L220.254036,170.829842 C217.233896,170.829842 215.533025,174.300912 217.383155,176.687631 L222.72269,183.575626 C223.312279,184.335961 224.460517,184.335961 225.050106,183.575626 L230.389642,176.687631 C232.239771,174.300912 230.538901,170.829842 227.518761,170.829842"/>
    <polyline stroke="#3B7CFF" stroke-linecap="round" stroke-linejoin="round" stroke-width=".5" points="174.628 206.392 172.688 207.976 172.593 205.331 170.239 206.993 170.529 204.401"/>
    <path stroke="#0C266D" stroke-linecap="round" stroke-linejoin="round" stroke-width=".5" d="M186.639221,223.118919 L78.2905091,223.118919 C71.5026642,223.118919 66,217.617514 66,210.830935 L66,124.249859 C66,117.463567 71.5026642,111.962162 78.2905091,111.962162 L186.639221,111.962162 C193.427065,111.962162 198.92973,117.463567 198.92973,124.249859 L198.92973,210.830935 C198.92973,217.617514 193.427065,223.118919 186.639221,223.118919 Z"/>
    <path stroke="#0C266D" stroke-linecap="round" stroke-linejoin="round" stroke-width=".5" d="M125.203492,108.295371 C138.521963,78.3174253 173.620855,64.8121658 203.598801,78.1306361 C233.577033,91.4491063 247.082006,126.547712 233.763822,156.525944"/>
    <path fill="#FF6700" d="M220.310016 131.169512L220.310016 131.169512C218.853805 131.169512 217.673194 132.350123 217.673194 133.806334 217.673194 132.350123 216.492583 131.169512 215.036372 131.169512 212.844178 131.169512 211.609421 133.689161 212.95247 135.421545L216.828632 140.421593C217.256356 140.973653 218.090032 140.973653 218.518043 140.421593L222.393918 135.421545C223.736967 133.689161 222.50221 131.169512 220.310016 131.169512M247.299764 95.3952285L247.299764 95.3952285C245.843554 95.3952285 244.662943 96.5758393 244.662943 98.0320501 244.662943 96.5758393 243.482332 95.3952285 242.026121 95.3952285 239.833926 95.3952285 238.59917 97.9148772 239.942218 99.6475474L243.818381 104.64731C244.246105 105.199369 245.079781 105.199369 245.507791 104.64731L249.383667 99.6475474C250.726716 97.9148772 249.491959 95.3952285 247.299764 95.3952285M184.685679 84.794369L184.685679 84.794369C183.229468 84.794369 182.048857 85.9749799 182.048857 87.4311907 182.048857 85.9749799 180.868533 84.794369 179.412036 84.794369 177.219841 84.794369 175.985084 87.3140177 177.328133 89.046688L181.204295 94.0464501C181.632019 94.5985096 182.465695 94.5985096 182.893706 94.0464501L186.769582 89.046688C188.11263 87.3140177 186.877874 84.794369 184.685679 84.794369"/>
    <polyline stroke="#3B7CFF" stroke-linecap="round" stroke-linejoin="round" stroke-width=".5" points="184.865 150.495 186.861 152.147 184.232 152.452 186.078 154.666 183.47 154.585"/>
    <line x1="64" x2="320" y1="284.5" y2="284.5" stroke="#0C266D" stroke-linecap="round" stroke-linejoin="round" stroke-width=".5"/>
  </g>
</svg>
