<svg xmlns="http://www.w3.org/2000/svg" xmlns:xlink="http://www.w3.org/1999/xlink" width="384" height="286" viewBox="0 0 384 286">
  <defs>
    <path id="telecommunications-a" d="M54.8917157,0.0694192771 C51.5283867,0.0694192771 48.3911964,1.12157711 45.8083084,2.92682892 L45.8083084,2.92682892 L45.7995434,2.92016747 L29.945653,13.7657024 C24.6245602,17.4056566 17.4964627,13.0697566 18.281812,6.67091205 L18.281812,6.67091205 C18.281812,5.29725181 17.1577807,4.17357108 15.7844711,4.17357108 L15.7844711,4.17357108 L2.50996265,4.17357108 C1.36033735,4.17357108 0.399336145,5.0493759 0.293454217,6.19444337 L0.293454217,6.19444337 L0.217373494,7.0127494 C-1.75651807,28.3300771 20.595788,42.2339169 38.3730831,33.2143193 L38.3730831,33.2143193 L35.2327373,50.0172904 C34.5560747,53.6376108 37.3338976,56.9827084 41.0169759,56.9827084 L41.0169759,56.9827084 L70.2943807,56.9827084 C73.8789398,56.9827084 75.2687277,53.8651518 74.8700928,50.3026807 L74.8700928,50.3026807 L70.6628639,14.1748554 C69.7642699,6.14325542 62.9738024,0.0694192771 54.8920663,0.0694192771 L54.8920663,0.0694192771 L54.8917157,0.0694192771 Z"/>
    <polygon id="telecommunications-c" points=".291 .123 34.66 .123 34.66 4.207 .291 4.207"/>
  </defs>
  <g fill="none" fill-rule="evenodd">
    <g transform="translate(96 39.334)">
      <path fill="#3B7CFF" d="M24.6655455,198.256863 C24.4366022,198.464419 24.2111648,198.678637 23.9895841,198.900218 C21.8754516,201.01435 20.4074793,203.500122 19.3896805,205.858975 L19.3896805,199.368973 C19.3896805,193.853647 22.4781371,188.763952 27.4307467,186.336731 C29.4291805,185.357499 31.4602202,184.039584 33.2307624,182.269042 C33.4519925,182.047812 33.6665612,181.822024 33.8737672,181.593431 C40.5320576,174.244454 32.5085214,166.220918 25.1595443,172.878858 C24.930601,173.086414 24.7051636,173.300632 24.4835829,173.522213 C21.9992142,176.006932 20.4071287,179.004934 19.3896805,181.706325 L19.3896805,166.68161 C19.3896805,160.625303 22.640466,154.986565 27.965766,152.101808 C29.6651359,151.181477 31.3564419,150.004505 32.8598251,148.501472 C33.0810552,148.279891 33.2956239,148.054454 33.5028299,147.825511 C40.1614708,140.476534 32.1375841,132.453348 24.7889576,139.111288 C24.5600142,139.318844 24.3345769,139.533063 24.1129961,139.754643 C23.5997142,140.267925 23.128154,140.804347 22.688148,141.354091 C22.6888492,141.182997 22.689901,141.011553 22.6846419,140.841511 C22.4413239,133.110026 13.5910672,132.951905 13.0725263,140.670417 C13.0563986,140.91093 13.0458805,141.153196 13.0416733,141.397216 C13.0381672,141.58584 13.0399202,141.773061 13.0437769,141.959582 C12.4782552,141.19632 11.8527805,140.454446 11.1529781,139.754643 C10.9303455,139.532011 10.7038564,139.317091 10.4738612,139.108483 C4.60688048,133.796506 -3.54602795,141.973606 1.7719094,147.835678 C1.9763106,148.061116 2.18772386,148.283047 2.40579855,148.501472 C3.90953229,150.004505 5.60048771,151.181477 7.29985759,152.101808 C12.6255082,154.986565 15.8762937,160.625303 15.8762937,166.68161 L15.8762937,169.803023 C14.8718178,167.613511 13.4718624,165.34932 11.5235648,163.400672 C11.3002311,163.177338 11.0726901,162.961017 10.8416431,162.751707 C4.97431181,157.439029 -3.17894723,165.610169 2.1365359,171.474695 C2.34304072,171.702937 2.55655759,171.926972 2.7767359,172.147501 C4.73204554,174.10246 7.00465036,175.505571 9.20047325,176.510748 C13.2856925,178.38016 15.8762937,182.493778 15.8762937,186.986748 L15.8762937,194.616558 C14.8718178,192.427396 13.4718624,190.162855 11.5235648,188.214558 C11.3096973,188.00069 11.0919733,187.793134 10.8710937,187.592589 C5.00130819,182.255719 -3.18070024,190.439831 2.15581904,196.309967 C2.35636361,196.530496 2.56321904,196.74787 2.7767359,196.961387 C4.61704795,198.801699 6.73854313,200.15292 8.81270699,201.143022 C13.155619,203.216835 15.8762937,207.651254 15.8762937,212.463623 L15.8762937,223.189602 L19.3896805,223.189602 L19.3896805,223.037791 C19.3896805,218.248563 22.2015118,213.939659 26.5377624,211.906165 C28.6631142,210.909052 30.8480684,209.535391 32.736413,207.647047 C32.9579937,207.425466 33.1722118,207.200379 33.3797684,206.971085 C40.0377082,199.622459 32.014172,191.598923 24.6655455,198.256863"/>
      <path fill="#FFB280" d="M27.8178819,216.327612 L30.2331819,211.431449 C31.0143241,209.848129 29.8622446,207.994494 28.0962602,207.994494 L5.65805663,207.994494 C3.89733133,207.994494 2.7445506,209.838663 3.51657711,211.421632 L5.97815663,216.470658 C7.28800723,219.157675 7.07378916,222.313447 5.49257229,224.850406 C4.19113614,226.937191 3.44820964,229.408237 3.47310241,232.054584 C3.54076867,239.295225 9.43930361,245.222159 16.6792434,245.322782 C24.1656566,245.426911 30.2671904,239.389187 30.2671904,231.926614 C30.2671904,229.348985 29.5389892,226.941399 28.2775217,224.898438 C26.6710614,222.29767 26.4656084,219.068972 27.8178819,216.327612"/>
      <path stroke="#0C266D" stroke-linecap="round" stroke-linejoin="round" stroke-width=".5" d="M156.878345,53.505013 C154.582951,55.445948 152.84221,58.2770624 152.040032,61.3753359 C151.659278,62.8457624 151.502559,64.4928925 152.136097,65.7617227 C153.13321,67.757001 155.633356,67.9617528 157.636348,67.2486275 C159.952427,66.4240106 162.056042,64.6524166 163.468969,62.3370383 C163.97559,61.5071624 164.358798,60.2632251 163.722104,59.6580853 C163.043338,59.0133275 161.989077,59.7909636 161.328542,60.5622889 C159.568167,62.6171696 157.952942,65.1369492 157.828127,67.9305492 C157.741178,69.8756913 158.692362,71.8453757 160.089162,72.6727973"/>
      <polygon fill="#3B7CFF" points="88.544 236.318 104.614 236.318 104.614 226.23 88.544 226.23"/>
      <polygon fill="#3B7CFF" points="169.172 186.456 179.297 189.759 175.103 206.802 162.598 202.159"/>
      <path fill="#0C266D" d="M73.2619846,236.964876 L87.8943761,232.015773 C89.9909786,231.306504 92.1538448,232.898589 92.099852,235.111241 C95.7019412,233.01534 99.9764858,232.397929 104.024541,233.387329 L104.613904,233.531076 L104.613904,241.717642 L96.1444014,244.239876 L88.1229689,244.239876 L69.8523761,241.717642 C69.8523761,239.565995 71.2239328,237.65416 73.2619846,236.964876"/>
      <path fill="#0633EF" d="M73.5179945,245.383471 L100.948075,245.383471 C102.972453,245.383471 104.613974,243.741951 104.613974,241.717572 L69.8520957,241.717572 C69.8520957,243.741951 71.4936161,245.383471 73.5179945,245.383471"/>
      <polygon fill="#FF9357" points="121.981 236.524 104.638 236.524 104.577 228.964 121.981 228.964"/>
      <polygon fill="#FF6700" points="75.721 222.128 79.004 227.914 64.713 235.649 61.626 230.007"/>
      <path fill="#0C266D" d="M102.100384,133.981238 L102.100384,135.983879 C102.093037,142.419888 104.570394,149.53922 109.17766,154.033242 L109.295112,154.033242 C124.617489,168.979423 133.888469,188.970421 135.60607,210.30563 L136.758851,225.814177 C136.92118,227.613819 138.44069,228.985376 140.247345,228.963638 L156.926904,228.963638 C158.958645,228.938746 160.531798,227.176968 160.327397,225.155395 L158.716378,207.840544 C155.899639,181.67719 144.980477,154.013258 127.916307,133.981238 L102.100384,133.981238 Z"/>
      <path fill="#0C266D" d="M99.2923202,228.963708 L122.625261,228.963708 C124.62685,228.963708 126.249789,227.34077 126.249789,225.33883 L126.249789,133.981308 L99.2923202,133.981308 L99.2923202,228.963708 Z"/>
      <path fill="#CCDEFF" d="M79.0038704,227.913935 L82.6939607,234.184809 C83.8719848,236.255818 71.2709836,240.55245 69.1284523,241.594791 L50.1054667,241.594791 L50.1014182,241.188093 C50.0830282,239.234887 51.4153173,237.527803 53.31418,237.070618 L58.9392451,235.941327 C60.1204246,235.653833 61.1220957,234.874444 61.6904222,233.799497 L62.1419981,232.946482 C62.6472161,231.991791 63.9854655,231.914659 64.5965655,232.805189 L65.73988,234.47055 L79.0038704,227.913935 Z"/>
      <path fill="#0C266D" d="M80.0916143,183.404889 L73.0287288,190.336649 C68.4989457,194.781937 67.5526698,201.729825 70.728777,207.224466 L77.5756914,219.088501 C78.7200577,221.243654 78.2782987,223.010339 76.2202625,224.091597 L62.2725975,230.521295 C60.6202083,231.274038 58.8289806,230.825968 57.8560589,228.963568 L51.521024,217.59213 C44.9472288,205.192374 46.6809577,190.026015 55.8832192,179.429408 L64.1104553,169.95543 L80.0916143,183.404889 Z"/>
      <polygon fill="#0633EF" points="70.485 131.01 87.517 228.964 92.806 228.964 104.581 228.964 105.449 131.847"/>
      <path fill="#FFB280" d="M156.84006,78.915098 C157.734446,78.2152955 159.041843,78.3001413 159.783016,79.1605196 C160.574326,80.079098 160.430579,81.4615233 159.487108,82.1998919 L159.484303,82.2019955 C156.683691,84.3943124 155.26866,87.9171654 155.774579,91.4375642 C155.940414,92.5906955 155.139988,93.6596823 153.987208,93.8251666 C153.360681,94.7377847 151.93969,94.4061148 151.782269,93.3104823 L151.595047,91.957157 C150.906464,86.9873678 152.902444,82.0245907 156.84006,78.915098"/>
      <path fill="#FFB280" d="M161.862509,88.3221463 L151.70731,95.0530113 C152.456898,95.84958 156.288632,98.3101077 157.085201,97.5608704 L176.384812,78.0088258 C177.12914,77.1494993 177.102845,75.8662945 176.323807,75.0381716 C175.484815,74.1465896 174.081704,74.1041667 173.190122,74.9431583 L161.947706,85.5229366 C161.151137,86.272174 161.112921,87.5255776 161.862509,88.3221463"/>
      <path fill="#FFB280" d="M150.836274,99.9854964 L151.017535,100.16816 C151.788159,100.944043 153.042264,100.948601 153.818147,100.177977 L164.940658,89.1340012 C165.716892,88.3637277 165.721099,87.1096229 164.950826,86.3337398 L164.769213,86.1507253 C163.998589,85.3744916 157.093124,84.9849723 156.316891,85.7555964 L147.669633,95.6394289 C146.893399,96.410053 150.06565,99.2092627 150.836274,99.9854964"/>
      <path fill="#0C266D" d="M157.080783,87.7003529 L157.080783,87.7003529 C157.962899,88.5884288 159.397914,88.5936878 160.28599,87.7115722 L174.572337,73.5261987 C175.460413,72.6444336 175.465672,71.209418 174.583557,70.321342 C173.701441,69.4325649 172.266425,69.4280071 171.378349,70.3097722 L157.092002,84.4947951 C156.203927,85.3769107 156.199018,86.812277 157.080783,87.7003529"/>
      <path fill="#FFB280" d="M69.3595343,20.0810335 C69.7942813,19.0316805 69.361638,17.7947552 68.3340223,17.3116251 C67.2369873,16.7955383 65.9439657,17.304613 65.4850271,18.4118154 L65.4839753,18.4146202 C64.1229367,21.7008166 61.1091584,24.0088323 57.581397,24.4656672 C56.4265127,24.6150239 55.611362,25.6727913 55.7607187,26.8276757 C55.049697,27.6757829 55.7502006,28.9558323 56.8479367,28.8138383 L58.2019633,28.6315251 C63.1742066,27.9618745 67.4200018,24.7082841 69.3595343,20.0810335"/>
      <path fill="#FFB280" d="M58.9505345,17.7651293 L55.1892718,29.3535907 C54.220908,28.8452172 50.8228694,25.8132076 51.3315935,24.8448437 L64.991414,1.00878831 C65.6196935,0.0614606024 66.8629296,-0.257236988 67.8695092,0.271471446 C68.9535718,0.840499157 69.3707887,2.18050157 68.8014104,3.26456422 L61.624579,16.9324486 C61.1158549,17.9008124 59.9188983,18.2735028 58.9505345,17.7651293"/>
      <path fill="#FFB280" d="M51.0291989,31.1000114 L50.8044628,30.9741452 C49.850123,30.4398271 49.5096881,29.2330536 50.0440061,28.2787139 L57.7008122,14.6017139 C58.2347796,13.6477247 59.4415531,13.3072898 60.3958929,13.8412572 L60.620629,13.9671235 C61.5749688,14.5014416 63.8023459,21.0492922 63.2680278,22.0039825 L56.0656025,32.98485 C55.5312845,33.9395404 51.9835387,31.6339789 51.0291989,31.1000114"/>
      <path fill="#0C266D" d="M60.8316917,22.2048427 L60.8316917,22.2048427 C59.7395652,21.593392 59.3496953,20.2120186 59.9611459,19.119892 L69.7958941,1.55330892 C70.4073447,0.460831807 71.7883676,0.0709619277 72.8804941,0.68241253 C73.9726206,1.29386313 74.3624905,2.67523663 73.7510399,3.76736313 L63.9166423,21.3346475 C63.3048411,22.426774 61.9238182,22.8162933 60.8316917,22.2048427"/>
      <path fill="#0633EF" d="M91.6721171,124.948458 L92.359999,125.142692 C98.5558448,126.885536 105.347364,114.004404 106.483667,133.981379 C107.495154,151.769893 134.70681,170.140057 154.771786,177.594215 L168.428451,182.586442 C170.1159,183.231901 171.022909,185.067305 170.510679,186.799982 L165.975636,202.850911 C165.399246,204.799559 163.275998,205.834538 161.386251,205.088105 L145.358812,199.544029 C120.947068,189.719448 98.3311087,175.690794 83.6938087,153.823021 L84.4507593,150.264056 L91.6721171,124.948458 Z"/>
      <path fill="#FFF" d="M160.31211,97.3744551 L150.189868,88.8947852 C149.191703,88.058949 147.686917,88.284737 146.978701,89.3772141 C143.564184,94.6446647 135.532934,93.4238671 133.837421,87.3801828 L130.793842,76.9318804 L109.289993,68.7880876 L113.741242,91.2697659 C118.166896,113.623124 147.287581,119.670665 160.247599,100.92746 L160.703032,100.269029 C161.339726,99.347996 161.170385,98.0935406 160.31211,97.3744551"/>
      <path fill="#FFB280" d="M40.8696877 109.31138C44.1232781 105.711044 45.311119 100.682354 43.9896986 95.9923453 43.6769612 94.9002188 42.568707 94.2011176 41.4636082 94.4623164 40.2834805 94.7410453 39.5878853 95.9439622 39.9181528 97.0963923L39.918854 97.0991971C40.3080227 98.4584827 40.3956733 99.8584381 40.2056467 101.213166 39.5885865 100.356995 37.6189022 98.8627272 35.9377636 97.8403706L33.6178275 83.2816055C33.4253467 82.0727284 32.2890443 81.2488128 31.0798166 81.4416441 29.9571877 81.6204513 29.151854 82.6193176 29.2156636 83.7545682L32.5358684 111.026177C32.5726817 111.258275 32.8121431 111.458119 33.1739648 111.628161L33.5592769 114.547978C33.7023227 115.63169 34.6973323 116.394951 35.7817455 116.251906L36.0366335 116.218248C37.1210467 116.075202 41.3426504 115.798927 41.1996046 114.714514L40.8696877 109.31138zM81.2400476 36.2559705C80.8210777 36.7215705 81.1306596 37.6829223 81.9310849 38.4034102 82.7315102 39.1242488 83.720209 39.3307536 84.1391789 38.864803 84.5581488 38.3995536 84.2489175 37.4382018 83.4481416 36.7177139 82.6477163 35.9972259 81.6590175 35.7907211 81.2400476 36.2559705"/>
      <path fill="#FFB280" d="M94.9546322,32.0062836 C92.3689394,36.1086824 98.7656804,40.0946812 98.2892117,44.7871439 C97.9235334,48.3888824 90.2470936,52.6564149 91.1467394,56.1974993 C88.593302,55.7150704 86.1699382,54.4336186 84.3008767,52.3496378 C79.7791575,47.3079752 80.2009322,39.5551041 85.2425948,35.0337354 C87.9948237,32.5654945 91.5534382,31.5813535 94.9546322,32.0062836"/>
      <path fill="#FF6700" d="M103.313379,36.9024112 C105.502541,39.8660534 106.15396,43.6153955 105.329343,47.0502473 C104.876014,48.9392931 104.952796,50.926157 105.582478,52.7636642 C106.336974,54.9661486 106.630429,58.1362955 103.882758,60.910963 C101.70727,63.1067859 98.3548094,63.7252486 95.5692733,62.3852461 C92.5341082,60.9249871 91.0401913,58.208169 90.9802383,55.4804823 C90.6573335,54.0693076 90.4287407,52.6427064 90.3056793,51.2090931 C90.2057576,50.0405353 90.8052877,48.8916112 91.862354,48.3832377 C92.1512504,48.2443992 92.417007,48.0364919 92.6371853,47.7570618 C93.1911371,47.054104 93.2524925,46.0604967 92.7879443,45.2951317 C92.2778178,44.4547377 91.3564347,44.1153546 90.494654,44.2654124 C91.0903275,39.9673775 92.5772323,35.7790811 94.9546672,32.0062486 C98.1465516,32.4052341 101.199948,34.0411449 103.313379,36.9024112"/>
      <path fill="#FFF" d="M131.389024,79.6200893 L136.483628,126.240743 C136.894183,130.386266 133.637788,133.981343 129.47193,133.981343 L101.604298,133.981343 C99.5027869,133.981343 97.83427,132.212905 97.9562796,130.11455 L100.649958,80.243811 C101.124674,72.0895001 107.875874,65.7201061 116.043858,65.7201061 C123.97168,65.7201061 130.607531,71.7308339 131.389024,79.6200893"/>
      <path fill="#3B7CFF" d="M103.698726,80.4712467 C103.247852,72.5048588 98.1448336,65.5527636 90.6798071,62.7346214 L70.3645011,55.0651937 C61.9588083,51.6492745 58.5022192,41.5985552 63.0291975,33.7348937 C63.9593457,32.1189672 63.3521023,30.0532178 61.6951553,29.1980986 L50.8734613,23.6119504 C49.3171372,22.8087202 47.4038999,23.3745925 46.5347565,24.8955058 C36.4111119,42.6121467 44.1226119,65.1923443 62.9685433,73.0149853 L66.3760481,74.462272 C70.8174794,76.348513 73.4634758,80.9578829 72.8527264,85.7446576 L66.6968493,133.981238 L106.483561,133.981238 L103.698726,80.4712467 Z"/>
      <path fill="#FFB280" d="M95.5368776,188.3034 L62.009821,188.3034 C59.683574,188.3034 57.7980342,186.417861 57.7980342,184.091614 L57.7980342,183.714716 C57.7980342,181.388469 59.683574,179.502579 62.009821,179.502579 L95.5368776,179.502579 C97.8631246,179.502579 99.7486643,181.388469 99.7486643,183.714716 L99.7486643,184.091614 C99.7486643,186.417861 97.8631246,188.3034 95.5368776,188.3034"/>
      <path fill="#0C266D" d="M38.5672116,103.225834 L38.5672116,103.225834 C37.326079,103.389565 36.1873224,102.516215 36.0235911,101.275433 L33.3902164,81.3156376 C33.2264851,80.0748557 34.0998357,78.936099 35.3409682,78.7723677 C36.5817501,78.6082858 37.7205067,79.4816364 37.8842381,80.7224183 L40.5176128,100.682213 C40.6816947,101.922995 39.8083441,103.061752 38.5672116,103.225834"/>
      <line x1="77.49" x2="80.206" y1="8.884" y2="9.037" stroke="#0C266D" stroke-linecap="round" stroke-linejoin="round" stroke-width=".5"/>
      <line x1="74.309" x2="72.864" y1="17.89" y2="15.749" stroke="#0C266D" stroke-linecap="round" stroke-linejoin="round" stroke-width=".5"/>
      <line x1="74.806" x2="80.318" y1="12.109" y2="15.432" stroke="#0C266D" stroke-linecap="round" stroke-linejoin="round" stroke-width=".5"/>
      <path fill="#0C266D" d="M102.563476,95.1369806 C102.563476,97.8744842 100.344513,100.093447 97.6070095,100.093447 C94.8698565,100.093447 92.6508939,97.8744842 92.6508939,95.1369806 C92.6508939,92.399477 94.8698565,90.1805143 97.6070095,90.1805143 C100.344513,90.1805143 102.563476,92.399477 102.563476,95.1369806"/>
      <path fill="#0C266D" d="M109.759205,103.322705 C108.835718,105.899633 105.997942,107.239636 103.421014,106.316149 C100.844437,105.392311 99.5040841,102.554886 100.427921,99.9779584 C101.351408,97.4010307 104.189184,96.0610283 106.765761,96.9848657 C109.342689,97.9083524 110.682691,100.745778 109.759205,103.322705"/>
      <path fill="#0C266D" d="M115.49783,109.947864 C115.49783,112.685367 113.278867,114.90433 110.541363,114.90433 C107.80421,114.90433 105.585248,112.685367 105.585248,109.947864 C105.585248,107.21036 107.80421,104.991398 110.541363,104.991398 C113.278867,104.991398 115.49783,107.21036 115.49783,109.947864"/>
      <polygon fill="#FF6700" points="44.218 227.34 45.854 233.161 30.395 238.217 28.644 232.029"/>
      <path fill="#0C266D" d="M98.0917524,161.462121 C98.0819355,173.706209 88.1535765,183.627206 75.909138,183.627206 L59.5780777,183.627206 C48.4205066,183.627206 40.0302404,193.800636 42.154891,204.754156 L46.7001006,223.284545 C47.1453657,225.152555 46.0570958,227.044055 44.2181861,227.597656 L28.6437259,232.286613 C26.6733404,232.879482 24.6051367,231.716533 24.0883488,229.725112 L20.338656,215.4009 C13.2540331,188.099841 33.8620922,161.462121 62.0670042,161.462121 L98.0917524,161.462121 Z"/>
      <path stroke="#0C266D" stroke-linecap="round" stroke-linejoin="round" stroke-width=".5" d="M136.390333,112.287714 L136.390333,112.287714 C131.352877,111.83158 126.617641,109.720603 122.94438,106.293465 L122.500166,105.879053"/>
    </g>
    <g transform="translate(123.516 143.813)">
      <mask id="telecommunications-b" fill="#fff">
        <use xlink:href="#telecommunications-a"/>
      </mask>
      <polygon fill="#FF9357" points="-4.687 60.305 81.02 60.305 81.02 -4.629 -4.687 -4.629" mask="url(#telecommunications-b)"/>
      <path fill="#FF9357" d="M0.588275783,30.8798331 C0.588275783,27.9060235 1.76419627,25.2084886 3.67392759,23.2212741 C3.3548794,23.2854343 3.02531313,23.3194428 2.68768301,23.3194428 L-2.4787941,23.3194428 L-2.4787941,44.3945042 L10.7476818,41.8975139 C5.06126133,41.4399777 0.588275783,36.684056 0.588275783,30.8798331" mask="url(#telecommunications-b)"/>
      <path fill="#FFE4D2" d="M53.8360869,-20.6939917 L53.6940929,-20.6939917 L53.8108435,-20.4510242 C53.8175049,-20.5320134 53.8255688,-20.6133531 53.8360869,-20.6939917" mask="url(#telecommunications-b)"/>
      <path fill="#FF9357" d="M13.2875158,-15.520187 L24.0475037,-20.6940267 L7.69084952,-20.6940267 L7.69084952,-9.34327373 C8.64589048,-11.9584171 10.580164,-14.2184002 13.2875158,-15.520187" mask="url(#telecommunications-b)"/>
      <path fill="#FF6700" d="M8.10971422,-0.751761687 L19.6568046,23.2627504 C17.6422431,21.1447612 14.7992082,19.8226395 11.6455395,19.8226395 C9.98754072,19.8226395 8.41649133,20.1897202 7.00496602,20.8435937 C7.44006361,20.101719 7.69074434,19.2385359 7.69074434,18.316101 L7.69074434,-1.74501831 C7.81345518,-1.41089422 7.95229373,-1.07922434 8.10971422,-0.751761687 L8.10971422,-0.751761687 Z M-2.47882916,23.3191973 L2.68764795,23.3191973 C3.02527807,23.3191973 3.35484434,23.2855395 3.67389253,23.2213793 C1.76451181,25.2085937 0.588240723,27.9057781 0.588240723,30.8799383 C0.588240723,36.6838106 5.06122627,41.4400829 10.7476467,41.897619 L-2.47882916,44.3946094 L-2.47882916,57.2718853 L47.7519781,57.2718853 C50.105572,51.642613 51.4536383,45.2269395 51.558819,37.9337082 C51.5868672,35.9969805 49.8408672,34.5177889 47.9377973,34.8768058 L16.5122516,40.8093492 C20.178501,39.0090058 22.7028383,35.2396793 22.7028383,30.8799383 C22.7028383,29.4673612 22.4353287,28.1185937 21.9528998,26.8771106 C25.1686251,30.3196757 30.365254,31.4412528 34.8350841,29.29206 L59.7008588,17.3358166 C59.7250504,17.3242467 59.7478395,17.3112745 59.7720311,17.299354 C54.7699865,21.5626793 51.5970347,27.9085829 51.5970347,34.9960106 C51.5970347,45.5203937 58.5926046,54.4095672 68.1864889,57.2718853 L75.4874335,57.2718853 L75.4874335,11.7605371 C75.2728648,11.7549275 75.0575949,11.7514214 74.8416239,11.7514214 C70.444719,11.7514214 66.332854,12.9729202 62.8268299,15.0937142 C65.9829528,11.8601082 66.9506154,6.87594434 64.8789058,2.56704072 L56.0686178,-15.7557918 L75.4874335,3.66302386 L75.4874335,-20.6940267 L53.8359817,-20.6940267 C53.8258142,-20.6130376 53.8173998,-20.5320484 53.8110889,-20.4510593 L53.6939877,-20.6940267 L24.0473986,-20.6940267 L13.2874106,-15.520187 C10.5800588,-14.2184002 8.6457853,-11.9584171 7.69074434,-9.34327373 L7.69074434,-20.6940267 L-2.47882916,-20.6940267 L-2.47882916,23.3191973 Z" mask="url(#telecommunications-b)"/>
    </g>
    <polygon points="0 0 384 0 384 285 0 285"/>
    <path stroke="#0C266D" stroke-linecap="round" stroke-linejoin="round" stroke-width=".5" d="M181.656726 75.8201599C180.794595 76.8123647 180.900126 78.3153972 181.891981 79.1775286 182.883835 80.0396599 184.386867 79.9341286 185.248999 78.9422743 186.11113 77.9500695 186.005949 76.447037 185.013744 75.5849057 184.02189 74.7227743 182.518858 74.8283057 181.656726 75.8201599zM185.249139 78.9423795L190.224888 83.266359C191.790679 84.627047 191.956864 86.9992229 190.596176 88.5650133M183.370892 85.7133886C182.631471 86.421956 181.457654 86.3974139 180.748736 85.6579934"/>
    <path fill="#FFB280" d="M184.355594,132.682121 C184.355594,132.682121 184.27215,139.173875 181.201574,140.134526 C181.11778,140.16047 181.037142,140.216567 180.952997,140.241109 C178.337153,140.995956 175.444683,140.821356 172.776248,139.596 C166.867896,136.881987 164.278347,129.892728 166.992009,123.984376 C167.877982,122.055011 169.044786,120.569509 170.656155,119.416937 C170.725925,119.366943 184.355594,132.682121 184.355594,132.682121"/>
    <path fill="#FFB280" d="M164.182176,126.332922 C164.051752,126.90791 164.748049,127.555472 165.737098,127.779507 C166.725797,128.003542 167.633156,127.718853 167.763229,127.143865 C167.893653,126.568877 167.197357,125.920964 166.208658,125.697279 C165.219609,125.473244 164.3126,125.757583 164.182176,126.332922"/>
    <path fill="#0C266D" d="M169.763486,127.943519 C169.681095,128.307795 169.909337,128.669967 170.273613,128.752709 C170.637889,128.835101 171.000412,128.606859 171.082803,128.242583 C171.165195,127.877956 170.936953,127.515784 170.572677,127.433392 C170.208401,127.351001 169.845878,127.579243 169.763486,127.943519"/>
    <path stroke="#0C266D" stroke-linecap="round" stroke-linejoin="round" stroke-width=".5" d="M174.024638,133.758225 C173.783423,134.753585 172.7807,135.364685 171.78534,135.123821"/>
    <path fill="#3B7CFF" d="M176.996204,279.226741 L166.626787,284.271208 C166.085457,284.534861 165.491186,284.671596 164.888851,284.671596 L149.845202,284.671596 C147.7777,284.671596 146.10182,282.995717 146.10147,280.928565 L164.45761,280.928565 L178.739048,273.599572 C179.89253,275.626755 179.093157,278.206488 176.996204,279.226741"/>
    <path fill="#FFB280" d="M185.871002,284.671701 L185.871002,284.671701 C185.126673,284.671701 184.487175,284.144045 184.345882,283.413389 L173.417254,227.001812 L176.240305,225.237931 L187.396123,282.822624 C187.581942,283.781171 186.84743,284.671701 185.871002,284.671701"/>
    <path fill="#FFB280" d="M163.834729,284.671701 L163.834729,284.671701 C164.579058,284.671701 165.218557,284.144045 165.35985,283.413389 L176.288478,227.001812 L173.465427,225.237931 L162.309609,282.822624 C162.12379,283.781171 162.858302,284.671701 163.834729,284.671701"/>
    <path fill="#CCDEFF" d="M141.853852,272.494754 L144.1517,280.671153 L111.282373,281.630751 L109.781094,280.717783 C109.846656,278.705675 111.230133,276.976855 113.179132,276.471637 L124.622795,273.50554 C126.532176,273.01084 128.487135,274.130665 129.02566,276.028125 L141.853852,272.494754 Z"/>
    <g transform="translate(109.492 280.548)">
      <mask id="telecommunications-d" fill="#fff">
        <use xlink:href="#telecommunications-c"/>
      </mask>
      <path fill="#3B7CFF" d="M30.408904,4.2073341 L4.13826542,4.2073341 C1.97294494,4.2073341 0.233956988,2.42066422 0.292156988,0.255694337 L0.295663012,0.123166627 L34.6599582,0.123166627 C34.5688016,2.40453651 32.6923775,4.2073341 30.408904,4.2073341" mask="url(#telecommunications-d)"/>
    </g>
    <path fill="#FF6700" d="M233.519518,281.115331 L200.613729,281.05117 L200.613729,272.864955 L216.869409,275.375268 L216.85819,273.866626 C216.84627,272.25105 218.527759,271.178557 219.987317,271.870997 L230.002976,276.619907 C231.818044,277.480285 233.121233,279.146348 233.519518,281.115331"/>
    <line x1="225.833" x2="224.299" y1="271.139" y2="274.591" stroke="#0C266D" stroke-linecap="round" stroke-linejoin="round" stroke-width=".5"/>
    <line x1="228.187" x2="224.3" y1="272.94" y2="274.591" stroke="#0C266D" stroke-linecap="round" stroke-linejoin="round" stroke-width=".5"/>
    <path fill="#FF9357" d="M233.519518,281.115331 L200.613729,281.05117 L200.613729,282.548593 C200.613729,283.663158 201.477613,284.618901 202.591126,284.656766 C203.413639,284.684463 204.130621,284.226577 204.481574,283.548161 C204.82236,284.206943 205.508138,284.657817 206.30085,284.657817 C207.093212,284.657817 207.779341,284.206943 208.120126,283.548161 C208.460561,284.206943 209.14669,284.657817 209.939402,284.657817 C210.731763,284.657817 211.417892,284.206943 211.758327,283.548161 C212.099113,284.206943 212.785242,284.657817 213.577603,284.657817 C214.370315,284.657817 215.056444,284.206943 215.396879,283.548161 C215.737665,284.206943 216.423794,284.657817 217.216155,284.657817 C218.008867,284.657817 218.694645,284.206943 219.035431,283.548161 C219.376217,284.206943 220.061995,284.657817 220.854707,284.657817 C221.647068,284.657817 222.333197,284.206943 222.673983,283.548161 C223.014418,284.206943 223.700547,284.657817 224.493259,284.657817 C225.28562,284.657817 225.971749,284.206943 226.312184,283.548161 C226.65297,284.206943 227.339098,284.657817 228.13146,284.657817 C228.924172,284.657817 229.60995,284.206943 229.950736,283.548161 C230.291521,284.206943 230.97765,284.657817 231.770012,284.657817 C232.194241,284.657817 232.588318,284.528796 232.91543,284.307916 C233.592092,283.851081 233.898519,283.008934 233.738294,282.208158 L233.519518,281.115331 Z"/>
    <polygon fill="#FF9357" points="235.907 275.858 252.99 275.858 252.99 268.297 235.907 268.297"/>
    <path fill="#FF6700" d="M268.812769,281.115331 L235.939937,281.715913 L235.90698,272.864955 L252.162661,275.375268 L252.152143,273.957783 C252.139871,272.299083 253.864835,271.19784 255.364362,271.907109 L265.315159,276.614297 C267.130228,277.472922 268.428859,279.144244 268.812769,281.115331"/>
    <line x1="260.872" x2="259.338" y1="271.139" y2="274.591" stroke="#0C266D" stroke-linecap="round" stroke-linejoin="round" stroke-width=".5"/>
    <line x1="263.225" x2="259.338" y1="272.94" y2="274.591" stroke="#0C266D" stroke-linecap="round" stroke-linejoin="round" stroke-width=".5"/>
    <path fill="#0C266D" d="M272.212245,262.393372 L267.364466,247.084318 C266.669922,244.890599 268.368591,242.675142 270.66714,242.776116 C268.722349,238.322764 268.062515,233.41398 268.762317,228.605117 L268.99091,227.035119 L277.787525,229.902697 L280.237534,238.75681 L280.075205,247.094135 L277.083164,266.033677 C274.847022,265.990203 272.887505,264.525386 272.212245,262.393372"/>
    <path fill="#0633EF" d="M280.967453,262.297833 L281.493708,235.306707 C281.540688,232.898419 280.050979,230.726437 277.78749,229.902872 L277.083129,266.033502 C279.187445,266.074522 280.926433,264.402149 280.967453,262.297833"/>
    <path stroke="#3B7CFF" stroke-linecap="round" stroke-linejoin="round" stroke-width=".5" d="M268.428369,250.992974 C269.887225,251.04907 270.8328,252.488293 271.993995,253.372513 C272.771631,253.965031 273.718608,254.331761 274.692231,254.41836 C277.100519,254.631877 279.355594,253.179331 281.767037,253.003328 C284.06734,252.83539 286.351514,253.878081 288.008461,255.482789"/>
    <path stroke="#3B7CFF" stroke-linecap="round" stroke-linejoin="round" stroke-width=".5" d="M268.402599 250.934423C269.728928 250.324375 271.223196 251.179495 272.659263 251.442797 273.620615 251.618799 274.631402 251.517475 275.53841 251.153901 277.782616 250.254605 279.136292 247.938526 281.20695 246.690381 283.181893 245.499385 285.690804 245.395256 287.89434 246.076126M121.02323 274.438844C120.956966 274.829766 120.84863 276.552626 120.84863 276.552626L119.279334 274.890771 118.699788 277.312381 117.40922 275.465057M156.319987 274.695976C156.253724 275.086898 156.145387 276.810108 156.145387 276.810108L154.57574 275.147902 153.996195 277.569513 152.705627 275.722189"/>
    <path fill="#FF9357" d="M268.812769,281.115331 L235.929068,281.05117 L235.929068,282.548593 C235.929068,283.663158 236.792602,284.618901 237.905063,284.656766 C238.727226,284.684463 239.443506,284.226577 239.794109,283.548161 C240.134544,284.206943 240.820322,284.657817 241.612333,284.657817 C242.404344,284.657817 243.089771,284.206943 243.430206,283.548161 C243.770641,284.206943 244.45642,284.657817 245.24843,284.657817 C246.040441,284.657817 246.725869,284.206943 247.066304,283.548161 C247.406739,284.206943 248.092167,284.657817 248.884177,284.657817 C249.676188,284.657817 250.361967,284.206943 250.702402,283.548161 C251.042837,284.206943 251.728264,284.657817 252.520275,284.657817 C253.312286,284.657817 253.998064,284.206943 254.338499,283.548161 C254.678583,284.206943 255.364362,284.657817 256.156373,284.657817 C256.948383,284.657817 257.633811,284.206943 257.974246,283.548161 C258.314681,284.206943 259.000459,284.657817 259.79247,284.657817 C260.584481,284.657817 261.269909,284.206943 261.610344,283.548161 C261.950779,284.206943 262.636557,284.657817 263.428568,284.657817 C264.220579,284.657817 264.906006,284.206943 265.246441,283.548161 C265.586876,284.206943 266.272304,284.657817 267.064315,284.657817 C267.488544,284.657817 267.88227,284.528796 268.209032,284.307916 C268.884993,283.851081 269.19142,283.008934 269.031545,282.208158 L268.812769,281.115331 Z"/>
    <path fill="#0C266D" d="M184.929354,119.785492 C184.666052,119.573728 184.396439,119.375637 184.121567,119.190519 C184.120164,119.189468 184.118411,119.188416 184.117009,119.187364 C183.984832,119.098662 183.851603,119.013115 183.716971,118.930372 C183.705752,118.92336 183.694533,118.916348 183.683313,118.909336 C182.843971,118.396756 181.959752,117.999874 181.05064,117.717989 C181.049939,117.717639 181.049238,117.717639 181.048887,117.717288 C177.540058,116.628317 173.669407,117.240118 170.65633,119.417009 C170.671757,119.676104 170.694897,120.142054 170.721192,120.705823 C170.866341,123.833898 172.410044,126.731627 174.926668,128.595078 L177.339163,130.382099 C177.752173,129.624447 178.625173,129.15499 179.591433,129.384635 C180.3291,129.560287 180.884104,130.118446 181.0566,130.856464 C181.216826,131.542943 181.024345,132.182442 180.626762,132.641731 C180.127854,133.218122 179.773045,133.913366 179.741491,134.675225 C179.713442,135.34698 179.781109,136.189828 180.023024,137.28511 C180.023024,137.28511 180.739305,140.273645 180.771911,140.291525 C181.914875,139.978788 183.016117,139.512837 184.000258,138.852653 C184.726005,138.365316 185.408277,137.792431 186.027441,137.150128 L186.027091,137.150128 C186.1491,137.02356 186.269357,136.894188 186.387159,136.76131 C186.506013,136.626328 186.623115,136.489593 186.73706,136.34795 C190.81071,131.275083 190.00187,123.859842 184.929354,119.785492"/>
    <path fill="#FFB280" d="M212.202821,86.9583076 C209.90357,92.8382606 212.806208,99.4685028 218.68581,101.767753 C224.565763,104.067355 231.196356,101.164717 233.495607,95.2847642 C235.794857,89.4051618 232.89222,82.7742184 227.012617,80.4749678 C221.132664,78.1757172 214.502072,81.0783546 212.202821,86.9583076"/>
    <path fill="#0C266D" d="M234.915967,88.6692123 L234.945418,88.6502798 C238.9507,86.128046 239.500795,80.5054352 236.060333,77.254299 C232.931557,74.2983701 227.930565,74.7057701 225.322083,78.1297533 L223.723336,80.2281087"/>
    <path fill="#FFB280" d="M235.049652,97.0905069 C234.833681,97.6427057 233.889158,97.7892575 232.940077,97.4179695 C231.990646,97.0466816 231.396024,96.2981454 231.611995,95.7462972 C231.827966,95.194449 232.772489,95.0478972 233.72157,95.4188346 C234.671001,95.7901225 235.265623,96.5386587 235.049652,97.0905069"/>
    <path fill="#0C266D" d="M230.484984,94.8636557 C230.348249,95.2135569 229.953821,95.3860533 229.60427,95.2493183 C229.254369,95.1125834 229.081873,94.7181557 229.218608,94.3686051 C229.355343,94.0190545 229.74977,93.8462075 230.099321,93.9829424 C230.449222,94.1196773 230.621719,94.5141051 230.484984,94.8636557"/>
    <path stroke="#0C266D" stroke-linecap="round" stroke-linejoin="round" stroke-width=".5" d="M226.30675,98.9551507 C225.402195,98.909923 224.705198,98.1403507 224.750426,97.2357965"/>
    <path fill="#0C266D" d="M224.605031,78.5192024 C224.944414,78.5623265 225.278889,78.6194747 225.607403,78.6895952 C225.609156,78.6899458 225.610909,78.6902964 225.612662,78.690647 C225.770433,78.7246554 225.926802,78.7614687 226.081768,78.801788 C226.09474,78.8045928 226.107713,78.8080988 226.120685,78.8116048 C227.085192,79.0629867 227.996408,79.4286651 228.842061,79.8932133 C228.842762,79.8935639 228.843463,79.8935639 228.843814,79.8939145 C232.10652,81.6868952 234.384384,84.9401349 234.916598,88.6691422 C232.105819,91.0721711 223.294128,93.0919916 222.731762,93.2010289 C222.885677,92.278594 222.592222,91.2818313 221.789343,90.5662518 C220.950351,89.8191181 219.70396,89.6497771 218.691069,90.1353614 C218.068399,90.4333735 217.61507,90.9059855 217.344756,91.4550289 C216.394273,93.3857964 214.826379,94.9456265 212.872472,95.8480771 C212.653696,95.9490506 212.524323,96.0072506 212.519415,96.0055361 L212.074501,95.0634289 C211.822417,94.4688072 211.621522,93.8440337 211.472867,93.1999771 C211.230951,92.1478193 211.127874,91.0444735 211.168544,89.9362193 L211.168544,89.9362193 C211.175205,89.7584639 211.185022,89.5800072 211.198696,89.4004988 C211.213421,89.2192373 211.230951,89.0369241 211.254091,88.8546108 C212.087473,82.3141229 218.064543,77.6868723 224.605031,78.5192024"/>
    <line x1="64" x2="320" y1="284.5" y2="284.5" stroke="#0C266D" stroke-linecap="round" stroke-linejoin="round" stroke-width=".5"/>
  </g>
</svg>
