<svg xmlns="http://www.w3.org/2000/svg" width="384" height="285" viewBox="0 0 384 285">
  <g fill="none" fill-rule="evenodd">
    <polygon points="0 0 384 0 384 285 0 285"/>
    <path fill="#FFF" d="M215.419775,232.079158 L167.471105,232.079158 C164.89086,232.079158 162.799236,229.987533 162.799236,227.407288 C162.799236,224.827043 164.89086,222.735027 167.471105,222.735027 L215.419775,222.735027 C218.00002,222.735027 220.092036,224.827043 220.092036,227.407288 C220.092036,229.987533 218.00002,232.079158 215.419775,232.079158"/>
    <path fill="#FF6700" d="M254.385313 225.676584L254.385313 274.536274C254.385313 277.522854 256.806472 279.944013 259.793051 279.944013L261.678178 279.944013 265.449607 279.944013 282.545835 279.944013 286.317264 279.944013 288.656137 279.944013C291.642717 279.944013 294.063876 277.522854 294.063876 274.536274L294.063876 251.906919 256.23008 221.615589C255.101198 222.606544 254.385313 224.05634 254.385313 225.676584M265.811742 215.44561C265.811742 210.806655 269.585522 207.032483 274.224869 207.032483 278.863432 207.032483 282.63682 210.806655 282.63682 215.44561L282.63682 221.455993 285.968999 221.455993 285.968999 215.44561C285.968999 208.969332 280.700362 203.700696 274.224085 203.700696 267.748199 203.700696 262.479954 208.969332 262.479954 215.44561L262.479954 221.455993 265.811742 221.455993 265.811742 215.44561z"/>
    <path fill="#FF9357" d="M288.656137,220.268963 L285.300839,220.268963 L285.300839,221.612963 L282.1587,221.612963 L282.1587,220.268963 L266.290096,220.268963 L266.290096,221.612963 L263.147958,221.612963 L263.147958,220.268963 L259.793051,220.268963 C258.426717,220.268963 257.182243,220.779918 256.23008,221.615706 L294.063876,253.304718 L294.063876,225.676702 C294.063876,222.690122 291.642717,220.268963 288.656137,220.268963"/>
    <polygon fill="#FF9357" points="263.148 221.613 266.29 221.613 266.29 220.269 263.148 220.269"/>
    <polygon fill="#FF9357" points="282.159 221.613 285.301 221.613 285.301 220.269 282.159 220.269"/>
    <path fill="#0C266D" d="M261.678335 282.895092C261.678335 283.936594 262.522351 284.780611 263.563853 284.780611 264.605747 284.780611 265.449763 283.936594 265.449763 282.895092L265.449763 279.94417 261.678335 279.94417 261.678335 282.895092zM282.545913 282.895092C282.545913 283.936594 283.38993 284.780611 284.431432 284.780611 285.472934 284.780611 286.317342 283.936594 286.317342 282.895092L286.317342 279.94417 282.545913 279.94417 282.545913 282.895092z"/>
    <line x1="233.544" x2="231.428" y1="208.723" y2="210.034" stroke="#0C266D" stroke-linecap="round" stroke-linejoin="round" stroke-width=".5"/>
    <line x1="235.751" x2="235.477" y1="204.187" y2="201.713" stroke="#0C266D" stroke-linecap="round" stroke-linejoin="round" stroke-width=".5"/>
    <line x1="232.953" x2="230.713" y1="205.629" y2="204.544" stroke="#0C266D" stroke-linecap="round" stroke-linejoin="round" stroke-width=".5"/>
    <path fill="#FFF" d="M105.983301,186.347892 L101.852558,186.347892 L101.852558,177.129149 C101.852558,171.37777 97.1736359,166.698847 91.4222563,166.698847 C85.6712686,166.698847 80.9919543,171.37777 80.9919543,177.129149 L80.9919543,186.347892 L76.8612114,186.347892 L76.8612114,177.129149 C76.8612114,169.100023 83.3935216,162.568104 91.4222563,162.568104 C99.4513829,162.568104 105.983301,169.100023 105.983301,177.129149 L105.983301,186.347892 Z"/>
    <path fill="#FF9357" d="M113.705228,277.312947 L69.1396767,277.312947 C64.5281502,277.312947 60.7900278,273.574824 60.7900278,268.962906 L60.7900278,193.521796 C60.7900278,188.910661 64.5281502,185.172539 69.1396767,185.172539 L113.705228,185.172539 C118.316754,185.172539 122.054877,188.910661 122.054877,193.521796 L122.054877,268.962906 C122.054877,273.574824 118.316754,277.312947 113.705228,277.312947"/>
    <path fill="#FF6700" d="M75.31232 267.099958L75.31232 267.099958C73.2590955 267.099958 71.5945731 265.435435 71.5945731 263.382211L71.5945731 200.495941C71.5945731 198.442325 73.2590955 196.777802 75.31232 196.777802 77.3655445 196.777802 79.0300669 198.442325 79.0300669 200.495941L79.0300669 263.382211C79.0300669 265.435435 77.3655445 267.099958 75.31232 267.099958M91.4223739 267.099958L91.4223739 267.099958C89.3691494 267.099958 87.7046269 265.435435 87.7046269 263.382211L87.7046269 200.495941C87.7046269 198.442325 89.3691494 196.777802 91.4223739 196.777802 93.4755984 196.777802 95.1401208 198.442325 95.1401208 200.495941L95.1401208 263.382211C95.1401208 265.435435 93.4755984 267.099958 91.4223739 267.099958M107.532271 267.099958L107.532271 267.099958C105.479047 267.099958 103.814524 265.435435 103.814524 263.382211L103.814524 200.495941C103.814524 198.442325 105.479047 196.777802 107.532271 196.777802 109.585496 196.777802 111.250018 198.442325 111.250018 200.495941L111.250018 263.382211C111.250018 265.435435 109.585496 267.099958 107.532271 267.099958"/>
    <path fill="#0C266D" d="M75.31232 284.780807L75.31232 284.780807C73.704222 284.780807 72.4005812 283.477166 72.4005812 281.869068L72.4005812 277.31279 78.2240588 277.31279 78.2240588 281.869068C78.2240588 283.477166 76.920418 284.780807 75.31232 284.780807M107.532271 284.780807L107.532271 284.780807C105.924173 284.780807 104.620532 283.477166 104.620532 281.869068L104.620532 277.31279 110.44401 277.31279 110.44401 281.869068C110.44401 283.477166 109.140369 284.780807 107.532271 284.780807"/>
    <polygon fill="#3B7CFF" points="162.409 274.415 176.704 265.508 173.912 257.728 158.425 263.296"/>
    <path fill="#0633EF" d="M169.350629,235.742282 C166.225339,228.32207 170.131167,220.137384 177.235559,217.520307 C173.237649,217.058723 169.3232,216.257417 165.322547,215.879687 C160.680065,215.81856 156.039543,216.084617 151.415478,216.501531 C151.344555,216.508193 151.273241,216.514462 151.202318,216.52034 C150.75249,216.854968 150.308931,217.198217 149.872033,217.549695 C148.478661,219.05278 148.503347,218.258136 147.286694,219.912078 L146.479902,222.081678 C146.479902,222.081678 146.006563,223.384144 145.848261,224.889189 C145.193894,231.113515 145.328686,237.762984 147.483396,244.232601 L154.265306,263.691605 C154.836604,265.33105 156.651592,266.17154 158.271445,265.547736 L175.312033,258.984078 C176.911118,258.368111 177.697535,256.563703 177.060016,254.973238 L169.350629,235.742282 Z"/>
    <polygon fill="#3B7CFF" points="106.685 244.068 118.827 255.961 126.292 248.338 114.15 236.446"/>
    <path fill="#FFF" d="M94.6592588,233.24738 L109.377822,240.336882 C111.486687,241.352522 111.942785,244.156114 110.264549,245.787722 L111.023144,245.844539 C115.622916,246.189355 119.924108,248.255118 123.068989,251.629224 L114.830622,260.040392 L106.564434,255.678465 L100.503896,249.742531 L88.5658057,234.315135 C90.1578384,232.689404 92.609169,232.259951 94.6592588,233.24738"/>
    <path fill="#0C266D" d="M88.6225045,239.797636 L109.347925,260.097522 C110.877656,261.595905 113.332513,261.570044 114.830504,260.040705 L114.830504,260.040313 L88.5656882,234.315056 C87.0673045,235.844787 87.0927739,238.299644 88.6225045,239.797636"/>
    <path fill="#FFF" d="M179.642103,273.45888 L176.482331,264.890978 L176.169254,264.967778 C171.721515,266.060219 167.748291,268.566798 164.847523,272.110178 C164.022707,270.328104 161.920503,269.536986 160.125499,270.33359 L147.005238,276.211533 C145.163605,277.036741 143.977907,278.866619 143.977907,280.884578 L163.243344,281.577737 L179.642103,273.45888 Z"/>
    <path fill="#0C266D" d="M179.642103 273.45888L164.423164 280.091109C163.532127 280.479419 162.572127 280.684741 161.599589 280.695321L143.977907 280.884578C143.977907 283.015778 145.705907 284.742994 147.836323 284.742994L162.250821 284.742994C163.253531 284.742994 164.244878 284.535321 165.163344 284.133296L177.253858 278.840366C179.385842 277.999092 180.448895 275.603794 179.642103 273.45888M147.120398 243.027233L147.120398 243.027233C150.088562 235.37231 155.446929 228.879576 162.399288 224.512163L167.091925 221.565159 141.886243 226.292278 147.120398 243.027233z"/>
    <path fill="#0633EF" d="M172.36977,198.107226 C157.876904,198.107226 143.927517,203.626638 133.358113,213.543242 L113.094668,232.23072 C111.896039,233.355291 111.896039,235.258442 113.094668,236.383014 L126.779566,249.221936 C127.913933,250.285773 129.691304,250.243063 130.772774,249.125936 L145.881607,233.548075 C146.415288,232.997153 147.065737,232.323193 147.775353,231.586932 C152.9139,226.257169 159.999092,223.247079 167.402064,223.247079 L199.993476,223.247079 C213.671321,223.247079 219.545345,214.454655 222.02528,207.886687 C223.203925,204.763749 223.774831,201.445283 223.774831,198.107226 L172.36977,198.107226 Z"/>
    <path fill="#FFB280" d="M213.727314,125.006322 C212.839804,131.585652 206.78671,136.19953 200.207771,135.312411 C193.628441,134.424509 189.014563,128.371807 189.901682,121.792477 C190.789192,115.213538 196.842286,110.599269 203.421224,111.486779 C210.000555,112.374289 214.614824,118.427383 213.727314,125.006322"/>
    <path fill="#FFB280" d="M187.645682,126.086184 C187.703282,126.706462 188.615478,127.128862 189.682449,127.029727 C190.749812,126.930201 191.567967,126.346756 191.509976,125.726087 C191.452376,125.105417 190.540571,124.683017 189.473208,124.782544 C188.405845,124.88207 187.58769,125.465515 187.645682,126.086184"/>
    <path stroke="#0C266D" stroke-linecap="round" stroke-linejoin="round" stroke-width=".5" d="M196.910857,130.313319 C197.837943,130.530789 198.76542,129.95518 198.98289,129.028095"/>
    <path fill="#FF9357" d="M206.258671,110.785783 C206.383275,110.831236 206.509055,110.868069 206.632875,110.91744 C213.071144,113.491024 216.203879,120.796036 213.631079,127.234305 C213.559373,127.413767 213.482965,127.590093 213.403422,127.76446 C213.324663,127.936477 213.242377,128.105358 213.15774,128.272281 L213.15774,128.272673 C212.629936,129.311432 211.971651,130.273783 211.212271,131.117407 C210.746769,131.633456 210.243259,132.10562 209.70801,132.523709 L208.817757,133.162403 C208.809136,133.160836 208.575602,132.841489 208.221773,132.352477 C207.014916,130.684428 206.555291,128.633162 206.700663,126.579546 C206.747683,125.917342 206.574883,125.227318 206.14112,124.616052 C205.439732,123.626664 204.170181,123.154501 202.993496,123.449162 C201.931618,123.71522 201.182426,124.466762 200.86112,125.371122 L198.492075,124.388787 C196.289169,123.475416 194.766883,121.424542 194.529822,119.051579 L194.074508,114.488248 L206.258671,110.785783 Z"/>
    <path stroke="#0C266D" stroke-linecap="round" stroke-linejoin="round" stroke-width=".5" d="M195.588408,123.989231 C196.227886,125.067566 195.871706,126.460153 194.793371,127.099239 C193.715037,127.738325 192.322449,127.382537 191.682971,126.304202 C191.043886,125.225476 191.400065,123.83328 192.4784,123.194194 C193.556735,122.554717 194.949322,122.910896 195.588408,123.989231 Z"/>
    <path stroke="#0C266D" stroke-linecap="round" stroke-linejoin="round" stroke-width=".5" d="M195.799608 124.46065L202.883624 121.878838C204.901584 121.138266 207.138188 122.173499 207.879151 124.191458M103.394083 232.872392C103.934034 233.97698 103.765544 238.131233 103.765544 238.131233 103.765544 238.131233 100.382818 235.713992 99.8424751 234.609404 99.3025241 233.504424 99.6594873 232.220376 100.640255 231.740767 101.621022 231.261159 102.85374 231.767804 103.394083 232.872392z"/>
    <path stroke="#0C266D" stroke-linecap="round" stroke-linejoin="round" stroke-width=".5" d="M107.768 234.888196C107.2112 235.929698 103.811624 238.096947 103.811624 238.096947 103.811624 238.096947 103.724245 234.066514 104.281045 233.02462 104.837845 231.983118 106.06978 231.555624 107.032522 232.070106 107.995657 232.584588 108.3248 233.846302 107.768 234.888196zM150.864281 269.613198C151.981407 270.127288 154.478191 273.451631 154.478191 273.451631 154.478191 273.451631 150.329424 273.719256 149.211905 273.205166 148.095171 272.691076 147.559138 271.470504 148.015236 270.478766 148.471726 269.487027 149.746762 269.099109 150.864281 269.613198z"/>
    <path stroke="#0C266D" stroke-linecap="round" stroke-linejoin="round" stroke-width=".5" d="M155.526903,268.407869 C155.75456,269.566922 154.492454,273.395559 154.492454,273.395559 C154.492454,273.395559 151.875376,270.329045 151.647719,269.169992 C151.420062,268.010939 152.103817,266.900865 153.174707,266.690057 C154.245989,266.479641 155.299246,267.248816 155.526903,268.407869 Z"/>
    <path fill="#FFF" d="M223.774988,198.107226 L190.088392,198.107226 C185.98782,198.107226 182.983608,194.246459 183.991412,190.271667 L193.045976,154.549087 C194.877812,147.323226 201.381127,142.262263 208.835429,142.262263 C217.064784,142.262263 224.001078,148.399993 225.003396,156.56783 L229.402939,186.813708 C230.068278,191.3837 227.824229,195.886296 223.774988,198.107226"/>
    <path fill="#FF6700" d="M190.87183,169.070361 C189.771944,169.070361 188.880516,168.179324 188.880516,167.079438 L188.880516,157.327014 C188.880516,147.555389 196.8301,139.605414 206.602116,139.605414 C216.374132,139.605414 224.323716,147.555389 224.323716,157.327014 C224.323716,158.4269 223.432679,159.318328 222.332793,159.318328 C221.232908,159.318328 220.341479,158.4269 220.341479,157.327014 C220.341479,149.750851 214.177887,143.587651 206.602116,143.587651 C199.026736,143.587651 192.862753,149.750851 192.862753,157.327014 L192.862753,167.079438 C192.862753,168.179324 191.971716,169.070361 190.87183,169.070361"/>
    <path fill="#FF6700" d="M228.077551,184.52303 L228.077551,184.52303 C225.205388,184.788304 222.661976,182.674344 222.396702,179.802181 L220.049208,154.35983 C219.783935,151.487667 221.897894,148.944255 224.770057,148.678981 C227.64222,148.414491 230.185633,150.527667 230.450906,153.400222 L232.7984,178.842181 C233.063673,181.714736 230.949714,184.257757 228.077551,184.52303"/>
    <path fill="#FF9357" d="M228.230602,163.093675 L228.230602,163.093675 C225.658978,163.329169 223.38319,161.43503 223.148088,158.863014 L222.398113,150.664614 C222.163011,148.092989 224.057149,145.817202 226.628774,145.5821 C229.20079,145.346998 231.475794,147.241136 231.711288,149.812369 L232.461264,158.011161 C232.696366,160.583177 230.802227,162.858573 228.230602,163.093675"/>
    <path fill="#FFB280" d="M148.69617,136.265907 C149.752953,135.655033 151.10479,136.017091 151.715664,137.074266 L159.387043,150.354397 C161.267468,150.71136 163.502896,151.368862 164.377476,151.926838 C164.127876,150.514266 163.575386,149.149891 162.720007,147.938723 L162.718047,147.93598 C162.028807,146.959915 162.288202,145.598674 163.307762,144.948617 C164.262668,144.339703 165.535353,144.633972 166.188545,145.559099 C168.917688,149.460617 169.480366,154.459278 167.732382,158.853727 L170.145704,164.15998 C170.66528,165.118805 166.833117,166.881678 165.874684,167.401254 L163.733296,168.505842 C162.774864,169.025809 160.707533,163.472699 160.603696,163.292846 L147.785541,139.084389 C147.321215,138.050331 147.714619,136.832895 148.69617,136.265907"/>
    <path fill="#0C266D" d="M163.437107,153.878655 L163.437107,153.878655 C162.339964,154.473855 160.968536,154.066736 160.373336,152.969985 L150.802723,135.324402 C150.207523,134.227651 150.61425,132.85583 151.711393,132.26063 C152.808536,131.665822 154.180356,132.07294 154.775556,133.169691 L164.346168,150.814883 C164.941368,151.911634 164.534642,153.283455 163.437107,153.878655"/>
    <path fill="#FFF" d="M157.871419,162.734008 L170.544202,157.23889 C171.793378,156.69698 173.235337,157.370547 173.620904,158.676931 L173.946521,159.571886 C175.805786,165.869486 184.223223,167.032457 187.720366,161.475037 L195.035174,149.919771 L212.935451,158.413224 L206.718962,171.349322 C195.63586,192.453257 164.63217,189.861649 157.205688,167.211527 L156.619109,165.520751 C156.253917,164.407935 156.797002,163.199902 157.871419,162.734008"/>
    <path fill="#FF6700" d="M233.482155,153.32687 C233.57071,154.118772 232.999804,154.833091 232.20751,154.921254 C231.415216,155.009809 230.700898,154.439295 230.612735,153.646609 C230.52418,152.854315 231.095086,152.14078 231.88738,152.052225 C232.679673,151.96367 233.3936,152.534576 233.482155,153.32687"/>
    <polyline stroke="#0C266D" stroke-linecap="round" stroke-linejoin="round" stroke-width=".5" points="134.739 97.894 128.608 100.164 131.944 94.546"/>
    <path stroke="#0C266D" stroke-linecap="round" stroke-linejoin="round" stroke-width=".5" d="M128.914527,99.8067135 C139.408699,90.3579624 155.575882,91.2055053 165.024242,101.699677 C174.473384,112.193848 173.62545,128.36064 163.131278,137.809391"/>
    <polygon fill="#FF6700" points="303.45 284.467 246.43 284.557 246.041 267.814 308.213 267.597"/>
    <path fill="#0633EF" d="M300.298351,284.469727 L205.45858,284.473646 L201.497894,261.136242 L296.325518,260.51196 C298.462596,260.49794 300.205486,262.222413 300.214498,264.359491 L300.298351,284.469727 Z"/>
    <polygon fill="#FF6700" points="279.41 271.289 263.308 276.714 255.693 263.107 269.747 254.012"/>
    <polygon fill="#FF6700" points="193.217 213.46 210.619 244.268 217.653 270.298 180.597 262.261 180.597 222.219"/>
    <path fill="#3B7CFF" d="M277.382407,261.279027 L268.703223,245.293656 C258.374407,226.28879 232.131925,223.692872 218.279713,240.305966 L212.32497,247.454635 C204.481574,256.870472 192.848725,262.298978 180.594031,262.26097 L180.594031,262.261362 C180.594031,274.588153 190.587043,284.581166 202.914227,284.581166 C212.556545,284.581166 221.613851,279.957492 227.268839,272.148186 L239.230047,255.63266 C241.28719,252.79106 245.597786,253.042227 247.310504,256.104039 L256.508872,272.501231 C257.301558,273.918504 259.082456,274.441607 260.515402,273.677917 C264.505084,271.551419 272.131402,267.486504 276.165362,265.336104 C277.628088,264.556741 278.174309,262.735484 277.382407,261.279027"/>
    <path fill="#FFB280" d="M229.861466,227.899435 C228.079784,223.751451 228.491213,218.966341 230.995833,215.173362 C231.594952,214.274488 232.801417,213.961411 233.727719,214.517819 C234.717107,215.111451 234.999229,216.403337 234.366805,217.352366 L234.365238,217.354717 C233.579997,218.532578 232.882919,221.202553 232.882919,221.202553 L237.606511,219.573688 L244.583948,206.708904 C245.13918,205.685035 246.419703,205.304953 247.443572,205.860186 C248.39456,206.375843 248.800895,207.527451 248.384764,208.525851 L234.806838,235.699729 L228.179703,231.88128 L229.861466,227.899435 Z"/>
    <path fill="#0C266D" d="M233.833045,223.039367 L233.833045,223.039367 C234.894922,223.578926 236.192686,223.155742 236.732245,222.093864 L245.410253,205.016444 C245.949812,203.954958 245.526629,202.656411 244.464751,202.116852 C243.402873,201.577685 242.104327,202.000869 241.564767,203.062746 L232.887543,220.140167 C232.347984,221.202044 232.771167,222.499807 233.833045,223.039367"/>
    <path fill="#FF6700" d="M193.659435,211.193554 L193.659435,211.193554 C196.717329,212.220167 199.248202,214.134681 201.045166,216.564069 L201.05457,216.560542 L212.157264,231.259122 C215.883631,236.192346 223.686668,234.426338 224.925656,228.369326 C225.344921,227.120542 226.71008,226.441881 227.958472,226.861146 L240.025868,230.912738 C241.071288,231.263824 241.67746,232.353522 241.424333,233.426762 L241.243304,234.193979 C236.531468,254.175301 211.967615,259.992509 198.559745,246.366779 L183.25617,228.70944 C177.545541,222.120313 181.563827,211.727236 190.240268,210.867546 C191.432627,210.749603 192.588153,210.833848 193.659435,211.193554"/>
    <path stroke="#0C266D" stroke-linecap="round" stroke-linejoin="round" stroke-width=".5" d="M209.969247,252.801718 L209.667925,252.710811 C203.490227,250.845277 198.149492,246.896738 194.555174,241.536411"/>
    <path fill="#3B7CFF" d="M296.694903,284.581048 L279.803997,284.581048 C277.56034,284.581048 275.726544,282.790746 275.674038,280.547873 L274.87665,282.009816 C274.01265,283.594795 272.351654,284.581048 270.546462,284.581048 C268.709531,284.581048 267.024633,283.560705 266.174348,281.932624 L265.451017,280.547873 L300.72847,280.547873 C300.72847,282.775464 298.922495,284.581048 296.694903,284.581048"/>
    <path fill="#CCDEFF" d="M300.728431,280.547912 L265.450586,280.547912 L263.307631,276.713789 C266.427827,272.998393 271.022113,270.841724 275.873443,270.813512 L276.162619,270.811944 C276.399288,268.185071 279.163696,266.582851 281.560562,267.68352 L297.034194,274.787128 C299.285296,275.820793 300.728431,278.07072 300.728431,280.547912"/>
    <path fill="#3B7CFF" d="M323.933669,255.682736 L320.135987,271.791536 C319.631693,273.931357 317.511856,275.277316 315.361064,274.823961 L316.575758,275.912091 C317.893113,277.092696 318.460493,278.898671 318.05455,280.620793 C317.506762,282.884434 315.495464,284.485871 313.167171,284.554051 L313.046485,284.557185 L320.993718,250.929365 C323.118256,251.430132 324.434436,253.558198 323.933669,255.682736"/>
    <path fill="#CCDEFF" d="M313.042214,284.557342 L303.449659,284.46722 C302.813708,279.762044 303.7933,274.98046 306.226998,270.903791 L306.760679,270.011187 C304.716075,269.375628 303.937496,266.892558 305.251716,265.202958 L314.709479,253.154762 C316.191406,251.250436 318.647438,250.383301 320.996891,250.935791 L313.042214,284.557342 Z"/>
    <polyline stroke="#3B7CFF" stroke-linecap="round" stroke-linejoin="round" stroke-width=".5" points="290.722 271.889 288.599 273.622 288.496 270.728 285.92 272.547 286.237 269.71"/>
    <polyline stroke="#3B7CFF" stroke-linecap="round" stroke-linejoin="round" stroke-width=".5" points="311.726 256.685 313.046 259.151 310.295 258.382 311.234 261.349 308.662 260.202"/>
    <path fill="#FFB280" d="M204.829447,191.07023 C204.790263,190.761463 204.740891,190.461316 204.685251,190.165871 L195.550361,188.81521 L192.422328,194.223732 C192.247177,193.333087 191.519144,192.585855 190.476467,192.511798 C189.681038,192.454589 188.947128,192.839765 188.541185,193.526263 C188.163455,194.164565 188.154442,194.867128 188.408744,195.4541 C188.727308,196.189969 188.863667,196.999504 188.65521,197.774165 C188.471047,198.457528 188.13681,199.282344 187.547879,200.30543 C187.547879,200.30543 185.900206,203.053381 185.848483,203.084336 C188.206165,204.594083 191.097528,205.291944 194.092336,204.91343 C198.3277,204.378573 201.791928,201.763455 203.590067,198.223602 C203.923128,197.566883 204.197022,196.877642 204.410181,196.164891 C204.889006,194.562279 205.052402,192.837022 204.829447,191.07023"/>
    <path fill="#0C266D" d="M197.856007,192.326851 L204.685329,190.165871 C204.353835,188.409659 203.717492,186.882279 202.708904,185.492042 C202.627794,185.410149 202.583909,185.353332 202.593704,185.328255 C200.257182,182.191602 196.564513,180.354671 192.699043,180.339296 L192.697084,180.339296 C191.695158,180.335471 190.68226,180.454589 189.677982,180.704189 L189.637623,180.714377 C189.476186,180.755128 189.315141,180.798622 189.15488,180.846034 C189.152921,180.846818 189.150962,180.84721 189.149002,180.847993 C188.814766,180.947128 188.481313,181.060761 188.150211,181.189675 C184.924219,182.448255 182.525002,184.909773 181.260937,187.860304 L181.259762,187.858344 L174.533492,202.2893 C172.724382,206.171226 175.039745,210.720842 179.242978,211.5437 C182.816137,212.243128 186.279582,209.913267 186.978619,206.3405 L188.655288,197.774165 C188.863745,196.999504 188.727386,196.189969 188.408823,195.453708 C188.154521,194.867128 188.163533,194.164565 188.541264,193.526263 C188.947207,192.839765 189.681117,192.454589 190.476545,192.511798 C191.519223,192.585855 192.247256,193.333087 192.422407,194.223732 L195.672692,193.179487 L195.550439,188.81521 L197.856007,192.326851 Z"/>
    <path fill="#FFB280" d="M205.869499,197.605949 C205.75038,198.214864 204.804878,198.542439 203.757891,198.337117 C202.710511,198.132578 201.958576,197.472725 202.077695,196.863419 C202.196813,196.254896 203.142315,195.927321 204.189303,196.132251 C205.236682,196.337182 205.989009,196.997035 205.869499,197.605949"/>
    <path stroke="#0C266D" stroke-linecap="round" stroke-linejoin="round" stroke-width=".5" d="M194.572846,198.797917 C194.507409,199.773198 195.245238,200.617607 196.220911,200.683043"/>
    <path fill="#0C266D" d="M199.763507,194.450567 C200.136144,194.574779 200.337548,194.977979 200.212944,195.350616 C200.088731,195.723644 199.685923,195.925048 199.313287,195.800444 C198.939866,195.676232 198.738854,195.273424 198.863066,194.900395 C198.98767,194.527367 199.390478,194.326354 199.763507,194.450567"/>
    <path fill="#0633EF" d="M190.193365,117.905064 L214.78112,122.038942 L215.203128,119.52766 C216.344549,112.737913 211.766328,106.308264 204.976581,105.166844 C198.186834,104.025424 191.757185,108.604036 190.615765,115.393783 L190.193365,117.905064 Z"/>
    <path fill="#3B7CFF" d="M190.752438,118.332088 L214.962462,122.40288 C216.517662,122.664235 217.990184,121.61568 218.25154,120.06048 C218.512895,118.505672 217.46434,117.033541 215.90914,116.772186 L191.699115,112.701394 C190.144307,112.440039 188.671784,113.488594 188.410429,115.043011 C188.149074,116.598211 189.197629,118.070733 190.752438,118.332088"/>
    <path stroke="#FF6700" stroke-linecap="round" stroke-linejoin="round" stroke-width=".5" d="M287.456882,230.619722 C286.852278,231.809339 284.691298,231.924931 282.630629,230.877551 C280.569567,229.830563 279.388963,228.017143 279.993567,226.827135 C280.598171,225.637518 282.759151,225.521927 284.81982,226.569306 C286.88049,227.616686 288.061486,229.430106 287.456882,230.619722 Z"/>
    <path stroke="#0C266D" stroke-linecap="round" stroke-linejoin="round" stroke-width=".5" d="M129.910576,122.293675 C129.332617,135.508369 118.151948,145.752157 104.937254,145.174981 C91.7229518,144.597022 81.4783804,133.416353 82.0563396,120.201659 C82.6339069,106.987357 93.8145763,96.7427853 107.028878,97.3207445 C120.243572,97.8983118 130.488144,109.078981 129.910576,122.293675 Z"/>
    <path stroke="#0C266D" stroke-linecap="round" stroke-linejoin="round" stroke-width=".5" d="M108.708565,116.147912 L108.681528,107.991047 L105.302328,108.00241 C105.30703,109.449463 104.137789,110.62654 102.690736,110.631242 C101.243291,110.636336 100.066214,109.466704 100.061512,108.019651 L96.6823118,108.030622 L96.7536261,129.611814"/>
    <path stroke="#0C266D" stroke-linecap="round" stroke-linejoin="round" stroke-width=".5" d="M117.581512,119.11729 C116.624647,120.203069 114.968744,120.30769 113.882965,119.350824 C112.797185,118.393959 112.692565,116.738057 113.64943,115.652278 L111.113855,113.418024 L96.8455118,129.609894 L99.3806955,131.843755 C100.337561,130.758367 101.993463,130.653355 103.079242,131.610612 C104.165022,132.567086 104.269642,134.22338 103.312777,135.308767 L105.848353,137.54302 L120.116696,121.351543 L117.581512,119.11729 Z"/>
    <line x1="106.72" x2="115.634" y1="118.404" y2="126.438" stroke="#0C266D" stroke-linecap="round" stroke-linejoin="round" stroke-width=".5"/>
    <path fill="#FF6700" d="M190.065195,197.335386 C190.065195,198.070864 189.469211,198.667239 188.733734,198.667239 C187.998256,198.667239 187.401881,198.070864 187.401881,197.335386 C187.401881,196.599909 187.998256,196.003925 188.733734,196.003925 C189.469211,196.003925 190.065195,196.599909 190.065195,197.335386"/>
    <path fill="#0C266D" d="M290.063144,106.954286 L290.063144,106.954286 C289.756336,106.286596 288.966002,105.993894 288.298312,106.301094 L270.28401,114.583739 L266.760614,113.009339 C266.483585,112.885518 266.14543,112.952914 265.935014,113.210351 C265.765349,113.417633 265.748891,113.712686 265.860565,113.956016 L266.871112,116.153437 L267.1501,116.76 C267.609724,117.759967 268.793855,118.198041 269.793822,117.738024 L274.312875,115.660506 L273.092696,119.489143 C272.759242,120.536522 274.121267,121.270433 274.812467,120.415445 L280.162214,113.798106 C280.862818,112.932147 281.753071,112.23938 282.764793,111.774661 L289.409953,108.719118 C290.077642,108.41231 290.369953,107.621584 290.063144,106.954286"/>
    <line x1="267.453" x2="260.163" y1="121.882" y2="131.85" stroke="#0C266D" stroke-linecap="round" stroke-linejoin="round" stroke-width=".5"/>
    <line x1="266.396" x2="237.039" y1="120.392" y2="135.194" stroke="#0C266D" stroke-linecap="round" stroke-linejoin="round" stroke-width=".5"/>
    <line x1="64" x2="320" y1="284.5" y2="284.5" stroke="#0C266D" stroke-linecap="round" stroke-linejoin="round" stroke-width=".5"/>
  </g>
</svg>
