<svg xmlns="http://www.w3.org/2000/svg" width="384" height="286" viewBox="0 0 384 286">
  <g fill="none" fill-rule="evenodd">
    <polygon points="0 0 384 0 384 285 0 285"/>
    <polygon fill="#CCDEFF" points="157.429 148.076 272.185 148.076 312.291 206.955 312.291 214.752 103.724 214.752 150.22 154.361"/>
    <line x1="124.242" x2="137.926" y1="204.443" y2="196.921" stroke="#0C266D" stroke-linecap="round" stroke-linejoin="round" stroke-width=".5"/>
    <line x1="134.118" x2="141.735" y1="190.357" y2="203.485" stroke="#0C266D" stroke-linecap="round" stroke-linejoin="round" stroke-width=".5"/>
    <path fill="#FF6700" d="M243.52683,62.7315946 L243.356312,15.6258085 L277.135609,62.7315946 L243.52683,62.7315946 Z M234.795301,62.7202267 L88.7258384,63.0341806 L122.870579,17.1929031 C126.633344,12.1412215 132.562024,9.16451078 138.861162,9.16451078 L234.795301,9.16451078 L234.795301,62.7202267 Z M305.59307,71.4661323 L293.60732,65.533775 C289.743247,63.6209634 286.408448,60.7873541 283.897821,57.2820374 L246.811476,5.50940564 C244.442612,2.20837628 240.626351,0.253436672 236.56334,0.259441102 L139.727795,0.410580782 C130.142339,0.424623448 121.124607,4.95605777 115.392525,12.638733 L89.2785175,47.6374012 C84.5451363,53.9345335 78.1543863,58.792627 70.8197685,61.6680298 L24.5254479,70.7362481 C10.278161,73.527395 -6.6869834e-05,86.0139991 -6.6869834e-05,100.532443 L-6.6869834e-05,117.668507 L243.659232,117.668507 L269.787282,117.668507 L287.768915,117.668507 L313.824412,117.668507 L313.824412,84.7254174 C313.824412,79.1003269 310.634386,73.9617145 305.59307,71.4661323 L305.59307,71.4661323 Z" transform="translate(31 141.253)"/>
    <path fill="#FFB280" d="M333.635082,270.110669 L42.1895968,270.110669 C36.0098211,270.110669 31.0002675,265.101115 31.0002675,258.921005 L344.824746,258.921005 C344.824746,265.101115 339.814858,270.110669 333.635082,270.110669"/>
    <polygon fill="#0C266D" points="204.039 141.801 207.884 141.801 207.884 137.956 204.039 137.956"/>
    <polygon fill="#0C266D" points="220.381 141.801 224.227 141.801 224.227 137.956 220.381 137.956"/>
    <path fill="#0C266D" d="M120.873425,264.060721 C120.873425,275.707105 111.432073,285.148457 99.7853541,285.148457 C88.1386351,285.148457 78.6972832,275.707105 78.6972832,264.060721 C78.6972832,252.414002 88.1386351,242.97265 99.7853541,242.97265 C111.432073,242.97265 120.873425,252.414002 120.873425,264.060721"/>
    <path fill="#3B7CFF" d="M110.60068,264.060721 C110.60068,270.033534 105.758636,274.875913 99.7851535,274.875913 C93.8123399,274.875913 88.9699608,270.033534 88.9699608,264.060721 C88.9699608,258.087573 93.8123399,253.245194 99.7851535,253.245194 C105.758636,253.245194 110.60068,258.087573 110.60068,264.060721"/>
    <path fill="#FFE4D2" d="M160.388482,202.609383 L160.494136,202.609383 L160.407205,202.790265 C160.402524,202.729748 160.396172,202.669565 160.388482,202.609383"/>
    <path fill="#3B7CFF" d="M228.550309,137.955801 L199.715205,137.955801 C197.85564,137.955801 196.348066,136.368078 196.348066,134.409234 L196.348066,130.92812 C196.348066,128.969276 197.85564,127.381215 199.715205,127.381215 L228.550309,127.381215 C230.409874,127.381215 231.917127,128.969276 231.917127,130.92812 L231.917127,134.409234 C231.917127,136.368078 230.409874,137.955801 228.550309,137.955801"/>
    <polygon fill="#FF9357" points="60.667 225.942 70.556 225.942 70.556 216.053 60.667 216.053"/>
    <polygon fill="#FF9357" points="71.493 236.3 81.617 236.3 81.617 226.176 71.493 226.176"/>
    <polygon fill="#FF9357" points="51.247 236.3 61.37 236.3 61.37 226.176 51.247 226.176"/>
    <path fill="#FF9357" d="M51.2468484 226.176084L51.2468484 216.052994 45.2422716 216.052994C43.7774879 216.971117 42.400638 218.008937 41.1234242 219.152077L41.1234242 226.176084 51.2468484 226.176084zM41.1234911 226.176084L35.3185208 226.176084C33.472579 229.252765 32.1622646 232.673492 31.4982471 236.299508L41.1234911 236.299508 41.1234911 226.176084z"/>
    <polygon fill="#FF9357" points="81.617 226.176 91.74 226.176 91.74 216.053 81.617 216.053"/>
    <polygon fill="#FF9357" points="91.74 236.3 101.864 236.3 101.864 226.176 91.74 226.176"/>
    <polygon fill="#FF9357" points="101.864 226.176 111.987 226.176 111.987 216.053 101.864 216.053"/>
    <polygon fill="#FF9357" points="111.987 236.3 122.11 236.3 122.11 226.176 111.987 226.176"/>
    <polygon fill="#FF9357" points="122.111 226.176 132.234 226.176 132.234 216.053 122.111 216.053"/>
    <polygon fill="#FF9357" points="132.234 236.3 142.357 236.3 142.357 226.176 132.234 226.176"/>
    <polygon fill="#FF9357" points="142.357 226.176 152.481 226.176 152.481 216.053 142.357 216.053"/>
    <polygon fill="#FF9357" points="152.481 236.3 162.604 236.3 162.604 226.176 152.481 226.176"/>
    <polygon fill="#FF9357" points="162.604 226.176 172.727 226.176 172.727 216.053 162.604 216.053"/>
    <polygon fill="#FF9357" points="172.727 236.3 182.851 236.3 182.851 226.176 172.727 226.176"/>
    <polygon fill="#FF9357" points="182.851 226.176 192.974 226.176 192.974 216.053 182.851 216.053"/>
    <polygon fill="#FF9357" points="192.974 236.3 203.098 236.3 203.098 226.176 192.974 226.176"/>
    <polygon fill="#FF9357" points="203.097 226.176 213.221 226.176 213.221 216.053 203.097 216.053"/>
    <polygon fill="#FF9357" points="213.221 236.3 223.344 236.3 223.344 226.176 213.221 226.176"/>
    <polygon fill="#FF9357" points="223.344 226.176 233.468 226.176 233.468 216.053 223.344 216.053"/>
    <polygon fill="#FF9357" points="233.468 236.3 243.591 236.3 243.591 226.176 233.468 226.176"/>
    <polygon fill="#FF9357" points="243.591 226.176 253.714 226.176 253.714 216.053 243.591 216.053"/>
    <polygon fill="#FF9357" points="253.714 236.3 263.838 236.3 263.838 226.176 253.714 226.176"/>
    <polygon fill="#FF9357" points="273.961 236.3 284.084 236.3 284.084 226.176 273.961 226.176"/>
    <polygon fill="#FF9357" points="263.838 226.176 273.961 226.176 273.961 216.053 263.838 216.053"/>
    <polygon fill="#FF9357" points="294.208 236.3 304.331 236.3 304.331 226.176 294.208 226.176"/>
    <polygon fill="#FF9357" points="314.455 236.3 324.578 236.3 324.578 226.176 314.455 226.176"/>
    <polygon fill="#FF9357" points="284.084 226.176 294.208 226.176 294.208 216.053 284.084 216.053"/>
    <polygon fill="#FF9357" points="304.331 226.176 314.455 226.176 314.455 216.053 304.331 216.053"/>
    <polygon fill="#FF9357" points="334.701 236.3 344.825 236.3 344.825 226.176 334.701 226.176"/>
    <polygon fill="#FF9357" points="324.578 226.176 334.701 226.176 334.701 216.053 324.578 216.053"/>
    <path fill="#FFF" d="M103.766918,264.060721 C103.766918,266.259401 101.984168,268.042151 99.7851535,268.042151 C97.5864733,268.042151 95.8037236,266.259401 95.8037236,264.060721 C95.8037236,261.861706 97.5864733,260.078956 99.7851535,260.078956 C101.984168,260.078956 103.766918,261.861706 103.766918,264.060721"/>
    <path fill="#3B7CFF" d="M40.4918386,254.223533 L31,254.223533 L31,246.469976 L40.4918386,246.469976 C42.6330107,246.469976 44.3686173,248.205582 44.3686173,250.34642 C44.3686173,252.487926 42.6330107,254.223533 40.4918386,254.223533"/>
    <path fill="#0C266D" d="M301.37888,264.060721 C301.37888,275.707105 291.937528,285.148457 280.290809,285.148457 C268.64409,285.148457 259.202738,275.707105 259.202738,264.060721 C259.202738,252.414002 268.64409,242.97265 280.290809,242.97265 C291.937528,242.97265 301.37888,252.414002 301.37888,264.060721"/>
    <path fill="#3B7CFF" d="M291.106135,264.060721 C291.106135,270.033534 286.264091,274.875913 280.290608,274.875913 C274.317795,274.875913 269.475416,270.033534 269.475416,264.060721 C269.475416,258.087573 274.317795,253.245194 280.290608,253.245194 C286.264091,253.245194 291.106135,258.087573 291.106135,264.060721"/>
    <path fill="#FFF" d="M284.272373,264.060721 C284.272373,266.259401 282.489623,268.042151 280.290608,268.042151 C278.091928,268.042151 276.309178,266.259401 276.309178,264.060721 C276.309178,261.861706 278.091928,260.078956 280.290608,260.078956 C282.489623,260.078956 284.272373,261.861706 284.272373,264.060721"/>
    <path fill="#FFB280" d="M229.211049 156.350001C229.211049 157.36542 228.387881 158.188922 227.372129 158.188922 226.356376 158.188922 225.533208 157.36542 225.533208 156.350001 225.533208 155.334249 226.356376 154.511081 227.372129 154.511081 228.387881 154.511081 229.211049 155.334249 229.211049 156.350001M247.719449 156.350001C247.719449 157.36542 246.896281 158.188922 245.880528 158.188922 244.864776 158.188922 244.041608 157.36542 244.041608 156.350001 244.041608 155.334249 244.864776 154.511081 245.880528 154.511081 246.896281 154.511081 247.719449 155.334249 247.719449 156.350001"/>
    <path fill="#FFB280" d="M243.724378,155.909563 C240.086324,154.836637 237.404509,151.864941 236.627148,148.267679 C235.849786,151.864941 233.167971,154.836637 229.529583,155.909563 L227.372028,156.54583 C227.749174,158.203199 228.575017,159.780324 229.853233,161.082279 C233.527062,164.822978 239.537992,164.877477 243.27869,161.203982 C244.62478,159.8823 245.490744,158.257363 245.880595,156.545495 L243.724378,155.909563 Z"/>
    <path fill="#0C266D" d="M236.627148 148.267511C237.404509 151.865109 240.086324 154.83647 243.724378 155.909396 244.934053 156.266481 246.157771 155.341671 246.112299 154.081175 246.028712 151.770153 245.106243 149.482871 243.33787 147.715167 239.683099 144.061064 233.685878 144.028633 229.990317 147.64161 228.179147 149.412657 227.228258 151.729697 227.140993 154.074822 227.094184 155.337993 228.317233 156.26715 229.529583 155.909396 233.167971 154.83647 235.849786 151.865109 236.627148 148.267511M234.007355 156.894623C234.132401 157.18651 233.99699 157.524871 233.705103 157.649918 233.413216 157.774964 233.075189 157.639553 232.950143 157.347332 232.825096 157.055445 232.960507 156.717752 233.252394 156.592705 233.544281 156.467659 233.882308 156.602736 234.007355 156.894623M240.737436 156.894623C240.862482 157.18651 240.727405 157.524871 240.435184 157.649918 240.143297 157.774964 239.80527 157.639553 239.680224 157.347332 239.555177 157.055445 239.690588 156.717752 239.982475 156.592705 240.274362 156.467659 240.612389 156.602736 240.737436 156.894623"/>
    <path stroke="#0C266D" stroke-linecap="round" stroke-linejoin="round" stroke-width=".5" d="M238.07391,160.968534 C237.532933,161.586745 236.593412,161.649269 235.9752,161.108292"/>
    <path fill="#0C266D" d="M240.784144,140.873313 C240.784144,143.169288 238.923157,145.03061 236.627181,145.03061 C234.331205,145.03061 232.470218,143.169288 232.470218,140.873313 C232.470218,138.577671 234.331205,136.716349 236.627181,136.716349 C238.923157,136.716349 240.784144,138.577671 240.784144,140.873313"/>
    <path fill="#FF6700" d="M229.167149 158.369169C229.167149 158.888079 228.746538 159.309025 228.227293 159.309025 227.708384 159.309025 227.287772 158.888079 227.287772 158.369169 227.287772 157.85026 227.708384 157.429314 228.227293 157.429314 228.746538 157.429314 229.167149 157.85026 229.167149 158.369169M246.329292 158.369169C246.329292 158.888079 245.908681 159.309025 245.389436 159.309025 244.870861 159.309025 244.449915 158.888079 244.449915 158.369169 244.449915 157.85026 244.870861 157.429314 245.389436 157.429314 245.908681 157.429314 246.329292 157.85026 246.329292 158.369169"/>
    <path fill="#FFB280" d="M264.997009,128.100773 L261.828716,126.385896 C260.877827,125.870998 260.491654,124.655974 261.023938,123.714781 C261.540173,122.802342 262.694681,122.467658 263.620494,122.968848 L266.27322,124.404877 C266.638664,124.602478 267.027846,124.185879 266.806173,123.834812 L262.846141,117.572786 C262.278082,116.674724 262.572643,115.51587 263.500128,114.998298 C264.427613,114.480057 265.651331,114.790667 266.21939,115.688729 L268.123843,118.700546 L267.538397,114.233307 C267.40332,113.203511 268.078705,112.213838 269.100811,112.030949 C270.192461,111.83502 271.213898,112.591318 271.35633,113.678287 L271.966852,118.335771 L273.011359,114.270085 C273.276498,113.238284 274.327691,112.616729 275.359493,112.881867 C276.391295,113.147006 277.01285,114.198535 276.747711,115.230336 L275.552413,119.882805 L277.11048,116.907432 C277.560848,115.924445 278.747788,115.458362 279.722081,115.92712 C280.666952,116.381835 281.077198,117.511266 280.638866,118.468508 L277.227502,125.913126 C276.401994,127.7146 276.024514,129.688597 276.127159,131.66761 L276.206399,133.195586 L267.24183,133.708143 L267.094047,131.379401 C267.006113,129.998205 266.21404,128.759775 264.997009,128.100773"/>
    <path fill="#0633EF" d="M214.679097,177.943943 C214.693474,177.930903 215.691841,177.114088 216.377591,176.624935 C221.247052,173.151382 226.76047,170.684219 232.584498,169.322081 C236.23626,168.467818 239.869632,167.618906 240.07392,167.574103 C254.000566,164.021309 263.499426,151.938598 263.992591,137.656874 C264.011649,137.107872 263.872559,134.698886 263.872559,134.698886 C263.781282,133.349453 264.811746,132.186252 266.162183,132.114033 L277.524036,131.551658 C278.850734,131.480776 279.987521,132.490845 280.073114,133.816873 L280.405457,138.960835 C280.405457,153.4532 272.110589,167.156167 264.265754,173.808043 L262.162029,175.585778 C258.238107,178.901519 256.200583,183.938489 256.714812,189.049685 L258.336072,203.985397 L222.436667,204.060291 L223.329713,191.871257 C220.485739,193.707169 218.645481,197.463582 217.470244,201.590453 C217.237537,202.407937 217.046958,203.23612 216.895832,204.071993 C216.895832,204.071993 201.065402,204.37926 201.106114,204.105094 C203.146057,190.381397 208.645432,183.3935 214.679097,177.943943"/>
    <polygon fill="#FF6700" points="194.487 207.436 203.203 207.436 203.203 143.515 194.487 143.515"/>
    <path fill="#FFB280" d="M152.705338,193.224402 L135.151673,193.224402 C133.074696,193.224402 131.770399,195.466213 132.797186,197.271699 L134.190753,199.723147 C135.172737,201.450395 137.021019,202.501254 139.007387,202.46247 L152.705338,202.530342 L152.705338,193.224402 Z"/>
    <path fill="#FFF" d="M194.479058,178.290061 C194.479058,172.193872 189.537043,167.251523 183.44052,167.251523 C178.636591,167.251523 174.384338,170.358296 172.924235,174.934867 L169.967586,184.20102 C168.747211,188.025974 165.206119,190.632895 161.19092,190.661983 L148.347565,190.617181 C147.365916,190.612834 146.567824,191.407248 146.567824,192.388897 L146.567824,202.383931 C146.567824,203.358224 147.354882,204.149629 148.329176,204.155313 L173.151258,204.287046 L173.151258,204.280359 L194.479058,204.123884 L194.479058,178.290061 Z"/>
    <path fill="#FFB280" d="M139.467184 195.789161L139.467184 195.789161C138.655384 196.257919 137.617565 195.97974 137.149141 195.168275L135.935788 193.06689C135.467365 192.255425 135.745544 191.217605 136.557009 190.749182 137.368809 190.280424 138.406629 190.558268 138.875052 191.370068L140.088071 193.471118C140.556828 194.282918 140.27865 195.320738 139.467184 195.789161M174.047682 155.315291C174.00522 155.822499 174.677261 156.292259 175.549244 156.365482 176.420892 156.43837 177.16181 156.086969 177.204272 155.580096 177.246735 155.073222 176.574693 154.603127 175.703045 154.529905 174.831396 154.457017 174.090144 154.808418 174.047682 155.315291"/>
    <path fill="#FFB280" d="M180.834569,145.832714 C181.175939,149.756301 187.271125,149.194929 189.266855,152.464864 C190.798509,154.974823 187.926784,161.504663 190.247167,163.353614 C188.358428,164.295475 186.16142,164.655904 183.92897,164.225262 C178.528563,163.183095 174.995161,157.959893 176.037327,152.559485 C176.606055,149.611528 178.425583,147.227619 180.834569,145.832714"/>
    <path fill="#3B7CFF" d="M188.646403,144.896937 C191.517794,145.739832 193.78,147.845563 194.932836,150.472879 C195.566762,151.917601 196.592211,153.165058 197.901523,154.045065 C199.470958,155.099937 201.217263,157.00673 200.801333,160.150615 C200.472333,162.639511 198.606999,164.685727 196.146524,165.186248 C193.466047,165.731237 191.16539,164.706791 189.787871,162.971854 C188.886132,162.217228 188.037553,161.406431 187.254173,160.539129 C186.615566,159.832315 186.439699,158.794495 186.874018,157.946586 C186.992712,157.714882 187.062926,157.450077 187.067941,157.161199 C187.081315,156.434324 186.633287,155.761279 185.957233,155.494134 C185.214309,155.20091 184.451659,155.433952 183.967521,155.95353 C182.242948,152.880527 181.148623,149.440743 180.834669,145.832781 C183.095538,144.523804 185.874314,144.083132 188.646403,144.896937"/>
    <path stroke="#0C266D" stroke-linecap="round" stroke-linejoin="round" stroke-width=".5" d="M177.018441,153.296123 C176.947559,154.361359 177.753675,155.281823 178.818912,155.352705 C179.883814,155.423252 180.804611,154.617471 180.875493,153.552569 C180.946375,152.487332 180.139925,151.566535 179.075023,151.495653 C178.009787,151.424771 177.088989,152.230886 177.018441,153.296123 Z"/>
    <path stroke="#0C266D" stroke-linecap="round" stroke-linejoin="round" stroke-width=".5" d="M180.875393 153.552435L186.217624 153.907514C187.898732 154.019186 189.17093 155.472268 189.059258 157.153376M182.984334 158.855347C182.853938 159.676843 182.08226 160.237212 181.260764 160.106816M165.363731 204.286979C167.391225 204.286979 169.356863 203.956308 171.202136 203.339768 176.975678 201.410908 181.570973 196.686888 183.18822 190.553253"/>
    <path fill="#FFF" d="M338.346831,251.151065 L332.878216,251.151065 C330.051963,251.151065 327.761002,248.860104 327.761002,246.03385 C327.761002,243.207597 330.051963,240.916636 332.878216,240.916636 L338.346831,240.916636 L338.346831,251.151065 Z"/>
    <polygon fill="#3B7CFF" points="337.023 251.151 344.825 251.151 344.825 240.917 337.023 240.917"/>
    <path fill="#3B7CFF" d="M121.871257,205.914324 L114.534298,207.060138 C113.114986,207.281812 111.832423,206.184144 111.832423,204.747445 C111.832423,203.316765 113.104287,202.220768 114.518918,202.432412 L121.871257,203.530749 L121.871257,205.914324 Z"/>
    <path fill="#0633EF" d="M125.23384,211.327905 C121.519555,211.327905 118.508741,208.316756 118.508741,204.602806 C118.508741,200.888186 121.519555,197.877372 125.23384,197.877372 L125.23384,211.327905 Z"/>
    <path fill="#FFF" d="M125.23384,211.576393 L125.23384,211.576393 C126.352238,211.576393 127.258993,210.669638 127.258993,209.550906 L127.258993,199.902592 C127.258993,198.78386 126.352238,197.877105 125.23384,197.877105 L125.23384,211.576393 Z"/>
    <polygon fill="#FFF" points="287.229 174.829 274.529 194.962 274.529 203.992 283.053 203.992 295.295 186.108"/>
    <path fill="#FFF" d="M56.6610649,232.053642 C56.6610649,236.948848 52.6930089,240.91657 47.798137,240.91657 C42.9032652,240.91657 38.9352092,236.948848 38.9352092,232.053642 C38.9352092,227.15877 42.9032652,223.190714 47.798137,223.190714 C52.6930089,223.190714 56.6610649,227.15877 56.6610649,232.053642"/>
    <polygon fill="#FFF" points="31 254.224 36.532 254.224 36.532 246.47 31 246.47"/>
    <text fill="#FFF" font-family="Geograph-Medium, Geograph" font-size="6.729" font-style="italic" font-weight="400" letter-spacing="2.403">
      <tspan x="202.116" y="135.343">TAXI</tspan>
    </text>
    <line x1="64" x2="320" y1="284.5" y2="284.5" stroke="#0C266D" stroke-linecap="round" stroke-linejoin="round" stroke-width=".5"/>
    <path stroke="#0C266D" stroke-linecap="round" stroke-linejoin="round" stroke-width=".5" d="M364.197004,284.148558 C369.376073,282.44672 365.509993,270.933072 329.161557,284.115791 C331.171665,283.173595 342.063758,257.610929 290.998943,284.148558"/>
  </g>
</svg>
