<svg viewBox="0 0 48 48" version="1.1" xmlns="http://www.w3.org/2000/svg" fill="#25316a" xmlns:xlink="http://www.w3.org/1999/xlink"><title data-v-2f176648="">14F6BD19-EACC-4BFC-9830-CD299A2BA97C</title>
    <g data-v-2f176648="" id="screens" stroke="none" stroke-width="1" fill-rule="evenodd">
        <g data-v-2f176648="" id="1-1-1-home" transform="translate(-286.000000, -7106.000000)">
            <rect data-v-2f176648="" x="0" y="0" width="1440" height="8514"></rect>
            <path data-v-2f176648=""
                  d="M1441,6111 L1441,6512 L1440,6512 L1440,8459 L0,8459 L0,6511 L1038,6511 L1038,6411.95322 L1138.74975,6411.95322 L1138.74975,6311.09356 L1239.4995,6311.09356 L1239.4995,6211.04678 L1340.25025,6211.04678 L1340.25025,6111 L1441,6111 Z"
                  id="Combined-Shape"></path>
            <g data-v-2f176648="" id="icon" transform="translate(219.000000, 6752.000000)">
                <g data-v-2f176648="" id="icons-/-social-/-fb-copy" transform="translate(67.000000, 354.000000)" fill="#fff">
                    <path data-v-2f176648=""
                          d="M42,0 C45.3137085,-6.08718376e-16 48,2.6862915 48,6 L48,42 C48,45.3137085 45.3137085,48 42,48 L6,48 C2.6862915,48 4.05812251e-16,45.3137085 0,42 L0,6 C-4.05812251e-16,2.6862915 2.6862915,6.08718376e-16 6,0 L42,0 Z M23.2352809,17.0023271 C22.2061879,17.0034774 21.7152503,17.0083495 21.2836321,17.0212778 L21.2836321,17.0212778 L21.0512088,17.0291547 C20.8963444,17.0349734 20.7378118,17.0419615 20.5525863,17.0503276 C19.7205777,17.0885502 19.2688396,17.2272183 18.9680365,17.3445529 C18.5698101,17.4995767 18.2853627,17.6844675 17.9866929,17.9831373 C17.6880231,18.2818071 17.5027767,18.5662545 17.3481085,18.9644809 C17.2313073,19.265284 17.0922836,19.7168443 17.0542388,20.548853 C17.0457202,20.7362623 17.0386213,20.8962948 17.0327204,21.0528287 L17.0327204,21.0528287 L17.0262001,21.2405183 C17.0142528,21.6186516 17.0086944,22.0316481 17.0064582,22.8096004 L17.0064582,22.8096004 L17.0064582,25.182559 C17.0086944,25.9607458 17.0142528,26.3741844 17.0262001,26.7526115 L17.0262001,26.7526115 L17.0327204,26.9404339 C17.0386213,27.0970656 17.0457202,27.2571599 17.0542388,27.4445692 C17.0921058,28.2765779 17.2313073,28.7281381 17.3481085,29.0285857 C17.5031323,29.4269899 17.6880231,29.7107261 17.9866929,30.0093959 C18.2853627,30.3080657 18.5698101,30.4929565 18.9680365,30.6476248 C19.2690174,30.764426 19.7205777,30.9034497 20.5525863,30.9418501 C20.7399957,30.9503687 20.9000822,30.9574984 21.0567,30.9634482 L21.0567,30.9634482 L21.2445031,30.9700349 C21.7174816,30.9851528 22.2451163,30.9904036 23.4714678,30.9914298 L24.7888586,30.9911337 C26.3595318,30.9887982 26.6656426,30.9774579 27.4490137,30.9418501 C28.2810223,30.9038052 28.7329382,30.7651371 29.0333858,30.6478026 C29.4317899,30.4931343 29.7153484,30.3082435 30.0140182,30.0095737 C30.312688,29.7110817 30.4979343,29.4275232 30.6526026,29.0292969 C30.7694038,28.7288493 30.9084275,28.277289 30.9464724,27.4452803 C30.9539687,27.2803601 30.9603895,27.1365927 30.9658772,26.997732 L30.9734266,26.7910904 C30.989492,26.3080365 30.9949985,25.7855837 30.9960521,24.5271831 L30.9960521,24.5271831 L30.9960521,23.4690836 C30.9950259,22.2433686 30.989775,21.715867 30.9746572,21.2429087 L30.9746572,21.2429087 L30.9680704,21.0551087 C30.9621207,20.8984899 30.954991,20.7383956 30.9464724,20.5509863 C30.9086053,19.7189777 30.7694038,19.2674174 30.6526026,18.9669698 C30.4975788,18.5687434 30.312688,18.284296 30.0140182,17.9856262 C29.7155262,17.6869565 29.4316122,17.5020657 29.0333858,17.3473974 C28.7325826,17.2305962 28.2810223,17.0915725 27.4490137,17.0535276 C26.6992281,17.0194532 26.386731,17.0080951 24.9848605,17.0052556 L24.9848605,17.0052556 L23.7262424,17.0043815 L23.7262424,17.0043815 L23.2352809,17.0044605 Z M24.0006222,19.617821 C26.4207363,19.617821 28.3823567,21.5799748 28.3823567,24.0000889 C28.3823567,26.420203 26.4209141,28.3814678 24.0008,28.3814678 C21.5806859,28.3814678 19.6185322,26.420203 19.6185322,24.0000889 C19.6185322,21.5799748 21.5806859,19.617821 24.0006222,19.617821 Z M24.0008,21.1556148 C22.4297614,21.1556148 21.1563259,22.4290503 21.1563259,24.0000889 C21.1563259,25.5709497 22.4297614,26.844563 24.0008,26.844563 C25.5716608,26.844563 26.8452741,25.5709497 26.8452741,24.0000889 C26.8452741,22.4290503 25.5716608,21.1556148 24.0008,21.1556148 Z M28.5558697,18.4213641 L28.667411,18.4270199 C29.1803266,18.4826388 29.5798803,18.9173693 29.5798803,19.4450192 C29.5798803,20.0103585 29.1212089,20.4690299 28.5558697,20.4690299 C27.9905305,20.4690299 27.531859,20.0103585 27.531859,19.4450192 C27.531859,18.8795022 27.9905305,18.4213641 28.5558697,18.4213641 L28.5558697,18.4213641 Z"
                          id="icons-/-social-/-in"></path>
                </g>
            </g>
        </g>
    </g>
</svg>
