<svg xmlns="http://www.w3.org/2000/svg" viewBox="0 0 24 24">
    <g fill="none" fill-rule="evenodd">
        <g fill="#F60" fill-rule="nonzero">
            <g>
                <g>
                    <g>
                        <g>
                            <path d="M10 0H7C5.35.002 4.012 1.34 4.01 2.99V17H13c1.657 0 3-1.343 3-3V6l-6-6zm0 2.83L13.173 6H10V2.83zM13 15H6.01V2.99c0-.547.443-.99.99-.99h1v6h6v6c0 .552-.448 1-1 1z" transform="translate(-817 -5309) translate(120 5060) translate(677 229) translate(20 20) translate(4 1)"/>
                            <path d="M2.01 18V4H2C.973 4 .113 4.778.01 5.8V18c0 1.657 1.343 3 3 3H10c1.105 0 2-.895 2-2H3.011c-.265 0-.52-.105-.708-.293-.188-.187-.293-.442-.293-.707z" transform="translate(-817 -5309) translate(120 5060) translate(677 229) translate(20 20) translate(4 1)"/>
                        </g>
                    </g>
                </g>
            </g>
        </g>
    </g>
</svg>
