<svg xmlns="http://www.w3.org/2000/svg" viewBox="0 0 24 24">
    <g fill="none" fill-rule="evenodd">
        <g fill="#F60" fill-rule="nonzero">
            <g>
                <g>
                    <g>
                        <g>
                            <path d="M9 0C5.529 0 2.366 1.996.873 5.13c-1.492 3.134-1.05 6.847 1.138 9.542l.018.024.015.018.01.012L8 22h1.992l5.948-7.274.008-.01.015-.018.02-.026c2.187-2.694 2.63-6.406 1.139-9.54C15.63 2 12.47.002 9 0zm5.419 13.43l-.019.024v.006L9 20.06l-5.4-6.6-.023-.03c-2.333-2.853-2.054-7.026.637-9.543 2.691-2.517 6.873-2.517 9.564 0s2.97 6.69.637 9.543h.004zm-2.453-7.3l-1.016.587c-.28-.238-.603-.423-.95-.545V5H8v1.172c-.347.123-.668.31-.948.549l-1.016-.587-1 1.732 1.015.586c-.068.363-.068.737 0 1.1l-1.015.586 1 1.732 1.016-.587c.28.24.601.426.948.549V13h2v-1.172c.347-.123.668-.31.948-.549l1.016.587 1-1.732-1.015-.586c.068-.363.068-.737 0-1.1l1.015-.586-.998-1.732zM9 10c-.552 0-1-.448-1-1s.448-1 1-1 1 .448 1 1-.448 1-1 1z" transform="translate(-817 -5478) translate(120 5060) translate(677 398) translate(20 20) translate(3 1)"/>
                        </g>
                    </g>
                </g>
            </g>
        </g>
    </g>
</svg>
